<?xml version="1.0" encoding="UTF-8"?>
<svg id="_图标" data-name="图标" xmlns="http://www.w3.org/2000/svg" viewBox="0 0 32 32">
  <defs>
    <style>
      .cls-1 {
        fill: #9d25ba;
      }

      .cls-2 {
        fill: #86c4bc;
      }

      .cls-3 {
        fill: #fff;
      }

      .cls-4 {
        fill: #fe8205;
      }

      .cls-5 {
        fill: #31c4ff;
      }

      .cls-6 {
        fill: #57b8ff;
      }

      .cls-7 {
        fill: #d8a3e2;
      }

      .cls-8 {
        fill: #ff636e;
      }

      .cls-9 {
        fill: #0091ff;
      }

      .cls-10 {
        fill: #23af9e;
      }

      .cls-11 {
        fill: #0064b5;
      }

      .cls-12 {
        fill: #9eebff;
      }

      .cls-13 {
        fill: #ffa426;
      }

      .cls-14 {
        fill: #9d87e0;
      }

      .cls-15 {
        fill: #6ed678;
      }

      .cls-16 {
        fill: #f03049;
      }

      .cls-17 {
        fill: #37d346;
      }

      .cls-18 {
        fill: #5f4a9e;
      }
    </style>
  </defs>
  <g>
    <g>
      <path class="cls-6" d="M2.62,25.71h-.12c-.26,0-.48.21-.48.48v3.34c0,.26.21.48.48.48h.12c.26,0,.48-.21.48-.48v-3.34c0-.26-.21-.48-.48-.48h0Z"/>
      <path class="cls-6" d="M5.81,28.93h-3.29c-.27,0-.5.22-.5.5v.08c0,.27.22.5.5.5h3.29c.27,0,.5-.22.5-.5v-.08c0-.27-.22-.5-.5-.5h0Z"/>
    </g>
    <g>
      <path class="cls-6" d="M2.59,2.09h-.12c-.26,0-.48.21-.48.48v3.34c0,.26.21.48.48.48h.12c.26,0,.48-.21.48-.48v-3.34c0-.26-.21-.48-.48-.48h0Z"/>
      <path class="cls-6" d="M5.78,2.09h-3.29c-.27,0-.5.22-.5.5v.08c0,.27.22.5.5.5h3.29c.27,0,.5-.22.5-.5v-.08c0-.27-.22-.5-.5-.5h0Z"/>
    </g>
    <g>
      <path class="cls-6" d="M29.41,2h-.12c-.26,0-.48.21-.48.48v3.34c0,.26.21.48.48.48h.12c.26,0,.48-.21.48-.48v-3.34c0-.26-.21-.48-.48-.48h0Z"/>
      <path class="cls-6" d="M29.39,2h-3.29c-.27,0-.5.22-.5.5v.08c0,.27.22.5.5.5h3.29c.27,0,.5-.22.5-.5v-.08c0-.27-.22-.5-.5-.5h0Z"/>
    </g>
    <g>
      <path class="cls-6" d="M29.52,25.68h-.12c-.26,0-.48.21-.48.48v3.34c0,.26.21.48.48.48h.12c.26,0,.48-.21.48-.48v-3.34c0-.26-.21-.48-.48-.48h0Z"/>
      <path class="cls-6" d="M29.5,28.91h-3.29c-.27,0-.5.22-.5.5v.08c0,.27.22.5.5.5h3.29c.27,0,.5-.22.5-.5v-.08c0-.27-.22-.5-.5-.5h0Z"/>
    </g>
  </g>
  <g>
    <path class="cls-7" d="M23.79,24.43l-3.04-2.54s3.06-4.46,2.59-5.55c1.12-.13,3.84.07,3.84.07,0,0-.13,4.26-3.39,8.01Z"/>
    <path class="cls-1" d="M20.69,21.13l-3.86-4.73-.35-.15,7.01-.33s-1.06,5.53-2.79,5.21Z"/>
    <path class="cls-2" d="M9.54,8l3.08,2.58s-3.07,5.12-2.5,6.11c-1-.03-4.29-.3-4.29-.3,0,0-.05-4.92,3.71-8.39Z"/>
    <path class="cls-10" d="M12.44,11.33l4.09,3.61-.2,1.3-6.19.24s.15-4.59,2.3-5.15Z"/>
  </g>
  <g>
    <g>
      <path class="cls-14" d="M16.48,26.86v-3.96s-4.25-.82-4.69-1.88c-.67.77-2.7,2.7-2.7,2.7,0,0,3.28,3.23,7.39,3.13Z"/>
      <path class="cls-18" d="M16.48,22.43l-.15-5.45.1-.34-4.63,4.4s3.91,2.79,4.68,1.39Z"/>
    </g>
    <g>
      <path class="cls-9" d="M16.53,5.57v3.96s4.25.82,4.68,1.88c.68-.77,2.7-2.7,2.7-2.7,0,0-3.28-3.23-7.38-3.14Z"/>
      <path class="cls-11" d="M16.53,10.01l.14,5.45-.1.34,4.63-4.39s-3.91-2.8-4.68-1.4Z"/>
    </g>
  </g>
  <g>
    <path class="cls-12" d="M16.37,26.9v-3.96s3.83-.5,4.27-1.56c.67.77,2.61,2.99,2.61,2.99,0,0-2.77,2.63-6.87,2.53Z"/>
    <path class="cls-5" d="M16.38,22.47l.15-5.45-.1-.34,4.21,4.71s-3.49,2.48-4.26,1.08Z"/>
    <path class="cls-13" d="M16.42,5.53v4.02s-3.92.82-4.32,1.9c-.62-.79-2.34-3.5-2.34-3.5,0,0,2.89-2.52,6.66-2.41Z"/>
    <path class="cls-4" d="M16.48,10.06l-.16,5.45-.09.57-4.15-4.6s3.63-2.82,4.39-1.42Z"/>
  </g>
  <g>
    <path class="cls-8" d="M8.8,23.9l2.82-2.93s-2.44-3.52-2-4.6c-1.03.11-3.85.15-3.85.15,0,0,.04,4.64,3.03,7.38Z"/>
    <path class="cls-16" d="M11.88,20.7l3.67-4.03.3-.18-6.38-.04s.88,4.73,2.41,4.25Z"/>
    <path class="cls-15" d="M23.66,8.54l-2.89,3.23s2.77,3.68,2.34,4.86c1.1-.15,4.12-.29,4.12-.29,0,0-.25-4.97-3.57-7.8Z"/>
    <path class="cls-17" d="M20.51,11.67l-3.5,4.15-.3.18,6.71.14s-1.35-4.94-2.91-4.47Z"/>
  </g>
  <g>
    <path class="cls-3" d="M16,28c-6.62,0-12-5.38-12-12s5.38-12,12-12,12,5.38,12,12-5.38,12-12,12ZM16,4.63c-6.27,0-11.37,5.1-11.37,11.37s5.1,11.37,11.37,11.37,11.37-5.1,11.37-11.37-5.1-11.37-11.37-11.37Z"/>
    <rect class="cls-3" x="4.21" y="15.82" width="23.65" height=".63"/>
    <rect class="cls-3" x="15.61" y="4.35" width=".63" height="23.51"/>
    <rect class="cls-3" x="4.36" y="15.46" width="23.17" height=".63" transform="translate(-6.48 15.9) rotate(-45)"/>
    <rect class="cls-3" x="15.79" y="4.24" width=".63" height="23.66" transform="translate(-6.56 14.14) rotate(-40.07)"/>
    <path class="cls-3" d="M16,23.58c-4.18,0-7.58-3.4-7.58-7.58s3.4-7.58,7.58-7.58,7.58,3.4,7.58,7.58-3.4,7.58-7.58,7.58ZM16,9.05c-3.83,0-6.95,3.12-6.95,6.95s3.12,6.95,6.95,6.95,6.95-3.12,6.95-6.95-3.12-6.95-6.95-6.95Z"/>
  </g>
</svg>