<svg width="20.000000" height="20.000000" viewBox="0 0 20 20" fill="none" xmlns="http://www.w3.org/2000/svg" xmlns:xlink="http://www.w3.org/1999/xlink">
	<desc>
			Created with Pixso.
	</desc>
	<defs>
		<clipPath id="clip106_24">
			<rect id="checked" width="20.000000" height="20.000000" fill="white" fill-opacity="0"/>
		</clipPath>
	</defs>
	<g clip-path="url(#clip106_24)">
		<path id="path" d="M15.64 5.9C15.69 5.86 15.75 5.82 15.8 5.78C15.86 5.75 15.92 5.72 15.98 5.7C16.05 5.67 16.11 5.65 16.18 5.64C16.25 5.63 16.32 5.62 16.39 5.62C16.45 5.62 16.52 5.62 16.59 5.63C16.66 5.64 16.72 5.66 16.79 5.68C16.85 5.7 16.92 5.73 16.97 5.76C17.03 5.79 17.09 5.83 17.14 5.87C17.19 5.91 17.24 5.96 17.28 6C17.32 6.05 17.35 6.1 17.38 6.16C17.42 6.21 17.44 6.27 17.46 6.33C17.48 6.39 17.49 6.45 17.49 6.51C17.5 6.57 17.5 6.63 17.49 6.69C17.48 6.75 17.47 6.81 17.45 6.87C17.42 6.93 17.4 6.98 17.37 7.04C17.33 7.09 17.29 7.14 17.25 7.19L17.18 7.26L9.46 14.09C9.06 14.44 8.42 14.46 8 14.15L7.92 14.09L4.06 10.67C4.01 10.63 3.97 10.58 3.93 10.53C3.89 10.48 3.86 10.43 3.83 10.37C3.8 10.32 3.78 10.26 3.77 10.2C3.75 10.14 3.75 10.08 3.75 10.02C3.74 9.96 3.75 9.9 3.76 9.84C3.77 9.78 3.79 9.72 3.81 9.66C3.84 9.6 3.87 9.55 3.9 9.5C3.94 9.44 3.98 9.4 4.03 9.35C4.07 9.31 4.12 9.26 4.18 9.23C4.23 9.19 4.29 9.16 4.35 9.13C4.42 9.11 4.48 9.08 4.55 9.07C4.61 9.05 4.68 9.04 4.75 9.04C4.82 9.03 4.89 9.03 4.96 9.04C5.02 9.05 5.09 9.06 5.16 9.08C5.22 9.1 5.29 9.12 5.35 9.15C5.41 9.18 5.46 9.21 5.52 9.25L5.59 9.31L8.69 12.05L15.64 5.9Z" fill="#383838" fill-opacity="1.000000" fill-rule="nonzero"/>
	</g>
</svg>
