<svg width="32.000000" height="32.000000" viewBox="0 0 32 32" fill="none" xmlns="http://www.w3.org/2000/svg" xmlns:xlink="http://www.w3.org/1999/xlink">
	<desc>
			Created with Pixso.
	</desc>
	<defs>
		<clipPath id="clip69_4">
			<rect id="explode" width="32.000000" height="32.000000" fill="white" fill-opacity="0"/>
		</clipPath>
		<linearGradient x1="16.000000" y1="2.000000" x2="16.000000" y2="16.000000" id="paint_linear_69_3_0" gradientUnits="userSpaceOnUse">
			<stop stop-color="#FAE693"/>
			<stop offset="1.000000" stop-color="#966D2C"/>
		</linearGradient>
		<linearGradient x1="23.500000" y1="16.000000" x2="23.500000" y2="30.000000" id="paint_linear_69_6_0" gradientUnits="userSpaceOnUse">
			<stop stop-color="#FAE693"/>
			<stop offset="1.000000" stop-color="#966D2C"/>
		</linearGradient>
		<linearGradient x1="8.500000" y1="16.000000" x2="8.500000" y2="30.000000" id="paint_linear_69_5_0" gradientUnits="userSpaceOnUse">
			<stop stop-color="#FAE693"/>
			<stop offset="1.000000" stop-color="#966D2C"/>
		</linearGradient>
	</defs>
	<g clip-path="url(#clip69_4)">
		<path id="path" d="M22.5 12.04C22.5 12.56 22.23 13.04 21.82 13.27C21.82 13.27 18.51 15.13 17.06 15.94C16.76 16.11 16.4 15.86 16.4 15.48L16.4 8.43C16.4 8.14 16.56 7.88 16.8 7.78L22.09 5.66C22.28 5.58 22.49 5.74 22.49 5.98C22.5 7.5 22.5 12.04 22.5 12.04ZM15.59 8.43L15.59 15.44C15.59 15.83 15.22 16.08 14.92 15.9L10.14 13.01C9.74 12.76 9.5 12.3 9.5 11.8C9.5 11.8 9.5 7.44 9.5 5.96C9.5 5.72 9.71 5.56 9.91 5.64L15.19 7.78C15.43 7.88 15.59 8.14 15.59 8.43ZM21.92 4.75L16.41 6.97C16.14 7.08 15.85 7.08 15.58 6.97L10.1 4.74C9.98 4.69 9.96 4.51 10.07 4.44C10.14 4.39 10.21 4.35 10.29 4.31L15.57 2.08C15.71 2.02 15.85 2 16 2C16.14 2 16.28 2.02 16.42 2.08L21.7 4.3C21.79 4.34 21.88 4.39 21.96 4.45C22.06 4.53 22.04 4.7 21.92 4.75Z" fill="url(#paint_linear_69_3_0)" fill-opacity="1.000000" fill-rule="nonzero"/>
		<path id="path" d="M30 26.04C30 26.56 29.73 27.04 29.32 27.27C29.32 27.27 26.01 29.13 24.56 29.94C24.26 30.11 23.9 29.86 23.9 29.48L23.9 22.43C23.9 22.14 24.06 21.88 24.3 21.78L29.59 19.66C29.78 19.58 29.99 19.74 29.99 19.98C30 21.5 30 26.04 30 26.04ZM23.09 22.43L23.09 29.44C23.09 29.83 22.72 30.08 22.42 29.9L17.64 27.01C17.24 26.76 17 26.3 17 25.8C17 25.8 17 21.44 17 19.96C17 19.72 17.21 19.56 17.41 19.64L22.69 21.78C22.93 21.88 23.09 22.14 23.09 22.43ZM29.42 18.75L23.91 20.97C23.64 21.08 23.35 21.08 23.08 20.97L17.6 18.74C17.48 18.69 17.46 18.51 17.57 18.44C17.64 18.39 17.71 18.35 17.79 18.31L23.07 16.08C23.21 16.02 23.35 16 23.5 16C23.64 16 23.78 16.02 23.92 16.08L29.2 18.3C29.29 18.34 29.38 18.39 29.46 18.45C29.56 18.53 29.54 18.7 29.42 18.75Z" fill="url(#paint_linear_69_6_0)" fill-opacity="1.000000" fill-rule="nonzero"/>
		<path id="path" d="M15 26.04C15 26.56 14.73 27.04 14.32 27.27C14.32 27.27 11.01 29.13 9.56 29.94C9.26 30.11 8.9 29.86 8.9 29.48L8.9 22.43C8.9 22.14 9.06 21.88 9.3 21.78L14.59 19.66C14.78 19.58 14.99 19.74 14.99 19.98C15 21.5 15 26.04 15 26.04ZM8.09 22.43L8.09 29.44C8.09 29.83 7.72 30.08 7.42 29.9L2.64 27.01C2.24 26.76 2 26.3 2 25.8C2 25.8 2 21.44 2 19.96C2 19.72 2.21 19.56 2.41 19.64L7.69 21.78C7.93 21.88 8.09 22.14 8.09 22.43ZM14.42 18.75L8.91 20.97C8.64 21.08 8.35 21.08 8.08 20.97L2.6 18.74C2.48 18.69 2.46 18.51 2.57 18.44C2.64 18.39 2.71 18.35 2.79 18.31L8.07 16.08C8.21 16.02 8.35 16 8.5 16C8.64 16 8.78 16.02 8.92 16.08L14.2 18.3C14.29 18.34 14.38 18.39 14.46 18.45C14.56 18.53 14.54 18.7 14.42 18.75Z" fill="url(#paint_linear_69_5_0)" fill-opacity="1.000000" fill-rule="nonzero"/>
	</g>
</svg>
