<svg width="32.000000" height="32.000000" viewBox="0 0 32 32" fill="none" xmlns="http://www.w3.org/2000/svg" xmlns:xlink="http://www.w3.org/1999/xlink">
	<desc>
			Created with Pixso.
	</desc>
	<defs>
		<clipPath id="clip68_1">
			<rect id="fitall" width="32.000000" height="32.000000" fill="white" fill-opacity="0"/>
		</clipPath>
	</defs>
	<g clip-path="url(#clip68_1)">
		<path id="path" d="M2.92 1.95C2.4 1.95 1.98 2.37 1.98 2.89L1.98 29.01C1.98 29.53 2.4 29.95 2.92 29.95L29.04 29.95C29.56 29.95 29.98 29.53 29.98 29.01L29.98 2.89C29.98 2.37 29.56 1.95 29.04 1.95L2.92 1.95ZM28.01 26.89C28.01 27.4 27.59 27.82 27.07 27.82L5.14 27.82C4.62 27.82 4.2 27.4 4.2 26.89L4.2 4.95C4.2 4.43 4.62 4.01 5.14 4.01L27.07 4.01C27.59 4.01 28.01 4.43 28.01 4.95L28.01 26.89ZM7.98 8.89C7.98 8.37 8.4 7.95 8.92 7.95L10.82 7.95C11.34 7.95 11.76 7.53 11.76 7.01L11.76 6.82C11.76 6.31 11.34 5.89 10.82 5.89L6.85 5.89C6.34 5.89 5.92 6.31 5.92 6.82L5.92 10.79C5.92 11.31 6.34 11.73 6.85 11.73L7.04 11.73C7.56 11.73 7.98 11.31 7.98 10.79L7.98 8.89ZM8.1 20.85C8.1 20.34 7.68 19.92 7.17 19.92L6.98 19.92C6.46 19.92 6.04 20.34 6.04 20.85L6.04 24.82C6.04 25.34 6.46 25.76 6.98 25.76L10.95 25.76C11.46 25.76 11.89 25.34 11.89 24.82L11.89 24.64C11.89 24.12 11.46 23.7 10.95 23.7L9.04 23.7C8.53 23.7 8.1 23.28 8.1 22.76L8.1 20.85ZM22.87 8.23C23.38 8.22 23.81 8.63 23.82 9.15L23.87 11.05C23.88 11.57 24.31 11.98 24.82 11.97L25.01 11.97C25.53 11.96 25.94 11.52 25.93 11.01L25.89 9.1L25.85 7.23L25.84 7.04C25.83 6.53 25.4 6.11 24.88 6.12L24.7 6.13L22.82 6.17L20.92 6.21C20.4 6.22 19.99 6.65 20 7.17L20 7.36C20.01 7.87 20.45 8.28 20.96 8.27L22.87 8.23ZM23.89 23.17C23.89 23.68 23.46 24.1 22.95 24.1L21.04 24.1C20.53 24.1 20.1 24.53 20.1 25.04L20.1 25.23C20.1 25.75 20.53 26.17 21.04 26.17L25.01 26.17C25.53 26.17 25.95 25.75 25.95 25.23L25.95 25.04L25.95 21.26C25.95 20.75 25.53 20.32 25.01 20.32L24.82 20.32C24.31 20.32 23.89 20.75 23.89 21.26L23.89 23.17Z" fill="#383838" fill-opacity="1.000000" fill-rule="nonzero"/>
	</g>
</svg>
