<?xml version="1.0" encoding="UTF-8"?>
<svg id="_图标" data-name="图标" xmlns="http://www.w3.org/2000/svg" viewBox="0 0 32 32">
  <defs>
    <style>
      .cls-1 {
        fill: #57b8ff;
      }
    </style>
  </defs>
  <path class="cls-1" d="M28.5,29.75H3.5c-.69,0-1.25-.56-1.25-1.25V3.5c0-.69.56-1.25,1.25-1.25h25c.69,0,1.25.56,1.25,1.25v25c0,.69-.56,1.25-1.25,1.25ZM3.75,28.25h24.5V3.75H3.75v24.5Z"/>
  <path class="cls-1" d="M24,14.75c-.41,0-.75-.34-.75-.75v-5.25h-5.74c-.41,0-.75-.34-.75-.75s.34-.75.75-.75h6.49c.41,0,.75.34.75.75v6c0,.41-.34.75-.75.75Z"/>
  <path class="cls-1" d="M14.49,24.75h-6.49c-.41,0-.75-.34-.75-.75v-6c0-.41.34-.75.75-.75s.75.34.75.75v5.25h5.74c.41,0,.75.34.75.75s-.34.75-.75.75Z"/>
</svg>