<svg viewBox="0 0 32 32" xmlns="http://www.w3.org/2000/svg" xmlns:xlink="http://www.w3.org/1999/xlink" width="32" height="32" fill="none">
	<defs>
		<linearGradient id="paint_linear_2" x1="12.999999" x2="12.999999" y1="0" y2="13.4999981" gradientUnits="userSpaceOnUse">
			<stop stop-color="rgb(250,230,147)" offset="0" stop-opacity="1" />
			<stop stop-color="rgb(150,109,44)" offset="1" stop-opacity="1" />
		</linearGradient>
	</defs>
	<rect id="measureLength" width="32" height="32" x="0" y="0" />
	<path id="合并" d="M26 2C26 0.89543 25.1046 0 24 0L2 0C0.89543 0 0 0.89543 0 2L0 8C0 9.10457 0.89543 10 2 10L5.5 10L6.5 10L10.5 10L11.5 10L15.5 10L24 10C25.1046 10 26 9.10457 26 8L26 2ZM21.5 5L21.5 9L24 9C24.0823 9 24.1623 8.99046 24.24 8.97137L24.2408 8.97116L24.2409 8.97115C24.2912 8.95872 24.3406 8.94228 24.3889 8.92182C24.4413 8.89967 24.4911 8.87348 24.5383 8.84325L24.5387 8.84301C24.5991 8.80431 24.6552 8.75901 24.7071 8.70711C24.7591 8.65509 24.8045 8.59883 24.8432 8.53832C24.8735 8.49111 24.8997 8.44132 24.9218 8.38894C24.9418 8.34167 24.958 8.29344 24.9703 8.24424L24.9707 8.2428L24.9712 8.24076L24.9712 8.24064L24.9714 8.23993C24.9905 8.1623 25 8.08232 25 8L25 2C25 1.91756 24.9904 1.83748 24.9713 1.75975L24.9712 1.75925C24.9587 1.70886 24.9423 1.65947 24.9218 1.61106C24.8997 1.55869 24.8735 1.50889 24.8433 1.46169C24.8045 1.40117 24.7591 1.34491 24.7071 1.29289C24.6551 1.24089 24.5988 1.19551 24.5383 1.15677L24.5383 1.15673C24.4911 1.12651 24.4413 1.10032 24.3889 1.07817C24.3405 1.0577 24.2912 1.04125 24.2408 1.02882L24.2399 1.02862C24.1623 1.00954 24.0823 1 24 1L2 1C1.91739 1 1.83715 1.0096 1.75927 1.02881L1.75923 1.02882L1.75922 1.02883L1.75922 1.02883L1.75921 1.02883C1.70884 1.04126 1.65945 1.05771 1.61106 1.07817C1.55866 1.10034 1.50885 1.12654 1.46163 1.15678C1.40114 1.19552 1.34489 1.24089 1.29289 1.29289C1.24089 1.34489 1.19553 1.40114 1.15679 1.46163C1.12654 1.50885 1.10034 1.55866 1.07817 1.61106C1.05771 1.65945 1.04126 1.70884 1.02883 1.75921C1.00961 1.8371 1 1.91737 1 2L1 8C1 8.08263 1.00961 8.16289 1.02883 8.24078L1.0291 8.24187L1.02914 8.24203L1.02916 8.24213C1.04155 8.29205 1.05789 8.34098 1.07817 8.38894C1.10032 8.4413 1.1265 8.49107 1.15672 8.53827L1.15679 8.53838L1.15691 8.53857L1.15721 8.53904L1.15727 8.53913C1.19591 8.59933 1.24112 8.65533 1.29289 8.70711C1.34486 8.75907 1.40106 8.80441 1.46151 8.84314L1.46162 8.84321C1.50885 8.87346 1.55866 8.89966 1.61106 8.92182C1.65937 8.94226 1.70866 8.95868 1.75895 8.97111L1.75923 8.97118C1.83712 8.99039 1.91737 9 2 9L5.5 9L5.5 6L6.5 6L6.5 9L10.5 9L10.5 5L11.5 5L11.5 9L15.5 9L15.5 6L16.5 6L16.5 9L20.5 9L20.5 5L21.5 5ZM1 12.5L25 12.5C25.28 12.5 25.5 12.72 25.5 13C25.5 13.28 25.28 13.5 25 13.5L1 13.5C0.720001 13.5 0.500001 13.28 0.500001 13C0.500001 12.72 0.720001 12.5 1 12.5Z" fill="url(#paint_linear_2)" fill-rule="evenodd" transform="matrix(0.707107,-0.707107,0.707107,0.707107,2.03455,20.1694)" />
</svg>
