<?xml version="1.0" encoding="UTF-8"?>
<svg id="_图标" data-name="图标" xmlns="http://www.w3.org/2000/svg" viewBox="0 0 32 32">
  <defs>
    <style>
      .cls-1 {
        fill: #ba9600;
      }
    </style>
  </defs>
  <g>
    <path class="cls-1" d="M28.95,18.6H3c-.41,0-.75-.34-.75-.75s.34-.75.75-.75h25.95c.41,0,.75.34.75.75s-.34.75-.75.75Z"/>
    <path class="cls-1" d="M28.95,26.38H3c-.41,0-.75-.34-.75-.75s.34-.75.75-.75h25.95c.41,0,.75.34.75.75s-.34.75-.75.75Z"/>
    <path class="cls-1" d="M24.83,23.48c-.41,0-.75-.34-.75-.75v-4.55c0-.41.34-.75.75-.75s.75.34.75.75v4.55c0,.41-.34.75-.75.75Z"/>
    <path class="cls-1" d="M19.51,21.35c-.41,0-.75-.34-.75-.75v-2.13c0-.41.34-.75.75-.75s.75.34.75.75v2.13c0,.41-.34.75-.75.75Z"/>
    <path class="cls-1" d="M29,26.38c-.41,0-.75-.34-.75-.75v-7.16c0-.41.34-.75.75-.75s.75.34.75.75v7.16c0,.41-.34.75-.75.75Z"/>
    <path class="cls-1" d="M3,26.38c-.41,0-.75-.34-.75-.75v-7.64c0-.41.34-.75.75-.75s.75.34.75.75v7.64c0,.41-.34.75-.75.75Z"/>
    <path class="cls-1" d="M14.19,23.03c-.41,0-.75-.34-.75-.75v-3.51c0-.41.34-.75.75-.75s.75.34.75.75v3.51c0,.41-.34.75-.75.75Z"/>
    <path class="cls-1" d="M8.6,23.31c-.41,0-.75-.34-.75-.75v-4.08c0-.41.34-.75.75-.75s.75.34.75.75v4.08c0,.41-.34.75-.75.75Z"/>
  </g>
  <path class="cls-1" d="M27.97,9.12H3.97c-.41,0-.75-.34-.75-.75s.34-.75.75-.75h24c.41,0,.75.34.75.75s-.34.75-.75.75Z"/>
  <path class="cls-1" d="M3.97,11.12c-.41,0-.75-.34-.75-.75v-4c0-.41.34-.75.75-.75s.75.34.75.75v4c0,.41-.34.75-.75.75Z"/>
  <path class="cls-1" d="M27.97,11.12c-.41,0-.75-.34-.75-.75v-4c0-.41.34-.75.75-.75s.75.34.75.75v4c0,.41-.34.75-.75.75Z"/>
</svg>