<?xml version="1.0" encoding="UTF-8"?>
<svg id="_图标" data-name="图标" xmlns="http://www.w3.org/2000/svg" viewBox="0 0 32 32">
  <defs>
    <style>
      .cls-1 {
        fill: #ba9600;
      }
    </style>
  </defs>
  <path class="cls-1" d="M7.17,30.15c-.44,0-.8-.5-.8-1.11V2.97c0-.62.36-1.11.8-1.11s.8.5.8,1.11v26.07c0,.62-.36,1.11-.8,1.11Z"/>
  <path class="cls-1" d="M30.06,26.05H1.94c-.52,0-.94-.36-.94-.8s.42-.8.94-.8h28.12c.52,0,.94.36.94.8s-.42.8-.94.8Z"/>
  <circle class="cls-1" cx="20.83" cy="12.04" r="2.5"/>
  <g>
    <path class="cls-1" d="M8.37,12.79h-1.2c-.41,0-.75-.34-.75-.75s.34-.75.75-.75h1.2c.41,0,.75.34.75.75s-.34.75-.75.75Z"/>
    <path class="cls-1" d="M12.75,12.79h-1.75c-.41,0-.75-.34-.75-.75s.34-.75.75-.75h1.75c.41,0,.75.34.75.75s-.34.75-.75.75Z"/>
    <path class="cls-1" d="M16.57,12.79h-1.2c-.41,0-.75-.34-.75-.75s.34-.75.75-.75h1.2c.41,0,.75.34.75.75s-.34.75-.75.75Z"/>
  </g>
  <g>
    <path class="cls-1" d="M20.83,18.29c-.41,0-.75-.34-.75-.75v-1.2c0-.41.34-.75.75-.75s.75.34.75.75v1.2c0,.41-.34.75-.75.75Z"/>
    <path class="cls-1" d="M20.83,22.36c-.41,0-.75-.34-.75-.75v-1.63c0-.41.34-.75.75-.75s.75.34.75.75v1.63c0,.41-.34.75-.75.75Z"/>
    <path class="cls-1" d="M20.83,26c-.41,0-.75-.34-.75-.75v-1.2c0-.41.34-.75.75-.75s.75.34.75.75v1.2c0,.41-.34.75-.75.75Z"/>
  </g>
</svg>