<?xml version="1.0" encoding="UTF-8"?>
<svg id="_图标" data-name="图标" xmlns="http://www.w3.org/2000/svg" viewBox="0 0 32 32">
  <defs>
    <style>
      .cls-1 {
        fill: #ba9600;
      }
    </style>
  </defs>
  <path class="cls-1" d="M29.33,24.76c-.41,0-.75-.34-.75-.75V4.78c0-.41.34-.75.75-.75s.75.34.75.75v19.23c0,.41-.34.75-.75.75Z"/>
  <g>
    <path class="cls-1" d="M4.17,8.28l10.17,1.22v18.29l-10.17-1.49V8.28M3.37,6.67c-.39,0-.71.4-.71.91v19.18c0,.46.27.86.63.91l11.75,1.72s.05,0,.08,0c.39,0,.71-.4.71-.91V8.99c0-.47-.28-.87-.64-.91l-11.75-1.41s-.04,0-.07,0h0Z"/>
    <path class="cls-1" d="M15.35,29.43c-.32,0-.61-.2-.71-.52-.13-.39.09-.82.49-.94l13.98-4.43c.4-.13.82.09.94.49.13.39-.09.82-.49.94l-13.98,4.43c-.08.02-.15.04-.23.04Z"/>
    <path class="cls-1" d="M15.4,9.59c-.32,0-.62-.21-.72-.54-.12-.4.11-.81.51-.93l13.64-3.99c.4-.12.81.11.93.51.12.4-.11.81-.51.93l-13.64,3.99c-.07.02-.14.03-.21.03Z"/>
    <path class="cls-1" d="M3.67,8.08c-.33,0-.63-.22-.72-.56-.11-.4.13-.81.53-.92l12.11-3.23c.4-.11.81.13.92.53.11.4-.13.81-.53.92l-12.11,3.23c-.06.02-.13.03-.19.03Z"/>
    <path class="cls-1" d="M29.33,5.53s-.03,0-.04,0l-13.55-.69c-.41-.02-.73-.37-.71-.79.02-.41.37-.75.79-.71l13.55.69c.41.02.73.37.71.79-.02.4-.35.71-.75.71Z"/>
  </g>
  <rect class="cls-1" x="1.89" y="11.96" width="10.98" height="1" transform="translate(-6.66 8.92) rotate(-45.2)"/>
  <rect class="cls-1" x=".37" y="17.52" width="17.34" height="1" transform="translate(-10.1 11.67) rotate(-45)"/>
  <rect class="cls-1" x="4.85" y="22.67" width="11.8" height="1" transform="translate(-13.24 14.38) rotate(-45)"/>
  <rect class="cls-1" x="12.69" y="10.76" width="15.56" height="1" transform="translate(-1.96 17.77) rotate(-45)"/>
  <rect class="cls-1" x="12.07" y="15.88" width="20.22" height="1" transform="translate(-5.08 20.48) rotate(-45)"/>
  <rect class="cls-1" x="15.46" y="21.44" width="16.81" height="1" transform="translate(-8.53 23.3) rotate(-45)"/>
</svg>