<svg viewBox="0 0 32 32" xmlns="http://www.w3.org/2000/svg" xmlns:xlink="http://www.w3.org/1999/xlink" width="32" height="32" fill="none">
	<defs>
		<linearGradient id="paint_linear_7" x1="16" x2="16" y1="2" y2="30" gradientUnits="userSpaceOnUse">
			<stop stop-color="rgb(250,230,147)" offset="0" stop-opacity="1" />
			<stop stop-color="rgb(150,109,44)" offset="1" stop-opacity="1" />
		</linearGradient>
	</defs>
	<rect id="measureDiameter" width="32" height="32" x="0" y="0" />
	<path id="合并" d="M30 16C30 8.26801 23.732 2 16 2C8.26801 2 2 8.26801 2 16C2 23.732 8.26801 30 16 30C23.732 30 30 23.732 30 16ZM13.1207 3.31771C14.0565 3.1059 15.0163 3 16 3C16.9837 3 17.9434 3.10589 18.8792 3.31768L18.8792 3.31769L18.8793 3.3177L18.8793 3.31771C19.6212 3.48564 20.3481 3.72013 21.0599 4.02119C21.7857 4.32818 22.4728 4.69419 23.1212 5.11923L23.1212 5.11928L23.1213 5.11931L23.1215 5.11945C23.8623 5.60512 24.5526 6.16783 25.1924 6.80761C25.8319 7.4471 26.3944 8.13708 26.8799 8.87753L26.8806 8.87852C27.3057 9.52701 27.6718 10.2142 27.9788 10.9401C28.2799 11.652 28.5144 12.3789 28.6823 13.1209C28.8941 14.0566 29 15.0163 29 16C29 16.9834 28.8942 17.9429 28.6825 18.8784L28.6824 18.879L28.6823 18.8791L28.6823 18.8791C28.5144 19.6211 28.2799 20.348 27.9788 21.0599C27.6718 21.7857 27.3058 22.4728 26.8808 23.1212C26.3951 23.8621 25.8323 24.5525 25.1924 25.1924C24.5525 25.8322 23.8622 26.395 23.1212 26.8807L23.12 26.8816C22.4719 27.3063 21.7852 27.672 21.0599 27.9788C20.348 28.2799 19.6211 28.5144 18.8791 28.6823C17.9433 28.8941 16.9837 29 16 29C15.0163 29 14.0566 28.8941 13.1209 28.6823L13.1209 28.6823L13.12 28.6821C12.3783 28.5142 11.6517 28.2798 10.9401 27.9788C10.2142 27.6718 9.527 27.3057 8.87851 26.8806L8.87847 26.8805L8.87844 26.8805C8.13765 26.3949 7.44737 25.8321 6.80761 25.1924C6.16778 24.5526 5.60502 23.8622 5.11933 23.1213L5.11928 23.1212C4.69422 22.4728 4.32819 21.7857 4.02119 21.0599C3.72023 20.3483 3.48578 19.6217 3.31787 18.88L3.3177 18.8792L3.31747 18.8783C3.10582 17.9428 3 16.9834 3 16C3 15.0163 3.1059 14.0565 3.31771 13.1207L3.31772 13.1207L3.31772 13.1206C3.48565 12.3787 3.72014 11.6519 4.02119 10.9401C4.32824 10.2142 4.69435 9.52694 5.1195 8.87843L5.11951 8.87841L5.11952 8.8784C5.60517 8.13762 6.16786 7.44736 6.80761 6.80761C7.44737 6.16785 8.13765 5.60514 8.87845 5.11949L8.87846 5.11948C9.52697 4.69433 10.2142 4.32824 10.9401 4.02119C11.6519 3.72013 12.3788 3.48563 13.1207 3.31771ZM23.7929 8.5L21 8.5C20.72 8.5 20.5 8.28 20.5 8C20.5 7.72 20.72 7.5 21 7.5L25 7.5C25.28 7.5 25.5 7.72 25.5 8L25.5 12C25.5 12.28 25.28 12.5 25 12.5C24.72 12.5 24.5 12.28 24.5 12L24.5 9.20711L9.20711 24.5L12 24.5C12.28 24.5 12.5 24.72 12.5 25C12.5 25.28 12.28 25.5 12 25.5L8 25.5C7.72 25.5 7.5 25.28 7.5 25L7.5 21C7.5 20.72 7.72 20.5 8 20.5C8.28 20.5 8.5 20.72 8.5 21L8.5 23.7929L23.7929 8.5Z" fill="url(#paint_linear_7)" fill-rule="evenodd" />
</svg>
