<?xml version="1.0" encoding="UTF-8"?>
<svg id="_图标" data-name="图标" xmlns="http://www.w3.org/2000/svg" viewBox="0 0 32 32">
  <defs>
    <style>
      .cls-1 {
        fill: #ba9600;
      }
    </style>
  </defs>
  <path class="cls-1" d="M16,30.75c-8.13,0-14.75-6.62-14.75-14.75S7.87,1.25,16,1.25s14.75,6.62,14.75,14.75-6.62,14.75-14.75,14.75ZM16,2.75c-7.31,0-13.25,5.94-13.25,13.25s5.94,13.25,13.25,13.25,13.25-5.94,13.25-13.25S23.31,2.75,16,2.75Z"/>
  <g>
    <path class="cls-1" d="M6.32,26.43c-.19,0-.38-.07-.53-.22-.29-.29-.29-.77,0-1.06L22.32,8.62c.29-.29.77-.29,1.06,0s.29.77,0,1.06L6.85,26.21c-.15.15-.34.22-.53.22Z"/>
    <polygon class="cls-1" points="20.12 7.65 25.9 6.1 24.35 11.88 20.12 7.65"/>
  </g>
</svg>