<?xml version="1.0" encoding="UTF-8"?>
<svg id="_图标" data-name="图标" xmlns="http://www.w3.org/2000/svg" viewBox="0 0 32 32">
  <defs>
    <style>
      .cls-1 {
        fill: #ba9600;
      }
    </style>
  </defs>
  <path class="cls-1" d="M16.04,28.72c-6.91,0-12.54-5.62-12.54-12.54S9.12,3.65,16.04,3.65s12.54,5.62,12.54,12.54-5.62,12.54-12.54,12.54ZM16.04,5.15c-6.08,0-11.04,4.95-11.04,11.04s4.95,11.04,11.04,11.04,11.04-4.95,11.04-11.04-4.95-11.04-11.04-11.04Z"/>
  <circle class="cls-1" cx="16.04" cy="16.18" r="2.36"/>
  <path class="cls-1" d="M9.25,16.75H1.25c-.41,0-.75-.34-.75-.75s.34-.75.75-.75h8c.41,0,.75.34.75.75s-.34.75-.75.75Z"/>
  <path class="cls-1" d="M30.75,16.53h-8c-.41,0-.75-.34-.75-.75s.34-.75.75-.75h8c.41,0,.75.34.75.75s-.34.75-.75.75Z"/>
  <path class="cls-1" d="M16.04,31.28c-.41,0-.75-.34-.75-.75v-8c0-.41.34-.75.75-.75s.75.34.75.75v8c0,.41-.34.75-.75.75Z"/>
  <path class="cls-1" d="M16.04,10.22c-.41,0-.75-.34-.75-.75V1.47c0-.41.34-.75.75-.75s.75.34.75.75v8c0,.41-.34.75-.75.75Z"/>
</svg>