<?xml version="1.0" encoding="UTF-8"?>
<svg id="_图标" data-name="图标" xmlns="http://www.w3.org/2000/svg" viewBox="0 0 32 32">
  <defs>
    <style>
      .cls-1 {
        fill: #ba9600;
      }
    </style>
  </defs>
  <path class="cls-1" d="M3.81,27.7c-.14.19-.34.3-.56.3-.44,0-.79-.46-.79-1.04V5.9c0-.57.35-1.04.79-1.04s.79.46.79,1.04v21.06c0,.29-.09.55-.23.73Z"/>
  <path class="cls-1" d="M29.3,27.01c-.14.19-.34.3-.56.3-.44,0-.79-.46-.79-1.04V5.04c0-.57.35-1.04.79-1.04s.79.46.79,1.04v21.24c0,.29-.09.55-.23.73Z"/>
  <g>
    <path class="cls-1" d="M24.27,23.08H7.8c-.41,0-.75-.34-.75-.75s.34-.75.75-.75h16.48c.41,0,.75.34.75.75s-.34.75-.75.75Z"/>
    <polygon class="cls-1" points="8.22 19.14 8.22 25.52 5.03 22.33 8.22 19.14"/>
    <polygon class="cls-1" points="23.85 19.14 23.85 25.52 27.03 22.33 23.85 19.14"/>
  </g>
  <g>
    <rect class="cls-1" x="15.69" y="9.88" width="1.15" height="6.45"/>
    <rect class="cls-1" x="15.69" y="6.54" width="1.15" height="1.5"/>
    <path class="cls-1" d="M24.52,10.34c-.11-.12-.24-.22-.39-.3,0,0,0-.01,0-.02-1.82-1.04-3.12.15-3.57.66v-.8h-1.15v6.45h1.15v-2.93c0-.77.22-1.41.66-1.93s.91-.78,1.41-.78c.38,0,.69.13.92.4s.35.63.35,1.09v4.14h1.15v-4.55c0-.58-.17-1.06-.52-1.44Z"/>
    <path class="cls-1" d="M13.75,10.45l-.06.07c-.06-.14-.12-.27-.22-.38-.14-.16-.35-.25-.59-.3-.94-.49-1.77.26-2.02.54-.1-.12-.21-.21-.31-.3-.02-.01-.02-.03-.04-.05-.03-.02-.06-.03-.09-.05-.96-.67-1.85-.08-2.24.26v-.36h-1.15v6.45h1.15v-3.91c0-.46.12-.83.35-1.12s.48-.43.75-.43c.23,0,.38.08.46.23s.12.35.12.58v4.66h1.15v-3.91c0-.46.12-.83.35-1.12s.48-.43.75-.43c.23,0,.38.08.46.23s.12.35.12.58v4.66h1.15v-5.12s0-.04,0-.07c.03-.4-.06-.69-.06-.69Z"/>
  </g>
</svg>