<svg viewBox="0 0 32 32" xmlns="http://www.w3.org/2000/svg" xmlns:xlink="http://www.w3.org/1999/xlink" width="32" height="32" fill="none">
	<defs>
		<linearGradient id="paint_linear_3" x1="16.5029736" x2="16.5029736" y1="8.50204468" y2="24.5061264" gradientUnits="userSpaceOnUse">
			<stop stop-color="rgb(250,230,147)" offset="0" stop-opacity="1" />
			<stop stop-color="rgb(150,109,44)" offset="1" stop-opacity="1" />
		</linearGradient>
	</defs>
	<rect id="measureAngle" width="32" height="32" x="0" y="0" />
	<path id="合并" d="M13.9943 16.2611L6.26839 23.5041L16.504 23.5041L16.504 22.7033C16.504 22.1364 16.4548 21.5783 16.3565 21.0289C16.2581 20.4796 16.1106 19.9391 15.9139 19.4073C15.7172 18.8756 15.4774 18.3692 15.1946 17.8881C14.9118 17.407 14.5859 16.9513 14.2169 16.5208L13.9943 16.2611ZM14.7245 15.5764L21.346 9.36885C21.5502 9.17735 21.5603 8.86638 21.3688 8.66211C21.1773 8.45784 20.8663 8.44781 20.662 8.63932L4.69439 23.609C4.62897 23.6599 4.57701 23.7271 4.544 23.8048C4.4902 23.9266 4.48786 24.0646 4.53796 24.1884C4.58612 24.313 4.68215 24.412 4.80459 24.464C4.88188 24.4982 4.96574 24.5116 5.04837 24.5041L28.004 24.5041C28.284 24.5041 28.504 24.2841 28.504 24.0041C28.504 23.7241 28.284 23.5041 28.004 23.5041L17.504 23.5041L17.504 22.7033C17.504 22.0767 17.4496 21.4599 17.341 20.8527C17.2323 20.2456 17.0692 19.6481 16.8518 19.0604C16.6344 18.4727 16.3694 17.913 16.0568 17.3813C15.7442 16.8495 15.384 16.3458 14.9762 15.87L14.7245 15.5764Z" fill="url(#paint_linear_3)" fill-rule="evenodd" />
</svg>
