<?xml version="1.0" encoding="UTF-8"?>
<svg id="_图标" data-name="图标" xmlns="http://www.w3.org/2000/svg" viewBox="0 0 32 32">
  <defs>
    <style>
      .cls-1 {
        fill: #ba9600;
      }
    </style>
  </defs>
  <path class="cls-1" d="M9.49,12.81l2.16,2.95.28-1.84c6.67,1.54,8.01,6.29,8.15,9.28l-1.86-.12,2.42,2.75,2.75-2.42-1.88-.12c-.12-3.42-1.57-9.04-9.36-10.78l.29-1.87-2.95,2.17Z"/>
  <path class="cls-1" d="M30.06,27.04H2.86L10.27,4.63c.18-.55-.01-1.1-.44-1.24s-.91.19-1.09.74L1.09,27.29c-.05.15-.07.3-.06.44,0,.04-.03.07-.03.11,0,.44.42.8.94.8h28.12c.52,0,.94-.36.94-.8s-.42-.8-.94-.8Z"/>
</svg>