<svg viewBox="0 0 32 32" xmlns="http://www.w3.org/2000/svg" xmlns:xlink="http://www.w3.org/1999/xlink" width="32" height="32" fill="none">
	<defs>
		<linearGradient id="paint_linear_6" x1="16.4999905" x2="16.4999905" y1="2.49795532" y2="30.5020714" gradientUnits="userSpaceOnUse">
			<stop stop-color="rgb(250,230,147)" offset="0" stop-opacity="1" />
			<stop stop-color="rgb(150,109,44)" offset="1" stop-opacity="1" />
		</linearGradient>
	</defs>
	<rect id="measureMinDist" width="32" height="32" x="0" y="0" />
	<path id="合并" d="M30.3536 11.6464L21.3536 2.64645C21.1556 2.44846 20.8444 2.44846 20.6465 2.64645C20.4485 2.84444 20.4485 3.15556 20.6465 3.35355L24.7929 7.50002L21.0001 7.50002C20.7201 7.50002 20.5001 7.72002 20.5001 8.00002C20.5001 8.28002 20.7201 8.50002 21.0001 8.50002L23.7929 8.50002L8.50006 23.7929L8.50006 21C8.50006 20.72 8.28006 20.5 8.00006 20.5C7.72006 20.5 7.50006 20.72 7.50006 21L7.50006 24.793L3.35352 20.6465C3.15553 20.4485 2.84441 20.4485 2.64642 20.6465C2.44843 20.8445 2.44843 21.1556 2.64642 21.3536L11.6464 30.3536C11.8444 30.5516 12.1555 30.5516 12.3535 30.3536C12.5515 30.1556 12.5515 29.8445 12.3535 29.6465L8.20708 25.5L12.0001 25.5C12.2801 25.5 12.5001 25.28 12.5001 25C12.5001 24.72 12.2801 24.5 12.0001 24.5L9.20716 24.5L24.5001 9.20713L24.5001 12C24.5001 12.28 24.7201 12.5 25.0001 12.5C25.2801 12.5 25.5001 12.28 25.5001 12L25.5001 8.20715L29.6465 12.3536C29.8444 12.5515 30.1556 12.5515 30.3536 12.3536C30.5516 12.1556 30.5516 11.8444 30.3536 11.6464Z" fill="url(#paint_linear_6)" fill-rule="evenodd" />
</svg>
