<svg viewBox="0 0 32 32" xmlns="http://www.w3.org/2000/svg" xmlns:xlink="http://www.w3.org/1999/xlink" width="32" height="32" fill="none">
	<defs>
		<linearGradient id="paint_linear_5" x1="16.5" x2="16.5" y1="2" y2="31" gradientUnits="userSpaceOnUse">
			<stop stop-color="rgb(250,230,147)" offset="0" stop-opacity="1" />
			<stop stop-color="rgb(150,109,44)" offset="1" stop-opacity="1" />
		</linearGradient>
	</defs>
	<rect id="measure2PtMinDist" width="32" height="32" x="0" y="0" />
	<path id="合并" d="M20 3L20 2L21 2L21 2.55L20.55 2.55L20.55 3L20 3ZM21.65 3L21.65 2L22.75 2L22.75 3L21.65 3ZM23.85 3L23.85 2L24.95 2L24.95 3L23.85 3ZM26.05 3L26.05 2L27.15 2L27.15 3L26.05 3ZM28.25 3L28.25 2L29.35 2L29.35 3L28.25 3ZM30 2.55L30 2L31 2L31 3L30.45 3L30.45 2.55L30 2.55ZM21 4.75L20 4.75L20 3.65L21 3.65L21 4.75ZM30 3.65L31 3.65L31 4.75L30 4.75L30 3.65ZM21 6.95L20 6.95L20 5.85L21 5.85L21 6.95ZM30 5.85L31 5.85L31 6.95L30 6.95L30 5.85ZM25.5 6.00003C26.3284 6.00003 27 6.6716 27 7.50003C27 8.32846 26.3284 9.00003 25.5 9.00003L25.5 12C25.5 12.28 25.28 12.5 25 12.5C24.9831 12.5 24.9664 12.4992 24.95 12.4977L24.95 13L23.85 13L23.85 12L24.5 12L24.5 9.20714L21.7071 12L22.75 12L22.75 13L21.65 13L21.65 12.0571L21 12.7071L21 13L20.7071 13L11.7266 21.9805C11.7345 21.9899 11.7423 21.9993 11.7501 22.0088L11.4587 22.2484L9.20711 24.5L12 24.5C12.2781 24.5 12.4971 24.7171 12.5 24.9944L12.9726 24.9473C12.9907 25.129 13 25.3134 13 25.5C13 25.6866 12.9907 25.871 12.9726 26.0527L11.9775 25.9534Q12 25.7281 12 25.5L9 25.5C9 26.3285 8.32843 27 7.5 27C6.67157 27 6 26.3285 6 25.5C6 24.6716 6.67157 24 7.5 24L7.5 21L7.5 21Q7.2719 21 7.04655 21.0225L6.94726 20.0274C7.12904 20.0093 7.31344 20 7.5 20C7.68656 20 7.87096 20.0093 8.05274 20.0274L8.00558 20.5001C8.28292 20.503 8.5 20.7219 8.5 21L8.5 23.7929L10.7513 21.5416L10.9912 21.2499C11.0007 21.2577 11.0101 21.2655 11.0195 21.2734L20 12.2929L20 12L20.2929 12L20.9429 11.35L20 11.35L20 10.25L21 10.25L21 11.2929L23.7929 8.50003L21 8.50003L21 9.15L20 9.15L20 8.05L20.5024 8.05C20.5008 8.03358 20.5 8.01692 20.5 8.00003C20.5 7.72003 20.72 7.50003 21 7.50003L24 7.50003C24 6.6716 24.6716 6.00003 25.5 6.00003ZM30 8.05L31 8.05L31 9.15L30 9.15L30 8.05ZM30 10.25L31 10.25L31 11.35L30 11.35L30 10.25ZM27.15 12L27.15 13L26.05 13L26.05 12L27.15 12ZM29.35 12L29.35 13L28.25 13L28.25 12L29.35 12ZM30.45 12L31 12L31 13L30 13L30 12.45L30.45 12.45L30.45 12ZM4.90355 20.6502C5.21596 20.4826 5.54644 20.3443 5.89131 20.239L6.18339 21.1954Q5.99924 21.2516 5.82126 21.3232L5.82121 21.3233L5.82114 21.3233L5.8211 21.3233Q5.59366 21.4148 5.37631 21.5314L4.90355 20.6502ZM9.10869 20.239C9.45356 20.3443 9.78404 20.4826 10.0964 20.6502L9.62369 21.5314Q9.40636 21.4148 9.17894 21.3233L9.17889 21.3233Q9.00084 21.2517 8.81661 21.1954L9.10869 20.239ZM3.24991 22.0088C3.47764 21.7319 3.73189 21.4776 4.0088 21.2499L4.64398 22.0223Q4.47338 22.1626 4.31794 22.318L4.31787 22.3181Q4.1625 22.4735 4.02227 22.644L3.24991 22.0088ZM2.239 23.8913C2.34432 23.5464 2.48262 23.216 2.65023 22.9036L3.53142 23.3763Q3.41488 23.5935 3.32339 23.8209L3.3233 23.8211Q3.25166 23.9992 3.19539 24.1834L2.239 23.8913ZM12.3498 22.9036C12.5174 23.216 12.6557 23.5464 12.761 23.8913L11.8046 24.1834Q11.7484 23.9993 11.6768 23.8213L11.6767 23.8211L11.6766 23.8209L11.6765 23.8206L11.6765 23.8206Q11.585 23.5934 11.4686 23.3763L12.3498 22.9036ZM2.02743 26.0527C2.00929 25.871 2 25.6866 2 25.5C2 25.3134 2.00929 25.129 2.02743 24.9473L3.02249 25.0466Q3 25.2719 3 25.5Q3 25.7281 3.02249 25.9534L2.02743 26.0527ZM12.761 27.1087C12.6557 27.4536 12.5174 27.784 12.3498 28.0965L11.4686 27.6237Q11.5851 27.4065 11.6765 27.1793L11.6766 27.1791Q11.7483 27.001 11.8046 26.8166L12.761 27.1087ZM2.65023 28.0964C2.48262 27.784 2.34432 27.4536 2.239 27.1087L3.19539 26.8166Q3.25164 27.0008 3.32326 27.1788L3.32336 27.1791L3.32349 27.1794Q3.41493 27.4066 3.53142 27.6237L2.65023 28.0964ZM4.0088 29.7501C3.73189 29.5224 3.47764 29.2681 3.24991 28.9912L4.02227 28.356Q4.16248 28.5265 4.31782 28.6819L4.31794 28.682Q4.47339 28.8374 4.64398 28.9777L4.0088 29.7501ZM11.7501 28.9912C11.5224 29.2681 11.2681 29.5224 10.9912 29.7501L10.356 28.9777Q10.5267 28.8373 10.6823 28.6818L10.6823 28.6817Q10.8376 28.5264 10.9777 28.356L11.7501 28.9912ZM10.0964 30.3498C9.78404 30.5174 9.45356 30.6557 9.10869 30.761L8.81661 29.8046Q9.0007 29.7484 9.17862 29.6768L9.17891 29.6767L9.17896 29.6767Q9.40637 29.5852 9.62369 29.4686L10.0964 30.3498ZM5.89131 30.761C5.54644 30.6557 5.21596 30.5174 4.90355 30.3498L5.37631 29.4686Q5.59371 29.5852 5.82121 29.6767L5.82167 29.6769L5.82182 29.677Q5.99953 29.7485 6.18339 29.8046L5.89131 30.761ZM8.05275 30.9726C7.87096 30.9907 7.68656 31 7.5 31C7.31344 31 7.12904 30.9907 6.94726 30.9726L7.04656 29.9775Q7.2719 30 7.5 30Q7.7281 30 7.95345 29.9775L8.05275 30.9726Z" fill="url(#paint_linear_5)" fill-rule="evenodd" />
</svg>
