<svg width="32.000000" height="32.000000" viewBox="0 0 32 32" fill="none" xmlns="http://www.w3.org/2000/svg" xmlns:xlink="http://www.w3.org/1999/xlink">
	<desc>
			Created with Pixso.
	</desc>
	<defs>
		<clipPath id="clip102_1">
			<rect id="measure" width="32.000000" height="32.000000" fill="white" fill-opacity="0"/>
		</clipPath>
		<linearGradient x1="16.006138" y1="2.199646" x2="16.006138" y2="29.428097" id="paint_linear_102_2_0" gradientUnits="userSpaceOnUse">
			<stop stop-color="#FAE693"/>
			<stop offset="1.000000" stop-color="#966D2C"/>
		</linearGradient>
	</defs>
	<g clip-path="url(#clip102_1)">
		<path id="path" d="M29.34 25.69L5.68 2.81C5.05 2.19 4.14 2.03 3.32 2.37C2.51 2.72 2 3.49 2 4.37L2 27.25C2 28.45 2.97 29.42 4.17 29.42L27.82 29.42C28.73 29.42 29.5 28.9 29.84 28.07C30.18 27.23 29.99 26.32 29.34 25.69ZM28.79 27.64C28.62 28.04 28.26 28.29 27.83 28.29L24.4 28.29L24.4 27.12C24.4 26.8 24.15 26.55 23.83 26.55C23.52 26.55 23.26 26.8 23.26 27.12L23.26 28.29L19.34 28.29L19.34 27.12C19.34 26.8 19.09 26.55 18.77 26.55C18.45 26.55 18.2 26.8 18.2 27.12L18.2 28.29L14.27 28.29L14.27 27.12C14.27 26.8 14.02 26.55 13.7 26.55C13.39 26.55 13.14 26.8 13.14 27.12L13.14 28.29L9.21 28.29L9.21 27.12C9.21 26.8 8.96 26.55 8.64 26.55C8.33 26.55 8.07 26.8 8.07 27.12L8.07 28.29L4.17 28.29C3.6 28.29 3.14 27.82 3.14 27.25L3.14 24.6L4.3 24.6C4.62 24.6 4.87 24.35 4.87 24.03C4.87 23.72 4.62 23.46 4.3 23.46L3.14 23.46L3.14 19.54L4.3 19.54C4.62 19.54 4.87 19.28 4.87 18.97C4.87 18.65 4.62 18.4 4.3 18.4L3.14 18.4L3.14 14.47L4.3 14.47C4.62 14.47 4.87 14.22 4.87 13.9C4.87 13.59 4.62 13.33 4.3 13.33L3.14 13.33L3.14 9.41L4.3 9.41C4.62 9.41 4.87 9.15 4.87 8.84C4.87 8.52 4.62 8.27 4.3 8.27L3.14 8.27L3.14 4.37C3.14 3.94 3.37 3.59 3.77 3.42C3.91 3.36 4.05 3.34 4.19 3.34C4.45 3.34 4.69 3.44 4.89 3.63L28.55 26.51C28.86 26.81 28.95 27.23 28.79 27.64ZM9.55 13.33C9.29 13.08 8.91 13 8.58 13.15C8.25 13.29 8.03 13.61 8.03 13.97L8.03 22.47C8.03 22.96 8.43 23.36 8.93 23.36L17.71 23.36C18.08 23.36 18.4 23.15 18.54 22.8C18.68 22.46 18.6 22.08 18.34 21.83L9.55 13.33ZM9.17 22.23L9.17 14.55L17.11 22.23L9.17 22.23Z" fill="url(#paint_linear_102_2_0)" fill-opacity="1.000000" fill-rule="nonzero"/>
	</g>
</svg>
