<?xml version="1.0" encoding="UTF-8"?>
<svg id="_图标" data-name="图标" xmlns="http://www.w3.org/2000/svg" viewBox="0 0 32 32">
  <defs>
    <style>
      .cls-1 {
        fill: #ba9600;
      }
    </style>
  </defs>
  <path class="cls-1" d="M8.71,30.33c-.19,0-.38-.07-.53-.22-.29-.29-.29-.77,0-1.06L29.07,8.16c.29-.29.77-.29,1.06,0s.29.77,0,1.06L9.24,30.11c-.15.15-.34.22-.53.22Z"/>
  <path class="cls-1" d="M2.44,24.06c-.19,0-.38-.07-.53-.22-.29-.29-.29-.77,0-1.06L22.8,1.89c.29-.29.77-.29,1.06,0s.29.77,0,1.06L2.97,23.84c-.15.15-.34.22-.53.22Z"/>
  <path class="cls-1" d="M11.76,26.74c-.19,0-.38-.07-.53-.22l-3.66-3.66c-.29-.29-.29-.77,0-1.06s.77-.29,1.06,0l3.66,3.66c.29.29.29.77,0,1.06-.15.15-.34.22-.53.22Z"/>
  <path class="cls-1" d="M15.8,22.23c-.19,0-.38-.07-.53-.22l-1.71-1.71c-.29-.29-.29-.77,0-1.06s.77-.29,1.06,0l1.71,1.71c.29.29.29.77,0,1.06-.15.15-.34.22-.53.22Z"/>
  <path class="cls-1" d="M8.16,29.87c-.19,0-.38-.07-.53-.22l-5.76-5.76c-.29-.29-.29-.77,0-1.06s.77-.29,1.06,0l5.76,5.76c.29.29.29.77,0,1.06-.15.15-.34.22-.53.22Z"/>
  <path class="cls-1" d="M29.48,9.32c-.19,0-.38-.07-.53-.22l-6.15-6.15c-.29-.29-.29-.77,0-1.06s.77-.29,1.06,0l6.15,6.15c.29.29.29.77,0,1.06-.15.15-.34.22-.53.22Z"/>
  <path class="cls-1" d="M19.85,17.71c-.19,0-.38-.07-.53-.22l-2.83-2.83c-.29-.29-.29-.77,0-1.06s.77-.29,1.06,0l2.83,2.83c.29.29.29.77,0,1.06-.15.15-.34.22-.53.22Z"/>
  <path class="cls-1" d="M24.58,13.43c-.19,0-.38-.07-.53-.22l-3.28-3.28c-.29-.29-.29-.77,0-1.06s.77-.29,1.06,0l3.28,3.28c.29.29.29.77,0,1.06-.15.15-.34.22-.53.22Z"/>
</svg>