<svg viewBox="0 0 32 32" xmlns="http://www.w3.org/2000/svg" xmlns:xlink="http://www.w3.org/1999/xlink" width="32" height="32" fill="none">
	<defs>
		<linearGradient id="paint_linear_1" x1="17.3241062" x2="17.3241062" y1="0" y2="34.6482162" gradientUnits="userSpaceOnUse">
			<stop stop-color="rgb(250,230,147)" offset="0" stop-opacity="1" />
			<stop stop-color="rgb(150,109,44)" offset="1" stop-opacity="1" />
		</linearGradient>
	</defs>
	<rect id="measureArea" width="32" height="32" x="0" y="0" />
	<path id="合并" d="M0.306474 16.5842C0.587055 16.3036 0.987336 16.2157 1.34294 16.3204L16.3204 1.34294C16.292 1.24628 16.2777 1.14633 16.2777 1.04637C16.2777 0.778583 16.3799 0.510793 16.5842 0.306476C16.9928 -0.102159 17.6554 -0.102159 18.064 0.306476C18.2683 0.510793 18.3705 0.778583 18.3705 1.04637C18.3705 1.14633 18.3562 1.24629 18.3278 1.34294L33.3053 16.3204C33.6609 16.2157 34.0612 16.3036 34.3417 16.5842C34.5461 16.7885 34.6482 17.0563 34.6482 17.3241C34.6482 17.5919 34.5461 17.8597 34.3417 18.064C34.0612 18.3446 33.6609 18.4325 33.3053 18.3278L18.3278 33.3053C18.3562 33.4019 18.3705 33.5019 18.3705 33.6018C18.3705 33.8696 18.2683 34.1374 18.064 34.3417C17.6554 34.7504 16.9928 34.7504 16.5842 34.3417C16.3799 34.1374 16.2777 33.8696 16.2777 33.6018C16.2777 33.5019 16.292 33.4019 16.3204 33.3053L1.34294 18.3278C0.987335 18.4325 0.587055 18.3446 0.306474 18.064C0.102157 17.8597 0 17.5919 0 17.3241C0 17.0563 0.102157 16.7885 0.306474 16.5842ZM17.824 2.25338L17.824 32.3948L20.0513 30.1675C19.9955 30.0867 19.9631 29.9881 19.9631 29.8806L19.9631 4.76764C19.9631 4.66014 19.9955 4.56148 20.0513 4.48072L17.824 2.25338ZM16.824 32.3946L16.824 2.25359L14.5967 4.48085C14.6525 4.56158 14.6849 4.66019 14.6849 4.76764L14.6849 29.8806C14.6849 29.988 14.6525 30.0866 14.5967 30.1674L16.824 32.3946ZM20.9631 29.2557L23.1905 27.0284C23.1347 26.9476 23.1022 26.849 23.1022 26.7415L23.1022 7.90675C23.1022 7.79925 23.1347 7.7006 23.1905 7.61984L20.9631 5.39249L20.9631 29.2557ZM24.1022 26.1166L26.3296 23.8893C26.2738 23.8085 26.2414 23.7098 26.2414 23.6023L26.2414 11.0459C26.2414 10.9384 26.2738 10.8397 26.3296 10.759L24.1022 8.53161L24.1022 26.1166ZM27.2414 22.9775L29.4687 20.7501C29.4129 20.6694 29.3805 20.5707 29.3805 20.4632L29.3805 14.185C29.3805 14.0775 29.4129 13.9788 29.4687 13.8981L27.2414 11.6707L27.2414 22.9775ZM30.3805 19.8384L32.5982 17.6207C32.5697 17.524 32.5555 17.4241 32.5555 17.3241C32.5555 17.2242 32.5697 17.1242 32.5982 17.0275L30.3805 14.8098L30.3805 19.8384ZM13.6849 5.3927L11.4576 7.61996C11.5134 7.7007 11.5458 7.79931 11.5458 7.90675L11.5458 26.7415C11.5458 26.8489 11.5134 26.9475 11.4576 27.0282L13.6849 29.2555L13.6849 5.3927ZM10.5458 8.53182L8.3185 10.7591C8.37425 10.8398 8.40665 10.9384 8.40665 11.0459L8.40665 23.6023C8.40665 23.7098 8.37425 23.8084 8.3185 23.8891L10.5458 26.1164L10.5458 8.53182ZM7.40665 11.6709L5.17938 13.8982C5.23513 13.9789 5.26753 14.0775 5.26753 14.185L5.26753 20.4632C5.26753 20.5707 5.23513 20.6693 5.17938 20.75L7.40665 22.9773L7.40665 11.6709ZM4.26753 14.8101L2.05004 17.0275C2.07851 17.1242 2.09274 17.2242 2.09274 17.3241C2.09274 17.4241 2.07851 17.524 2.05004 17.6207L4.26753 19.8382L4.26753 14.8101Z" fill="url(#paint_linear_1)" fill-rule="evenodd" transform="matrix(0.707107,-0.707107,0.707107,0.707107,-8.58594,16.4142)" />
</svg>
