<svg viewBox="0 0 32 32" xmlns="http://www.w3.org/2000/svg" xmlns:xlink="http://www.w3.org/1999/xlink" width="32" height="32" fill="none">
	<defs>
		<linearGradient id="paint_linear_0" x1="16" x2="16" y1="3.5" y2="28.5" gradientUnits="userSpaceOnUse">
			<stop stop-color="rgb(250,230,147)" offset="0" stop-opacity="1" />
			<stop stop-color="rgb(150,109,44)" offset="1" stop-opacity="1" />
		</linearGradient>
	</defs>
	<rect id="measureBoundingBox" width="32" height="32" x="0" y="0" />
	<path id="合并" d="M3.5 3.5L28.5 3.5L28.5 28.5L3.5 28.5L3.5 3.5ZM27.5 12.5611L27.5 4.5L19.4389 4.5C23.301 5.65323 26.3468 8.69897 27.5 12.5611ZM12.5611 4.5L4.5 4.5L4.5 12.5611C5.65323 8.69897 8.69897 5.65323 12.5611 4.5ZM27.5 19.4389C26.3468 23.301 23.301 26.3468 19.4389 27.5L27.5 27.5L27.5 19.4389ZM12.5611 27.5C8.69897 26.3468 5.65323 23.301 4.5 19.4389L4.5 27.5L12.5611 27.5ZM16 5C15.1664 5 14.3533 5.08985 13.5604 5.26954L13.5604 5.26955C12.9337 5.41158 12.3198 5.60974 11.7186 5.86402C11.1049 6.12359 10.5239 6.43303 9.97564 6.79236C9.34823 7.20354 8.76363 7.68002 8.22182 8.22183C7.68002 8.76363 7.20354 9.34823 6.79236 9.97565C6.43303 10.5239 6.12359 11.1049 5.86402 11.7186C5.60974 12.3198 5.41158 12.9337 5.26955 13.5604L5.26954 13.5604C5.08985 14.3533 5 15.1664 5 16C5 16.8336 5.08985 17.6468 5.26955 18.4396L5.26956 18.4397C5.41159 19.0663 5.60974 19.6802 5.86402 20.2814C6.12358 20.895 6.43301 21.476 6.79231 22.0243L6.79236 22.0243C7.20353 22.6518 7.68002 23.2364 8.22183 23.7782C8.76361 24.32 9.34819 24.7964 9.97557 25.2076L9.97561 25.2076C10.5239 25.567 11.1049 25.8764 11.7186 26.136C12.3199 26.3903 12.9339 26.5885 13.5606 26.7305C14.3534 26.9102 15.1665 27 16 27C16.8335 27 17.6466 26.9102 18.4394 26.7305L18.4394 26.7305C19.0661 26.5885 19.6801 26.3903 20.2814 26.136C20.8951 25.8764 21.476 25.567 22.0243 25.2077C22.6518 24.7965 23.2364 24.32 23.7782 23.7782C24.32 23.2363 24.7965 22.6517 25.2077 22.0242C25.567 21.476 25.8764 20.895 26.136 20.2814C26.3903 19.6801 26.5885 19.0661 26.7305 18.4394L26.7305 18.4393C26.9102 17.6466 27 16.8335 27 16C27 15.1665 26.9102 14.3535 26.7305 13.5607L26.7305 13.5607C26.5885 12.9339 26.3903 12.3199 26.136 11.7186C25.8764 11.1049 25.5669 10.5239 25.2076 9.97557C24.7964 9.34819 24.32 8.76361 23.7782 8.22182C23.2363 7.67997 22.6517 7.20345 22.0242 6.79225C21.4759 6.43297 20.895 6.12356 20.2814 5.86402C19.6802 5.60973 19.0662 5.41157 18.4396 5.26954L18.4395 5.26952C17.6467 5.08984 16.8335 5 16 5Z" fill="url(#paint_linear_0)" fill-rule="evenodd" />
</svg>
