<?xml version="1.0" encoding="UTF-8"?>
<svg id="_图标" data-name="图标" xmlns="http://www.w3.org/2000/svg" viewBox="0 0 32 32">
  <defs>
    <style>
      .cls-1 {
        fill: #ba9600;
      }
    </style>
  </defs>
  <g>
    <polygon class="cls-1" points="27.65 25.24 26.89 23.94 28.25 23.15 28.25 21.58 29.75 21.58 29.75 24.01 27.65 25.24"/>
    <path class="cls-1" d="M29.75,19.99h-1.5v-3.19h1.5v3.19ZM29.75,15.2h-1.5v-3.19h1.5v3.19Z"/>
    <polygon class="cls-1" points="29.75 10.42 28.25 10.42 28.25 8.85 26.89 8.06 27.65 6.76 29.75 7.99 29.75 10.42"/>
    <path class="cls-1" d="M25.53,7.26l-2.73-1.59.76-1.29,2.73,1.59-.76,1.29ZM21.44,4.87l-2.73-1.59.76-1.29,2.73,1.59-.76,1.29Z"/>
    <polygon class="cls-1" points="17.35 2.49 16 1.7 14.65 2.49 13.89 1.19 16 -.04 18.11 1.19 17.35 2.49"/>
    <path class="cls-1" d="M6.47,7.26l-.76-1.29,2.73-1.59.76,1.29-2.73,1.59ZM10.56,4.88l-.76-1.29,2.73-1.59.76,1.29-2.73,1.59Z"/>
    <polygon class="cls-1" points="3.75 10.42 2.25 10.42 2.25 7.99 4.35 6.76 5.11 8.06 3.75 8.85 3.75 10.42"/>
    <path class="cls-1" d="M3.75,19.99h-1.5v-3.19h1.5v3.19ZM3.75,15.2h-1.5v-3.19h1.5v3.19Z"/>
    <polygon class="cls-1" points="4.35 25.24 2.25 24.01 2.25 21.58 3.75 21.58 3.75 23.15 5.11 23.94 4.35 25.24"/>
    <path class="cls-1" d="M12.53,30.01l-2.73-1.59.76-1.29,2.73,1.59-.76,1.29ZM8.44,27.62l-2.73-1.59.76-1.29,2.73,1.59-.76,1.29Z"/>
    <polygon class="cls-1" points="16 32.04 13.89 30.81 14.65 29.51 16 30.3 17.35 29.51 18.11 30.81 16 32.04"/>
    <path class="cls-1" d="M19.47,30.01l-.76-1.29,2.73-1.59.76,1.29-2.73,1.59ZM23.56,27.62l-.76-1.29,2.73-1.59.76,1.29-2.73,1.59Z"/>
  </g>
  <g>
    <path class="cls-1" d="M24.67,20.41c-.33,0-.6-.27-.6-.6v-10.01c0-.33.27-.6.6-.6s.6.27.6.6v10.01c0,.33-.27.6-.6.6Z"/>
    <g>
      <path class="cls-1" d="M8.53,12.31l6.16,2.24v8.56l-6.16-2.37v-8.43M7.79,10.78c-.25,0-.46.21-.46.48v9.99c0,.24.18.45.41.47l7.64,2.94s.04,0,.05,0c.25,0,.46-.21.46-.48v-10.16c0-.25-.18-.45-.42-.47l-7.64-2.78s-.03,0-.04,0h0Z"/>
      <path class="cls-1" d="M15.58,24.89c-.22,0-.44-.13-.54-.34-.14-.3-.02-.66.28-.8l9.09-4.35c.3-.14.66-.02.8.28.14.3.02.66-.28.8l-9.09,4.35c-.08.04-.17.06-.26.06Z"/>
      <path class="cls-1" d="M15.61,14.56c-.23,0-.44-.13-.54-.35-.14-.3,0-.66.29-.8l8.87-4.12c.3-.14.66,0,.8.29.14.3,0,.66-.29.8l-8.87,4.12c-.08.04-.17.06-.25.06Z"/>
      <path class="cls-1" d="M7.99,11.72c-.22,0-.44-.13-.54-.34-.14-.3-.02-.66.28-.8l7.91-3.79c.3-.14.66-.02.8.28.14.3.02.66-.28.8l-7.91,3.79c-.08.04-.17.06-.26.06Z"/>
      <path class="cls-1" d="M24.67,10.4c-.05,0-.11,0-.16-.02l-8.77-2.46c-.32-.09-.5-.42-.42-.74.09-.32.42-.5.74-.42l8.77,2.46c.32.09.5.42.42.74-.07.26-.31.44-.58.44Z"/>
    </g>
  </g>
</svg>