<svg width="32.000000" height="32.000000" viewBox="0 0 32 32" fill="none" xmlns="http://www.w3.org/2000/svg" xmlns:xlink="http://www.w3.org/1999/xlink">
	<desc>
			Created with Pixso.
	</desc>
	<defs>
		<clipPath id="clip64_1">
			<rect id="modelTree" width="32.000000" height="32.000000" fill="white" fill-opacity="0"/>
		</clipPath>
	</defs>
	<g clip-path="url(#clip64_1)">
		<path id="path" d="M15.25 24L29.35 24C30.25 24 31 24.83 31 26L31 29C31 30 30.25 31 29.35 31L15.25 31C14.35 31 13.6 30.16 13.6 29L13.6 28.66L4.14 28.66C3.55 28.66 3.1 28.16 3.1 27.5L3.1 8L2.64 8C1.75 8 1 7 1 6L1 3C1 1.83 1.75 1 2.64 1L5.5 1C6.39 1 7.14 1.83 7.14 3L7.14 6C7.14 7 6.39 8 5.5 8L5.05 8L5.05 15L13.45 15L13.45 14.66C13.45 13.66 14.2 12.66 15.1 12.66L29.2 12.66C30.1 12.66 30.85 13.5 30.85 14.66L30.85 17.66C30.85 18.66 30.1 19.66 29.2 19.66L15.1 19.66C14.2 19.66 13.45 18.83 13.45 17.66L13.45 17.33L5.05 17.33L5.05 26.5L13.45 26.5L13.45 26C13.45 25 14.2 24 15.25 24ZM29.35 8L10.9 8C9.85 8 9.1 7 9.1 6L9.1 3C9.1 1.83 9.85 1 10.9 1L29.35 1C30.25 1 31 1.83 31 3L31 6C31 7 30.25 8 29.35 8Z" fill="#383838" fill-opacity="1.000000" fill-rule="nonzero"/>
	</g>
</svg>
