<?xml version="1.0" encoding="UTF-8"?>
<svg id="_图标" data-name="图标" xmlns="http://www.w3.org/2000/svg" viewBox="0 0 32 32">
  <defs>
    <style>
      .cls-1 {
        fill: #57b8ff;
      }
    </style>
  </defs>
  <path class="cls-1" d="M29.31,11.78h-9.6c-.52,0-.95-.43-.95-.95V3.23c0-.52.43-.95.95-.95h9.6c.52,0,.95.43.95.95v7.6c0,.52-.43.95-.95.95ZM20.26,10.28h8.5V3.78h-8.5v6.5Z"/>
  <path class="cls-1" d="M10.29,20.75H2.69c-.52,0-.95-.43-.95-.95v-7.6c0-.52.43-.95.95-.95h7.6c.52,0,.95.43.95.95v7.6c0,.52-.43.95-.95.95ZM3.24,19.25h6.5v-6.5H3.24v6.5Z"/>
  <path class="cls-1" d="M29.31,29.72h-9.6c-.52,0-.95-.43-.95-.95v-7.6c0-.52.43-.95.95-.95h9.6c.52,0,.95.43.95.95v7.6c0,.52-.43.95-.95.95ZM20.26,28.22h8.5v-6.5h-8.5v6.5Z"/>
  <path class="cls-1" d="M14.89,25.72c-.41,0-.75-.34-.75-.75V7.03c0-.41.34-.75.75-.75s.75.34.75.75v17.94c0,.41-.34.75-.75.75Z"/>
  <path class="cls-1" d="M18.79,7.78h-3.89c-.41,0-.75-.34-.75-.75s.34-.75.75-.75h3.89c.41,0,.75.34.75.75s-.34.75-.75.75Z"/>
  <path class="cls-1" d="M14.89,17.37h-4.4c-.41,0-.75-.34-.75-.75s.34-.75.75-.75h4.4c.41,0,.75.34.75.75s-.34.75-.75.75Z"/>
  <path class="cls-1" d="M19.51,25.72h-4.62c-.41,0-.75-.34-.75-.75s.34-.75.75-.75h4.62c.41,0,.75.34.75.75s-.34.75-.75.75Z"/>
</svg>