<?xml version="1.0" encoding="UTF-8"?>
<svg id="_图标" data-name="图标" xmlns="http://www.w3.org/2000/svg" viewBox="0 0 32 32">
  <defs>
    <style>
      .cls-1 {
        fill: #57b8ff;
      }
    </style>
  </defs>
  <path class="cls-1" d="M22.28,22.25H2c-.41,0-.75-.34-.75-.75V4.68c0-.41.34-.75.75-.75h20.28c.41,0,.75.34.75.75v16.82c0,.41-.34.75-.75.75ZM2.75,20.75h18.78V5.43H2.75v15.32Z"/>
  <path class="cls-1" d="M30,22.57c-.14,0-.27-.04-.39-.11l-7.72-4.72c-.22-.14-.36-.38-.36-.64v-7.78c0-.27.15-.52.38-.65l7.72-4.33c.23-.13.52-.13.75,0,.23.13.37.38.37.65v16.82c0,.27-.15.52-.38.65-.11.06-.24.1-.37.1ZM23.03,16.68l6.22,3.8V6.28l-6.22,3.49v6.92Z"/>
  <path class="cls-1" d="M17.02,11.57H5.5c-.41,0-.75-.34-.75-.75s.34-.75.75-.75h11.52c.41,0,.75.34.75.75s-.34.75-.75.75Z"/>
  <path class="cls-1" d="M3.61,28.07c-.13,0-.25-.03-.37-.1-.36-.21-.48-.66-.28-1.02l3.15-5.5c.21-.36.67-.48,1.02-.28.36.21.48.66.28,1.02l-3.15,5.5c-.14.24-.39.38-.65.38Z"/>
  <path class="cls-1" d="M19.78,27.75c-.26,0-.51-.13-.65-.38l-3.15-5.5c-.21-.36-.08-.82.28-1.02.36-.21.82-.08,1.02.28l3.15,5.5c.21.36.08.82-.28,1.02-.12.07-.25.1-.37.1Z"/>
</svg>