<svg width="32.000000" height="32.000000" viewBox="0 0 32 32" fill="none" xmlns="http://www.w3.org/2000/svg" xmlns:xlink="http://www.w3.org/1999/xlink">
	<desc>
			Created with Pixso.
	</desc>
	<defs>
		<clipPath id="clip4_21">
			<rect id="proj" rx="0.000000" width="31.000000" height="31.000000" transform="translate(0.500000 0.500000)" fill="white" fill-opacity="0"/>
		</clipPath>
	</defs>
	<g clip-path="url(#clip4_21)">
		<rect id="Rectangle 1" x="2.500000" y="8.000000" rx="3.000000" width="22.000000" height="13.000000" stroke="#383838" stroke-opacity="1.000000" stroke-width="3.000000"/>
		<path id="Rectangle 2" d="M25.39 10.77L29.39 7.72C30.05 7.22 31 7.69 31 8.51L31 20.48C31 21.3 30.05 21.77 29.39 21.27L25.39 18.22C25.14 18.03 25 17.74 25 17.43L25 11.56C25 11.25 25.14 10.96 25.39 10.77Z" fill="#383838" fill-opacity="1.000000" fill-rule="nonzero"/>
		<path id="Rectangle 2" d="M25.39 10.77L29.39 7.72C30.05 7.22 31 7.69 31 8.51L31 20.48C31 21.3 30.05 21.77 29.39 21.27L25.39 18.22C25.14 18.03 25 17.74 25 17.43L25 11.56C25 11.25 25.14 10.96 25.39 10.77ZM26 11.56L30 8.51L30 20.48L26 17.43L26 11.56Z" fill="#383838" fill-opacity="1.000000" fill-rule="evenodd"/>
		<rect id="Rectangle 3" x="5.000000" y="11.000000" rx="1.500000" width="11.785714" height="6.545454" fill="#383838" fill-opacity="1.000000"/>
		<path id="Rectangle 6" d="M7 3.5L10.5 3.5L14 3.5C14.55 3.5 15 3.94 15 4.5L15 7.5L6 7.5L6 4.5C6 3.94 6.44 3.5 7 3.5Z" fill="#383838" fill-opacity="1.000000" fill-rule="nonzero"/>
		<path id="直线 4" d="M20.34 20.32L23.34 26.32L20.65 27.67L17.65 21.67L20.34 20.32ZM17.68 21.67L17.65 21.67C17.28 20.91 17.57 20.03 18.32 19.65C19.08 19.28 19.96 19.57 20.34 20.32L20.33 20.35L17.68 21.67ZM23.31 26.32L23.34 26.32C23.71 27.08 23.42 27.96 22.67 28.34C21.91 28.71 21.03 28.42 20.65 27.67L20.66 27.64L23.31 26.32Z" fill="#383838" fill-opacity="1.000000" fill-rule="evenodd"/>
		<path id="直线 5" d="M6.65 20.32L3.65 26.32L6.34 27.67L9.34 21.67L6.65 20.32ZM9.31 21.67L9.34 21.67C9.71 20.91 9.42 20.03 8.67 19.65C7.91 19.28 7.03 19.57 6.65 20.32L6.66 20.35L9.31 21.67ZM3.68 26.32L3.65 26.32C3.28 27.08 3.57 27.96 4.32 28.34C5.08 28.71 5.96 28.42 6.34 27.67L6.33 27.64L3.68 26.32Z" fill="#383838" fill-opacity="1.000000" fill-rule="evenodd"/>
	</g>
</svg>
