<svg width="32.000000" height="32.000000" viewBox="0 0 32 32" fill="none" xmlns="http://www.w3.org/2000/svg" xmlns:xlink="http://www.w3.org/1999/xlink">
	<desc>
			Created with Pixso.
	</desc>
	<defs>
		<clipPath id="clip105_16">
			<rect id="sectioning" width="32.000000" height="32.000000" fill="white" fill-opacity="0"/>
		</clipPath>
		<linearGradient x1="16.000000" y1="2.031250" x2="16.000000" y2="29.968750" id="paint_linear_105_17_0" gradientUnits="userSpaceOnUse">
			<stop stop-color="#FAE693"/>
			<stop offset="1.000000" stop-color="#966D2C"/>
		</linearGradient>
	</defs>
	<g clip-path="url(#clip105_16)">
		<path id="path" d="M28.4 25.37L20.78 25.37L20.78 23.5L27.62 23.5C27.68 23.5 27.74 23.48 27.8 23.46C27.86 23.44 27.91 23.4 27.95 23.36C28 23.31 28.03 23.26 28.05 23.21C28.08 23.15 28.09 23.09 28.09 23.03L28.09 8.96C28.09 8.9 28.08 8.84 28.05 8.78C28.03 8.73 28 8.68 27.95 8.63C27.91 8.59 27.86 8.55 27.8 8.53C27.74 8.51 27.68 8.5 27.62 8.5L20.78 8.5L20.78 6.62L28.4 6.62C28.5 6.62 28.61 6.63 28.71 6.65C28.81 6.67 28.9 6.7 29 6.74C29.09 6.78 29.18 6.83 29.27 6.88C29.35 6.94 29.43 7.01 29.51 7.08C29.58 7.15 29.64 7.23 29.7 7.31C29.76 7.4 29.81 7.49 29.84 7.58C29.88 7.68 29.91 7.78 29.93 7.88C29.95 7.98 29.96 8.08 29.96 8.18L29.96 23.81C29.96 23.91 29.95 24.01 29.93 24.11C29.91 24.21 29.88 24.31 29.84 24.41C29.81 24.5 29.76 24.59 29.7 24.68C29.64 24.76 29.58 24.84 29.51 24.91C29.43 24.98 29.35 25.05 29.27 25.11C29.18 25.16 29.09 25.21 29 25.25C28.9 25.29 28.81 25.32 28.71 25.34C28.61 25.36 28.5 25.37 28.4 25.37ZM17.96 29.96C17.9 29.96 17.84 29.96 17.78 29.95C17.72 29.93 17.66 29.92 17.61 29.89C17.55 29.87 17.49 29.84 17.44 29.81C17.39 29.77 17.34 29.73 17.3 29.69C17.26 29.65 17.22 29.6 17.18 29.55C17.15 29.5 17.12 29.44 17.1 29.39C17.07 29.33 17.06 29.27 17.04 29.21C17.03 29.15 17.03 29.09 17.03 29.03L17.03 2.96C17.03 2.9 17.03 2.84 17.04 2.78C17.06 2.72 17.07 2.66 17.1 2.6C17.12 2.55 17.15 2.49 17.18 2.44C17.22 2.39 17.26 2.34 17.3 2.3C17.34 2.26 17.39 2.22 17.44 2.18C17.49 2.15 17.55 2.12 17.61 2.1C17.66 2.07 17.72 2.06 17.78 2.04C17.84 2.03 17.9 2.03 17.96 2.03C18.03 2.03 18.09 2.03 18.15 2.04C18.21 2.06 18.27 2.07 18.32 2.1C18.38 2.12 18.43 2.15 18.48 2.18C18.54 2.22 18.58 2.26 18.63 2.3C18.67 2.34 18.71 2.39 18.74 2.44C18.78 2.49 18.81 2.55 18.83 2.6C18.85 2.66 18.87 2.72 18.88 2.78C18.9 2.84 18.9 2.9 18.9 2.96L18.9 29.03C18.9 29.09 18.9 29.15 18.88 29.21C18.87 29.27 18.85 29.33 18.83 29.39C18.81 29.44 18.78 29.5 18.74 29.55C18.71 29.6 18.67 29.65 18.63 29.69C18.58 29.73 18.54 29.77 18.48 29.81C18.43 29.84 18.38 29.87 18.32 29.89C18.27 29.92 18.21 29.93 18.15 29.95C18.09 29.96 18.03 29.96 17.96 29.96ZM13.28 23.5L15.15 23.5L15.15 25.37L13.28 25.37L13.28 23.5ZM13.28 6.62L15.15 6.62L15.15 8.5L13.28 8.5L13.28 6.62ZM9.53 23.5L11.4 23.5L11.4 25.37L9.53 25.37L9.53 23.5ZM9.53 6.62L11.4 6.62L11.4 8.5L9.53 8.5L9.53 6.62ZM5.78 23.5L7.65 23.5L7.65 25.37L5.78 25.37L5.78 23.5ZM5.78 6.62L7.65 6.62L7.65 8.5L5.78 8.5L5.78 6.62ZM2.03 23.81L2.03 22.56L3.9 22.56L3.9 25.37L3.59 25.37C3.49 25.37 3.38 25.36 3.28 25.34C3.18 25.32 3.09 25.29 2.99 25.25C2.9 25.21 2.81 25.16 2.72 25.11C2.64 25.05 2.56 24.98 2.48 24.91C2.41 24.84 2.35 24.76 2.29 24.68C2.23 24.59 2.18 24.5 2.15 24.41C2.11 24.31 2.08 24.21 2.06 24.11C2.04 24.01 2.03 23.91 2.03 23.81ZM2.03 18.81L3.9 18.81L3.9 20.68L2.03 20.68L2.03 18.81ZM2.03 15.06L3.9 15.06L3.9 16.93L2.03 16.93L2.03 15.06ZM2.03 11.31L3.9 11.31L3.9 13.18L2.03 13.18L2.03 11.31ZM2.03 8.18C2.03 8.08 2.04 7.98 2.06 7.88C2.08 7.78 2.11 7.68 2.15 7.58C2.18 7.49 2.23 7.4 2.29 7.31C2.35 7.23 2.41 7.15 2.48 7.08C2.56 7.01 2.64 6.94 2.72 6.88C2.81 6.83 2.9 6.78 2.99 6.74C3.09 6.7 3.18 6.67 3.28 6.65C3.38 6.63 3.49 6.62 3.59 6.62L3.9 6.62L3.9 9.43L2.03 9.43L2.03 8.18Z" fill="url(#paint_linear_105_17_0)" fill-opacity="1.000000" fill-rule="nonzero"/>
	</g>
</svg>
