<?xml version="1.0" encoding="UTF-8"?>
<svg id="_图标" data-name="图标" xmlns="http://www.w3.org/2000/svg" viewBox="0 0 32 32">
  <defs>
    <style>
      .cls-1 {
        fill: #ba9600;
      }
    </style>
  </defs>
  <path class="cls-1" d="M19.77,24.75h-2c-.41,0-.75-.34-.75-.75s.34-.75.75-.75h2c.41,0,.75.34.75.75s-.34.75-.75.75ZM14.77,24.75h-2c-.41,0-.75-.34-.75-.75s.34-.75.75-.75h2c.41,0,.75.34.75.75s-.34.75-.75.75ZM9.77,24.75h-2c-.41,0-.75-.34-.75-.75s.34-.75.75-.75h2c.41,0,.75.34.75.75s-.34.75-.75.75ZM4.77,24.75h-1.27c-.61,0-1.12-.46-1.23-1.09-.07-.41.21-.79.62-.86.35-.06.69.14.82.45h1.06c.41,0,.75.34.75.75s-.34.75-.75.75ZM3,21.29c-.41,0-.75-.34-.75-.75v-2c0-.41.34-.75.75-.75s.75.34.75.75v2c0,.41-.34.75-.75.75ZM3,16.29c-.41,0-.75-.34-.75-.75v-2c0-.41.34-.75.75-.75s.75.34.75.75v2c0,.41-.34.75-.75.75ZM3,11.29c-.41,0-.75-.34-.75-.75v-1.97l.75-.03.75.03v1.97c0,.41-.34.75-.75.75ZM17.69,8.75h-2c-.41,0-.75-.34-.75-.75s.34-.75.75-.75h2c.41,0,.75.34.75.75s-.34.75-.75.75ZM12.69,8.75h-2c-.41,0-.75-.34-.75-.75s.34-.75.75-.75h2c.41,0,.75.34.75.75s-.34.75-.75.75ZM7.69,8.75h-2c-.41,0-.75-.34-.75-.75s.34-.75.75-.75h2c.41,0,.75.34.75.75s-.34.75-.75.75Z"/>
  <rect class="cls-1" x="10.61" y="11" width="10" height="10" rx=".73" ry=".73"/>
  <path class="cls-1" d="M28.5,24.75h-8.14c-.41,0-.75-.34-.75-.75s.34-.75.75-.75h7.89v-14.5h-7.93c-.41,0-.75-.34-.75-.75s.34-.75.75-.75h8.18c.69,0,1.25.59,1.25,1.32v14.86c0,.73-.56,1.32-1.25,1.32ZM28.5,8.75h0,0Z"/>
  <path class="cls-1" d="M20.15,30.75c-.41,0-.75-.34-.75-.75V2c0-.41.34-.75.75-.75s.75.34.75.75v28c0,.41-.34.75-.75.75Z"/>
</svg>