<svg viewBox="0 0 32 32" xmlns="http://www.w3.org/2000/svg" xmlns:xlink="http://www.w3.org/1999/xlink" width="32.000000" height="32.000000" fill="none">
	<rect id="setting" width="32.000000" height="32.000000" x="0.000000" y="0.000000" />
	<path id="矢量 137" d="M28.2666 13.2L25.6 12.7333L25.0666 11.5333L26.6 9.33331C27.0666 8.66665 27 7.79998 26.4 7.19998L24.7333 5.53331C24.1333 4.93331 23.2666 4.86665 22.6 5.33331L20.4 6.86665L19.2 6.33331L18.7333 3.66665C18.6666 2.93331 18 2.33331 17.2 2.33331L14.8666 2.33331C14.0666 2.33331 13.4 2.93331 13.2 3.73331L12.7333 6.39998L11.5333 6.93331L9.26665 5.33331C8.59998 4.86665 7.73331 4.93331 7.13331 5.53331L5.46665 7.19998C4.86665 7.79998 4.79998 8.66665 5.26665 9.33331L6.79998 11.5333L6.26665 12.7333L3.59998 13.2C2.93331 13.3333 2.33331 14 2.33331 14.8L2.33331 17.1333C2.33331 17.9333 2.93331 18.6 3.73331 18.8L6.39998 19.2666L6.93331 20.4666L5.33331 22.7333C4.86665 23.4 4.93331 24.2666 5.53331 24.8666L7.19998 26.5333C7.79998 27.1333 8.66665 27.2 9.33331 26.7333L11.5333 25.2L12.7333 25.7333L13.2 28.4C13.3333 29.2 14 29.8 14.8666 29.8L17.2 29.8C18 29.8 18.6666 29.2 18.8666 28.4L19.3333 25.7333L20.5333 25.2L22.7333 26.7333C23.4 27.2 24.2666 27.1333 24.8666 26.5333L26.5333 24.8666C27.1333 24.2666 27.2 23.4 26.7333 22.7333L25.2 20.5333L25.7333 19.3333L28.4 18.8666C29.2 18.7333 29.8 18.0666 29.8 17.2L29.8 14.8666C29.6666 14 29.0666 13.3333 28.2666 13.2ZM27.6666 16.8666L24.7333 17.4C24.4 17.4666 24.1333 17.6666 24 18L23.0666 20.2C22.9333 20.5333 23 20.8666 23.2 21.1333L24.8666 23.5333L23.6 24.8L21.2 23.1333C20.9333 22.9333 20.5333 22.8666 20.2666 23L18 24C17.6666 24.1333 17.4666 24.4 17.4 24.7333L16.8666 27.6666L15.0666 27.6666L14.5333 24.7333C14.4666 24.4 14.2666 24.1333 13.9333 24L11.7333 23.0666C11.4 22.9333 11.0666 23 10.8 23.2L8.39998 24.8666L7.13331 23.6L8.79998 21.2C8.99998 20.9333 9.06665 20.5333 8.93331 20.2666L7.99998 18C7.86665 17.6666 7.59998 17.4666 7.26665 17.4L4.33331 16.8666L4.33331 15.0666L7.26665 14.5333C7.59998 14.4666 7.86665 14.2666 7.99998 13.9333L8.93331 11.7333C9.06665 11.4 8.99998 11.0666 8.79998 10.8L7.13331 8.39998L8.39998 7.13331L10.8 8.79998C11.0666 8.99998 11.4666 9.06664 11.7333 8.93331L14 7.99998C14.3333 7.86665 14.5333 7.59998 14.6 7.26664L15.1333 4.33331L16.9333 4.33331L17.4666 7.26664C17.5333 7.59998 17.7333 7.86664 18.0666 7.99998L20.2666 8.93331C20.6 9.06664 20.9333 8.99998 21.2 8.79998L23.6 7.13331L24.8666 8.39998L23.2 10.8C23 11.0666 22.9333 11.4666 23.0666 11.7333L24 14C24.1333 14.3333 24.4 14.5333 24.7333 14.6L27.6666 15.1333L27.6666 16.8666L27.6666 16.8666Z" fill="rgb(56,56,56)" fill-rule="nonzero" />
	<path id="矢量 138" d="M16 12.3333C14 12.3333 12.3334 14 12.3334 16C12.3334 18 14 19.6666 16 19.6666C18 19.6666 19.6667 18 19.6667 16C19.6667 14 18 12.3333 16 12.3333L16 12.3333ZM16 17.6666C15.0667 17.6666 14.3334 16.9333 14.3334 16C14.3334 15.0666 15.0667 14.3333 16 14.3333C16.9334 14.3333 17.6667 15.0666 17.6667 16C17.6667 16.9333 16.9334 17.6666 16 17.6666L16 17.6666Z" fill="rgb(56,56,56)" fill-rule="nonzero" />
</svg>
