<?xml version="1.0" encoding="UTF-8"?>
<svg id="_图标" data-name="图标" xmlns="http://www.w3.org/2000/svg" viewBox="0 0 32 32">
  <defs>
    <style>
      .cls-1 {
        fill: #57b8ff;
      }
    </style>
  </defs>
  <path class="cls-1" d="M30,17.6v-3.21l-3.67-1.31c-.39-.93-.58-1.4-.97-2.34l1.67-3.52q-1.13-1.13-2.27-2.27l-3.52,1.67c-.93-.39-1.4-.58-2.34-.97l-1.31-3.67h-3.21l-1.31,3.67c-.93.39-1.4.58-2.34.97l-3.52-1.67q-1.13,1.13-2.27,2.27l1.67,3.52c-.39.93-.58,1.4-.97,2.34l-3.67,1.31v3.21l3.67,1.31c.39.93.58,1.4.97,2.34l-1.67,3.52q1.13,1.13,2.27,2.27l3.52-1.67c.93.39,1.4.58,2.34.97l1.31,3.67h3.21l1.31-3.67c.93-.39,1.4-.58,2.34-.97l3.52,1.67q1.13-1.13,2.27-2.27l-1.67-3.52c.39-.93.58-1.4.97-2.34l3.67-1.31ZM16,21.7c-3.15,0-5.7-2.55-5.7-5.7s2.55-5.7,5.7-5.7,5.7,2.55,5.7,5.7-2.55,5.7-5.7,5.7Z"/>
</svg>