<svg width="32.000000" height="32.000000" viewBox="0 0 32 32" fill="none" xmlns="http://www.w3.org/2000/svg" xmlns:xlink="http://www.w3.org/1999/xlink">
	<desc>
			Created with Pixso.
	</desc>
	<defs>
		<clipPath id="clip52_1">
			<rect id="shadow" width="32.000000" height="32.000000" fill="white" fill-opacity="0"/>
		</clipPath>
	</defs>
	<g clip-path="url(#clip52_1)">
		<path id="path" d="M2.5 1C2.4 1 2.3 1 2.2 1.02C2.11 1.04 2.01 1.07 1.92 1.11C1.83 1.15 1.74 1.19 1.66 1.25C1.58 1.3 1.5 1.36 1.43 1.43C1.36 1.5 1.3 1.58 1.25 1.66C1.19 1.74 1.15 1.83 1.11 1.92C1.07 2.01 1.04 2.11 1.02 2.2C1 2.3 1 2.4 1 2.5L1 23.5C1 23.59 1 23.69 1.02 23.79C1.04 23.88 1.07 23.98 1.11 24.07C1.15 24.16 1.19 24.25 1.25 24.33C1.3 24.41 1.36 24.49 1.43 24.56C1.5 24.63 1.58 24.69 1.66 24.74C1.74 24.8 1.83 24.84 1.92 24.88C2.01 24.92 2.11 24.95 2.2 24.97C2.3 24.99 2.4 25 2.5 25L7 25L7 29.5C7 29.59 7 29.69 7.02 29.79C7.04 29.88 7.07 29.98 7.11 30.07C7.15 30.16 7.19 30.25 7.25 30.33C7.3 30.41 7.36 30.49 7.43 30.56C7.5 30.63 7.58 30.69 7.66 30.74C7.74 30.8 7.83 30.84 7.92 30.88C8.01 30.92 8.11 30.95 8.2 30.97C8.3 30.99 8.4 31 8.5 31L29.5 31C29.59 31 29.69 30.99 29.79 30.97C29.88 30.95 29.98 30.92 30.07 30.88C30.16 30.84 30.25 30.8 30.33 30.74C30.41 30.69 30.49 30.63 30.56 30.56C30.63 30.49 30.69 30.41 30.74 30.33C30.8 30.25 30.84 30.16 30.88 30.07C30.92 29.98 30.95 29.88 30.97 29.79C30.99 29.69 31 29.59 31 29.5L31 8.5C31 8.4 30.99 8.3 30.97 8.2C30.95 8.11 30.92 8.01 30.88 7.92C30.84 7.83 30.8 7.74 30.74 7.66C30.69 7.58 30.63 7.5 30.56 7.43C30.49 7.36 30.41 7.3 30.33 7.25C30.25 7.19 30.16 7.15 30.07 7.11C29.98 7.07 29.88 7.04 29.79 7.02C29.69 7 29.59 7 29.5 7L25 7L25 2.5C25 2.4 24.99 2.3 24.97 2.2C24.95 2.11 24.92 2.01 24.88 1.92C24.84 1.83 24.8 1.74 24.74 1.66C24.69 1.58 24.63 1.5 24.56 1.43C24.49 1.36 24.41 1.3 24.33 1.25C24.25 1.19 24.16 1.15 24.07 1.11C23.98 1.07 23.88 1.04 23.79 1.02C23.69 1 23.59 1 23.5 1L2.5 1ZM25 15.34L28 18.34L28 22.66L25 19.66L25 15.34ZM25 12.16L25 10L28 10L28 15.16L25 12.16ZM25 23.5L25 22.84L28 25.84L28 28L25.84 28L22.84 25L23.5 25C23.59 25 23.69 24.99 23.79 24.97C23.88 24.95 23.98 24.92 24.07 24.88C24.16 24.84 24.25 24.8 24.33 24.74C24.41 24.69 24.49 24.63 24.56 24.56C24.63 24.49 24.69 24.41 24.74 24.33C24.8 24.25 24.84 24.16 24.88 24.07C24.92 23.98 24.95 23.88 24.97 23.79C24.99 23.69 25 23.59 25 23.5ZM19.66 25L22.66 28L18.34 28L15.34 25L19.66 25ZM12.16 25L15.16 28L10 28L10 25L12.16 25ZM4 22L4 4L22 4L22 22L4 22Z" fill="#383838" fill-opacity="1.000000" fill-rule="nonzero"/>
	</g>
</svg>
