<?xml version="1.0" encoding="UTF-8"?>
<svg id="_图标" data-name="图标" xmlns="http://www.w3.org/2000/svg" viewBox="0 0 32 32">
  <defs>
    <style>
      .cls-1 {
        fill: #57b8ff;
      }
    </style>
  </defs>
  <path class="cls-1" d="M19.92,21.39c-.38,0-.71-.29-.75-.68-.04-.41.26-.78.68-.82l7.68-.72,1.63-15.67-16.55,1.55-.74,7.14c-.04.41-.41.72-.82.67-.41-.04-.71-.41-.67-.82l.81-7.75c.04-.36.32-.64.68-.67l18.07-1.69c.23-.02.45.06.6.22.16.16.24.38.21.61l-1.79,17.19c-.04.36-.32.64-.68.67l-8.29.78s-.05,0-.07,0Z"/>
  <path class="cls-1" d="M27.79,19.76c-.18,0-.36-.07-.51-.2L12.56,6.03c-.3-.28-.32-.75-.04-1.06.28-.3.75-.32,1.06-.04l14.72,13.53c.3.28.32.75.04,1.06-.15.16-.35.24-.55.24Z"/>
  <path class="cls-1" d="M28.06,12.45c-.17,0-.35-.06-.49-.18l-8.38-7.27c-.31-.27-.35-.75-.08-1.06.27-.31.75-.35,1.06-.08l8.38,7.27c.31.27.35.75.08,1.06-.15.17-.36.26-.57.26Z"/>
  <path class="cls-1" d="M20.67,12.16h0,0M20.06,12.21l-1.47,14.15-15.03,1.41,1.47-14.15,15.03-1.41M5.08,13.21h0,0M20.62,10.66s-.06,0-.1,0l-16.04,1.5c-.48.04-.85.42-.9.89l-1.58,15.16c-.06.6.41,1.11.99,1.11.03,0,.06,0,.1,0l16.04-1.5c.48-.04.85-.42.9-.89l1.58-15.16c.06-.6-.41-1.11-.99-1.11h0Z"/>
</svg>