<?xml version="1.0" encoding="UTF-8"?>
<svg id="_图标" data-name="图标" xmlns="http://www.w3.org/2000/svg" viewBox="0 0 32 32">
  <defs>
    <style>
      .cls-1 {
        fill: #825e4a;
      }

      .cls-2 {
        fill: #57b8ff;
      }
    </style>
  </defs>
  <g>
    <path class="cls-2" d="M4.4,5.22v21.79h0c.07,1.49,5.23,2.69,11.59,2.69s11.53-1.2,11.59-2.69h0V5.22H4.4Z"/>
    <path class="cls-1" d="M16,29.96c-5.44,0-11.24-.94-11.8-2.69h-.04v-.25s0-22.04,0-22.04h23.7v22.29h-.05c-.56,1.75-6.37,2.69-11.8,2.69ZM4.65,26.92v.08c.06,1.16,4.73,2.46,11.35,2.46s11.29-1.29,11.34-2.46v-.12s0-21.41,0-21.41H4.65v21.45Z"/>
  </g>
  <g>
    <ellipse class="cls-2" cx="16" cy="5.01" rx="11.6" ry="2.72"/>
    <path class="cls-1" d="M16,7.99c-5.74,0-11.85-1.04-11.85-2.97s6.11-2.97,11.85-2.97,11.85,1.04,11.85,2.97-6.11,2.97-11.85,2.97ZM16,2.54c-6.69,0-11.35,1.3-11.35,2.47s4.66,2.47,11.35,2.47,11.35-1.3,11.35-2.47-4.66-2.47-11.35-2.47Z"/>
  </g>
  <path class="cls-1" d="M27.6,27.44c-.14,0-.25-.11-.25-.25s-.07-.28-.21-.42c-.09-.1-.09-.26.01-.35.1-.09.26-.09.35.01.23.24.34.5.34.76,0,.14-.11.25-.25.25ZM4.51,27.44c-.14,0-.25-.11-.25-.25,0-1.08,1.89-1.76,3.47-2.14.13-.04.27.05.3.18s-.05.27-.18.3c-2.28.55-3.09,1.22-3.09,1.66,0,.14-.11.25-.25.25ZM25.59,25.9s-.05,0-.08-.01c-.99-.34-2.32-.63-3.85-.83-.14-.02-.23-.14-.21-.28.02-.14.15-.24.28-.21,1.56.21,2.92.5,3.95.85.13.04.2.19.16.32-.04.1-.13.17-.24.17ZM9.75,25.16c-.12,0-.23-.09-.25-.21-.02-.14.07-.26.21-.28,1.22-.19,2.57-.32,4-.39.13,0,.25.1.26.24,0,.14-.1.25-.24.26-1.41.07-2.74.2-3.95.38-.01,0-.03,0-.04,0ZM19.71,24.86h-.02c-1.17-.09-2.39-.14-3.63-.14h-.34s0,0,0,0c-.14,0-.25-.11-.25-.25,0-.14.11-.25.25-.25h.34c1.25,0,2.49.05,3.67.14.14.01.24.13.23.27-.01.13-.12.23-.25.23Z"/>
</svg>