<svg width="32.000000" height="32.000000" viewBox="0 0 32 32" fill="none" xmlns="http://www.w3.org/2000/svg" xmlns:xlink="http://www.w3.org/1999/xlink">
	<desc>
			Created with Pixso.
	</desc>
	<defs>
		<clipPath id="clip56_1">
			<rect id="showedges" width="32.000000" height="32.000000" fill="white" fill-opacity="0"/>
		</clipPath>
	</defs>
	<g clip-path="url(#clip56_1)">
		<path id="path" d="M31 22.52C31 23.64 30.39 24.65 29.44 25.15C29.44 25.15 21.79 29.15 18.46 30.88C17.76 31.24 16.93 30.71 16.93 29.89L16.93 14.79C16.93 14.16 17.3 13.61 17.86 13.4L30.05 8.85C30.51 8.67 30.99 9.03 30.99 9.54C31 12.78 31 22.52 31 22.52ZM15.06 14.78L15.06 29.81C15.06 30.65 14.21 31.18 13.5 30.78L2.48 24.59C1.56 24.07 1 23.08 1 22C1 22 1 12.67 1 9.49C1 8.98 1.49 8.62 1.94 8.8L14.13 13.39C14.69 13.61 15.06 14.16 15.06 14.78ZM29.67 6.9L16.95 11.66C16.33 11.89 15.66 11.89 15.05 11.66L2.39 6.88C2.11 6.78 2.07 6.39 2.32 6.22C2.47 6.12 2.64 6.03 2.82 5.96L15.01 1.18C15.33 1.06 15.66 1 16 1C16.33 1 16.66 1.06 16.98 1.18L29.16 5.94C29.37 6.02 29.57 6.13 29.75 6.25C29.99 6.42 29.94 6.8 29.67 6.9Z" fill="#383838" fill-opacity="1.000000" fill-rule="nonzero"/>
	</g>
</svg>
