<?xml version="1.0" encoding="UTF-8"?>
<svg id="_图标" data-name="图标" xmlns="http://www.w3.org/2000/svg" viewBox="0 0 32 32">
  <defs>
    <style>
      .cls-1 {
        fill: #57b8ff;
      }
    </style>
  </defs>
  <g>
    <path class="cls-1" d="M15.13,21.56c-.41,0-.75-.34-.75-.75v-2c0-.41.34-.75.75-.75s.75.34.75.75v2c0,.41-.34.75-.75.75ZM15.13,16.56c-.41,0-.75-.34-.75-.75v-2c0-.41.34-.75.75-.75s.75.34.75.75v2c0,.41-.34.75-.75.75ZM15.13,11.56c-.41,0-.75-.34-.75-.75v-2c0-.41.34-.75.75-.75s.75.34.75.75v2c0,.41-.34.75-.75.75ZM15.13,6.56c-.41,0-.75-.34-.75-.75v-2c0-.41.34-.75.75-.75s.75.34.75.75v2c0,.41-.34.75-.75.75Z"/>
    <path class="cls-1" d="M29.33,24.14s-.06,0-.09,0l-1.98-.25c-.41-.05-.7-.43-.65-.84s.42-.71.84-.65l1.98.25c.41.05.7.43.65.84-.05.38-.37.66-.74.66ZM24.37,23.52s-.06,0-.09,0l-1.98-.25c-.41-.05-.7-.43-.65-.84s.42-.71.84-.65l1.98.25c.41.05.7.43.65.84-.05.38-.37.66-.74.66ZM19.41,22.9s-.06,0-.09,0l-1.98-.25c-.41-.05-.7-.43-.65-.84s.42-.71.84-.65l1.98.25c.41.05.7.43.65.84-.05.38-.37.66-.74.66Z"/>
    <path class="cls-1" d="M3.51,26.93c-.3,0-.59-.19-.7-.49-.14-.39.05-.82.44-.96l1.88-.7c.39-.14.82.05.96.44.14.39-.05.82-.44.96l-1.88.7c-.09.03-.17.05-.26.05ZM8.2,25.19c-.3,0-.59-.19-.7-.49-.14-.39.05-.82.44-.96l1.88-.7c.39-.14.82.05.96.44.14.39-.05.82-.44.96l-1.88.7c-.09.03-.17.05-.26.05ZM12.89,23.45c-.3,0-.59-.19-.7-.49-.14-.39.05-.82.44-.96l.84-.31c.39-.14.82.05.96.44.14.39-.05.82-.44.96l-.84.31c-.09.03-.17.05-.26.05Z"/>
  </g>
  <path class="cls-1" d="M29.33,24.48c-.41,0-.75-.34-.75-.75V4.5c0-.41.34-.75.75-.75s.75.34.75.75v19.23c0,.41-.34.75-.75.75Z"/>
  <path class="cls-1" d="M18.64,29.88c-.06,0-.12,0-.19-.01l-15.07-1.72c-.84-.1-1.47-.81-1.47-1.65V7.3c0-.47.2-.92.54-1.23.34-.31.8-.47,1.27-.42l15.07,1.41c.86.08,1.5.79,1.5,1.66v19.5c0,.47-.2.93-.56,1.24-.3.27-.7.42-1.1.42ZM3.57,7.14s-.08.02-.1.04c-.02.02-.05.06-.05.12v19.18c0,.08.06.15.14.16l15.07,1.72c.06,0,.1-.02.12-.04.02-.02.05-.06.05-.12V8.71c0-.08-.06-.16-.14-.16l-15.07-1.41s-.01,0-.02,0Z"/>
  <path class="cls-1" d="M19.2,29.68c-.28,0-.54-.15-.67-.42-.18-.37-.03-.82.34-1l10.13-4.96c.37-.18.82-.03,1,.34.18.37.03.82-.34,1l-10.13,4.96c-.11.05-.22.08-.33.08Z"/>
  <path class="cls-1" d="M19.11,8.69c-.3,0-.58-.18-.7-.47-.16-.38.03-.82.42-.98l9.89-3.98c.38-.16.82.03.98.42.16.38-.03.82-.42.98l-9.89,3.98c-.09.04-.19.05-.28.05Z"/>
  <path class="cls-1" d="M2.92,7.31c-.32,0-.61-.2-.71-.52-.12-.39.09-.82.49-.94l11.39-3.63c.39-.12.82.09.94.49.12.39-.09.82-.49.94L3.15,7.27c-.08.02-.15.04-.23.04Z"/>
  <path class="cls-1" d="M29.33,4.73s-.04,0-.06,0l-14.6-1.11c-.41-.03-.72-.39-.69-.8.03-.41.4-.71.8-.69l14.6,1.11c.41.03.72.39.69.8-.03.39-.36.69-.75.69Z"/>
</svg>