<svg width="32.000000" height="32.000000" viewBox="0 0 32 32" fill="none" xmlns="http://www.w3.org/2000/svg" xmlns:xlink="http://www.w3.org/1999/xlink">
	<desc>
			Created with Pixso.
	</desc>
	<defs>
		<clipPath id="clip61_48">
			<rect id="wireframe" width="32.000000" height="32.000000" fill="white" fill-opacity="0"/>
		</clipPath>
	</defs>
	<g clip-path="url(#clip61_48)">
		<path id="path" d="M14 22L19 22L19 23L14 23L14 22Z" fill="#383838" fill-opacity="1.000000" fill-rule="nonzero"/>
		<path id="path" d="M30.59 1.02C30.5 1 30.26 1 30.22 1L7.28 1C7.18 1 7.1 1.02 7.01 1.06C6.93 1.1 6.86 1.16 6.81 1.24L1.1 9.31C1.09 9.32 1.09 9.34 1.09 9.35C1.05 9.41 1.02 9.48 1.01 9.56C1.01 9.58 1 9.6 1 9.62C1 9.63 1 9.64 1 9.64L1 30.42C1 30.49 1.01 30.57 1.04 30.64C1.07 30.71 1.11 30.77 1.16 30.83C1.22 30.88 1.28 30.92 1.35 30.95C1.42 30.98 1.5 31 1.57 31L24.52 31C24.55 31 24.57 30.98 24.6 30.98C24.64 30.98 24.67 31 24.71 31C24.8 31 24.89 30.97 24.97 30.93C25.06 30.89 25.13 30.83 25.18 30.75L30.89 22.76C30.96 22.66 31 22.54 31 22.42L31 1.58C31 1.51 30.99 1.45 30.97 1.4C30.95 1.34 30.92 1.28 30.88 1.23C30.85 1.18 30.8 1.14 30.75 1.1C30.7 1.07 30.65 1.04 30.59 1.02ZM6.7 3.39L6.7 6.66L7.86 6.66L7.86 2.15L29.3 2.15L24.41 9.06L2.69 9.06L6.7 3.39ZM24.13 21.76L21.86 21.76L21.86 22.92L24.13 22.92L24.13 29.84L2.84 29.84L5.01 26.73L4.06 26.07L2.15 28.8L2.15 10.22L6.7 10.22L6.7 14.76L7.86 14.76L7.86 10.22L24.13 10.22L24.13 21.76ZM25.15 28.75L25.15 22.92L27.06 22.92L27.06 21.76L25.15 21.76L25.15 9.76L29.84 3.12L29.84 22.23L25.15 28.75Z" fill="#383838" fill-opacity="1.000000" fill-rule="nonzero"/>
		<path id="path" d="M7.28 17L6.24 17L6.24 22L5 24.27L5.85 25L7.03 22.84L10 22.84L10 21.55L7.28 21.55L7.28 17Z" fill="#383838" fill-opacity="1.000000" fill-rule="nonzero"/>
		<path id="path" d="M29 22L31 22L31 23L29 23L29 22Z" fill="#383838" fill-opacity="1.000000" fill-rule="nonzero"/>
	</g>
</svg>
