<svg width="24.000000" height="24.000000" viewBox="0 0 24 24" fill="none" xmlns="http://www.w3.org/2000/svg" xmlns:xlink="http://www.w3.org/1999/xlink">
	<desc>
			Created with Pixso.
	</desc>
	<defs/>
	<path id="abort" d="M12 24C5.37 24 0 18.62 0 12C0 5.37 5.37 0 12 0C18.62 0 24 5.37 24 12C24 18.62 18.62 24 12 24ZM12 10.58L7.04 5.62C6.99 5.58 6.94 5.54 6.89 5.5C6.83 5.47 6.78 5.43 6.72 5.41C6.66 5.39 6.59 5.37 6.53 5.35C6.47 5.34 6.4 5.34 6.33 5.34C6.27 5.34 6.2 5.34 6.14 5.36C6.08 5.37 6.01 5.39 5.95 5.41C5.89 5.44 5.84 5.47 5.78 5.51C5.73 5.54 5.68 5.58 5.63 5.63C5.58 5.68 5.54 5.73 5.51 5.78C5.47 5.83 5.44 5.89 5.41 5.95C5.39 6.01 5.37 6.08 5.36 6.14C5.34 6.2 5.34 6.27 5.34 6.33C5.33 6.4 5.34 6.46 5.35 6.53C5.37 6.59 5.39 6.66 5.41 6.72C5.43 6.78 5.47 6.83 5.5 6.89C5.54 6.94 5.58 6.99 5.63 7.04L10.58 12L5.62 16.95C5.58 17 5.54 17.05 5.5 17.1C5.47 17.16 5.43 17.21 5.41 17.27C5.39 17.33 5.37 17.4 5.35 17.46C5.34 17.52 5.34 17.59 5.34 17.66C5.34 17.72 5.34 17.79 5.36 17.85C5.37 17.91 5.39 17.98 5.41 18.04C5.44 18.1 5.47 18.15 5.51 18.21C5.54 18.26 5.58 18.31 5.63 18.36C5.68 18.41 5.73 18.45 5.78 18.48C5.83 18.52 5.89 18.55 5.95 18.58C6.01 18.6 6.08 18.62 6.14 18.63C6.2 18.65 6.27 18.65 6.33 18.65C6.4 18.65 6.46 18.65 6.53 18.64C6.59 18.62 6.66 18.6 6.72 18.58C6.78 18.56 6.83 18.52 6.89 18.49C6.94 18.45 6.99 18.41 7.04 18.36L12 13.41L16.95 18.36C17 18.41 17.05 18.45 17.1 18.49C17.16 18.52 17.21 18.55 17.27 18.58C17.33 18.6 17.4 18.62 17.46 18.64C17.52 18.65 17.59 18.65 17.66 18.65C17.72 18.65 17.79 18.65 17.85 18.63C17.91 18.62 17.98 18.6 18.04 18.58C18.1 18.55 18.15 18.52 18.21 18.48C18.26 18.45 18.31 18.41 18.36 18.36C18.41 18.31 18.45 18.26 18.48 18.21C18.52 18.15 18.55 18.1 18.58 18.04C18.6 17.98 18.62 17.91 18.63 17.85C18.65 17.79 18.65 17.72 18.65 17.66C18.66 17.59 18.65 17.52 18.64 17.46C18.62 17.4 18.6 17.33 18.58 17.27C18.56 17.21 18.52 17.15 18.49 17.1C18.45 17.05 18.41 17 18.36 16.95L13.41 12L18.36 7.04C18.41 6.99 18.45 6.94 18.49 6.89C18.52 6.83 18.55 6.78 18.58 6.72C18.6 6.66 18.62 6.59 18.64 6.53C18.65 6.47 18.65 6.4 18.65 6.33C18.65 6.27 18.65 6.2 18.63 6.14C18.62 6.08 18.6 6.01 18.58 5.95C18.55 5.89 18.52 5.84 18.48 5.78C18.45 5.73 18.41 5.68 18.36 5.63C18.31 5.58 18.26 5.54 18.21 5.51C18.15 5.47 18.1 5.44 18.04 5.41C17.98 5.39 17.91 5.37 17.85 5.36C17.79 5.34 17.72 5.34 17.66 5.34C17.59 5.34 17.52 5.34 17.46 5.35C17.4 5.37 17.33 5.39 17.27 5.41C17.21 5.43 17.15 5.47 17.1 5.5C17.05 5.54 17 5.58 16.95 5.63L12 10.58Z" fill="#E50100" fill-opacity="1.000000" fill-rule="nonzero"/>
</svg>
