<svg width="32.000000" height="32.000000" viewBox="0 0 32 32" fill="none" xmlns="http://www.w3.org/2000/svg" xmlns:xlink="http://www.w3.org/1999/xlink">
	<desc>
			Created with Pixso.
	</desc>
	<defs>
		<clipPath id="clip92_34">
			<rect id="about" width="32.000000" height="32.000000" fill="white" fill-opacity="0"/>
		</clipPath>
	</defs>
	<g clip-path="url(#clip92_34)">
		<path id="path" d="M16 2C23.73 2 30 8.26 30 16C30 23.73 23.73 30 16 30C8.26 30 2 23.73 2 16C2 8.26 8.26 2 16 2ZM16 4.66C9.74 4.66 4.66 9.74 4.66 16C4.66 22.25 9.74 27.33 16 27.33C22.25 27.33 27.33 22.25 27.33 16C27.33 9.74 22.25 4.66 16 4.66ZM16.66 13.33C16.71 13.33 16.75 13.33 16.79 13.34C16.83 13.35 16.88 13.36 16.92 13.38C16.96 13.4 17 13.42 17.03 13.44C17.07 13.47 17.1 13.49 17.13 13.52C17.16 13.55 17.19 13.59 17.22 13.62C17.24 13.66 17.26 13.7 17.28 13.74C17.29 13.78 17.31 13.82 17.32 13.86C17.32 13.91 17.33 13.95 17.33 14L17.33 23.33C17.33 23.37 17.32 23.42 17.32 23.46C17.31 23.5 17.29 23.54 17.28 23.58C17.26 23.62 17.24 23.66 17.22 23.7C17.19 23.74 17.16 23.77 17.13 23.8C17.1 23.83 17.07 23.86 17.03 23.88C17 23.91 16.96 23.93 16.92 23.94C16.88 23.96 16.83 23.97 16.79 23.98C16.75 23.99 16.71 24 16.66 24L15.33 24C15.28 24 15.24 23.99 15.2 23.98C15.16 23.97 15.11 23.96 15.07 23.94C15.03 23.93 14.99 23.91 14.96 23.88C14.92 23.86 14.89 23.83 14.86 23.8C14.83 23.77 14.8 23.74 14.77 23.7C14.75 23.66 14.73 23.62 14.71 23.58C14.7 23.54 14.68 23.5 14.67 23.46C14.67 23.42 14.66 23.37 14.66 23.33L14.66 14C14.66 13.95 14.67 13.91 14.67 13.86C14.68 13.82 14.7 13.78 14.71 13.74C14.73 13.7 14.75 13.66 14.77 13.62C14.8 13.59 14.83 13.55 14.86 13.52C14.89 13.49 14.92 13.47 14.96 13.44C14.99 13.42 15.03 13.4 15.07 13.38C15.11 13.36 15.16 13.35 15.2 13.34C15.24 13.33 15.28 13.33 15.33 13.33L16.66 13.33ZM16.66 8C16.71 8 16.75 8 16.79 8.01C16.83 8.02 16.88 8.03 16.92 8.05C16.96 8.06 17 8.08 17.03 8.11C17.07 8.13 17.1 8.16 17.13 8.19C17.16 8.22 17.19 8.25 17.22 8.29C17.24 8.33 17.26 8.37 17.28 8.41C17.29 8.45 17.31 8.49 17.32 8.53C17.32 8.57 17.33 8.62 17.33 8.66L17.33 10C17.33 10.04 17.32 10.08 17.32 10.13C17.31 10.17 17.29 10.21 17.28 10.25C17.26 10.29 17.24 10.33 17.22 10.37C17.19 10.4 17.16 10.44 17.13 10.47C17.1 10.5 17.07 10.53 17.03 10.55C17 10.57 16.96 10.59 16.92 10.61C16.88 10.63 16.83 10.64 16.79 10.65C16.75 10.66 16.71 10.66 16.66 10.66L15.33 10.66C15.28 10.66 15.24 10.66 15.2 10.65C15.16 10.64 15.11 10.63 15.07 10.61C15.03 10.59 14.99 10.57 14.96 10.55C14.92 10.53 14.89 10.5 14.86 10.47C14.83 10.44 14.8 10.4 14.77 10.37C14.75 10.33 14.73 10.29 14.71 10.25C14.7 10.21 14.68 10.17 14.67 10.13C14.67 10.08 14.66 10.04 14.66 10L14.66 8.66C14.66 8.62 14.67 8.57 14.67 8.53C14.68 8.49 14.7 8.45 14.71 8.41C14.73 8.37 14.75 8.33 14.77 8.29C14.8 8.25 14.83 8.22 14.86 8.19C14.89 8.16 14.92 8.13 14.96 8.11C14.99 8.08 15.03 8.06 15.07 8.05C15.11 8.03 15.16 8.02 15.2 8.01C15.24 8 15.28 8 15.33 8L16.66 8Z" fill="#383838" fill-opacity="1.000000" fill-rule="nonzero"/>
	</g>
</svg>
