<?xml version="1.0" encoding="UTF-8"?>
<svg id="_图标" data-name="图标" xmlns="http://www.w3.org/2000/svg" viewBox="0 0 32 32">
  <defs>
    <style>
      .cls-1 {
        fill: #57b8ff;
      }
    </style>
  </defs>
  <path class="cls-1" d="M14.41,24.19c0-.45.16-.82.47-1.12.31-.3.69-.45,1.13-.45s.8.16,1.12.47c.31.31.47.68.47,1.1s-.15.78-.46,1.09c-.31.31-.66.47-1.07.47-.5,0-.9-.16-1.2-.47-.31-.31-.46-.67-.46-1.09ZM17.25,6.26l-.29,13.75h-1.98l-.27-13.75h2.54Z"/>
  <path class="cls-1" d="M16,29.7c-7.55,0-13.7-6.15-13.7-13.7S8.45,2.3,16,2.3s13.7,6.15,13.7,13.7-6.15,13.7-13.7,13.7ZM16,3.7c-6.78,0-12.3,5.52-12.3,12.3s5.52,12.3,12.3,12.3,12.3-5.52,12.3-12.3S22.78,3.7,16,3.7Z"/>
</svg>