<svg viewBox="0 0 32 32" xmlns="http://www.w3.org/2000/svg" xmlns:xlink="http://www.w3.org/1999/xlink" width="32.000000" height="32.000000" fill="none">
	<rect id="close_normal" width="32.000000" height="32.000000" x="0.000000" y="0.000000" />
	<path id="矢量 128" d="M17.0139 15.6L25.9069 6.70698C26.052 6.55679 26.1464 6.36496 26.1769 6.1584C26.2074 5.95184 26.1725 5.74091 26.077 5.55519C25.9816 5.36948 25.8304 5.2183 25.6447 5.12285C25.459 5.02741 25.2481 4.9925 25.0415 5.02301C24.8349 5.05352 24.6431 5.14793 24.4929 5.29298L15.5999 14.186L6.70692 5.29298C6.55673 5.14792 6.3649 5.05352 6.15834 5.023C5.95177 4.99249 5.74084 5.0274 5.55512 5.12285C5.36941 5.21829 5.21823 5.36947 5.12278 5.55518C5.02734 5.7409 4.99243 5.95183 5.02294 6.1584C5.05345 6.36496 5.14786 6.55679 5.29292 6.70698L14.1859 15.6L5.29292 24.493C5.14786 24.6432 5.05346 24.835 5.02295 25.0416C4.99244 25.2481 5.02735 25.4591 5.12279 25.6448C5.21823 25.8305 5.36941 25.9817 5.55513 26.0771C5.74084 26.1726 5.95177 26.2075 6.15834 26.177C6.3649 26.1464 6.55673 26.052 6.70692 25.907L15.5999 17.014L24.4929 25.907C24.6168 26.0315 24.7713 26.1212 24.941 26.1668C25.1106 26.2124 25.2893 26.2124 25.4589 26.1668C25.6285 26.1212 25.7831 26.0315 25.9069 25.907C26.031 25.7829 26.1202 25.6283 26.1656 25.4588C26.2111 25.2892 26.2111 25.1107 26.1656 24.9412C26.1202 24.7717 26.031 24.6171 25.9069 24.493L17.0139 15.6Z" fill="rgb(208,208,208)" fill-rule="nonzero" />
</svg>
