<svg width="32.000000" height="32.000000" viewBox="0 0 32 32" fill="none" xmlns="http://www.w3.org/2000/svg" xmlns:xlink="http://www.w3.org/1999/xlink">
	<desc>
			Created with Pixso.
	</desc>
	<defs>
		<clipPath id="clip16_2">
			<rect id="close" rx="0.000000" width="31.000000" height="31.000000" transform="translate(0.500000 0.500000)" fill="white" fill-opacity="0"/>
		</clipPath>
	</defs>
	<g clip-path="url(#clip16_2)">
		<path id="Vector 2" d="" fill="#383838" fill-opacity="1.000000" fill-rule="nonzero"/>
		<path id="Vector 2" d="M20.5 2.5L7.5 2.5C4.73 2.5 2.5 4.73 2.5 7.5L2.5 24.5C2.5 27.26 4.73 29.5 7.5 29.5L20.5 29.5" stroke="#383838" stroke-opacity="1.000000" stroke-width="3.000000"/>
		<path id="Polygon 2" d="M30.58 15.47L23.07 3.38C22.54 2.53 21.22 2.9 21.22 3.91L21.22 28.08C21.22 29.09 22.54 29.46 23.07 28.61L30.58 16.52C30.78 16.2 30.78 15.79 30.58 15.47Z" fill="#383838" fill-opacity="1.000000" fill-rule="evenodd"/>
		<path id="Polygon 2" d="M23.07 3.38C22.54 2.53 21.22 2.9 21.22 3.91L21.22 28.08C21.22 29.09 22.54 29.46 23.07 28.61L30.58 16.52C30.78 16.2 30.78 15.79 30.58 15.47L23.07 3.38ZM22.22 3.91L22.22 28.08L29.73 16L22.22 3.91Z" fill="#383838" fill-opacity="1.000000" fill-rule="evenodd"/>
		<rect id="Rectangle 9" x="6.000000" y="11.000000" width="17.000000" height="10.000000" fill="#383838" fill-opacity="1.000000"/>
		<rect id="Rectangle 9" x="6.500000" y="11.500000" width="16.000000" height="9.000000" stroke="#383838" stroke-opacity="1.000000" stroke-width="1.000000"/>
	</g>
</svg>
