<?xml version="1.0" encoding="UTF-8"?>
<svg id="_图标" data-name="图标" xmlns="http://www.w3.org/2000/svg" viewBox="0 0 32 32">
  <defs>
    <style>
      .cls-1 {
        fill: #57b8ff;
      }
    </style>
  </defs>
  <path class="cls-1" d="M24.84,29.18H4.5c-.41,0-.75-.34-.75-.75V3.57c0-.41.34-.75.75-.75h20.34c.41,0,.75.34.75.75v5c0,.41-.34.75-.75.75s-.75-.34-.75-.75v-4.25H5.25v23.36h18.84v-4.25c0-.41.34-.75.75-.75s.75.34.75.75v5c0,.41-.34.75-.75.75Z"/>
  <g>
    <path class="cls-1" d="M21.96,16.75h-13.22c-.41,0-.75-.34-.75-.75s.34-.75.75-.75h13.22c.41,0,.75.34.75.75s-.34.75-.75.75Z"/>
    <polygon class="cls-1" points="20.43 21.24 29.5 16 20.43 10.76 20.43 21.24"/>
  </g>
</svg>