<svg viewBox="0 0 32 32" xmlns="http://www.w3.org/2000/svg" xmlns:xlink="http://www.w3.org/1999/xlink" width="32.000000" height="32.000000" fill="none">
	<rect id="language" width="32.000000" height="32.000000" x="0.000000" y="0.000000" />
	<path id="矢量 136" d="M16 2C8.26875 2 2 8.26875 2 16C2 23.7313 8.26875 30 16 30C23.7313 30 30 23.7313 30 16C30 8.26875 23.7313 2 16 2ZM11.3281 4.94063C12.1844 4.58125 13.0719 4.32188 13.9812 4.16875C12.8062 5.0625 11.7688 6.13438 10.8969 7.35C10.2156 7.0625 9.55313 6.7125 8.92188 6.30625C9.66562 5.75937 10.4719 5.30312 11.3281 4.94062L11.3281 4.94063ZM4.94375 11.3281C5.54688 9.9 6.4125 8.61875 7.51562 7.51562L7.54375 7.4875C8.30313 8.01562 9.1125 8.46875 9.95625 8.84375C8.89375 10.775 8.27812 12.9094 8.15 15.125L4.03125 15.125C4.125 13.8125 4.43125 12.5406 4.94375 11.3281ZM7.51562 24.4844C6.4125 23.3813 5.54688 22.1 4.94375 20.6719C4.43125 19.4594 4.125 18.1875 4.03125 16.875L8.15 16.875C8.27812 19.0875 8.89375 21.225 9.95625 23.1531C9.1125 23.5281 8.30625 23.9844 7.54375 24.5125L7.51562 24.4844L7.51562 24.4844ZM11.3281 27.0562C10.4719 26.6969 9.66875 26.2375 8.925 25.6938C9.55625 25.2875 10.2156 24.9406 10.8969 24.65C11.7688 25.8687 12.8063 26.9375 13.9781 27.8312C13.0688 27.6781 12.1844 27.4187 11.3281 27.0562ZM15.125 26.5094C14.1781 25.8031 13.3375 24.9781 12.625 24.0594C13.4375 23.8469 14.2719 23.7094 15.125 23.6531L15.125 26.5094ZM15.125 16.875L15.125 21.9C13.925 21.9688 12.7469 22.1812 11.6031 22.5344C10.6312 20.8344 10.0375 18.9062 9.90312 16.8719L15.125 16.8719L15.125 16.875L15.125 16.875ZM15.125 15.125L9.90312 15.125C10.0375 13.0938 10.6312 11.1656 11.6062 9.46562C12.7469 9.81875 13.925 10.0312 15.125 10.1L15.125 15.125ZM15.125 8.34688C14.2719 8.29063 13.4375 8.15625 12.6281 7.94063C13.3406 7.02188 14.1813 6.19688 15.125 5.49063L15.125 8.34688ZM24.4844 7.51875C25.5875 8.61875 26.4531 9.9 27.0562 11.3281C27.5688 12.5406 27.875 13.8125 27.9688 15.125L23.85 15.125C23.7219 12.9094 23.1063 10.775 22.0438 8.84688C22.8875 8.47188 23.6938 8.01875 24.4563 7.49063L24.4844 7.51875L24.4844 7.51875ZM20.6688 4.94375C21.5281 5.30312 22.3313 5.7625 23.075 6.30625C22.4438 6.7125 21.7844 7.0625 21.1 7.35C20.275 6.19687 19.2906 5.16875 18.175 4.29375C18.1219 4.25 18.0656 4.20937 18.0125 4.16875C18.9219 4.32187 19.8125 4.58125 20.6688 4.94375L20.6688 4.94375ZM16.875 5.50625C17.8062 6.20937 18.6375 7.03438 19.3469 7.94687C18.5437 8.15625 17.7188 8.29062 16.875 8.34687L16.875 5.50625L16.875 5.50625ZM16.875 10.1C18.0656 10.0312 19.2344 9.82188 20.3687 9.47188C21.35 11.1781 21.9562 13.1094 22.0938 15.125L16.875 15.125L16.875 10.1ZM16.875 16.875L22.0969 16.875C21.9625 18.9094 21.3687 20.8344 20.3969 22.5375C19.2531 22.1844 18.075 21.9719 16.875 21.9031L16.875 16.875L16.875 16.875ZM16.875 23.6562C17.7188 23.7125 18.5562 23.8531 19.3687 24.0688C18.6562 24.9844 17.8188 25.8094 16.875 26.5125L16.875 23.6562ZM20.675 27.0562C19.8156 27.4187 18.9281 27.6781 18.0219 27.8312C19.1906 26.9375 20.2281 25.8719 21.1 24.6562C21.7844 24.9438 22.4469 25.2906 23.0781 25.6938C22.3344 26.2375 21.5312 26.6938 20.675 27.0562L20.675 27.0562ZM27.0562 20.6719C26.4531 22.1 25.5875 23.3813 24.4844 24.4844L24.4562 24.5125C23.6937 23.9844 22.8875 23.5312 22.0437 23.1562C23.1062 21.225 23.7219 19.0906 23.85 16.875L27.9688 16.875C27.875 18.1875 27.5688 19.4594 27.0562 20.6719Z" fill="rgb(56,56,56)" fill-rule="nonzero" />
</svg>
