<?xml version="1.0" encoding="UTF-8"?>
<svg id="_图标" data-name="图标" xmlns="http://www.w3.org/2000/svg" viewBox="0 0 32 32">
  <defs>
    <style>
      .cls-1 {
        fill: #57b8ff;
      }
    </style>
  </defs>
  <path class="cls-1" d="M16,2c-7.72,0-14,6.28-14,14s6.28,14,14,14,14-6.28,14-14S23.72,2,16,2h0ZM16,29.16c-7.26,0-13.16-5.9-13.16-13.16S8.74,2.84,16,2.84s13.16,5.9,13.16,13.16-5.9,13.16-13.16,13.16h0Z"/>
  <path class="cls-1" d="M27.12,7.59c-4.31,3.1-8.22,4.14-11.52,4.14-6.37,0-10.46-3.85-10.71-4.1l-.59.61c.07.06,4.52,4.28,11.4,4.28,3.45,0,7.5-1.06,11.91-4.24l-.49-.68h0Z"/>
  <path class="cls-1" d="M16.23,19.51c-3.45,0-7.5,1.06-11.91,4.24l.49.68c4.31-3.1,8.22-4.14,11.52-4.14,6.37,0,10.46,3.85,10.71,4.1l.59-.61c-.07-.06-4.52-4.28-11.4-4.28h0Z"/>
  <path class="cls-1" d="M16.13,24.62c-2.07,0-4.51.64-7.16,2.55l.39.54c2.55-1.84,4.87-2.45,6.83-2.45,3.77,0,6.19,2.27,6.34,2.42l.47-.48s-2.73-2.58-6.86-2.58h0Z"/>
  <path class="cls-1" d="M9.75,4.07l-.39.54c2.65,1.91,5.09,2.55,7.16,2.55,4.14,0,6.82-2.54,6.86-2.58l-.47-.48c-.15.15-2.57,2.42-6.34,2.42-1.95,0-4.27-.61-6.83-2.45h0Z"/>
  <path class="cls-1" d="M11.62,2.78c-.26.24-6.26,6.01-6.24,13.77.01,4.54,2.11,8.8,6.24,12.65l.56-.6c-3.95-3.69-5.96-7.74-5.98-12.04-.03-7.4,5.92-13.12,5.98-13.17l-.57-.6h0Z"/>
  <path class="cls-1" d="M20.36,2.78l-.57.6c.06.06,6.01,5.77,5.98,13.17-.02,4.3-2.03,8.36-5.98,12.04l.56.6c4.13-3.85,6.23-8.11,6.24-12.65.02-7.76-5.98-13.53-6.24-13.77h0Z"/>
  <path class="cls-1" d="M16.54,2.31l-.59.62c.06.06,6.24,5.99,6.21,13.68-.02,4.47-2.1,8.68-6.21,12.51l.59.63c4.29-4,6.47-8.42,6.48-13.14.02-8.06-6.21-14.05-6.48-14.3h0Z"/>
  <path class="cls-1" d="M15.83,2.26c-.27.25-6.5,6.24-6.48,14.3.01,4.72,2.2,9.14,6.48,13.14l.59-.63c-4.1-3.83-6.19-8.04-6.21-12.51-.03-7.69,6.15-13.62,6.21-13.68l-.59-.62h0Z"/>
</svg>