<svg xmlns="http://www.w3.org/2000/svg" xmlns:xlink="http://www.w3.org/1999/xlink" viewBox="0 0 64 64"><defs><style>.cls-1{fill:url(#未命名的渐变_1058);}.cls-2{opacity:0.41;fill:url(#未命名的渐变_1066);}.cls-3{fill:#3d566e;}.cls-4{fill:#e74c3c;}</style><linearGradient id="未命名的渐变_1058" x1="1.76" y1="1.76" x2="43.76" y2="43.76" gradientUnits="userSpaceOnUse"><stop offset="0.01" stop-color="#efefef"/><stop offset="0.94" stop-color="#fefefe"/><stop offset="1" stop-color="#fff"/></linearGradient><linearGradient id="未命名的渐变_1066" x1="18.19" y1="22.56" x2="59.92" y2="64.3" gradientUnits="userSpaceOnUse"><stop offset="0.01" stop-color="#8e8b8b"/><stop offset="0.15" stop-color="#a2a0a0"/><stop offset="0.54" stop-color="#d4d3d3"/><stop offset="0.84" stop-color="#f3f3f3"/><stop offset="1" stop-color="#fff"/></linearGradient></defs><title>11</title><g id="图层_1" data-name="图层 1"><rect class="cls-1" width="64" height="64" rx="6" ry="6"/></g><g id="图层_5" data-name="图层 5"><g id="图层_6" data-name="图层 6"><path class="cls-2" d="M58,64H23.75L8,48l6.43-21.68L19,31l9-17,7,7,10-7L64,32.5V58S64,63,58,64Z"/></g><polygon class="cls-3" points="8.01 48.01 18.89 41.26 14.45 26.27 8.01 48.01"/><polygon class="cls-4" points="35.03 14 33.1 20.51 36.09 30.57 48.06 23.13 45.36 14 35.03 14"/><polygon class="cls-3" points="18.08 14 15.99 21.04 21.5 39.63 33.47 32.2 28.09 14 18.08 14"/><polygon class="cls-3" points="21.47 50 19.75 44.17 10.37 50 21.47 50"/><polygon class="cls-3" points="38.74 50 34.34 35.11 22.36 42.55 24.56 50 38.74 50"/><polygon class="cls-4" points="56.01 50 48.92 26.05 36.95 33.49 41.83 50 56.01 50"/></g></svg>