<?xml version="1.0" encoding="UTF-8"?>
<svg id="_图标" data-name="图标" xmlns="http://www.w3.org/2000/svg" viewBox="0 0 32 32">
  <defs>
    <style>
      .cls-1 {
        fill: #57b8ff;
      }
    </style>
  </defs>
  <path class="cls-1" d="M21.11,27.94H3.66c-.53,0-.96-.22-1.21-.62-.29-.47-.27-1.09.05-1.76l5.9-11.52c.46-.95,1.55-1.71,2.47-1.71h17.45c.53,0,.96.22,1.21.62.29.47.27,1.09-.05,1.76l-5.9,11.52c-.45.85-1.44,1.71-2.47,1.71ZM3.77,26.43h17.34c.31,0,.87-.39,1.14-.9l5.89-11.5c.04-.08.06-.15.08-.2H10.89c-.28,0-.88.36-1.13.87l-5.9,11.52c-.04.08-.06.15-.08.2Z"/>
  <path class="cls-1" d="M21.11,23.42h-12.77c-.41,0-.75-.34-.75-.75s.34-.75.75-.75h12.77c.41,0,.75.34.75.75s-.34.75-.75.75Z"/>
  <g>
    <path class="cls-1" d="M3,27.94c-.41,0-.75-.34-.75-.75V4.81c0-.41.34-.75.75-.75s.75.34.75.75v22.37c0,.41-.34.75-.75.75Z"/>
    <g>
      <path class="cls-1" d="M12.39,5.56H3c-.41,0-.75-.34-.75-.75s.34-.75.75-.75h9.39c.41,0,.75.34.75.75s-.34.75-.75.75Z"/>
      <path class="cls-1" d="M15.03,8.2c-.19,0-.38-.07-.53-.22l-2.64-2.64c-.29-.29-.29-.77,0-1.06s.77-.29,1.06,0l2.64,2.64c.29.29.29.77,0,1.06-.15.15-.34.22-.53.22Z"/>
      <path class="cls-1" d="M22.83,8.2h-7.81c-.41,0-.75-.34-.75-.75s.34-.75.75-.75h7.81c.41,0,.75.34.75.75s-.34.75-.75.75Z"/>
      <path class="cls-1" d="M22.83,10.72c-.41,0-.75-.34-.75-.75v-2.52c0-.41.34-.75.75-.75s.75.34.75.75v2.52c0,.41-.34.75-.75.75Z"/>
      <path class="cls-1" d="M21.11,27.94H3.66c-.41,0-.75-.34-.75-.75s.34-.75.75-.75h17.45c.41,0,.75.34.75.75s-.34.75-.75.75Z"/>
    </g>
  </g>
</svg>