<svg width="32.000000" height="32.000000" viewBox="0 0 32 32" fill="none" xmlns="http://www.w3.org/2000/svg" xmlns:xlink="http://www.w3.org/1999/xlink">
	<desc>
			Created with Pixso.
	</desc>
	<defs>
		<clipPath id="clip7_30">
			<rect id="open" rx="0.000000" width="31.000000" height="31.000000" transform="translate(0.500000 0.500000)" fill="white" fill-opacity="0"/>
		</clipPath>
	</defs>
	<g clip-path="url(#clip7_30)">
		<path id="Polygon 1" d="M1 28L1 7C1 4.66 2.16 3.5 4.5 3.5L13.27 3.5C13.86 3.5 14.41 3.64 14.93 3.92L18.87 6.05C18.95 6.09 19.03 6.11 19.11 6.11L25.05 6.11L25.74 6.11C28.07 6.11 29.24 7.28 29.24 9.61L29.24 12.31L26.24 12.31L26.24 9.61C26.24 9.28 26.07 9.11 25.74 9.11L25.05 9.11L19.11 9.11C18.52 9.11 17.97 8.97 17.45 8.69L13.5 6.56C13.43 6.52 13.35 6.5 13.27 6.5L4.5 6.5C4.16 6.5 4 6.66 4 7L4 28L1 28Z" fill="#383838" fill-opacity="1.000000" fill-rule="evenodd"/>
		<path id="Rectangle 7" d="M7.35 12.31L29.04 12.31C30.31 12.31 31.26 13.48 31 14.72L28.27 28L2.5 28L5.39 13.91C5.58 12.98 6.4 12.31 7.35 12.31ZM6.17 25L25.83 25L27.82 15.31L8.16 15.31L6.17 25Z" fill="#383838" fill-opacity="1.000000" fill-rule="evenodd"/>
		<path id="Rectangle 8" d="M9.08 16L26.5 16L25.91 19L8.5 19L9.08 16Z" fill="#383838" fill-opacity="1.000000" fill-rule="nonzero"/>
	</g>
</svg>
