<svg width="48.000000" height="48.000000" viewBox="0 0 48 48" fill="none" xmlns="http://www.w3.org/2000/svg" xmlns:xlink="http://www.w3.org/1999/xlink">
	<desc>
			Created with Pixso.
	</desc>
	<defs>
		<clipPath id="clip79_1">
			<rect id="opening" width="48.000000" height="48.000000" fill="white" fill-opacity="0"/>
		</clipPath>
	</defs>
	<g clip-path="url(#clip79_1)">
		<path id="path" d="M40.49 42.8C40.49 42.83 40.49 42.86 40.48 42.88C40.47 42.91 40.45 42.93 40.43 42.95C40.41 42.97 40.39 42.99 40.36 43C40.34 43.01 40.31 43.02 40.28 43.02L7.17 43.02C7.14 43.02 7.11 43.01 7.08 43C7.06 42.99 7.04 42.97 7.02 42.95C7 42.93 6.98 42.91 6.97 42.88C6.96 42.86 6.95 42.83 6.95 42.8L6.95 16.99C6.95 16.87 7.05 16.78 7.17 16.78L40.28 16.78C40.4 16.78 40.49 16.87 40.49 16.99L40.49 42.8Z" fill="#3C4047" fill-opacity="1.000000" fill-rule="nonzero"/>
		<path id="path" d="M38.4 15.06L23.72 15.06L23.72 12.97C23.72 12.83 23.71 12.69 23.68 12.56C23.66 12.42 23.62 12.29 23.56 12.17C23.51 12.04 23.45 11.92 23.37 11.8C23.29 11.69 23.21 11.58 23.11 11.49C23.01 11.39 22.91 11.3 22.79 11.22C22.68 11.15 22.56 11.08 22.43 11.03C22.3 10.98 22.17 10.94 22.04 10.91C21.9 10.89 21.76 10.87 21.63 10.87L9.05 10.87C8.91 10.87 8.78 10.89 8.64 10.91C8.51 10.94 8.37 10.98 8.25 11.03C8.12 11.08 8 11.15 7.88 11.22C7.77 11.3 7.66 11.39 7.57 11.49C7.47 11.58 7.38 11.69 7.31 11.8C7.23 11.92 7.17 12.04 7.11 12.17C7.06 12.29 7.02 12.42 6.99 12.56C6.97 12.69 6.95 12.83 6.95 12.97L6.95 21.35C6.95 21.22 6.97 21.08 6.99 20.94C7.02 20.81 7.06 20.68 7.11 20.55C7.17 20.42 7.23 20.3 7.31 20.19C7.38 20.07 7.47 19.97 7.57 19.87C7.66 19.77 7.77 19.69 7.88 19.61C8 19.53 8.12 19.47 8.25 19.42C8.37 19.36 8.51 19.32 8.64 19.3C8.78 19.27 8.91 19.26 9.05 19.26L38.4 19.26C38.54 19.26 38.67 19.27 38.81 19.3C38.94 19.32 39.07 19.36 39.2 19.42C39.33 19.47 39.45 19.53 39.56 19.61C39.68 19.69 39.78 19.77 39.88 19.87C39.98 19.97 40.06 20.07 40.14 20.19C40.22 20.3 40.28 20.42 40.33 20.55C40.39 20.68 40.43 20.81 40.45 20.94C40.48 21.08 40.49 21.22 40.49 21.35L40.49 17.16C40.49 17.02 40.48 16.89 40.45 16.75C40.43 16.62 40.39 16.48 40.33 16.36C40.28 16.23 40.22 16.11 40.14 16C40.06 15.88 39.98 15.78 39.88 15.68C39.78 15.58 39.68 15.49 39.56 15.42C39.45 15.34 39.33 15.28 39.2 15.22C39.07 15.17 38.94 15.13 38.81 15.1C38.67 15.08 38.54 15.06 38.4 15.06Z" fill="#3C4047" fill-opacity="1.000000" fill-rule="nonzero"/>
		<path id="path" d="M11.8 16.78L38.21 16.78L38.21 39.45L11.8 39.45L11.8 16.78Z" fill="#CCCCCC" fill-opacity="1.000000" fill-rule="nonzero"/>
		<path id="path" d="M31.4 5.88L31.88 7.28C33.89 6.53 36.1 6.72 38.08 7.81C40.08 8.9 41.62 10.78 42.42 13.08L43.72 12.6C42.8 9.94 41.02 7.77 38.7 6.5C36.37 5.22 33.77 5 31.4 5.88Z" fill="#2A2E33" fill-opacity="1.000000" fill-rule="nonzero"/>
		<path id="path" d="M40.23 12.16L44.33 15.97L45.3 10.36L40.23 12.16Z" fill="#2A2E33" fill-opacity="1.000000" fill-rule="nonzero"/>
		<path id="path" d="M9.16 19.12L37 19.12L37 41.15L9.16 41.15L9.16 19.12Z" fill="#DBDBDB" fill-opacity="1.000000" fill-rule="nonzero"/>
		<path id="path" d="M40.49 42.32C40.49 42.45 40.48 42.59 40.45 42.72C40.43 42.86 40.39 42.99 40.33 43.12C40.28 43.25 40.22 43.37 40.14 43.48C40.06 43.59 39.98 43.7 39.88 43.8C39.78 43.9 39.68 43.98 39.56 44.06C39.45 44.13 39.33 44.2 39.2 44.25C39.07 44.3 38.94 44.34 38.81 44.37C38.67 44.4 38.54 44.41 38.4 44.41L9.05 44.41C8.91 44.41 8.78 44.4 8.64 44.37C8.51 44.34 8.37 44.3 8.25 44.25C8.12 44.2 8 44.14 7.88 44.06C7.77 43.98 7.66 43.9 7.57 43.8C7.47 43.7 7.38 43.59 7.31 43.48C7.23 43.37 7.17 43.25 7.11 43.12C7.06 42.99 7.02 42.86 6.99 42.72C6.97 42.59 6.95 42.45 6.95 42.32L12.95 25.1C12.95 24.97 12.97 24.83 12.99 24.69C13.02 24.56 13.06 24.43 13.11 24.3C13.17 24.17 13.23 24.05 13.31 23.94C13.38 23.82 13.47 23.72 13.57 23.62C13.66 23.52 13.77 23.44 13.88 23.36C14 23.28 14.12 23.22 14.25 23.17C14.37 23.11 14.51 23.07 14.64 23.05C14.78 23.02 14.91 23.01 15.05 23.01L44.4 23.01C44.54 23.01 44.67 23.02 44.81 23.05C44.94 23.07 45.07 23.11 45.2 23.17C45.33 23.22 45.45 23.28 45.56 23.36C45.68 23.44 45.78 23.52 45.88 23.62C45.98 23.72 46.06 23.82 46.14 23.94C46.22 24.05 46.28 24.17 46.33 24.3C46.39 24.43 46.43 24.56 46.45 24.69C46.48 24.83 46.49 24.97 46.49 25.1L40.49 42.32Z" fill="#E5CB5E" fill-opacity="1.000000" fill-rule="nonzero"/>
	</g>
</svg>
