<svg width="32.000000" height="32.000000" viewBox="0 0 32 32" fill="none" xmlns="http://www.w3.org/2000/svg" xmlns:xlink="http://www.w3.org/1999/xlink">
	<desc>
			Created with Pixso.
	</desc>
	<defs>
		<clipPath id="clip94_2">
			<rect id="recent-dark" width="32.000000" height="32.000000" fill="white" fill-opacity="0"/>
		</clipPath>
	</defs>
	<g clip-path="url(#clip94_2)">
		<path id="path" d="M7.31 5.36L7.1 5.63C7.19 5.3 7.26 5.04 7.31 4.85L7.51 3.97C7.72 3.33 7.59 2.96 6.95 2.74C6.48 2.66 6.06 2.73 5.84 3.16L4.83 7.42C4.69 7.92 4.64 8.3 5.28 8.51L9.25 9.52C9.89 9.73 10.34 9.46 10.52 8.94C10.7 8.41 10.31 7.89 9.84 7.79L8.15 7.36C8.31 7.25 8.3 7.18 8.52 7.01C11.04 5.04 13.22 3.97 15.97 3.97C22.31 3.97 27.87 9.66 27.87 15.99C27.87 22.32 22.31 27.91 15.97 27.91C9.63 27.91 4.07 22.32 4.07 15.99C4.07 15.36 3.65 14.85 3.02 14.85C2.38 14.85 2 15.36 2 15.99C2 23.59 8.36 30 15.97 30C23.58 30 30 23.57 30 15.97C30 8.38 23.92 2 16 2C15.2 2 14.41 2.08 13.63 2.23C12.85 2.38 12.09 2.59 11.35 2.88C10.6 3.17 9.9 3.52 9.22 3.94C8.54 4.35 7.91 4.83 7.31 5.36ZM14.3 11.51L14.3 18.17C14.3 18.81 14.72 19.23 15.36 19.23L20.16 19.23C20.79 19.23 21.19 18.8 21.19 18.17C21.19 17.54 20.79 17.24 20.16 17.24L16.36 17.24L16.36 11.51C16.36 10.88 16 10.45 15.37 10.45C14.73 10.45 14.3 10.88 14.3 11.51Z" fill="#383838" fill-opacity="1.000000" fill-rule="nonzero"/>
	</g>
</svg>
