<?xml version="1.0" encoding="UTF-8"?>
<svg id="_图标" data-name="图标" xmlns="http://www.w3.org/2000/svg" viewBox="0 0 32 32">
  <defs>
    <style>
      .cls-1 {
        fill: #57b8ff;
      }
    </style>
  </defs>
  <g>
    <path class="cls-1" d="M18.88,10.76H7.48c-.41,0-.75-.34-.75-.75s.34-.75.75-.75h11.4c.41,0,.75.34.75.75s-.34.75-.75.75Z"/>
    <path class="cls-1" d="M15.42,16.46h-7.94c-.41,0-.75-.34-.75-.75s.34-.75.75-.75h7.94c.41,0,.75.34.75.75s-.34.75-.75.75Z"/>
    <path class="cls-1" d="M14.06,22.17h-6.58c-.41,0-.75-.34-.75-.75s.34-.75.75-.75h6.58c.41,0,.75.34.75.75s-.34.75-.75.75Z"/>
  </g>
  <g>
    <path class="cls-1" d="M4.42,27.51c-.41,0-.75-.34-.75-.75V3.77c0-.41.34-.75.75-.75s.75.34.75.75v22.99c0,.41-.34.75-.75.75Z"/>
    <path class="cls-1" d="M14.06,4.52H4.42c-.41,0-.75-.34-.75-.75s.34-.75.75-.75h9.65c.41,0,.75.34.75.75s-.34.75-.75.75Z"/>
    <path class="cls-1" d="M16.78,7.24c-.19,0-.38-.07-.53-.22l-2.71-2.71c-.29-.29-.29-.77,0-1.06s.77-.29,1.06,0l2.71,2.71c.29.29.29.77,0,1.06-.15.15-.34.22-.53.22Z"/>
    <path class="cls-1" d="M24.8,7.24h-8.02c-.41,0-.75-.34-.75-.75s.34-.75.75-.75h8.02c.41,0,.75.34.75.75s-.34.75-.75.75Z"/>
    <path class="cls-1" d="M24.8,11.81c-.41,0-.75-.34-.75-.75v-4.57c0-.41.34-.75.75-.75s.75.34.75.75v4.57c0,.41-.34.75-.75.75Z"/>
    <path class="cls-1" d="M15.15,27.51H5.1c-.41,0-.75-.34-.75-.75s.34-.75.75-.75h10.05c.41,0,.75.34.75.75s-.34.75-.75.75Z"/>
  </g>
  <path class="cls-1" d="M23.61,14.61c-3.76,0-6.81,3.05-6.81,6.81s3.05,6.81,6.81,6.81,6.81-3.05,6.81-6.81-3.05-6.81-6.81-6.81ZM28,23.29h-5.14c-.43,0-.77-.35-.77-.77v-5.14c0-.43.35-.77.77-.77s.77.35.77.77v4.37h4.37c.43,0,.77.35.77.77s-.35.77-.77.77Z"/>
</svg>