<svg width="24.000000" height="24.000000" viewBox="0 0 24 24" fill="none" xmlns="http://www.w3.org/2000/svg" xmlns:xlink="http://www.w3.org/1999/xlink">
	<desc>
			Created with Pixso.
	</desc>
	<defs>
		<clipPath id="clip84_9">
			<rect id="search" width="24.000000" height="24.000000" fill="white" fill-opacity="0"/>
		</clipPath>
	</defs>
	<g clip-path="url(#clip84_9)">
		<path id="path" d="M2.72 10.36C2.72 6.15 6.15 2.72 10.36 2.72C14.57 2.72 18 6.15 18 10.36C18 14.57 14.57 18 10.36 18C6.15 18 2.72 14.57 2.72 10.36ZM17.47 16.31C17.82 15.89 18.12 15.45 18.39 14.99C18.66 14.52 18.89 14.03 19.08 13.52C19.26 13.02 19.4 12.5 19.49 11.97C19.59 11.43 19.63 10.9 19.63 10.36C19.63 5.24 15.48 1.09 10.36 1.09C5.24 1.09 1.09 5.24 1.09 10.36C1.09 15.48 5.24 19.63 10.36 19.63C12.63 19.63 14.7 18.81 16.31 17.46L21.73 22.82C21.89 22.98 22.09 23.05 22.3 23.05C22.38 23.05 22.46 23.04 22.54 23.02C22.62 22.99 22.69 22.96 22.76 22.92C22.82 22.87 22.88 22.82 22.94 22.75C22.99 22.69 23.03 22.62 23.06 22.55C23.09 22.47 23.11 22.39 23.12 22.31C23.12 22.23 23.12 22.15 23.1 22.07C23.09 21.99 23.06 21.92 23.02 21.85C22.98 21.78 22.94 21.71 22.88 21.65L17.47 16.31Z" fill="#FEFEFE" fill-opacity="1.000000" fill-rule="nonzero"/>
	</g>
</svg>
