<svg width="32.000000" height="32.000000" viewBox="0 0 32 32" fill="none" xmlns="http://www.w3.org/2000/svg" xmlns:xlink="http://www.w3.org/1999/xlink">
	<desc>
			Created with Pixso.
	</desc>
	<defs>
		<clipPath id="clip84_3">
			<rect id="sort" width="32.000000" height="32.000000" fill="white" fill-opacity="0"/>
		</clipPath>
	</defs>
	<g clip-path="url(#clip84_3)">
		<path id="path" d="M12.73 4.81C12.36 4.44 11.89 4.25 11.42 4.25C11.24 4.25 11.05 4.34 10.86 4.34L10.77 4.34C10.49 4.53 10.3 4.72 10.12 4.9L2.55 12.45C1.8 13.2 1.8 14.32 2.55 14.97C2.92 15.34 3.39 15.53 3.86 15.53C4.32 15.53 4.79 15.34 5.17 14.97L9.74 10.4L9.74 25.88C9.74 26.9 10.58 27.65 11.52 27.65C12.45 27.65 13.29 26.81 13.29 25.88L13.29 6.21C13.29 5.74 13.11 5.18 12.73 4.81ZM29.45 16.93C29.08 16.55 28.61 16.37 28.14 16.37C27.68 16.37 27.21 16.55 26.84 16.93L22.17 21.59L22.17 6.11C22.17 5.09 21.32 4.34 20.39 4.34C19.46 4.34 18.62 5.18 18.62 6.11L18.62 25.97C18.62 26.99 19.46 27.74 20.39 27.74C20.86 27.74 21.32 27.55 21.7 27.18L29.36 19.54C30.2 18.79 30.2 17.67 29.45 16.93Z" fill="#FEFEFE" fill-opacity="1.000000" fill-rule="nonzero"/>
	</g>
</svg>
