<?xml version="1.0" encoding="UTF-8"?>
<svg id="_图标" data-name="图标" xmlns="http://www.w3.org/2000/svg" viewBox="0 0 32 32">
  <defs>
    <style>
      .cls-1 {
        fill: #57b8ff;
      }
    </style>
  </defs>
  <g>
    <path class="cls-1" d="M29,25.75H3.05c-.41,0-.75-.34-.75-.75s.34-.75.75-.75h25.95c.41,0,.75.34.75.75s-.34.75-.75.75Z"/>
    <path class="cls-1" d="M7.17,25.43c-.41,0-.75-.34-.75-.75v-4.31c0-.41.34-.75.75-.75s.75.34.75.75v4.31c0,.41-.34.75-.75.75Z"/>
    <path class="cls-1" d="M12.49,25.16c-.41,0-.75-.34-.75-.75v-2.02c0-.41.34-.75.75-.75s.75.34.75.75v2.02c0,.41-.34.75-.75.75Z"/>
    <path class="cls-1" d="M3,25.16c-.41,0-.75-.34-.75-.75v-2.02c0-.41.34-.75.75-.75s.75.34.75.75v2.02c0,.41-.34.75-.75.75Z"/>
    <path class="cls-1" d="M29,25.61c-.41,0-.75-.34-.75-.75v-2.02c0-.41.34-.75.75-.75s.75.34.75.75v2.02c0,.41-.34.75-.75.75Z"/>
    <path class="cls-1" d="M17.81,24.88c-.41,0-.75-.34-.75-.75v-3.33c0-.41.34-.75.75-.75s.75.34.75.75v3.33c0,.41-.34.75-.75.75Z"/>
    <path class="cls-1" d="M23.4,25.15c-.41,0-.75-.34-.75-.75v-3.87c0-.41.34-.75.75-.75s.75.34.75.75v3.87c0,.41-.34.75-.75.75Z"/>
  </g>
  <path class="cls-1" d="M28,17.28h0l-24-.17c-.25,0-.49-.13-.63-.35s-.16-.48-.05-.71L7.55,6.69c.11-.24.34-.41.6-.44l13.06-1.48c.3-.03.57.11.73.35l6.71,11c.14.23.15.52.01.76-.13.24-.38.38-.65.38ZM5.16,15.61l21.5.15-5.76-9.44-12.16,1.38-3.58,7.91Z"/>
  <g>
    <path class="cls-1" d="M9.7,16.86c-.07,0-.14-.01-.21-.04-.31-.11-.47-.46-.35-.77l3.57-9.64c.11-.31.46-.47.77-.35.31.11.47.46.35.77l-3.57,9.64c-.09.24-.32.39-.56.39Z"/>
    <path class="cls-1" d="M14.25,16.63c-.07,0-.14-.01-.21-.04-.31-.11-.47-.46-.35-.77l3.57-9.64c.11-.31.46-.47.77-.35.31.11.47.46.35.77l-3.57,9.64c-.09.24-.32.39-.56.39Z"/>
    <path class="cls-1" d="M19.29,16.37c-.07,0-.14-.01-.21-.04-.31-.11-.47-.46-.35-.77l3.01-8.13c.11-.31.46-.47.77-.35.31.11.47.46.35.77l-3.01,8.13c-.09.24-.32.39-.56.39Z"/>
  </g>
</svg>