<?xml version="1.0" encoding="UTF-8"?>
<svg id="_图标" data-name="图标" xmlns="http://www.w3.org/2000/svg" viewBox="0 0 32 32">
  <defs>
    <style>
      .cls-1 {
        fill: #ba9600;
      }
    </style>
  </defs>
  <path class="cls-1" d="M29.26,12.41c-.41,0-.74-.33-.74-.74v-7.28c0-.41.33-.74.74-.74s.74.33.74.74v7.28c0,.41-.33.74-.74.74Z"/>
  <g>
    <path class="cls-1" d="M10.09,28.42h-1.47c0-10.34,8.42-18.76,18.76-18.76.64,0,1.28.03,1.92.1l-.15,1.47c-.59-.06-1.18-.09-1.77-.09-9.53,0-17.28,7.75-17.28,17.28Z"/>
    <path class="cls-1" d="M5.59,24.65l-1.46-.2C6.55,6.61,20.28,5.05,26.06,5.21l-.04,1.47c-5.39-.16-18.17,1.3-20.43,17.96Z"/>
    <polygon class="cls-1" points="25.51 8.65 25.85 3.29 28.36 6.14 25.51 8.65"/>
    <polygon class="cls-1" points="7.59 24.49 2.25 23.9 4.62 26.86 7.59 24.49"/>
    <path class="cls-1" d="M10.1,28.71H2.74c-.41,0-.74-.33-.74-.74s.33-.74.74-.74h7.37c.41,0,.74.33.74.74s-.33.74-.74.74Z"/>
  </g>
</svg>