<?xml version="1.0" encoding="UTF-8"?>
<svg id="_图标" data-name="图标" xmlns="http://www.w3.org/2000/svg" viewBox="0 0 32 32">
  <defs>
    <style>
      .cls-1 {
        fill: #57b8ff;
      }
    </style>
  </defs>
  <path class="cls-1" d="M1.79,14.34c-.2,0-.4-.08-.56-.23-.31-.31-.31-.81,0-1.12L12.58,1.65c.31-.31.81-.31,1.12,0s.31.81,0,1.12L2.35,14.11c-.15.15-.36.23-.56.23Z"/>
  <path class="cls-1" d="M18.77,30.58c-.2,0-.4-.08-.56-.23-.31-.31-.31-.81,0-1.12l11.44-11.44c.31-.31.81-.31,1.12,0s.31.81,0,1.12l-11.44,11.44c-.15.15-.36.23-.56.23Z"/>
  <g>
    <path class="cls-1" d="M20.25,21c-.19,0-.38-.07-.53-.22l-8.5-8.5c-.29-.29-.29-.77,0-1.06s.77-.29,1.06,0l8.5,8.5c.29.29.29.77,0,1.06-.15.15-.34.22-.53.22Z"/>
    <polygon class="cls-1" points="14.31 9.8 9.8 14.31 9.8 9.8 14.31 9.8"/>
    <polygon class="cls-1" points="22.2 17.69 17.69 22.2 22.2 22.2 22.2 17.69"/>
  </g>
</svg>