<?xml version="1.0" encoding="UTF-8"?>
<svg id="_图标" data-name="图标" xmlns="http://www.w3.org/2000/svg" viewBox="0 0 32 32">
  <defs>
    <style>
      .cls-1 {
        fill: #ba9600;
      }
    </style>
  </defs>
  <path class="cls-1" d="M27.5,4.5v23H4.5V4.5h23M28.01,3H3.99c-.55,0-.99.44-.99.99v24.02c0,.55.44.99.99.99h24.02c.55,0,.99-.44.99-.99V3.99c0-.55-.44-.99-.99-.99h0Z"/>
  <path class="cls-1" d="M4.04,10.19c-.19,0-.38-.07-.53-.22-.29-.29-.29-.77,0-1.06l5.57-5.57c.29-.29.77-.29,1.06,0s.29.77,0,1.06l-5.57,5.57c-.15.15-.34.22-.53.22Z"/>
  <path class="cls-1" d="M4.34,28.4c-.19,0-.38-.07-.53-.22-.29-.29-.29-.77,0-1.06L27.15,3.78c.29-.29.77-.29,1.06,0s.29.77,0,1.06L4.87,28.18c-.15.15-.34.22-.53.22Z"/>
  <path class="cls-1" d="M4.16,18.82c-.19,0-.38-.07-.53-.22-.29-.29-.29-.77,0-1.06L17.84,3.33c.29-.29.77-.29,1.06,0s.29.77,0,1.06l-14.21,14.21c-.15.15-.34.22-.53.22Z"/>
  <path class="cls-1" d="M12.13,28.62c-.19,0-.38-.07-.53-.22-.29-.29-.29-.77,0-1.06l15.92-15.92c.29-.29.77-.29,1.06,0s.29.77,0,1.06l-15.92,15.92c-.15.15-.34.22-.53.22Z"/>
  <path class="cls-1" d="M20.93,28.66c-.19,0-.38-.07-.53-.22-.29-.29-.29-.77,0-1.06l7.02-7.02c.29-.29.77-.29,1.06,0s.29.77,0,1.06l-7.02,7.02c-.15.15-.34.22-.53.22Z"/>
</svg>