<?xml version="1.0" encoding="UTF-8"?>
<svg id="_图标" data-name="图标" xmlns="http://www.w3.org/2000/svg" viewBox="0 0 32 32">
  <defs>
    <style>
      .cls-1 {
        fill: #ba9600;
      }
    </style>
  </defs>
  <g>
    <path class="cls-1" d="M17.62,26.33H2.25V5.67h15.38v20.66ZM3.75,24.83h12.38V7.17H3.75v17.66Z"/>
    <path class="cls-1" d="M3.26,12.33c-.15,0-.31-.05-.44-.14-.34-.24-.41-.71-.17-1.05l3.74-5.17c.24-.33.71-.41,1.05-.17.34.24.41.71.17,1.05l-3.74,5.17c-.15.2-.38.31-.61.31Z"/>
    <path class="cls-1" d="M3.26,25.97c-.15,0-.31-.05-.44-.14-.34-.24-.41-.71-.17-1.05L16.27,5.98c.24-.33.71-.41,1.05-.17.34.24.41.71.17,1.05L3.87,25.66c-.15.2-.38.31-.61.31Z"/>
    <path class="cls-1" d="M3.13,18.96c-.15,0-.31-.05-.44-.14-.34-.24-.41-.71-.17-1.05L11.06,5.98c.24-.33.71-.41,1.05-.17.34.24.41.71.17,1.05L3.74,18.65c-.15.2-.38.31-.61.31Z"/>
    <path class="cls-1" d="M7.42,26.11c-.15,0-.31-.05-.44-.14-.34-.24-.41-.71-.17-1.05l9.45-13.05c.24-.33.71-.41,1.05-.17.34.24.41.71.17,1.05l-9.45,13.05c-.15.2-.38.31-.61.31Z"/>
    <path class="cls-1" d="M12.07,26.22c-.15,0-.31-.05-.44-.14-.34-.24-.41-.71-.17-1.05l4.81-6.64c.24-.34.71-.41,1.05-.17.34.24.41.71.17,1.05l-4.81,6.64c-.15.2-.38.31-.61.31Z"/>
  </g>
  <path class="cls-1" d="M9.46,5.29c-.41,0-.75-.34-.75-.75v-2.06c0-.41.34-.75.75-.75s.75.34.75.75v2.06c0,.41-.34.75-.75.75Z"/>
  <path class="cls-1" d="M9.46,30.27c-.41,0-.75-.34-.75-.75v-2.06c0-.41.34-.75.75-.75s.75.34.75.75v2.06c0,.41-.34.75-.75.75Z"/>
  <g>
    <path class="cls-1" d="M26.06,3.27h1.47v1.79c0,.44.33.79.73.79.3,0,.56-.2.67-.47.04-.1.06-.2.06-.32,0,0,0,0,0,0v-2.36s-.02-.07-.02-.11c0-.04.02-.07.02-.11,0-.44-.33-.79-.73-.79h-2.2s0,0,0,0c-.1,0-.2.02-.28.06-.26.12-.45.4-.45.73,0,.44.33.79.73.79Z"/>
    <path class="cls-1" d="M26.05,30.29h2.1s.07.02.11.02c.41,0,.73-.35.73-.79v-2.36s0,0,0,0c0-.43-.33-.79-.73-.79-.09,0-.18.02-.27.06-.27.11-.47.4-.47.73v1.55h-1.48c-.41,0-.73.35-.73.79s.33.79.73.79Z"/>
    <path class="cls-1" d="M13.73,28.71h-4.11c-.41,0-.73.36-.73.79s.32.79.73.79h4.11c.4,0,.73-.35.73-.79s-.33-.79-.73-.79Z"/>
    <path class="cls-1" d="M17.84,30.29h4.11c.4,0,.73-.35.73-.79s-.33-.79-.73-.79h-4.11c-.4,0-.73.36-.73.79s.33.79.73.79Z"/>
    <path class="cls-1" d="M17.85,3.27h4.11c.4,0,.73-.36.73-.79s-.33-.79-.73-.79h-4.11c-.4,0-.73.35-.73.79s.33.79.73.79Z"/>
    <path class="cls-1" d="M9.63,3.27h4.11c.4,0,.73-.36.73-.79s-.33-.79-.73-.79h-4.11c-.4,0-.73.35-.73.79s.33.79.73.79Z"/>
    <path class="cls-1" d="M28.27,17.53c-.4,0-.73.36-.73.79v4.42c0,.43.33.79.73.79s.73-.36.73-.79v-4.42c0-.43-.33-.79-.73-.79Z"/>
    <path class="cls-1" d="M28.27,8.69c-.4,0-.73.35-.73.79v4.42c0,.43.33.79.73.79s.73-.36.73-.79v-4.42c0-.43-.33-.79-.73-.79Z"/>
  </g>
</svg>