<?xml version="1.0" encoding="UTF-8"?>
<svg id="_图标" data-name="图标" xmlns="http://www.w3.org/2000/svg" viewBox="0 0 32 32">
  <defs>
    <style>
      .cls-1 {
        fill: #ba9600;
      }
    </style>
  </defs>
  <path class="cls-1" d="M14.18,24.84c-.15,0-.29-.04-.42-.13-1.33-.91-2.2-2.27-2.47-3.83-.26-1.54.1-3.08,1.03-4.36,1.92-2.62,5.67-3.25,8.38-1.4.34.23.43.7.19,1.04-.23.34-.7.43-1.04.19-2.04-1.4-4.87-.93-6.32,1.04-.69.94-.96,2.08-.76,3.22.2,1.15.85,2.16,1.84,2.84.34.23.43.7.19,1.04-.15.21-.38.33-.62.33Z"/>
  <rect class="cls-1" x="12.57" y="22.47" width="3.23" height="3.23" rx=".64" ry=".64" transform="translate(-13.67 21.76) rotate(-54.72)"/>
  <rect class="cls-1" x="18.66" y="14.13" width="3.23" height="3.23" rx=".64" ry=".64" transform="translate(-4.29 23.2) rotate(-54.72)"/>
  <g>
    <path class="cls-1" d="M29,29.03c-.41,0-.75-.34-.75-.75V3.85c0-.41.34-.75.75-.75s.75.34.75.75v24.44c0,.41-.34.75-.75.75Z"/>
    <path class="cls-1" d="M28.73,25.15h-4.43c-.41,0-.75-.34-.75-.75s.34-.75.75-.75h4.43c.41,0,.75.34.75.75s-.34.75-.75.75Z"/>
    <path class="cls-1" d="M28.44,20.15h-2.07c-.41,0-.75-.34-.75-.75s.34-.75.75-.75h2.07c.41,0,.75.34.75.75s-.34.75-.75.75Z"/>
    <path class="cls-1" d="M28.82,29.03h-2.07c-.41,0-.75-.34-.75-.75s.34-.75.75-.75h2.07c.41,0,.75.34.75.75s-.34.75-.75.75Z"/>
    <path class="cls-1" d="M28.87,4.49h-2.07c-.41,0-.75-.34-.75-.75s.34-.75.75-.75h2.07c.41,0,.75.34.75.75s-.34.75-.75.75Z"/>
    <path class="cls-1" d="M28.16,15.14h-3.42c-.41,0-.75-.34-.75-.75s.34-.75.75-.75h3.42c.41,0,.75.34.75.75s-.34.75-.75.75Z"/>
    <path class="cls-1" d="M28.43,9.87h-3.97c-.41,0-.75-.34-.75-.75s.34-.75.75-.75h3.97c.41,0,.75.34.75.75s-.34.75-.75.75Z"/>
  </g>
  <path class="cls-1" d="M8.61,13.04c-.3,0-.58-.18-.7-.47-.15-.38.04-.82.42-.97l11.13-4.42c.38-.15.82.04.97.42.15.38-.04.82-.42.97l-11.13,4.42c-.09.04-.18.05-.28.05Z"/>
  <rect class="cls-1" x="7.23" y="10.48" width="3.38" height="3.38" rx=".66" ry=".66" transform="translate(-3.95 4.29) rotate(-22.28)"/>
  <rect class="cls-1" x="18.01" y="6.2" width="3.38" height="3.38" rx=".66" ry=".66" transform="translate(-1.52 8.06) rotate(-22.28)"/>
  <g>
    <path class="cls-1" d="M5.96,27.57h-1.48v-1.63c0-.4-.33-.72-.74-.72-.3,0-.56.18-.68.43-.04.09-.06.18-.06.29,0,0,0,0,0,0v2.14s.02.06.02.1c0,.03-.02.06-.02.1,0,.4.33.72.74.72h2.21s0,0,0,0c.1,0,.2-.02.29-.06.27-.11.45-.36.45-.66,0-.4-.33-.72-.74-.72Z"/>
    <path class="cls-1" d="M5.97,3.02h-2.11s-.07-.02-.11-.02c-.41,0-.74.32-.74.72v2.14s0,0,0,0c0,.39.33.72.74.72.09,0,.18-.02.27-.05.28-.1.47-.36.47-.66v-1.41h1.49c.41,0,.74-.32.74-.72s-.33-.72-.74-.72Z"/>
    <path class="cls-1" d="M18.39,4.46h4.14c.41,0,.74-.32.74-.72s-.33-.72-.74-.72h-4.14c-.41,0-.74.32-.74.72s.33.72.74.72Z"/>
    <path class="cls-1" d="M14.25,3.02h-4.14c-.41,0-.74.32-.74.72s.33.72.74.72h4.14c.41,0,.74-.32.74-.72s-.33-.72-.74-.72Z"/>
    <path class="cls-1" d="M14.24,27.57h-4.14c-.41,0-.74.32-.74.72s.33.72.74.72h4.14c.41,0,.74-.32.74-.72s-.33-.72-.74-.72Z"/>
    <path class="cls-1" d="M22.52,27.57h-4.14c-.41,0-.74.32-.74.72s.33.72.74.72h4.14c.41,0,.74-.32.74-.72s-.33-.72-.74-.72Z"/>
    <path class="cls-1" d="M3.74,14.61c.41,0,.74-.32.74-.72v-4.01c0-.39-.33-.72-.74-.72s-.74.32-.74.72v4.01c0,.39.33.72.74.72Z"/>
    <path class="cls-1" d="M3.74,22.64c.41,0,.74-.32.74-.72v-4.01c0-.39-.33-.72-.74-.72s-.74.32-.74.72v4.01c0,.39.33.72.74.72Z"/>
  </g>
</svg>