<svg viewBox="0 0 24 24" xmlns="http://www.w3.org/2000/svg" xmlns:xlink="http://www.w3.org/1999/xlink" width="24" height="24" fill="none">
	<rect id="2d_btnSelColor" width="24" height="24" x="0" y="0" />
	<path id="矢量 82" d="M7.59362 10.1711L7.59362 1.69556C7.25612 1.83957 6.92648 1.99975 6.6047 2.17611C6.28292 2.35246 5.97054 2.54415 5.66757 2.75115C5.36459 2.95816 5.07248 3.1795 4.79122 3.41517C4.50997 3.65084 4.24092 3.89971 3.98409 4.16178C3.72725 4.42385 3.48386 4.69786 3.25391 4.98382C3.02396 5.26977 2.80856 5.56629 2.60771 5.87338C2.40686 6.18047 2.22152 6.49665 2.05169 6.82192C1.88186 7.1472 1.72836 7.48 1.59119 7.82034L7.5936 13.8168L7.5936 10.1711L7.59362 10.1711Z" fill="rgb(255,169,42)" fill-rule="nonzero" />
	<path id="矢量 83" d="M10.164 7.6043L16.1664 1.60791C15.5023 1.34068 14.8189 1.13915 14.116 1.00331C13.4132 0.86746 12.7039 0.79979 11.988 0.800296C10.428 0.800296 8.94241 1.11951 7.59363 1.69551L7.59363 10.1711L10.1628 7.60308L10.164 7.6043Z" fill="rgb(255,247,95)" fill-rule="nonzero" />
	<path id="矢量 84" d="M22.296 7.60449L13.812 7.60449L16.3824 10.1713L22.3848 16.1665C22.6523 15.5035 22.854 14.8211 22.9901 14.1192C23.1261 13.4174 23.194 12.709 23.1936 11.9941C23.1936 10.4341 22.8732 8.95091 22.2972 7.60449L22.296 7.60449Z" fill="rgb(50,209,245)" fill-rule="nonzero" />
	<path id="矢量 85" d="M16.3824 13.8168L16.3824 22.2911C16.7199 22.1471 17.0496 21.9869 17.3713 21.8105C17.6931 21.6342 18.0055 21.4425 18.3085 21.2355C18.6114 21.0284 18.9035 20.8071 19.1848 20.5714C19.466 20.3358 19.7351 20.0869 19.9919 19.8248C20.2487 19.5627 20.4921 19.2887 20.7221 19.0028C20.952 18.7168 21.1674 18.4203 21.3683 18.1132C21.5691 17.8062 21.7545 17.49 21.9243 17.1647C22.0942 16.8394 22.2477 16.5066 22.3849 16.1663L16.3824 10.1711L16.3824 13.8168Z" fill="rgb(0,96,255)" fill-rule="nonzero" />
	<path id="矢量 86" d="M13.812 16.3825L7.81079 22.3801C8.47488 22.6473 9.15834 22.8489 9.86118 22.9847C10.564 23.1206 11.2733 23.1882 11.9892 23.1877C13.5492 23.1877 15.0348 22.8685 16.3836 22.2925L16.3836 13.8181L13.8144 16.3837L13.812 16.3825Z" fill="rgb(121,69,245)" fill-rule="nonzero" />
	<path id="矢量 87" d="M10.1641 16.3823L1.68005 16.3823C1.82438 16.7197 1.98486 17.0491 2.16151 17.3707C2.33816 17.6923 2.53011 18.0044 2.73738 18.3072C2.94465 18.6099 3.16624 18.9018 3.40215 19.1828C3.63805 19.4638 3.88714 19.7326 4.14941 19.9892C4.41169 20.2458 4.68589 20.4889 4.97201 20.7186C5.25814 20.9483 5.55482 21.1634 5.86205 21.364C6.16927 21.5645 6.48558 21.7496 6.81097 21.9191C7.13635 22.0887 7.46925 22.2419 7.80966 22.3788L13.8132 16.3823L10.1629 16.3823L10.1641 16.3823Z" fill="rgb(247,67,160)" fill-rule="nonzero" />
	<path id="矢量 88" d="M7.59359 13.8167L1.59116 7.82031C1.32364 8.4835 1.12186 9.16612 0.985808 9.86818C0.849757 10.5702 0.781938 11.2788 0.782351 11.9939C0.782351 13.5527 1.10274 15.0359 1.67876 16.3823L10.1628 16.3823L7.59479 13.8167L7.59359 13.8167Z" fill="rgb(243,62,62)" fill-rule="nonzero" />
	<path id="矢量 89" d="M13.812 7.6043L22.296 7.6043C22.1517 7.26698 21.9912 6.93752 21.8146 6.61594C21.6379 6.29436 21.446 5.9822 21.2387 5.67945C21.0314 5.3767 20.8098 5.08483 20.5739 4.80381C20.338 4.52281 20.0889 4.25401 19.8267 3.99744C19.5644 3.74087 19.2902 3.49774 19.0041 3.26807C18.7179 3.03839 18.4213 2.82327 18.114 2.6227C17.8068 2.42213 17.4905 2.23708 17.1651 2.06754C16.8397 1.898 16.5068 1.74479 16.1664 1.60791L10.1628 7.6043L13.8132 7.6043L13.812 7.6043Z" fill="rgb(147,235,92)" fill-rule="nonzero" />
</svg>
