<svg viewBox="0 0 24 24" xmlns="http://www.w3.org/2000/svg" xmlns:xlink="http://www.w3.org/1999/xlink" width="24" height="24" fill="none">
	<rect id="2d_btnHelp" width="24" height="24" x="0" y="0" />
	<path id="矢量 90" d="M11.9999 1.33325C6.13325 1.33325 1.33325 6.13325 1.33325 11.9999C1.33325 17.8666 6.13325 22.6666 11.9999 22.6666C17.8666 22.6666 22.6666 17.8666 22.6666 11.9999C22.6666 6.13325 17.8666 1.33325 11.9999 1.33325L11.9999 1.33325ZM11.9999 21.1999C6.93325 21.1999 2.79992 17.0666 2.79992 11.9999C2.79992 6.93325 6.93325 2.79992 11.9999 2.79992C17.0666 2.79992 21.1999 6.93325 21.1999 11.9999C21.0666 17.0666 17.0666 21.0666 11.9999 21.1999L11.9999 21.1999Z" fill="rgb(47,167,221)" fill-rule="nonzero" />
	<path id="矢量 91" d="M12 22.7999C5.99995 22.7999 1.19995 18 1.19995 12C1.19995 5.99995 5.99995 1.19995 12 1.19995C17.8666 1.19995 22.7999 5.99995 22.7999 12C22.7999 18 18 22.7999 12 22.7999ZM12 1.46662C6.13329 1.46662 1.46662 6.13329 1.46662 12C1.46662 17.8666 6.26662 22.5333 12 22.5333C17.8666 22.5333 22.5333 17.7333 22.5333 12C22.5333 6.13329 17.8666 1.46662 12 1.46662L12 1.46662ZM12 21.1999C6.93328 21.1999 2.79995 17.0666 2.79995 12C2.79995 6.93329 6.93328 2.79995 12 2.79995C17.0666 2.79995 21.1999 6.93328 21.1999 12C21.1999 17.0666 17.0666 21.1999 12 21.1999ZM12 2.93328C7.06662 2.93328 2.93328 6.93328 2.93328 12C2.93328 17.0666 6.93328 21.0666 12 21.0666C16.9333 21.0666 21.0666 17.0666 21.0666 12C21.0666 7.06662 16.9333 2.93328 12 2.93328Z" fill="rgb(47,167,221)" fill-rule="nonzero" />
	<path id="矢量 92" d="M12.0001 5.7334C10.1334 5.7334 8.53345 7.20007 8.53345 9.20007C8.53345 9.60007 8.93345 10.0001 9.33345 10.0001C9.73345 10.0001 10.1334 9.60007 10.1334 9.20007C10.1334 8.1334 10.9334 7.3334 12.0001 7.3334C13.0668 7.3334 13.8668 8.1334 13.8668 9.20007C13.8668 9.60007 13.3334 10.1334 12.8001 10.6667C11.8668 11.3334 11.3334 12.2667 11.2001 13.4667L11.2001 14.5334C11.2001 14.9334 11.6001 15.3334 12.0001 15.3334C12.4001 15.3334 12.8001 14.9334 12.8001 14.5334L12.8001 13.4667C12.8001 12.9334 13.3334 12.4001 14.0001 11.8667C14.8001 11.2001 15.3334 10.2667 15.4668 9.3334C15.4668 7.3334 13.8668 5.7334 12.0001 5.7334L12.0001 5.7334Z" fill="rgb(47,167,221)" fill-rule="nonzero" />
	<path id="矢量 93" d="M11.9999 15.4667C11.4666 15.4667 11.0666 15.0667 11.0666 14.5334L11.0666 13.4667C11.1999 12.2667 11.8666 11.3334 12.6666 10.6667C13.0666 10.2667 13.7332 9.60007 13.7332 9.3334C13.7332 8.40006 12.9332 7.60006 11.9999 7.60006C11.4666 7.46673 11.0666 7.60006 10.7999 8.00006C10.3999 8.26673 10.2666 8.66673 10.2666 9.20007C10.2666 9.7334 9.86657 10.1334 9.33324 10.1334C8.7999 10.1334 8.3999 9.7334 8.3999 9.20007C8.3999 7.20007 9.9999 5.7334 11.8666 5.7334C13.8666 5.7334 15.4666 7.3334 15.4666 9.3334C15.3332 10.4001 14.7999 11.3334 13.8666 12.0001C13.4666 12.4001 12.9332 12.9334 12.9332 13.4667L12.9332 14.5334C12.9332 15.0667 12.5332 15.4667 11.9999 15.4667L11.9999 15.4667ZM11.9999 7.20006C13.0666 7.20006 13.9999 8.1334 13.9999 9.20006C13.9999 9.60007 13.4666 10.1334 12.9332 10.6667C11.9999 11.3334 11.4666 12.4001 11.3332 13.4667L11.3332 14.5334C11.3332 14.9334 11.5999 15.2001 11.9999 15.2001C12.3999 15.2001 12.6666 14.9334 12.6666 14.5334L12.6666 13.4667C12.6666 12.9334 13.3332 12.2667 13.8666 11.7334C14.6666 11.0667 15.1999 10.2667 15.3332 9.20006C15.3332 7.3334 13.8666 5.86673 11.9999 5.86673C10.1332 5.86673 8.66657 7.3334 8.66657 9.20006C8.66657 9.60006 8.93324 9.86673 9.33324 9.86673C9.73324 9.86673 9.9999 9.60006 9.9999 9.20006C9.9999 8.66673 10.1332 8.1334 10.5332 7.86673C10.9332 7.46673 11.4666 7.20006 11.9999 7.20006L11.9999 7.20006Z" fill="rgb(47,167,221)" fill-rule="nonzero" />
	<path id="矢量 94" d="M10.8 17.7334C10.8 18.4001 11.3334 18.9334 12 18.9334C12.6667 18.9334 13.2 18.4001 13.2 17.7334C13.2 17.0668 12.6667 16.5334 12 16.5334C11.3334 16.5334 10.8 17.0668 10.8 17.7334Z" fill="rgb(47,167,221)" fill-rule="nonzero" />
	<path id="矢量 95" d="M12.0001 19.0666C11.3334 19.0666 10.6667 18.5332 10.6667 17.7332C10.6667 16.9332 11.2001 16.3999 12.0001 16.3999C12.8001 16.3999 13.3334 16.9332 13.3334 17.7332C13.3334 18.5332 12.6667 19.0666 12.0001 19.0666ZM12.0001 16.6666C11.4667 16.6666 10.9334 17.1999 10.9334 17.7332C10.9334 18.2666 11.4667 18.7999 12.0001 18.7999C12.5334 18.7999 13.0667 18.2666 13.0667 17.7332C13.0667 17.1999 12.5334 16.6666 12.0001 16.6666Z" fill="rgb(47,167,221)" fill-rule="nonzero" />
</svg>
