<svg viewBox="0 0 32 32" xmlns="http://www.w3.org/2000/svg" xmlns:xlink="http://www.w3.org/1999/xlink" width="32.000000" height="32.000000" fill="none">
	<rect id="2d_copyDim" width="32.000000" height="32.000000" x="0.000000" y="0.000000" />
	<path id="矢量 139" d="M8.04995 26.33L5.29995 26.33C4.27995 26.33 3.44995 25.47 3.44995 24.42L3.44995 4.18002C3.44995 3.13002 4.27995 2.27002 5.29995 2.27002L21.4799 2.27002C22.5 2.27002 23.33 3.13002 23.33 4.18002L23.33 6.41002C23.33 6.82002 22.99 7.16002 22.58 7.16002C22.17 7.16002 21.83 6.82002 21.83 6.41002L21.83 4.18002C21.83 3.95002 21.67 3.77002 21.4799 3.77002L5.29995 3.77002C5.09995 3.77002 4.94995 3.95002 4.94995 4.18002L4.94995 24.42C4.94995 24.65 5.10995 24.83 5.29995 24.83L8.04995 24.83C8.45995 24.83 8.79995 25.17 8.79995 25.58C8.79995 25.99 8.45995 26.33 8.04995 26.33Z" fill="rgb(87,184,255)" fill-rule="nonzero" />
	<path id="矢量 140" d="M26.1301 29.7299L10.2901 29.7299C8.96012 29.7299 7.87012 28.6399 7.87012 27.3099L7.87012 8.57991C7.87012 7.24991 8.96012 6.15991 10.2901 6.15991L26.1301 6.15991C27.4601 6.15991 28.5501 7.24991 28.5501 8.57991L28.5501 27.3099C28.5501 28.6399 27.4601 29.7299 26.1301 29.7299ZM10.2901 7.65991C9.78012 7.65991 9.37012 8.06991 9.37012 8.57991L9.37012 27.3099C9.37012 27.8199 9.78012 28.2299 10.2901 28.2299L26.1301 28.2299C26.6401 28.2299 27.0501 27.8199 27.0501 27.3099L27.0501 8.57991C27.0501 8.06991 26.6401 7.65991 26.1301 7.65991L10.2901 7.65991L10.2901 7.65991Z" fill="rgb(87,184,255)" fill-rule="nonzero" />
</svg>
