<?xml version="1.0" encoding="UTF-8"?>
<svg id="_图标" data-name="图标" xmlns="http://www.w3.org/2000/svg" viewBox="0 0 32 32">
  <defs>
    <style>
      .cls-1 {
        fill: #d6c169;
      }

      .cls-2 {
        fill: #ba9600;
      }
    </style>
  </defs>
  <path class="cls-1" d="M7.74,21.36c-.14-.42-.21-.82-.14-.89,1.95-.53,2.32-2.2,2.32-2.21.01-3.61.04-12.05,0-12.34,0-.04-.05-.08-.1-.08-.43-.06-.85-.09-1.24-.09-3.74,0-4.42,2.68-4.52,3.2h-2.06v-4.43h18.37v4.43h-2.06c-.1-.52-.78-3.2-4.52-3.2-.39,0-.81.03-1.24.09-.05,0-.09.04-.1.08-.04.25-.02,6.81,0,12.26v.22c.13.38.65,1.58,2.23,2.06.14.07.08.48-.06.9h-6.89Z"/>
  <path class="cls-2" d="M16.75,28.83c-.15-.44-.22-.86-.15-.93,2.05-.56,2.43-2.31,2.43-2.32.01-3.79.04-12.65,0-12.95,0-.04-.05-.08-.1-.09-.45-.06-.89-.09-1.3-.09-3.92,0-4.64,2.81-4.74,3.36h-2.16v-4.64h19.27v4.64h-2.16c-.1-.55-.82-3.36-4.74-3.36-.41,0-.84.03-1.3.09-.05,0-.09.04-.1.09-.04.27-.02,7.15,0,12.87v.23c.13.4.68,1.66,2.34,2.16.15.08.08.5-.06.94h-7.23Z"/>
</svg>