<?xml version="1.0" encoding="UTF-8"?>
<svg id="_图层_5" data-name="图层 5" xmlns="http://www.w3.org/2000/svg" viewBox="0 0 32 32">
  <defs>
    <style>
      .cls-1 {
        fill: #57b8ff;
      }
    </style>
  </defs>
  <path class="cls-1" d="M13.47,24.38c-.19,0-.38-.07-.53-.22L3.77,14.99c-.29-.29-.29-.77,0-1.06s.77-.29,1.06,0l9.17,9.17c.29.29.29.77,0,1.06-.15.15-.34.22-.53.22Z"/>
  <path class="cls-1" d="M13.47,24.38c-.19,0-.38-.07-.53-.22-.29-.29-.29-.77,0-1.06l14.88-14.88c.29-.29.77-.29,1.06,0s.29.77,0,1.06l-14.88,14.88c-.15.15-.34.22-.53.22Z"/>
</svg>