<?xml version="1.0" encoding="UTF-8"?>
<svg id="_图标" data-name="图标" xmlns="http://www.w3.org/2000/svg" viewBox="0 0 32 32">
  <defs>
    <style>
      .cls-1 {
        fill: #ba9600;
      }
    </style>
  </defs>
  <path class="cls-1" d="M2,23.11c-.41,0-.75-.34-.75-.75v-12.73c0-.41.34-.75.75-.75s.75.34.75.75v12.73c0,.41-.34.75-.75.75Z"/>
  <path class="cls-1" d="M30,23.11c-.41,0-.75-.34-.75-.75v-12.73c0-.41.34-.75.75-.75s.75.34.75.75v12.73c0,.41-.34.75-.75.75Z"/>
  <path class="cls-1" d="M16,22.03c-.41,0-.75-.34-.75-.75v-10.56c0-.41.34-.75.75-.75s.75.34.75.75v10.56c0,.41-.34.75-.75.75Z"/>
  <g>
    <path class="cls-1" d="M25.5,16.75H6.5c-.41,0-.75-.34-.75-.75s.34-.75.75-.75h19c.41,0,.75.34.75.75s-.34.75-.75.75Z"/>
    <polygon class="cls-1" points="7.16 18.24 3.27 16 7.16 13.76 7.16 18.24"/>
    <polygon class="cls-1" points="24.84 18.24 28.73 16 24.84 13.76 24.84 18.24"/>
  </g>
</svg>