<?xml version="1.0" encoding="UTF-8"?>
<svg id="_图标" data-name="图标" xmlns="http://www.w3.org/2000/svg" viewBox="0 0 32 32">
  <defs>
    <style>
      .cls-1 {
        fill: #57b8ff;
      }

      .cls-2 {
        fill: #65c8d0;
      }
    </style>
  </defs>
  <g>
    <path class="cls-1" d="M13.51,12.39h-7.93c-.33,0-.6-.27-.6-.6s.27-.6.6-.6h7.93c.33,0,.6.27.6.6s-.27.6-.6.6Z"/>
    <path class="cls-1" d="M10.24,16.43c-.33,0-.6-.27-.6-.6v-6.62c0-.33.27-.6.6-.6s.6.27.6.6v6.62c0,.33-.27.6-.6.6Z"/>
  </g>
  <g>
    <g>
      <path class="cls-2" d="M10.06,5.8l.28.39-1.16,1.5h-.56l1.44-1.89ZM10.08,6.07l-1.44-1.81h.56l1.18,1.54,1.47,1.89h-.56l-1.21-1.62ZM10.18,5.75l1.06-1.49h.56l-1.36,1.85-.26-.36Z"/>
      <polygon class="cls-1" points="12.36 7.94 11.17 7.94 10.25 6.71 9.3 7.94 8.12 7.94 9.65 5.93 8.12 4.01 9.33 4.01 10.25 5.22 11.11 4.01 12.29 4.01 10.84 5.98 12.36 7.94"/>
    </g>
    <g>
      <path class="cls-2" d="M17.01,12.56v1.55h-.45v-1.55l-1.49-2.26h.49l1.22,1.9,1.22-1.9h.49l-1.49,2.26Z"/>
      <polygon class="cls-1" points="17.26 14.36 16.3 14.36 16.3 12.64 14.6 10.05 15.7 10.05 16.78 11.74 17.86 10.05 18.96 10.05 17.26 12.64 17.26 14.36"/>
    </g>
  </g>
  <g>
    <path class="cls-1" d="M27,16.84H5c-.41,0-.75-.34-.75-.75s.34-.75.75-.75h22c.41,0,.75.34.75.75s-.34.75-.75.75Z"/>
    <path class="cls-1" d="M5,16.84c-.41,0-.75-.34-.75-.75V5.97c0-.41.34-.75.75-.75s.75.34.75.75v10.12c0,.41-.34.75-.75.75Z"/>
  </g>
  <g>
    <path class="cls-1" d="M29.02,25.67H3.03c-.41,0-.75-.34-.75-.75s.34-.75.75-.75h26c.41,0,.75.34.75.75s-.34.75-.75.75Z"/>
    <path class="cls-1" d="M7.16,25.35c-.41,0-.75-.34-.75-.75v-4.36c0-.41.34-.75.75-.75s.75.34.75.75v4.36c0,.41-.34.75-.75.75Z"/>
    <path class="cls-1" d="M12.48,25.07c-.41,0-.75-.34-.75-.75v-2.04c0-.41.34-.75.75-.75s.75.34.75.75v2.04c0,.41-.34.75-.75.75Z"/>
    <path class="cls-1" d="M2.98,25.07c-.41,0-.75-.34-.75-.75v-2.04c0-.41.34-.75.75-.75s.75.34.75.75v2.04c0,.41-.34.75-.75.75Z"/>
    <path class="cls-1" d="M29.02,25.52c-.41,0-.75-.34-.75-.75v-2.04c0-.41.34-.75.75-.75s.75.34.75.75v2.04c0,.41-.34.75-.75.75Z"/>
    <path class="cls-1" d="M17.81,24.78c-.41,0-.75-.34-.75-.75v-3.37c0-.41.34-.75.75-.75s.75.34.75.75v3.37c0,.41-.34.75-.75.75Z"/>
    <path class="cls-1" d="M23.42,25.05c-.41,0-.75-.34-.75-.75v-3.91c0-.41.34-.75.75-.75s.75.34.75.75v3.91c0,.41-.34.75-.75.75Z"/>
  </g>
</svg>