<svg viewBox="0 0 32 32" xmlns="http://www.w3.org/2000/svg" xmlns:xlink="http://www.w3.org/1999/xlink" width="32" height="32" fill="none">
	<rect id="2d_copyDim" width="32" height="32" x="0" y="0" />
	<path id="矢量 57" d="M21.7144 6.29613L5.93294 6.29613C3.76476 6.29613 2 8.06511 2 10.2382L2 26.0579C2 28.231 3.76476 30 5.93294 30L21.7144 30C23.8826 30 25.6474 28.231 25.6474 26.0579L25.6474 10.2382C25.6474 8.0648 23.8826 6.29582 21.7144 6.29582L21.7144 6.29613ZM23.8826 26.0579C23.8832 26.1292 23.8803 26.2003 23.8738 26.2713C23.8674 26.3423 23.8574 26.4128 23.844 26.4828C23.8305 26.5528 23.8136 26.6219 23.7933 26.6903C23.773 26.7586 23.7494 26.8257 23.7224 26.8917C23.6955 26.9577 23.6653 27.0222 23.632 27.0851C23.5986 27.1481 23.5623 27.2093 23.5229 27.2687C23.4835 27.328 23.4412 27.3853 23.3961 27.4405C23.351 27.4957 23.3033 27.5485 23.253 27.5989C23.2027 27.6493 23.15 27.6972 23.095 27.7424C23.0399 27.7876 22.9828 27.8299 22.9235 27.8695C22.8642 27.909 22.8032 27.9455 22.7403 27.979C22.6774 28.0125 22.6131 28.0427 22.5472 28.0698C22.4813 28.0969 22.4143 28.1206 22.346 28.141C22.2778 28.1615 22.2088 28.1785 22.1388 28.192C22.0689 28.2056 21.9985 28.2156 21.9276 28.2222C21.8567 28.2288 21.7857 28.2318 21.7144 28.2313L5.93294 28.2313C5.86174 28.2318 5.79068 28.2288 5.71977 28.2222C5.64886 28.2156 5.57846 28.2056 5.50855 28.192C5.43864 28.1785 5.36957 28.1615 5.30134 28.141C5.23312 28.1206 5.16607 28.0969 5.1002 28.0698C5.03432 28.0427 4.96995 28.0125 4.90708 27.979C4.84421 27.9455 4.78314 27.909 4.72389 27.8695C4.66463 27.83 4.60748 27.7876 4.55242 27.7424C4.49737 27.6972 4.44468 27.6493 4.39436 27.5989C4.34405 27.5485 4.29635 27.4957 4.25126 27.4405C4.20618 27.3853 4.16393 27.328 4.12452 27.2687C4.08512 27.2093 4.04874 27.1481 4.01539 27.0851C3.98205 27.0222 3.9519 26.9577 3.92494 26.8917C3.89799 26.8257 3.87436 26.7586 3.85406 26.6903C3.83376 26.6219 3.81688 26.5528 3.80343 26.4828C3.78999 26.4128 3.78003 26.3423 3.77357 26.2713C3.76711 26.2003 3.76417 26.1292 3.76476 26.0579L3.76476 10.2382C3.76417 10.1669 3.76711 10.0958 3.77357 10.0248C3.78003 9.95384 3.78999 9.88335 3.80343 9.81335C3.81688 9.74336 3.83376 9.6742 3.85406 9.60588C3.87436 9.53755 3.89799 9.4704 3.92494 9.40443C3.9519 9.33845 3.98205 9.27398 4.01539 9.21099C4.04874 9.14801 4.08512 9.08684 4.12452 9.02747C4.16393 8.9681 4.20618 8.91082 4.25126 8.85565C4.29635 8.80048 4.34405 8.74767 4.39436 8.69723C4.44468 8.64679 4.49737 8.59897 4.55242 8.55376C4.60748 8.50855 4.66463 8.46618 4.72389 8.42665C4.78314 8.38712 4.84421 8.35062 4.90708 8.31715C4.96995 8.28368 5.03432 8.25341 5.1002 8.22634C5.16607 8.19926 5.23312 8.17551 5.30134 8.15509C5.36957 8.13467 5.43864 8.11768 5.50855 8.10412C5.57846 8.09056 5.64886 8.0805 5.71977 8.07393C5.79068 8.06736 5.86174 8.06431 5.93294 8.0648L21.7144 8.0648C21.7857 8.06431 21.8567 8.06736 21.9276 8.07393C21.9985 8.0805 22.0689 8.09056 22.1388 8.10412C22.2088 8.11768 22.2778 8.13467 22.346 8.15509C22.4143 8.17551 22.4813 8.19926 22.5472 8.22634C22.6131 8.25341 22.6774 8.28368 22.7403 8.31715C22.8032 8.35062 22.8642 8.38712 22.9235 8.42665C22.9828 8.46619 23.0399 8.50855 23.095 8.55376C23.15 8.59897 23.2027 8.64679 23.253 8.69723C23.3033 8.74767 23.351 8.80048 23.3961 8.85565C23.4412 8.91082 23.4835 8.9681 23.5229 9.02747C23.5623 9.08684 23.5986 9.14801 23.632 9.21099C23.6653 9.27398 23.6955 9.33845 23.7224 9.40443C23.7494 9.4704 23.773 9.53755 23.7933 9.60588C23.8136 9.6742 23.8305 9.74336 23.844 9.81335C23.8574 9.88335 23.8674 9.95384 23.8738 10.0248C23.8803 10.0958 23.8832 10.1669 23.8826 10.2382L23.8826 26.0579ZM25.901 2L8.75631 2C7.54634 2 6.38672 2.60636 5.63022 3.56676C5.3278 3.9712 5.4285 4.52716 5.83193 4.83049C6.23536 5.13382 6.78984 5.03271 7.09225 4.62827C7.4963 4.07231 8.10051 3.76929 8.80666 3.76929L25.9498 3.76929C27.1097 3.76929 28.0673 4.72938 28.0673 5.892L28.0673 23.0759C28.0673 23.6319 27.8153 24.1878 27.4118 24.5923C27.371 24.6334 27.3344 24.678 27.3018 24.7261C27.2693 24.7741 27.2415 24.8247 27.2183 24.8779C27.1952 24.9311 27.1772 24.9859 27.1643 25.0425C27.1513 25.099 27.1437 25.1563 27.1414 25.2142C27.1391 25.2722 27.1422 25.3299 27.1506 25.3873C27.159 25.4447 27.1727 25.5008 27.1915 25.5557C27.2103 25.6105 27.2341 25.6632 27.2627 25.7136C27.2913 25.764 27.3244 25.8114 27.3618 25.8557C27.4625 26.0075 27.7149 26.1083 27.9669 26.1083C28.0798 26.1044 28.1883 26.0807 28.2925 26.0372C28.3967 25.9937 28.4899 25.9332 28.5721 25.8557C29.3283 25.1482 29.782 24.0867 29.782 23.0246L29.782 5.89169C29.7821 5.76436 29.7759 5.63734 29.7635 5.51062C29.7511 5.38391 29.7325 5.2581 29.7077 5.13321C29.683 5.00832 29.6521 4.88494 29.6153 4.76308C29.5784 4.64122 29.5357 4.52145 29.4871 4.40379C29.4385 4.28613 29.3842 4.17113 29.3243 4.0588C29.2645 3.94647 29.1992 3.83734 29.1286 3.73142C29.058 3.6255 28.9824 3.5233 28.9018 3.42481C28.8212 3.32632 28.736 3.23202 28.6461 3.1419C28.5562 3.05179 28.4622 2.9663 28.3639 2.88543C28.2657 2.80456 28.1637 2.72871 28.058 2.65786C27.9523 2.58701 27.8434 2.52152 27.7313 2.46138C27.6192 2.40123 27.5044 2.34673 27.3869 2.29787C27.2695 2.24901 27.1499 2.20602 27.0282 2.16891C26.9065 2.1318 26.7833 2.10074 26.6586 2.07574C26.5339 2.05074 26.4082 2.03191 26.2817 2.01926C26.1551 2.0066 26.0282 2.00018 25.901 2ZM20.4541 17.2637L14.7061 17.2637L14.7061 11.4512C14.7061 11.3916 14.7003 11.3325 14.6886 11.274C14.677 11.2155 14.6598 11.1587 14.637 11.1036C14.6142 11.0485 14.5862 10.9961 14.5531 10.9465C14.52 10.8969 14.4824 10.8511 14.4403 10.8089C14.3981 10.7667 14.3523 10.729 14.3027 10.6959C14.2532 10.6628 14.2009 10.6348 14.1458 10.6119C14.0908 10.5891 14.034 10.5719 13.9756 10.5603C13.9171 10.5486 13.8581 10.5428 13.7985 10.5428C13.7389 10.5428 13.6799 10.5486 13.6215 10.5603C13.563 10.5719 13.5063 10.5891 13.4512 10.6119C13.3962 10.6348 13.3439 10.6628 13.2943 10.6959C13.2448 10.729 13.1989 10.7667 13.1568 10.8089C13.1146 10.8511 13.077 10.8969 13.0439 10.9465C13.0108 10.9961 12.9829 11.0485 12.96 11.1036C12.9372 11.1587 12.92 11.2155 12.9084 11.274C12.8968 11.3325 12.891 11.3916 12.891 11.4512L12.891 17.2133L7.14291 17.2133C7.08329 17.2134 7.02425 17.2193 6.96579 17.231C6.90733 17.2427 6.85057 17.26 6.79552 17.2829C6.74046 17.3058 6.68816 17.3339 6.63861 17.3671C6.58907 17.4003 6.54323 17.438 6.50111 17.4802C6.45898 17.5224 6.42136 17.5684 6.38827 17.618C6.35517 17.6677 6.32722 17.72 6.30443 17.7752C6.28163 17.8303 6.26442 17.8872 6.2528 17.9457C6.24118 18.0042 6.23537 18.0633 6.23537 18.123C6.23537 18.1827 6.24118 18.2418 6.2528 18.3003C6.26442 18.3589 6.28163 18.4157 6.30443 18.4709C6.32722 18.526 6.35517 18.5784 6.38827 18.628C6.42136 18.6777 6.45898 18.7236 6.50111 18.7658C6.54323 18.8081 6.58907 18.8458 6.63861 18.879C6.68816 18.9122 6.74046 18.9402 6.79552 18.9631C6.85057 18.986 6.90733 19.0033 6.96579 19.015C7.02425 19.0267 7.08329 19.0326 7.14291 19.0327L12.891 19.0327L12.891 24.7945C12.891 24.8541 12.8968 24.9132 12.9084 24.9717C12.92 25.0302 12.9372 25.087 12.96 25.1421C12.9829 25.1972 13.0108 25.2496 13.0439 25.2992C13.077 25.3488 13.1146 25.3947 13.1568 25.4369C13.1989 25.479 13.2448 25.5167 13.2943 25.5498C13.3439 25.583 13.3962 25.611 13.4512 25.6338C13.5063 25.6566 13.563 25.6738 13.6215 25.6855C13.6799 25.6971 13.7389 25.7029 13.7985 25.7029C13.8581 25.7029 13.9171 25.6971 13.9756 25.6855C14.034 25.6738 14.0908 25.6566 14.1458 25.6338C14.2009 25.611 14.2532 25.583 14.3027 25.5498C14.3523 25.5167 14.3981 25.479 14.4403 25.4369C14.4824 25.3947 14.52 25.3488 14.5531 25.2992C14.5862 25.2496 14.6142 25.1972 14.637 25.1421C14.6598 25.087 14.677 25.0302 14.6886 24.9717C14.7003 24.9132 14.7061 24.8541 14.7061 24.7945L14.7061 19.0324L20.4541 19.0324C20.5138 19.0326 20.573 19.0269 20.6315 19.0154C20.6901 19.0039 20.747 18.9868 20.8022 18.964C20.8574 18.9412 20.9098 18.9132 20.9595 18.88C21.0091 18.8468 21.055 18.8091 21.0972 18.7668C21.1394 18.7245 21.177 18.6785 21.2101 18.6288C21.2432 18.579 21.2711 18.5265 21.2938 18.4712C21.3165 18.416 21.3335 18.359 21.345 18.3003C21.3564 18.2417 21.362 18.1825 21.3617 18.1227C21.3617 17.6172 20.9576 17.2634 20.4541 17.2634L20.4541 17.2637Z" fill="rgb(56,56,56)" fill-rule="nonzero" />
</svg>
