<svg viewBox="0 0 32 32" xmlns="http://www.w3.org/2000/svg" xmlns:xlink="http://www.w3.org/1999/xlink" width="32" height="32" fill="none">
	<rect id="2d_compare" width="32" height="32" x="0" y="0" />
	<path id="矢量 34" d="M19.7705 5.31148C19.8135 5.31148 19.8562 5.30728 19.8984 5.29888C19.9406 5.29048 19.9817 5.27804 20.0214 5.26157C20.0612 5.24509 20.099 5.22489 20.1348 5.20097C20.1706 5.17705 20.2037 5.14987 20.2342 5.11942C20.2646 5.08898 20.2918 5.05585 20.3157 5.02005C20.3396 4.98425 20.3598 4.94646 20.3763 4.90668C20.3928 4.86691 20.4052 4.8259 20.4136 4.78367C20.422 4.74144 20.4262 4.6988 20.4262 4.65575C20.4262 4.61269 20.422 4.57005 20.4136 4.52782C20.4052 4.48559 20.3928 4.44458 20.3763 4.40481C20.3598 4.36503 20.3396 4.32724 20.3157 4.29144C20.2918 4.25564 20.2646 4.22251 20.2342 4.19207C20.2037 4.16162 20.1706 4.13444 20.1348 4.11052C20.099 4.0866 20.0612 4.0664 20.0214 4.04992C19.9817 4.03345 19.9406 4.02101 19.8984 4.01261C19.8562 4.00421 19.8135 4.00001 19.7705 4.00001L8.72131 4.00001C8.56674 4.00022 8.41255 4.008 8.25875 4.02333C8.10494 4.03867 7.95225 4.0615 7.80068 4.09181C7.64912 4.12212 7.49939 4.15978 7.35152 4.20477C7.20364 4.24977 7.05832 4.30189 6.91556 4.36115C6.7728 4.4204 6.63328 4.48649 6.497 4.55942C6.36071 4.63236 6.22833 4.71178 6.09984 4.7977C5.97135 4.88362 5.84737 4.97562 5.7279 5.0737C5.60844 5.17178 5.49405 5.27547 5.38476 5.38476C5.27546 5.49406 5.17177 5.60844 5.07369 5.72791C4.97561 5.84738 4.88361 5.97136 4.7977 6.09985C4.71178 6.22834 4.63235 6.36072 4.55941 6.497C4.48648 6.63328 4.42039 6.7728 4.36114 6.91557C4.30189 7.05833 4.24976 7.20365 4.20477 7.35152C4.15977 7.4994 4.12211 7.64912 4.0918 7.80069C4.06149 7.95226 4.03866 8.10495 4.02333 8.25875C4.00799 8.41256 4.00021 8.56675 4 8.72132L4 23.2787C4.00021 23.4333 4.00799 23.5875 4.02333 23.7413C4.03866 23.8951 4.06149 24.0478 4.0918 24.1993C4.12211 24.3509 4.15977 24.5006 4.20477 24.6485C4.24976 24.7964 4.30189 24.9417 4.36114 25.0844C4.42039 25.2272 4.48648 25.3667 4.55942 25.503C4.63235 25.6393 4.71178 25.7717 4.7977 25.9002C4.88362 26.0287 4.97561 26.1526 5.07369 26.2721C5.17177 26.3916 5.27546 26.5059 5.38476 26.6152C5.49405 26.7245 5.60844 26.8282 5.7279 26.9263C5.84737 27.0244 5.97135 27.1164 6.09984 27.2023C6.22833 27.2882 6.36072 27.3676 6.497 27.4406C6.63328 27.5135 6.7728 27.5796 6.91556 27.6389C7.05832 27.6981 7.20364 27.7502 7.35152 27.7952C7.49939 27.8402 7.64912 27.8779 7.80068 27.9082C7.95225 27.9385 8.10494 27.9613 8.25875 27.9767C8.41255 27.992 8.56674 27.9998 8.72131 28L16 28C16.0431 28 16.0857 27.9958 16.1279 27.9874C16.1702 27.979 16.2112 27.9666 16.2509 27.9501C16.2907 27.9336 16.3285 27.9134 16.3643 27.8895C16.4001 27.8656 16.4332 27.8384 16.4637 27.8079C16.4941 27.7775 16.5213 27.7444 16.5452 27.7086C16.5691 27.6728 16.5893 27.635 16.6058 27.5952C16.6223 27.5554 16.6347 27.5144 16.6431 27.4722C16.6515 27.43 16.6557 27.3873 16.6557 27.3443L16.6557 5.31148L19.7705 5.31148ZM15.3443 26.6885L8.72131 26.6885C8.60964 26.6885 8.49823 26.6831 8.38709 26.6721C8.27595 26.6612 8.16562 26.6448 8.05609 26.623C7.94656 26.6012 7.83836 26.5741 7.73149 26.5417C7.62462 26.5093 7.5196 26.4717 7.41642 26.429C7.31325 26.3862 7.21242 26.3385 7.11393 26.2859C7.01544 26.2333 6.91976 26.1759 6.82691 26.1139C6.73405 26.0518 6.64446 25.9854 6.55814 25.9145C6.47181 25.8437 6.38916 25.7688 6.31019 25.6898C6.23123 25.6108 6.15632 25.5282 6.08547 25.4419C6.01463 25.3555 5.94818 25.2659 5.88614 25.1731C5.82409 25.0802 5.76675 24.9846 5.71411 24.8861C5.66146 24.7876 5.61377 24.6868 5.57103 24.5836C5.5283 24.4804 5.49072 24.3754 5.4583 24.2685C5.42588 24.1616 5.39878 24.0534 5.37699 23.9439C5.35521 23.8344 5.33884 23.7241 5.3279 23.6129C5.31695 23.5018 5.31148 23.3904 5.31148 23.2787L5.31148 8.72132C5.31148 8.60964 5.31695 8.49823 5.3279 8.3871C5.33884 8.27596 5.35521 8.16562 5.37699 8.05609C5.39878 7.94656 5.42588 7.83836 5.4583 7.73149C5.49072 7.62463 5.5283 7.51961 5.57103 7.41643C5.61377 7.31326 5.66146 7.21242 5.7141 7.11393C5.76675 7.01544 5.82409 6.91977 5.88614 6.82691C5.94818 6.73406 6.01463 6.64447 6.08547 6.55814C6.15632 6.47181 6.23123 6.38917 6.31019 6.3102C6.38916 6.23123 6.47181 6.15633 6.55814 6.08548C6.64446 6.01463 6.73405 5.94819 6.82691 5.88614C6.91976 5.8241 7.01544 5.76676 7.11393 5.71411C7.21242 5.66147 7.31325 5.61378 7.41642 5.57104C7.5196 5.5283 7.62462 5.49073 7.73149 5.45831C7.83836 5.42589 7.94656 5.39879 8.05609 5.377C8.16562 5.35521 8.27595 5.33885 8.38709 5.3279C8.49823 5.31696 8.60964 5.31148 8.72131 5.31148L15.3443 5.31148L15.3443 26.6885ZM23.2787 26.6885L19.9344 26.6885C19.8914 26.6885 19.8487 26.6927 19.8065 26.7011C19.7643 26.7095 19.7233 26.722 19.6835 26.7384C19.6437 26.7549 19.6059 26.7751 19.5701 26.799C19.5343 26.823 19.5012 26.8501 19.4708 26.8806C19.4403 26.911 19.4131 26.9442 19.3892 26.98C19.3653 27.0158 19.3451 27.0535 19.3286 27.0933C19.3121 27.1331 19.2997 27.1741 19.2913 27.2163C19.2829 27.2586 19.2787 27.3012 19.2787 27.3443C19.2787 27.3873 19.2829 27.43 19.2913 27.4722C19.2997 27.5144 19.3121 27.5554 19.3286 27.5952C19.3451 27.635 19.3653 27.6728 19.3892 27.7086C19.4131 27.7444 19.4403 27.7775 19.4708 27.8079C19.5012 27.8384 19.5343 27.8656 19.5701 27.8895C19.6059 27.9134 19.6437 27.9336 19.6835 27.9501C19.7233 27.9666 19.7643 27.979 19.8065 27.9874C19.8487 27.9958 19.8914 28 19.9344 28L23.2787 28C23.3217 28 23.3644 27.9958 23.4066 27.9874C23.4488 27.979 23.4898 27.9666 23.5296 27.9501C23.5694 27.9336 23.6072 27.9134 23.643 27.8895C23.6788 27.8656 23.7119 27.8384 23.7424 27.8079C23.7728 27.7775 23.8 27.7444 23.8239 27.7086C23.8478 27.6728 23.868 27.635 23.8845 27.5952C23.901 27.5554 23.9134 27.5144 23.9218 27.4722C23.9302 27.43 23.9344 27.3873 23.9344 27.3443C23.9344 27.3012 23.9302 27.2586 23.9218 27.2163C23.9134 27.1741 23.901 27.1331 23.8845 27.0933C23.868 27.0535 23.8478 27.0158 23.8239 26.98C23.8 26.9442 23.7728 26.911 23.7424 26.8806C23.7119 26.8501 23.6788 26.823 23.643 26.799C23.6072 26.7751 23.5694 26.7549 23.5296 26.7384C23.4898 26.722 23.4488 26.7095 23.4066 26.7011C23.3644 26.6927 23.3217 26.6885 23.2787 26.6885ZM27.3443 22.623C27.3012 22.623 27.2586 22.6272 27.2163 22.6355C27.1741 22.6439 27.1331 22.6564 27.0933 22.6729C27.0535 22.6893 27.0158 22.7095 26.9799 22.7335C26.9442 22.7574 26.911 22.7846 26.8806 22.815C26.8501 22.8455 26.823 22.8786 26.799 22.9144C26.7751 22.9502 26.7549 22.988 26.7384 23.0277C26.722 23.0675 26.7095 23.1085 26.7011 23.1508C26.6927 23.193 26.6885 23.2356 26.6885 23.2787C26.689 23.4978 26.6683 23.715 26.6264 23.9301C26.5846 24.1452 26.5223 24.3542 26.4397 24.5572C26.357 24.7602 26.2555 24.9533 26.1352 25.1364C26.0149 25.3196 25.878 25.4894 25.7246 25.6459C25.6939 25.6764 25.6664 25.7096 25.6423 25.7455C25.6181 25.7814 25.5977 25.8193 25.5811 25.8593C25.5644 25.8992 25.5518 25.9404 25.5434 25.9829C25.5349 26.0253 25.5306 26.0682 25.5306 26.1115C25.5306 26.1548 25.5349 26.1976 25.5434 26.2401C25.5518 26.2825 25.5644 26.3237 25.5811 26.3637C25.5977 26.4036 25.6181 26.4415 25.6423 26.4775C25.6664 26.5134 25.6939 26.5466 25.7246 26.577C25.7854 26.6356 25.8549 26.6808 25.9331 26.7125C26.0113 26.7443 26.0926 26.7603 26.1771 26.7607C26.2658 26.7612 26.3512 26.7444 26.4331 26.7102C26.515 26.6761 26.5871 26.6273 26.6492 26.5639C26.8593 26.346 27.0465 26.11 27.2108 25.8558C27.3751 25.6016 27.5135 25.334 27.6259 25.053C27.7383 24.7719 27.8227 24.4827 27.879 24.1853C27.9353 23.888 27.9625 23.5879 27.9607 23.2852C27.9612 23.2435 27.9577 23.2021 27.9503 23.1611C27.9429 23.12 27.9316 23.08 27.9166 23.0411C27.9016 23.0022 27.883 22.965 27.8608 22.9296C27.8387 22.8943 27.8134 22.8613 27.785 22.8308C27.7565 22.8002 27.7255 22.7726 27.6918 22.748C27.6581 22.7234 27.6224 22.7022 27.5846 22.6844C27.5469 22.6666 27.5078 22.6525 27.4674 22.6422C27.427 22.6319 27.3859 22.6255 27.3443 22.623ZM27.3443 15.3443C27.3012 15.3443 27.2586 15.3485 27.2163 15.3569C27.1741 15.3653 27.1331 15.3777 27.0933 15.3942C27.0535 15.4107 27.0158 15.4309 26.98 15.4548C26.9442 15.4787 26.911 15.5059 26.8806 15.5363C26.8501 15.5668 26.823 15.5999 26.799 15.6357C26.7751 15.6715 26.7549 15.7093 26.7384 15.7491C26.722 15.7888 26.7095 15.8298 26.7011 15.8721C26.6927 15.9143 26.6885 15.9569 26.6885 16L26.6885 19.318C26.6885 19.3611 26.6927 19.4037 26.7011 19.446C26.7095 19.4882 26.722 19.5292 26.7384 19.569C26.7549 19.6088 26.7751 19.6465 26.799 19.6823C26.823 19.7181 26.8501 19.7513 26.8806 19.7817C26.911 19.8122 26.9442 19.8393 26.98 19.8633C27.0158 19.8872 27.0535 19.9074 27.0933 19.9239C27.1331 19.9403 27.1741 19.9528 27.2163 19.9612C27.2586 19.9696 27.3012 19.9738 27.3443 19.9738C27.3873 19.9738 27.43 19.9696 27.4722 19.9612C27.5144 19.9528 27.5554 19.9403 27.5952 19.9239C27.635 19.9074 27.6728 19.8872 27.7086 19.8633C27.7444 19.8393 27.7775 19.8122 27.8079 19.7817C27.8384 19.7513 27.8656 19.7181 27.8895 19.6823C27.9134 19.6465 27.9336 19.6088 27.9501 19.569C27.9666 19.5292 27.979 19.4882 27.9874 19.446C27.9958 19.4037 28 19.3611 28 19.318L28 16C28 15.9569 27.9958 15.9143 27.9874 15.8721C27.979 15.8298 27.9666 15.7888 27.9501 15.7491C27.9336 15.7093 27.9134 15.6715 27.8895 15.6357C27.8656 15.5999 27.8384 15.5668 27.8079 15.5363C27.7775 15.5059 27.7444 15.4787 27.7086 15.4548C27.6728 15.4309 27.635 15.4107 27.5952 15.3942C27.5554 15.3777 27.5144 15.3653 27.4722 15.3569C27.43 15.3485 27.3873 15.3443 27.3443 15.3443L27.3443 15.3443ZM26.682 11.9541C26.682 11.9972 26.6862 12.0398 26.6946 12.082C26.703 12.1243 26.7154 12.1653 26.7319 12.205C26.7484 12.2448 26.7686 12.2826 26.7925 12.3184C26.8164 12.3542 26.8436 12.3873 26.874 12.4178C26.9045 12.4482 26.9376 12.4754 26.9734 12.4993C27.0092 12.5232 27.047 12.5434 27.0868 12.5599C27.1265 12.5764 27.1676 12.5888 27.2098 12.5972C27.252 12.6056 27.2947 12.6098 27.3377 12.6098C27.3808 12.6098 27.4234 12.6056 27.4656 12.5972C27.5079 12.5888 27.5489 12.5764 27.5886 12.5599C27.6284 12.5434 27.6662 12.5232 27.702 12.4993C27.7378 12.4754 27.7709 12.4482 27.8014 12.4178C27.8318 12.3873 27.859 12.3542 27.8829 12.3184C27.9069 12.2826 27.927 12.2448 27.9435 12.205C27.96 12.1653 27.9724 12.1243 27.9808 12.082C27.9892 12.0398 27.9934 11.9972 27.9934 11.9541L27.9934 8.72132C27.9934 8.67826 27.9892 8.63562 27.9808 8.59339C27.9724 8.55116 27.96 8.51016 27.9435 8.47038C27.927 8.4306 27.9069 8.39281 27.8829 8.35701C27.859 8.32121 27.8318 8.28809 27.8014 8.25764C27.7709 8.2272 27.7378 8.20001 27.702 8.17609C27.6662 8.15217 27.6284 8.13197 27.5886 8.11549C27.5489 8.09902 27.5079 8.08658 27.4656 8.07818C27.4234 8.06978 27.3808 8.06558 27.3377 8.06558C27.2947 8.06558 27.252 8.06978 27.2098 8.07818C27.1675 8.08658 27.1265 8.09902 27.0868 8.1155C27.047 8.13197 27.0092 8.15217 26.9734 8.17609C26.9376 8.20001 26.9045 8.2272 26.874 8.25764C26.8436 8.28809 26.8164 8.32121 26.7925 8.35701C26.7686 8.39281 26.7484 8.4306 26.7319 8.47038C26.7154 8.51016 26.703 8.55116 26.6946 8.59339C26.6862 8.63562 26.682 8.67826 26.682 8.72132L26.682 11.9541ZM23.2787 5.31148C23.5025 5.311 23.7242 5.3326 23.9437 5.37628C24.1633 5.41996 24.3763 5.48487 24.5829 5.57099C24.7895 5.65712 24.9856 5.76278 25.1711 5.88797C25.3567 6.01316 25.528 6.15543 25.6852 6.31476C25.7471 6.37613 25.8184 6.4233 25.8991 6.45625C25.9798 6.4892 26.0637 6.50543 26.1508 6.50492C26.238 6.50543 26.3219 6.4892 26.4026 6.45625C26.4832 6.4233 26.5545 6.37613 26.6164 6.31476C26.6466 6.28434 26.6736 6.25127 26.6974 6.21556C26.7211 6.17984 26.7412 6.14216 26.7575 6.1025C26.7739 6.06285 26.7862 6.02199 26.7946 5.97992C26.8029 5.93784 26.8071 5.89536 26.8071 5.85247C26.8071 5.80957 26.8029 5.76709 26.7946 5.72502C26.7862 5.68294 26.7739 5.64208 26.7575 5.60243C26.7412 5.56278 26.7211 5.52509 26.6974 5.48938C26.6736 5.45366 26.6466 5.42059 26.6164 5.39017C26.3982 5.16947 26.1604 4.97242 25.903 4.79901C25.6456 4.6256 25.3737 4.47923 25.0872 4.3599C24.8006 4.24057 24.5052 4.15062 24.2008 4.09004C23.8964 4.02947 23.589 3.99946 23.2787 4.00001C23.2356 4.00001 23.193 4.00421 23.1508 4.01261C23.1085 4.02101 23.0675 4.03345 23.0277 4.04992C22.988 4.0664 22.9502 4.0866 22.9144 4.11052C22.8786 4.13444 22.8455 4.16162 22.815 4.19207C22.7846 4.22251 22.7574 4.25564 22.7335 4.29144C22.7095 4.32724 22.6893 4.36503 22.6729 4.40481C22.6564 4.44458 22.644 4.48559 22.6356 4.52782C22.6272 4.57005 22.623 4.61269 22.623 4.65575C22.623 4.6988 22.6272 4.74144 22.6356 4.78367C22.644 4.8259 22.6564 4.86691 22.6729 4.90668C22.6893 4.94646 22.7095 4.98425 22.7335 5.02005C22.7574 5.05585 22.7846 5.08898 22.815 5.11942C22.8455 5.14987 22.8786 5.17705 22.9144 5.20097C22.9502 5.22489 22.988 5.24509 23.0277 5.26157C23.0675 5.27804 23.1085 5.29048 23.1508 5.29888C23.193 5.30728 23.2356 5.31148 23.2787 5.31148ZM24.2361 10.9967L18.9902 10.9967C18.9471 10.9967 18.9045 11.0009 18.8622 11.0093C18.82 11.0177 18.779 11.0302 18.7392 11.0466C18.6994 11.0631 18.6617 11.0833 18.6259 11.1072C18.5901 11.1312 18.5569 11.1583 18.5265 11.1888C18.496 11.2192 18.4689 11.2524 18.4449 11.2882C18.421 11.324 18.4008 11.3617 18.3843 11.4015C18.3679 11.4413 18.3554 11.4823 18.347 11.5245C18.3386 11.5668 18.3344 11.6094 18.3344 11.6525C18.3344 11.6955 18.3386 11.7382 18.347 11.7804C18.3554 11.8226 18.3679 11.8636 18.3843 11.9034C18.4008 11.9432 18.421 11.981 18.4449 12.0168C18.4689 12.0526 18.496 12.0857 18.5265 12.1161C18.5569 12.1466 18.5901 12.1738 18.6259 12.1977C18.6617 12.2216 18.6994 12.2418 18.7392 12.2583C18.779 12.2748 18.82 12.2872 18.8622 12.2956C18.9045 12.304 18.9471 12.3082 18.9902 12.3082L24.2361 12.3082C24.2791 12.3082 24.3218 12.304 24.364 12.2956C24.4062 12.2872 24.4472 12.2748 24.487 12.2583C24.5268 12.2418 24.5646 12.2216 24.6004 12.1977C24.6362 12.1738 24.6693 12.1466 24.6997 12.1161C24.7302 12.0857 24.7574 12.0526 24.7813 12.0168C24.8052 11.981 24.8254 11.9432 24.8419 11.9034C24.8584 11.8636 24.8708 11.8226 24.8792 11.7804C24.8876 11.7382 24.8918 11.6955 24.8918 11.6525C24.8918 11.6094 24.8876 11.5668 24.8792 11.5245C24.8708 11.4823 24.8584 11.4413 24.8419 11.4015C24.8254 11.3617 24.8052 11.324 24.7813 11.2882C24.7574 11.2524 24.7302 11.2192 24.6997 11.1888C24.6693 11.1583 24.6362 11.1312 24.6004 11.1072C24.5646 11.0833 24.5268 11.0631 24.487 11.0466C24.4472 11.0302 24.4062 11.0177 24.364 11.0093C24.3218 11.0009 24.2791 10.9967 24.2361 10.9967L24.2361 10.9967ZM24.2361 15.5934L18.9902 15.5934C18.9471 15.5934 18.9045 15.5976 18.8622 15.606C18.82 15.6144 18.779 15.6269 18.7392 15.6434C18.6994 15.6598 18.6617 15.68 18.6259 15.704C18.5901 15.7279 18.5569 15.7551 18.5265 15.7855C18.496 15.816 18.4689 15.8491 18.4449 15.8849C18.421 15.9207 18.4008 15.9585 18.3843 15.9982C18.3679 16.038 18.3554 16.079 18.347 16.1213C18.3386 16.1635 18.3344 16.2061 18.3344 16.2492C18.3344 16.2922 18.3386 16.3349 18.347 16.3771C18.3554 16.4193 18.3679 16.4603 18.3843 16.5001C18.4008 16.5399 18.421 16.5777 18.4449 16.6135C18.4689 16.6493 18.496 16.6824 18.5265 16.7129C18.5569 16.7433 18.5901 16.7705 18.6259 16.7944C18.6617 16.8183 18.6994 16.8385 18.7392 16.855C18.779 16.8715 18.82 16.8839 18.8622 16.8923C18.9045 16.9007 18.9471 16.9049 18.9902 16.9049L24.2361 16.9049C24.2791 16.9049 24.3218 16.9007 24.364 16.8923C24.4062 16.8839 24.4472 16.8715 24.487 16.855C24.5268 16.8385 24.5646 16.8183 24.6004 16.7944C24.6362 16.7705 24.6693 16.7433 24.6997 16.7129C24.7302 16.6824 24.7574 16.6493 24.7813 16.6135C24.8052 16.5777 24.8254 16.5399 24.8419 16.5001C24.8584 16.4603 24.8708 16.4193 24.8792 16.3771C24.8876 16.3349 24.8918 16.2922 24.8918 16.2492C24.8918 16.2061 24.8876 16.1635 24.8792 16.1213C24.8708 16.079 24.8584 16.038 24.8419 15.9982C24.8254 15.9585 24.8052 15.9207 24.7813 15.8849C24.7574 15.8491 24.7302 15.816 24.6997 15.7855C24.6693 15.7551 24.6362 15.7279 24.6004 15.704C24.5646 15.68 24.5268 15.6598 24.487 15.6434C24.4472 15.6269 24.4062 15.6144 24.364 15.606C24.3218 15.5976 24.2791 15.5934 24.2361 15.5934L24.2361 15.5934ZM24.2361 20.1902L18.9902 20.1902C18.9471 20.1902 18.9045 20.1944 18.8622 20.2028C18.82 20.2112 18.779 20.2236 18.7392 20.2401C18.6994 20.2566 18.6617 20.2768 18.6259 20.3007C18.5901 20.3246 18.5569 20.3518 18.5265 20.3822C18.496 20.4127 18.4689 20.4458 18.4449 20.4816C18.421 20.5174 18.4008 20.5552 18.3843 20.595C18.3679 20.6347 18.3554 20.6757 18.347 20.718C18.3386 20.7602 18.3344 20.8028 18.3344 20.8459C18.3344 20.889 18.3386 20.9316 18.347 20.9738C18.3554 21.0161 18.3679 21.0571 18.3843 21.0968C18.4008 21.1366 18.421 21.1744 18.4449 21.2102C18.4689 21.246 18.496 21.2791 18.5265 21.3096C18.5569 21.34 18.5901 21.3672 18.6259 21.3911C18.6617 21.4151 18.6994 21.4352 18.7392 21.4517C18.779 21.4682 18.82 21.4806 18.8622 21.489C18.9045 21.4974 18.9471 21.5016 18.9902 21.5016L24.2361 21.5016C24.2791 21.5016 24.3218 21.4974 24.364 21.489C24.4062 21.4806 24.4472 21.4682 24.487 21.4517C24.5268 21.4352 24.5646 21.415 24.6004 21.3911C24.6362 21.3672 24.6693 21.34 24.6997 21.3096C24.7302 21.2791 24.7574 21.246 24.7813 21.2102C24.8052 21.1744 24.8254 21.1366 24.8419 21.0968C24.8584 21.0571 24.8708 21.0161 24.8792 20.9738C24.8876 20.9316 24.8918 20.889 24.8918 20.8459C24.8918 20.8028 24.8876 20.7602 24.8792 20.718C24.8708 20.6757 24.8584 20.6347 24.8419 20.595C24.8254 20.5552 24.8052 20.5174 24.7813 20.4816C24.7574 20.4458 24.7302 20.4127 24.6997 20.3822C24.6693 20.3518 24.6362 20.3246 24.6004 20.3007C24.5646 20.2768 24.5268 20.2566 24.487 20.2401C24.4472 20.2236 24.4062 20.2112 24.364 20.2028C24.3218 20.1944 24.2791 20.1902 24.2361 20.1902L24.2361 20.1902ZM7.25246 11.4098C7.25246 11.4529 7.25666 11.4955 7.26506 11.5378C7.27346 11.58 7.2859 11.621 7.30237 11.6608C7.31885 11.7006 7.33905 11.7383 7.36297 11.7741C7.38689 11.8099 7.41407 11.8431 7.44452 11.8735C7.47497 11.904 7.50809 11.9311 7.54389 11.9551C7.57969 11.979 7.61748 11.9992 7.65726 12.0157C7.69704 12.0321 7.73804 12.0446 7.78027 12.053C7.8225 12.0614 7.86514 12.0656 7.9082 12.0656L13.1541 12.0656C13.1972 12.0656 13.2398 12.0614 13.282 12.053C13.3243 12.0446 13.3653 12.0321 13.405 12.0157C13.4448 11.9992 13.4826 11.979 13.5184 11.9551C13.5542 11.9311 13.5873 11.904 13.6178 11.8735C13.6482 11.8431 13.6754 11.8099 13.6993 11.7741C13.7232 11.7383 13.7434 11.7006 13.7599 11.6608C13.7764 11.621 13.7888 11.58 13.7972 11.5378C13.8056 11.4955 13.8098 11.4529 13.8098 11.4098C13.8098 11.3668 13.8056 11.3241 13.7972 11.2819C13.7888 11.2397 13.7764 11.1987 13.7599 11.1589C13.7434 11.1191 13.7232 11.0813 13.6993 11.0455C13.6754 11.0097 13.6482 10.9766 13.6178 10.9462C13.5873 10.9157 13.5542 10.8885 13.5184 10.8646C13.4826 10.8407 13.4448 10.8205 13.405 10.804C13.3653 10.7875 13.3243 10.7751 13.282 10.7667C13.2398 10.7583 13.1972 10.7541 13.1541 10.7541L7.9082 10.7541C7.86514 10.7541 7.8225 10.7583 7.78027 10.7667C7.73804 10.7751 7.69704 10.7875 7.65726 10.804C7.61748 10.8205 7.57969 10.8407 7.54389 10.8646C7.50809 10.8885 7.47497 10.9157 7.44452 10.9462C7.41407 10.9766 7.38689 11.0097 7.36297 11.0455C7.33905 11.0813 7.31885 11.1191 7.30237 11.1589C7.2859 11.1987 7.27346 11.2397 7.26506 11.2819C7.25666 11.3241 7.25246 11.3668 7.25246 11.4098L7.25246 11.4098ZM13.1541 15.3443L7.9082 15.3443C7.86514 15.3443 7.8225 15.3485 7.78027 15.3569C7.73804 15.3653 7.69704 15.3777 7.65726 15.3942C7.61748 15.4107 7.57969 15.4309 7.54389 15.4548C7.50809 15.4787 7.47497 15.5059 7.44452 15.5363C7.41407 15.5668 7.38689 15.5999 7.36297 15.6357C7.33905 15.6715 7.31885 15.7093 7.30237 15.7491C7.2859 15.7888 7.27346 15.8298 7.26506 15.8721C7.25666 15.9143 7.25246 15.9569 7.25246 16C7.25246 16.0431 7.25666 16.0857 7.26506 16.1279C7.27346 16.1702 7.2859 16.2112 7.30237 16.2509C7.31885 16.2907 7.33905 16.3285 7.36297 16.3643C7.38689 16.4001 7.41407 16.4332 7.44452 16.4637C7.47497 16.4941 7.50809 16.5213 7.54389 16.5452C7.57969 16.5691 7.61748 16.5893 7.65726 16.6058C7.69704 16.6223 7.73804 16.6347 7.78027 16.6431C7.8225 16.6515 7.86514 16.6557 7.9082 16.6557L13.1541 16.6557C13.1972 16.6557 13.2398 16.6515 13.282 16.6431C13.3243 16.6347 13.3653 16.6223 13.405 16.6058C13.4448 16.5893 13.4826 16.5691 13.5184 16.5452C13.5542 16.5213 13.5873 16.4941 13.6178 16.4637C13.6482 16.4332 13.6754 16.4001 13.6993 16.3643C13.7232 16.3285 13.7434 16.2907 13.7599 16.2509C13.7764 16.2112 13.7888 16.1702 13.7972 16.1279C13.8056 16.0857 13.8098 16.0431 13.8098 16C13.8098 15.9569 13.8056 15.9143 13.7972 15.8721C13.7888 15.8298 13.7764 15.7888 13.7599 15.7491C13.7434 15.7093 13.7232 15.6715 13.6993 15.6357C13.6754 15.5999 13.6482 15.5668 13.6178 15.5363C13.5873 15.5059 13.5542 15.4787 13.5184 15.4548C13.4826 15.4309 13.4448 15.4107 13.405 15.3942C13.3653 15.3777 13.3243 15.3653 13.282 15.3569C13.2398 15.3485 13.1972 15.3443 13.1541 15.3443ZM13.1541 19.9344L7.9082 19.9344C7.86518 19.9345 7.82258 19.9387 7.7804 19.9472C7.73822 19.9556 7.69726 19.9681 7.65753 19.9846C7.61781 20.0011 7.58007 20.0213 7.54432 20.0453C7.50858 20.0692 7.4755 20.0964 7.44511 20.1268C7.41471 20.1572 7.38757 20.1904 7.36369 20.2261C7.33981 20.2619 7.31964 20.2997 7.30319 20.3394C7.28674 20.3792 7.27433 20.4202 7.26594 20.4623C7.25756 20.5045 7.25337 20.5471 7.25337 20.5902C7.25337 20.6332 7.25756 20.6758 7.26594 20.718C7.27433 20.7602 7.28674 20.8011 7.30319 20.8409C7.31964 20.8806 7.33981 20.9184 7.36369 20.9542C7.38757 20.99 7.41471 21.0231 7.44511 21.0535C7.4755 21.084 7.50858 21.1111 7.54432 21.1351C7.58007 21.159 7.61781 21.1792 7.65753 21.1957C7.69726 21.2122 7.73822 21.2247 7.7804 21.2331C7.82258 21.2416 7.86518 21.2458 7.9082 21.2459L13.1541 21.2459C13.1971 21.2458 13.2397 21.2416 13.2819 21.2331C13.3241 21.2247 13.365 21.2122 13.4048 21.1957C13.4445 21.1792 13.4822 21.159 13.518 21.1351C13.5537 21.1111 13.5868 21.084 13.6172 21.0535C13.6476 21.0231 13.6747 20.99 13.6986 20.9542C13.7225 20.9184 13.7427 20.8806 13.7591 20.8409C13.7756 20.8011 13.788 20.7602 13.7964 20.718C13.8047 20.6758 13.8089 20.6332 13.8089 20.5902C13.8089 20.5471 13.8047 20.5045 13.7964 20.4623C13.788 20.4202 13.7756 20.3792 13.7591 20.3394C13.7427 20.2997 13.7225 20.2619 13.6986 20.2261C13.6747 20.1904 13.6476 20.1572 13.6172 20.1268C13.5868 20.0964 13.5537 20.0692 13.518 20.0453C13.4822 20.0213 13.4445 20.0011 13.4048 19.9846C13.365 19.9681 13.3241 19.9556 13.2819 19.9472C13.2397 19.9387 13.1971 19.9345 13.1541 19.9344Z" fill="rgb(56,56,56)" fill-rule="nonzero" />
</svg>
