<svg viewBox="0 0 32 32" xmlns="http://www.w3.org/2000/svg" xmlns:xlink="http://www.w3.org/1999/xlink" width="32" height="32" fill="none">
	<rect id="2d_dimClassify" width="32" height="32" x="0" y="0" />
	<path id="矢量 53" d="M10.7655 15.1026L5.185 15.1026C5.08072 15.1024 4.9767 15.0972 4.87293 15.0869C4.76917 15.0765 4.66615 15.0612 4.5639 15.0407C4.46164 15.0203 4.36063 14.9949 4.26086 14.9646C4.1611 14.9342 4.06306 14.8991 3.96674 14.8591C3.87042 14.8192 3.77629 14.7746 3.68435 14.7254C3.5924 14.6762 3.50309 14.6226 3.4164 14.5647C3.32971 14.5067 3.24607 14.4446 3.16547 14.3785C3.08487 14.3123 3.0077 14.2424 2.93397 14.1686C2.86023 14.0949 2.79028 14.0178 2.72412 13.9372C2.65795 13.8566 2.59589 13.7729 2.53793 13.6862C2.47997 13.5996 2.42639 13.5103 2.37719 13.4183C2.328 13.3264 2.28341 13.2323 2.24345 13.1359C2.20349 13.0396 2.16834 12.9416 2.13799 12.8418C2.10765 12.7421 2.08226 12.6411 2.06182 12.5388C2.04139 12.4366 2.02601 12.3336 2.01568 12.2298C2.00535 12.1261 2.00012 12.022 2 11.9178L2 6.33763C2.00012 6.23336 2.00535 6.12934 2.01568 6.02558C2.02601 5.92182 2.04139 5.81882 2.06182 5.71657C2.08226 5.61432 2.10765 5.51331 2.13799 5.41356C2.16834 5.3138 2.20349 5.21576 2.24345 5.11945C2.28341 5.02314 2.32799 4.92902 2.37719 4.83708C2.42639 4.74514 2.47997 4.65583 2.53793 4.56915C2.59589 4.48247 2.65795 4.39883 2.72412 4.31824C2.79028 4.23765 2.86023 4.16048 2.93397 4.08675C3.0077 4.01302 3.08487 3.94308 3.16547 3.87692C3.24607 3.81075 3.32971 3.7487 3.4164 3.69074C3.50309 3.63278 3.5924 3.57921 3.68435 3.53002C3.77629 3.48082 3.87042 3.43624 3.96674 3.39628C4.06306 3.35632 4.1611 3.32117 4.26086 3.29083C4.36063 3.26049 4.46164 3.2351 4.5639 3.21467C4.66615 3.19423 4.76917 3.17885 4.87293 3.16853C4.9767 3.1582 5.08072 3.15297 5.185 3.15285L10.7655 3.15285C10.8698 3.15297 10.9738 3.1582 11.0776 3.16853C11.1814 3.17885 11.2844 3.19423 11.3866 3.21467C11.4889 3.2351 11.5899 3.26049 11.6897 3.29083C11.7894 3.32117 11.8875 3.35632 11.9838 3.39628C12.0801 3.43624 12.1742 3.48082 12.2662 3.53001C12.3581 3.57921 12.4474 3.63278 12.5341 3.69074C12.6208 3.7487 12.7045 3.81075 12.7851 3.87691C12.8657 3.94308 12.9428 4.01302 13.0166 4.08675C13.0903 4.16048 13.1602 4.23765 13.2264 4.31824C13.2926 4.39883 13.3546 4.48247 13.4126 4.56915C13.4706 4.65583 13.5241 4.74514 13.5733 4.83708C13.6225 4.92902 13.6671 5.02314 13.7071 5.11945C13.747 5.21576 13.7822 5.3138 13.8125 5.41356C13.8429 5.51332 13.8683 5.61432 13.8887 5.71657C13.9091 5.81882 13.9245 5.92182 13.9348 6.02558C13.9452 6.12934 13.9504 6.23336 13.9505 6.33763L13.9505 11.9178C13.9504 12.022 13.9452 12.1261 13.9348 12.2298C13.9245 12.3336 13.9091 12.4366 13.8887 12.5388C13.8683 12.6411 13.8429 12.7421 13.8125 12.8418C13.7822 12.9416 13.747 13.0396 13.7071 13.1359C13.6671 13.2323 13.6225 13.3264 13.5733 13.4183C13.5241 13.5103 13.4706 13.5996 13.4126 13.6862C13.3546 13.7729 13.2926 13.8566 13.2264 13.9372C13.1602 14.0178 13.0903 14.0949 13.0166 14.1686C12.9428 14.2424 12.8657 14.3123 12.7851 14.3785C12.7045 14.4446 12.6208 14.5067 12.5341 14.5647C12.4474 14.6226 12.3581 14.6762 12.2662 14.7254C12.1742 14.7746 12.0801 14.8192 11.9838 14.8591C11.8875 14.8991 11.7894 14.9342 11.6897 14.9646C11.5899 14.9949 11.4889 15.0203 11.3866 15.0407C11.2844 15.0612 11.1814 15.0765 11.0776 15.0869C10.9738 15.0972 10.8698 15.1024 10.7655 15.1026ZM5.185 4.42662C5.12243 4.4267 5.06001 4.42984 4.99775 4.43604C4.93548 4.44224 4.87368 4.45148 4.81232 4.46374C4.75096 4.476 4.69035 4.49124 4.63049 4.50945C4.57063 4.52766 4.5118 4.54875 4.45401 4.57273C4.39622 4.59671 4.33974 4.62346 4.28457 4.65298C4.2294 4.6825 4.17581 4.71465 4.12379 4.74942C4.07178 4.7842 4.02159 4.82144 3.97323 4.86114C3.92487 4.90083 3.87857 4.9428 3.83432 4.98705C3.79008 5.03129 3.74811 5.07759 3.7084 5.12594C3.6687 5.1743 3.63146 5.22449 3.59668 5.2765C3.5619 5.32851 3.52975 5.3821 3.50023 5.43726C3.47071 5.49242 3.44396 5.5489 3.41998 5.60669C3.396 5.66448 3.3749 5.7233 3.35669 5.78316C3.33848 5.84302 3.32325 5.90362 3.31098 5.96497C3.29872 6.02633 3.28948 6.08813 3.28328 6.15039C3.27708 6.21265 3.27394 6.27506 3.27386 6.33763L3.27386 11.9178C3.27394 11.9803 3.27708 12.0427 3.28328 12.105C3.28948 12.1673 3.29872 12.2291 3.31098 12.2904C3.32325 12.3518 3.33848 12.4124 3.35669 12.4722C3.3749 12.5321 3.396 12.5909 3.41998 12.6487C3.44396 12.7065 3.47071 12.763 3.50023 12.8181C3.52975 12.8733 3.5619 12.9269 3.59668 12.9789C3.63146 13.0309 3.6687 13.0811 3.7084 13.1295C3.74811 13.1778 3.79008 13.2241 3.83432 13.2684C3.87857 13.3126 3.92487 13.3546 3.97323 13.3943C4.02159 13.434 4.07178 13.4712 4.12379 13.506C4.17581 13.5408 4.2294 13.5729 4.28457 13.6024C4.33974 13.6319 4.39622 13.6587 4.45401 13.6827C4.5118 13.7066 4.57063 13.7277 4.63049 13.7459C4.69035 13.7642 4.75096 13.7794 4.81232 13.7917C4.87368 13.8039 4.93549 13.8132 4.99775 13.8194C5.06001 13.8256 5.12243 13.8287 5.185 13.8288L10.7655 13.8288C10.8281 13.8287 10.8905 13.8256 10.9528 13.8194C11.015 13.8132 11.0768 13.8039 11.1382 13.7917C11.1996 13.7794 11.2602 13.7642 11.32 13.7459C11.3799 13.7277 11.4387 13.7066 11.4965 13.6827C11.5543 13.6587 11.6108 13.6319 11.666 13.6024C11.7211 13.5729 11.7747 13.5408 11.8267 13.506C11.8787 13.4712 11.9289 13.434 11.9773 13.3943C12.0257 13.3546 12.072 13.3126 12.1162 13.2684C12.1604 13.2241 12.2024 13.1778 12.2421 13.1295C12.2818 13.0811 12.3191 13.0309 12.3538 12.9789C12.3886 12.9269 12.4208 12.8733 12.4503 12.8181C12.4798 12.763 12.5066 12.7065 12.5305 12.6487C12.5545 12.5909 12.5756 12.5321 12.5938 12.4722C12.612 12.4124 12.6273 12.3518 12.6395 12.2904C12.6518 12.2291 12.661 12.1673 12.6672 12.105C12.6734 12.0427 12.6766 11.9803 12.6767 11.9178L12.6767 6.33763C12.6766 6.27506 12.6734 6.21265 12.6672 6.15039C12.661 6.08813 12.6518 6.02633 12.6395 5.96497C12.6273 5.90362 12.612 5.84302 12.5938 5.78316C12.5756 5.7233 12.5545 5.66448 12.5305 5.60669C12.5066 5.5489 12.4798 5.49242 12.4503 5.43726C12.4208 5.3821 12.3886 5.32851 12.3538 5.2765C12.3191 5.22449 12.2818 5.1743 12.2421 5.12594C12.2024 5.07759 12.1604 5.03129 12.1162 4.98705C12.072 4.9428 12.0257 4.90083 11.9773 4.86114C11.9289 4.82144 11.8787 4.7842 11.8267 4.74942C11.7747 4.71465 11.7211 4.6825 11.666 4.65298C11.6108 4.62346 11.5543 4.59671 11.4965 4.57273C11.4387 4.54875 11.3799 4.52766 11.32 4.50945C11.2602 4.49124 11.1996 4.476 11.1382 4.46374C11.0768 4.45148 11.015 4.44224 10.9528 4.43604C10.8905 4.42984 10.8281 4.4267 10.7655 4.42662L5.185 4.42662ZM10.7679 30L5.1874 30C5.08315 29.9999 4.97916 29.9946 4.87542 29.9843C4.77168 29.974 4.6687 29.9586 4.56647 29.9382C4.46424 29.9178 4.36325 29.8924 4.26351 29.8621C4.16377 29.8318 4.06575 29.7966 3.96946 29.7567C3.87316 29.7168 3.77905 29.6722 3.68713 29.623C3.5952 29.5739 3.5059 29.5203 3.41923 29.4624C3.33256 29.4045 3.24893 29.3424 3.16834 29.2763C3.08775 29.2102 3.01059 29.1403 2.93686 29.0666C2.86313 28.9929 2.79318 28.9158 2.72701 28.8352C2.66084 28.7547 2.59878 28.6711 2.54081 28.5844C2.48284 28.4978 2.42925 28.4085 2.38004 28.3166C2.33083 28.2247 2.28623 28.1306 2.24625 28.0344C2.20627 27.9381 2.17109 27.8401 2.14072 27.7404C2.11035 27.6406 2.08493 27.5397 2.06446 27.4375C2.04399 27.3352 2.02858 27.2323 2.01821 27.1285C2.00784 27.0248 2.00257 26.9208 2.0024 26.8166L2.0024 21.2347C2.00252 21.1305 2.00773 21.0264 2.01805 20.9227C2.02837 20.8189 2.04374 20.7159 2.06417 20.6136C2.0846 20.5114 2.10998 20.4104 2.14032 20.3106C2.17065 20.2108 2.2058 20.1128 2.24576 20.0165C2.28572 19.9201 2.33029 19.826 2.37949 19.7341C2.42868 19.6421 2.48226 19.5528 2.54021 19.4661C2.59817 19.3794 2.66023 19.2958 2.7264 19.2152C2.79256 19.1345 2.86252 19.0574 2.93625 18.9836C3.00999 18.9099 3.08716 18.8399 3.16776 18.7738C3.24836 18.7076 3.33201 18.6455 3.4187 18.5876C3.50539 18.5296 3.59471 18.476 3.68666 18.4268C3.7786 18.3776 3.87274 18.333 3.96906 18.2931C4.06539 18.2531 4.16343 18.218 4.26321 18.1876C4.36298 18.1573 4.464 18.1319 4.56626 18.1114C4.66852 18.091 4.77154 18.0756 4.87531 18.0653C4.97909 18.055 5.08312 18.0497 5.1874 18.0496L10.7679 18.0496C10.8722 18.0497 10.9763 18.055 11.08 18.0653C11.1838 18.0756 11.2868 18.091 11.3891 18.1114C11.4914 18.1319 11.5924 18.1573 11.6922 18.1876C11.7919 18.218 11.89 18.2531 11.9863 18.2931C12.0827 18.333 12.1768 18.3776 12.2687 18.4268C12.3607 18.476 12.45 18.5296 12.5367 18.5876C12.6234 18.6455 12.7071 18.7076 12.7877 18.7738C12.8683 18.8399 12.9455 18.9099 13.0192 18.9836C13.0929 19.0574 13.1629 19.1345 13.2291 19.2151C13.2953 19.2957 13.3573 19.3794 13.4153 19.4661C13.4733 19.5528 13.5268 19.6421 13.576 19.734C13.6252 19.826 13.6698 19.9201 13.7098 20.0164C13.7498 20.1127 13.7849 20.2108 13.8153 20.3106C13.8456 20.4103 13.871 20.5113 13.8914 20.6136C13.9119 20.7159 13.9273 20.8189 13.9376 20.9227C13.9479 21.0264 13.9531 21.1305 13.9533 21.2347L13.9533 26.8166C13.9531 26.9208 13.9478 27.0248 13.9375 27.1286C13.9271 27.2323 13.9117 27.3353 13.8912 27.4375C13.8707 27.5397 13.8453 27.6407 13.8149 27.7404C13.7846 27.8401 13.7494 27.9381 13.7094 28.0344C13.6694 28.1307 13.6248 28.2248 13.5756 28.3167C13.5264 28.4086 13.4728 28.4979 13.4148 28.5845C13.3568 28.6712 13.2947 28.7548 13.2286 28.8353C13.1624 28.9159 13.0924 28.993 13.0187 29.0667C12.945 29.1404 12.8678 29.2103 12.7872 29.2764C12.7066 29.3426 12.6229 29.4046 12.5363 29.4625C12.4496 29.5204 12.3603 29.574 12.2683 29.6231C12.1764 29.6723 12.0823 29.7169 11.986 29.7568C11.8897 29.7967 11.7916 29.8319 11.6919 29.8622C11.5921 29.8925 11.4911 29.9179 11.3889 29.9383C11.2867 29.9587 11.1837 29.974 11.0799 29.9844C10.9762 29.9947 10.8722 29.9999 10.7679 30ZM5.1874 19.3237C5.12483 19.3238 5.06242 19.3269 5.00015 19.3331C4.93789 19.3393 4.87608 19.3486 4.81472 19.3608C4.75337 19.3731 4.69276 19.3883 4.6329 19.4066C4.57303 19.4248 4.51421 19.4459 4.45642 19.4698C4.39862 19.4938 4.34214 19.5206 4.28697 19.5501C4.2318 19.5796 4.17821 19.6118 4.1262 19.6465C4.07418 19.6813 4.024 19.7185 3.97564 19.7582C3.92727 19.7979 3.88097 19.8399 3.83673 19.8842C3.79248 19.9284 3.75051 19.9747 3.71081 20.023C3.67111 20.0714 3.63387 20.1216 3.59909 20.1736C3.56431 20.2256 3.53216 20.2792 3.50264 20.3344C3.47312 20.3895 3.44637 20.446 3.42238 20.5038C3.3984 20.5616 3.37731 20.6204 3.3591 20.6803C3.34089 20.7401 3.32565 20.8007 3.31339 20.8621C3.30112 20.9234 3.29189 20.9852 3.28569 21.0475C3.27948 21.1098 3.27634 21.1722 3.27627 21.2347L3.27627 26.8166C3.27639 26.8791 3.27957 26.9415 3.28581 27.0037C3.29205 27.066 3.30132 27.1277 3.31362 27.1891C3.32592 27.2504 3.34118 27.3109 3.35942 27.3708C3.37766 27.4306 3.39878 27.4894 3.42278 27.5471C3.44678 27.6049 3.47355 27.6613 3.50308 27.7164C3.53262 27.7715 3.56478 27.8251 3.59957 27.8771C3.63435 27.929 3.6716 27.9792 3.7113 28.0275C3.751 28.0758 3.79297 28.1221 3.83721 28.1663C3.88145 28.2105 3.92775 28.2524 3.9761 28.2921C4.02445 28.3318 4.07463 28.369 4.12663 28.4037C4.17863 28.4385 4.2322 28.4706 4.28735 28.5001C4.3425 28.5296 4.39896 28.5563 4.45673 28.5802C4.5145 28.6042 4.57331 28.6253 4.63314 28.6435C4.69298 28.6617 4.75356 28.6769 4.81489 28.6891C4.87622 28.7014 4.938 28.7106 5.00024 28.7168C5.06247 28.723 5.12486 28.7261 5.1874 28.7262L10.7679 28.7262C10.8305 28.7262 10.8929 28.723 10.9551 28.7168C11.0173 28.7107 11.0791 28.7014 11.1405 28.6892C11.2018 28.677 11.2624 28.6617 11.3222 28.6436C11.3821 28.6254 11.4409 28.6043 11.4987 28.5803C11.5564 28.5564 11.6129 28.5297 11.6681 28.5002C11.7232 28.4707 11.7768 28.4386 11.8288 28.4038C11.8808 28.3691 11.931 28.3319 11.9793 28.2922C12.0277 28.2525 12.074 28.2106 12.1182 28.1664C12.1625 28.1222 12.2044 28.0759 12.2441 28.0276C12.2838 27.9793 12.3211 27.9291 12.3559 27.8771C12.3907 27.8252 12.4228 27.7716 12.4524 27.7165C12.4819 27.6614 12.5087 27.6049 12.5326 27.5472C12.5566 27.4894 12.5778 27.4306 12.596 27.3708C12.6142 27.311 12.6295 27.2504 12.6418 27.1891C12.6541 27.1278 12.6633 27.066 12.6696 27.0037C12.6758 26.9415 12.679 26.8791 12.6791 26.8166L12.6791 21.2347C12.679 21.1722 12.6759 21.1097 12.6697 21.0475C12.6635 20.9852 12.6543 20.9234 12.642 20.8621C12.6297 20.8007 12.6145 20.7401 12.5963 20.6802C12.5781 20.6204 12.557 20.5615 12.533 20.5037C12.5091 20.446 12.4823 20.3895 12.4528 20.3343C12.4233 20.2791 12.3911 20.2255 12.3564 20.1735C12.3216 20.1215 12.2843 20.0713 12.2446 20.023C12.2049 19.9746 12.163 19.9283 12.1187 19.8841C12.0745 19.8398 12.0282 19.7978 11.9798 19.7581C11.9314 19.7184 11.8812 19.6812 11.8292 19.6464C11.7772 19.6117 11.7236 19.5795 11.6684 19.55C11.6133 19.5205 11.5568 19.4937 11.499 19.4697C11.4412 19.4458 11.3823 19.4247 11.3225 19.4065C11.2626 19.3883 11.202 19.373 11.1406 19.3608C11.0793 19.3485 11.0175 19.3393 10.9552 19.3331C10.8929 19.3269 10.8305 19.3238 10.7679 19.3237L5.1874 19.3237ZM25.6788 30L20.0972 30C19.993 29.9998 19.889 29.9946 19.7853 29.9842C19.6816 29.9739 19.5786 29.9585 19.4764 29.938C19.3742 29.9176 19.2733 29.8922 19.1736 29.8619C19.0738 29.8315 18.9759 29.7964 18.8796 29.7564C18.7833 29.7165 18.6892 29.6719 18.5974 29.6227C18.5055 29.5735 18.4162 29.52 18.3295 29.462C18.2429 29.4041 18.1593 29.3421 18.0787 29.2759C17.9982 29.2098 17.921 29.1399 17.8473 29.0662C17.7736 28.9925 17.7037 28.9154 17.6376 28.8349C17.5714 28.7543 17.5094 28.6707 17.4514 28.5841C17.3935 28.4975 17.3399 28.4082 17.2907 28.3163C17.2415 28.2244 17.197 28.1304 17.157 28.0341C17.117 27.9379 17.0819 27.8399 17.0515 27.7402C17.0212 27.6405 16.9957 27.5395 16.9753 27.4373C16.9548 27.3351 16.9394 27.2322 16.929 27.1285C16.9187 27.0248 16.9134 26.9208 16.9132 26.8166L16.9132 21.2347C16.9134 21.1305 16.9186 21.0265 16.9289 20.9227C16.9392 20.819 16.9546 20.716 16.975 20.6138C16.9955 20.5115 17.0208 20.4105 17.0512 20.3108C17.0815 20.2111 17.1166 20.113 17.1566 20.0167C17.1965 19.9204 17.2411 19.8263 17.2903 19.7344C17.3395 19.6425 17.393 19.5532 17.4509 19.4665C17.5089 19.3798 17.5709 19.2962 17.6371 19.2156C17.7032 19.135 17.7731 19.0578 17.8468 18.9841C17.9205 18.9104 17.9977 18.8404 18.0782 18.7742C18.1588 18.7081 18.2424 18.646 18.3291 18.588C18.4157 18.5301 18.505 18.4765 18.5969 18.4273C18.6889 18.378 18.783 18.3334 18.8792 18.2935C18.9755 18.2535 19.0735 18.2183 19.1733 18.1879C19.273 18.1576 19.374 18.1321 19.4762 18.1117C19.5785 18.0912 19.6815 18.0758 19.7852 18.0654C19.889 18.055 19.993 18.0498 20.0972 18.0496L25.6788 18.0496C25.7831 18.0497 25.8871 18.055 25.9909 18.0653C26.0947 18.0756 26.1977 18.091 26.2999 18.1114C26.4022 18.1319 26.5032 18.1573 26.603 18.1876C26.7028 18.218 26.8008 18.2531 26.8972 18.2931C26.9935 18.333 27.0876 18.3776 27.1796 18.4268C27.2715 18.476 27.3609 18.5296 27.4476 18.5876C27.5343 18.6455 27.6179 18.7076 27.6985 18.7738C27.7791 18.8399 27.8563 18.9099 27.9301 18.9836C28.0038 19.0574 28.0738 19.1345 28.1399 19.2151C28.2061 19.2957 28.2682 19.3794 28.3261 19.4661C28.3841 19.5528 28.4377 19.6421 28.4869 19.734C28.5361 19.826 28.5807 19.9201 28.6206 20.0164C28.6606 20.1127 28.6958 20.2108 28.7261 20.3106C28.7565 20.4103 28.7819 20.5114 28.8023 20.6136C28.8227 20.7159 28.8381 20.8189 28.8484 20.9227C28.8588 21.0264 28.864 21.1305 28.8641 21.2347L28.8641 26.8166C28.8639 26.9208 28.8587 27.0248 28.8483 27.1286C28.8379 27.2323 28.8225 27.3353 28.8021 27.4375C28.7816 27.5397 28.7562 27.6407 28.7258 27.7404C28.6954 27.8402 28.6602 27.9382 28.6202 28.0344C28.5802 28.1307 28.5356 28.2248 28.4864 28.3167C28.4372 28.4086 28.3836 28.4979 28.3256 28.5845C28.2677 28.6712 28.2056 28.7548 28.1394 28.8353C28.0732 28.9159 28.0033 28.993 27.9295 29.0667C27.8558 29.1404 27.7786 29.2103 27.698 29.2764C27.6174 29.3426 27.5338 29.4046 27.4471 29.4625C27.3604 29.5204 27.2711 29.574 27.1792 29.6231C27.0872 29.6723 26.9931 29.7169 26.8968 29.7568C26.8005 29.7967 26.7025 29.8319 26.6027 29.8622C26.503 29.8925 26.402 29.9179 26.2998 29.9383C26.1975 29.9587 26.0945 29.974 25.9908 29.9844C25.887 29.9947 25.783 29.9999 25.6788 30ZM20.0972 19.3237C20.0346 19.3238 19.9722 19.3269 19.91 19.3331C19.8477 19.3393 19.7859 19.3485 19.7245 19.3608C19.6632 19.373 19.6025 19.3883 19.5427 19.4065C19.4828 19.4247 19.424 19.4458 19.3662 19.4697C19.3084 19.4937 19.2519 19.5205 19.1967 19.55C19.1415 19.5795 19.088 19.6117 19.0359 19.6464C18.9839 19.6812 18.9337 19.7184 18.8854 19.7581C18.837 19.7978 18.7907 19.8398 18.7464 19.8841C18.7022 19.9283 18.6602 19.9746 18.6205 20.023C18.5808 20.0713 18.5436 20.1215 18.5088 20.1735C18.474 20.2255 18.4419 20.2791 18.4123 20.3343C18.3828 20.3895 18.3561 20.446 18.3321 20.5037C18.3081 20.5615 18.287 20.6204 18.2688 20.6802C18.2506 20.7401 18.2354 20.8007 18.2231 20.8621C18.2109 20.9234 18.2017 20.9852 18.1955 21.0475C18.1893 21.1097 18.1861 21.1722 18.1861 21.2347L18.1861 26.8166C18.1862 26.8791 18.1894 26.9415 18.1956 27.0037C18.2018 27.066 18.2111 27.1278 18.2234 27.1891C18.2357 27.2504 18.2509 27.311 18.2692 27.3708C18.2874 27.4306 18.3085 27.4894 18.3325 27.5472C18.3565 27.6049 18.3833 27.6614 18.4128 27.7165C18.4423 27.7716 18.4745 27.8252 18.5093 27.8771C18.5441 27.9291 18.5813 27.9793 18.621 28.0276C18.6607 28.0759 18.7027 28.1222 18.7469 28.1664C18.7912 28.2106 18.8375 28.2525 18.8858 28.2922C18.9342 28.3319 18.9844 28.3691 19.0364 28.4038C19.0884 28.4386 19.1419 28.4707 19.1971 28.5002C19.2523 28.5297 19.3087 28.5564 19.3665 28.5803C19.4243 28.6043 19.4831 28.6254 19.5429 28.6436C19.6028 28.6617 19.6633 28.677 19.7247 28.6892C19.786 28.7014 19.8478 28.7107 19.91 28.7168C19.9723 28.723 20.0347 28.7262 20.0972 28.7262L25.6788 28.7262C25.7413 28.7262 25.8037 28.723 25.866 28.7168C25.9282 28.7107 25.99 28.7014 26.0513 28.6892C26.1126 28.677 26.1732 28.6617 26.2331 28.6436C26.2929 28.6254 26.3517 28.6043 26.4095 28.5803C26.4673 28.5564 26.5237 28.5297 26.5789 28.5002C26.6341 28.4707 26.6876 28.4386 26.7396 28.4038C26.7916 28.3691 26.8418 28.3319 26.8902 28.2922C26.9385 28.2525 26.9848 28.2106 27.0291 28.1664C27.0733 28.1222 27.1153 28.0759 27.155 28.0276C27.1947 27.9793 27.2319 27.9291 27.2667 27.8771C27.3015 27.8252 27.3337 27.7716 27.3632 27.7165C27.3927 27.6614 27.4195 27.6049 27.4435 27.5472C27.4675 27.4894 27.4886 27.4306 27.5068 27.3708C27.5251 27.311 27.5403 27.2504 27.5526 27.1891C27.5649 27.1278 27.5742 27.066 27.5804 27.0037C27.5866 26.9415 27.5898 26.8791 27.5899 26.8166L27.5899 21.2347C27.5898 21.1722 27.5867 21.1097 27.5805 21.0475C27.5743 20.9852 27.5651 20.9234 27.5529 20.8621C27.5406 20.8007 27.5254 20.7401 27.5072 20.6802C27.489 20.6204 27.4679 20.5615 27.4439 20.5037C27.4199 20.446 27.3932 20.3895 27.3636 20.3343C27.3341 20.2791 27.302 20.2255 27.2672 20.1735C27.2324 20.1215 27.1952 20.0713 27.1555 20.023C27.1158 19.9746 27.0738 19.9283 27.0296 19.8841C26.9853 19.8398 26.939 19.7978 26.8906 19.7581C26.8423 19.7184 26.7921 19.6812 26.7401 19.6464C26.688 19.6117 26.6344 19.5795 26.5793 19.55C26.5241 19.5205 26.4676 19.4937 26.4098 19.4697C26.352 19.4458 26.2932 19.4247 26.2333 19.4065C26.1735 19.3883 26.1128 19.373 26.0515 19.3608C25.9901 19.3485 25.9283 19.3393 25.866 19.3331C25.8038 19.3269 25.7414 19.3238 25.6788 19.3237L20.0972 19.3237ZM22.8861 16.2554C22.677 16.2562 22.4699 16.2364 22.2647 16.1961C22.0595 16.1558 21.8603 16.0957 21.667 16.0159C21.4737 15.9361 21.2902 15.8381 21.1164 15.7219C20.9425 15.6057 20.7818 15.4736 20.6342 15.3255L16.6879 11.3798C16.6142 11.306 16.5444 11.2287 16.4783 11.148C16.4123 11.0674 16.3503 10.9836 16.2925 10.8969C16.2346 10.8101 16.1812 10.7208 16.1321 10.6287C16.083 10.5367 16.0385 10.4426 15.9987 10.3462C15.9589 10.2498 15.9238 10.1518 15.8936 10.052C15.8634 9.95216 15.8381 9.85112 15.8178 9.74885C15.7975 9.64657 15.7822 9.54354 15.772 9.43977C15.7618 9.336 15.7567 9.23197 15.7567 9.1277C15.7567 9.02343 15.7618 8.9194 15.772 8.81563C15.7822 8.71186 15.7975 8.60883 15.8178 8.50655C15.8381 8.40428 15.8634 8.30324 15.8936 8.20344C15.9238 8.10364 15.9589 8.00556 15.9987 7.9092C16.0385 7.81284 16.083 7.71865 16.1321 7.62665C16.1812 7.53465 16.2346 7.44527 16.2925 7.35851C16.3503 7.27175 16.4123 7.18803 16.4783 7.10735C16.5444 7.02667 16.6142 6.94941 16.6879 6.87558L20.6342 2.9299C20.708 2.85636 20.7853 2.78659 20.866 2.72062C20.9467 2.65464 21.0305 2.59277 21.1172 2.535C21.204 2.47723 21.2934 2.42384 21.3854 2.37482C21.4774 2.32581 21.5716 2.28141 21.6679 2.24162C21.7643 2.20184 21.8623 2.16685 21.9621 2.13668C22.0619 2.1065 22.1629 2.08127 22.2651 2.06099C22.3674 2.04071 22.4704 2.02547 22.5741 2.01528C22.6779 2.00509 22.7819 2 22.8861 2C22.9903 2 23.0943 2.00509 23.1981 2.01528C23.3018 2.02547 23.4048 2.04071 23.5071 2.06099C23.6093 2.08127 23.7103 2.1065 23.8101 2.13668C23.9099 2.16685 24.008 2.20184 24.1043 2.24162C24.2007 2.28141 24.2948 2.32581 24.3868 2.37482C24.4788 2.42384 24.5682 2.47723 24.655 2.535C24.7417 2.59277 24.8255 2.65464 24.9062 2.72062C24.9869 2.78659 25.0642 2.85636 25.138 2.9299L29.0843 6.87558C29.158 6.94941 29.2278 7.02667 29.2939 7.10735C29.3599 7.18803 29.4219 7.27175 29.4797 7.35851C29.5376 7.44527 29.5911 7.53465 29.6401 7.62665C29.6892 7.71865 29.7337 7.81284 29.7735 7.9092C29.8134 8.00556 29.8484 8.10364 29.8786 8.20344C29.9088 8.30324 29.9341 8.40428 29.9544 8.50655C29.9747 8.60883 29.99 8.71186 30.0002 8.81563C30.0104 8.9194 30.0155 9.02343 30.0155 9.1277C30.0155 9.23197 30.0104 9.336 30.0002 9.43977C29.99 9.54354 29.9747 9.64657 29.9544 9.74885C29.9341 9.85112 29.9088 9.95216 29.8786 10.052C29.8484 10.1518 29.8134 10.2498 29.7735 10.3462C29.7337 10.4426 29.6892 10.5367 29.6401 10.6287C29.5911 10.7207 29.5376 10.8101 29.4797 10.8969C29.4219 10.9836 29.3599 11.0674 29.2939 11.148C29.2278 11.2287 29.158 11.306 29.0843 11.3798L25.138 15.3255C24.9905 15.4736 24.8298 15.6058 24.6559 15.7221C24.4821 15.8383 24.2986 15.9363 24.1053 16.0161C23.912 16.096 23.7128 16.156 23.5076 16.1963C23.3024 16.2365 23.0952 16.2563 22.8861 16.2554ZM22.8861 3.27411C22.6328 3.27303 22.3891 3.32072 22.1548 3.41719C21.9206 3.51365 21.714 3.65146 21.5349 3.83062L17.5893 7.77629C17.5451 7.82059 17.5032 7.86694 17.4636 7.91535C17.4239 7.96376 17.3867 8.014 17.352 8.06606C17.3173 8.11811 17.2852 8.17175 17.2557 8.22695C17.2263 8.28216 17.1996 8.33867 17.1757 8.3965C17.1518 8.45432 17.1307 8.51318 17.1126 8.57306C17.0945 8.63295 17.0793 8.69358 17.0671 8.75496C17.0549 8.81633 17.0458 8.87816 17.0396 8.94043C17.0335 9.0027 17.0305 9.06513 17.0305 9.1277C17.0305 9.19027 17.0335 9.2527 17.0396 9.31497C17.0458 9.37724 17.0549 9.43907 17.0671 9.50044C17.0793 9.56182 17.0945 9.62245 17.1126 9.68233C17.1307 9.74222 17.1518 9.80108 17.1757 9.8589C17.1996 9.91673 17.2263 9.97324 17.2557 10.0284C17.2852 10.0837 17.3173 10.1373 17.352 10.1893C17.3867 10.2414 17.4239 10.2916 17.4636 10.34C17.5032 10.3885 17.5451 10.4348 17.5893 10.4791L21.5349 14.4248C22.2533 15.1434 23.5199 15.1421 24.2373 14.4248L28.1836 10.4791C28.2278 10.4348 28.2697 10.3885 28.3093 10.34C28.349 10.2916 28.3862 10.2414 28.4209 10.1893C28.4556 10.1373 28.4877 10.0837 28.5172 10.0284C28.5466 9.97324 28.5733 9.91673 28.5972 9.8589C28.6211 9.80108 28.6422 9.74222 28.6603 9.68233C28.6784 9.62245 28.6936 9.56182 28.7058 9.50044C28.718 9.43907 28.7271 9.37724 28.7333 9.31497C28.7394 9.2527 28.7424 9.19027 28.7424 9.1277C28.7424 9.06513 28.7394 9.0027 28.7333 8.94043C28.7271 8.87816 28.718 8.81633 28.7058 8.75496C28.6936 8.69358 28.6784 8.63295 28.6603 8.57306C28.6422 8.51318 28.6211 8.45432 28.5972 8.3965C28.5733 8.33867 28.5466 8.28216 28.5172 8.22695C28.4877 8.17175 28.4556 8.11811 28.4209 8.06606C28.3862 8.014 28.349 7.96376 28.3093 7.91535C28.2697 7.86694 28.2278 7.82059 28.1836 7.77629L24.2373 3.83062C24.0582 3.65141 23.8516 3.51358 23.6174 3.41711C23.3832 3.32064 23.1394 3.27297 22.8861 3.27411L22.8861 3.27411Z" fill="rgb(56,56,56)" fill-rule="nonzero" />
</svg>
