<svg viewBox="0 0 24 24" xmlns="http://www.w3.org/2000/svg" xmlns:xlink="http://www.w3.org/1999/xlink" width="24.000000" height="24.000000" fill="none">
	<rect id="2d_deletePdfPreview" width="24.000000" height="24.000000" x="0.000000" y="0.000000" />
	<path id="矢量 117" d="M21.3059 3.97213L16.2069 3.97213L16.2069 3.23744C16.2069 2.30963 15.4521 1.55481 14.5243 1.55481L9.56613 1.55481C8.63832 1.55481 7.8835 2.30963 7.8835 3.23744L7.8835 3.97213L2.6566 3.97213C2.39847 3.97213 2.18921 4.18168 2.18921 4.43981C2.18921 4.69795 2.39847 4.9075 2.6566 4.9075L4.63155 4.9075L4.63155 19.9236C4.63155 21.3411 5.78476 22.4943 7.20224 22.4943L16.9634 22.4943C18.3808 22.4943 19.5341 21.3411 19.5341 19.9236L19.5341 4.9075L21.3058 4.9075C21.5639 4.9075 21.7732 4.69795 21.7732 4.43981C21.7732 4.18168 21.564 3.97213 21.3059 3.97213ZM8.81829 3.23746C8.81829 2.82511 9.15378 2.48962 9.56613 2.48962L14.5243 2.48962C14.9366 2.48962 15.2721 2.82511 15.2721 3.23746L15.2721 3.97215L8.81829 3.97215L8.81829 3.23746ZM18.5993 19.9236C18.5993 20.8257 17.8654 21.5595 16.9634 21.5595L7.20227 21.5595C6.30024 21.5595 5.56636 20.8257 5.56636 19.9236L5.56636 4.94633L18.5993 4.94633L18.5993 19.9236Z" fill="rgb(56,56,56)" fill-rule="nonzero" />
	<path id="矢量 118" d="M11.9687 20.1861C12.2268 20.1861 12.4363 19.9769 12.4363 19.7187L12.4363 6.91198C12.4363 6.65384 12.2268 6.44458 11.9687 6.44458C11.7105 6.44458 11.501 6.65384 11.501 6.91198L11.501 19.7187C11.501 19.9769 11.7105 20.1861 11.9687 20.1861Z" fill="rgb(56,56,56)" fill-rule="nonzero" />
	<path id="矢量 119" d="M8.77884 18.7839C9.03695 18.7839 9.24652 18.5747 9.24652 18.3165L9.24652 8.3142C9.24652 8.05606 9.03695 7.8468 8.77884 7.8468C8.52073 7.8468 8.31116 8.05606 8.31116 8.3142L8.31116 18.3165C8.31116 18.5747 8.52073 18.7839 8.77884 18.7839Z" fill="rgb(56,56,56)" fill-rule="nonzero" />
	<path id="矢量 120" d="M15.2305 18.7839C15.4886 18.7839 15.6982 18.5747 15.6982 18.3165L15.6982 8.3142C15.6982 8.05606 15.4886 7.8468 15.2305 7.8468C14.9724 7.8468 14.7628 8.05606 14.7628 8.3142L14.7628 18.3165C14.7628 18.5747 14.9724 18.7839 15.2305 18.7839Z" fill="rgb(56,56,56)" fill-rule="nonzero" />
</svg>
