<svg viewBox="0 0 32 32" xmlns="http://www.w3.org/2000/svg" xmlns:xlink="http://www.w3.org/1999/xlink" width="32" height="32" fill="none">
	<rect id="2d_delete" width="32" height="32" x="0" y="0" />
	<path id="矢量 33" d="M21.657 3.07005L29.3341 10.7472C30.673 12.0861 30.673 14.257 29.3341 15.5959L18.0733 26.8567L29.7144 26.8571L29.7144 29.7143L10.319 29.7138L2.66609 22.0609C1.32712 20.722 1.32712 18.5511 2.66609 17.2121L16.8082 3.07008C18.1472 1.73111 20.318 1.73111 21.657 3.07008L21.657 3.07005ZM7.51478 16.4041L4.68634 19.2325C4.47915 19.4397 4.46434 19.7665 4.64197 19.9908L4.68634 20.0406L11.503 26.8567L14.0321 26.8567L16.0001 24.8894L7.51481 16.4041L7.51478 16.4041ZM18.8783 5.04593L18.8285 5.09033L9.53506 14.3838L18.0204 22.869L27.3138 13.5756C27.521 13.3684 27.5358 13.0416 27.3582 12.8173L27.3138 12.7675L19.6366 5.09033C19.4294 4.88315 19.1027 4.86833 18.8784 5.04596L18.8783 5.04593Z" fill="rgb(56,56,56)" fill-rule="nonzero" />
</svg>
