<svg viewBox="0 0 32 32" xmlns="http://www.w3.org/2000/svg" xmlns:xlink="http://www.w3.org/1999/xlink" width="32" height="32" fill="none">
	<rect id="2d_DimCloud" width="32" height="32" x="0" y="0" />
	<path id="矢量 98" d="M22.32 24.88L8.07998 24.88C4.95998 24.88 2.47998 22.4 2.47998 19.28C2.47998 16.16 4.95998 13.68 8.07998 13.68L8.87998 13.68C8.71998 13.12 8.63998 12.56 8.63998 12C8.63998 8.47997 11.52 5.59998 15.04 5.59998C18.56 5.59998 21.44 8.47997 21.44 12C21.44 12.56 21.36 13.2 21.2 13.68L22.32 13.68C25.44 13.68 27.92 16.16 27.92 19.28C27.92 22.4 25.44 24.88 22.32 24.88L22.32 24.88ZM8.07998 15.2C5.83998 15.2 4.07998 17.04 4.07998 19.2C4.07998 21.44 5.91998 23.2 8.07998 23.2L22.4 23.2C24.64 23.2 26.4 21.36 26.4 19.2C26.4 16.96 24.56 15.2 22.4 15.2L18.8 15.2L19.36 14.08C19.68 13.44 19.84 12.64 19.84 11.92C19.84 9.27998 17.68 7.11998 15.04 7.11998C12.4 7.11998 10.24 9.27998 10.24 11.92C10.24 12.64 10.4 13.44 10.72 14.08L11.28 15.2L8.07998 15.2L8.07998 15.2Z" fill="rgb(56,56,56)" fill-rule="nonzero" />
</svg>
