<svg viewBox="0 0 32 32" xmlns="http://www.w3.org/2000/svg" xmlns:xlink="http://www.w3.org/1999/xlink" width="32" height="32" fill="none">
	<rect id="2d_DimPic" width="32" height="32" x="0" y="0" />
	<path id="矢量 100" d="M28 5L4 5C3.44781 5 3 5.44781 3 6L3 26C3 26.5522 3.44781 27 4 27L28 27C28.5522 27 29 26.5522 29 26L29 6C29 5.44781 28.5522 5 28 5ZM27 7L27 21.7503L19.9 16.4253C19.3697 16.0278 18.6306 16.0278 18.1003 16.4253L15.0197 18.7353L10.9125 15.4497C10.3978 15.0375 9.68531 15.0063 9.13719 15.375L5 18.1569L5 7L27 7ZM5 25L5 20.5675L9.94875 17.24L14.9806 21.265L19 18.25L27 24.25L27 25L5 25Z" fill="rgb(56,56,56)" fill-rule="nonzero" />
	<path id="矢量 101" d="M22 15C23.6544 15 25 13.6544 25 12C25 10.3456 23.6544 9 22 9C20.3456 9 19 10.3456 19 12C19 13.6544 20.3456 15 22 15ZM22 11C22.5513 11 23 11.4487 23 12C23 12.5513 22.5513 13 22 13C21.4487 13 21 12.5513 21 12C21 11.4487 21.4487 11 22 11Z" fill="rgb(56,56,56)" fill-rule="nonzero" />
</svg>
