<svg viewBox="0 0 32 32" xmlns="http://www.w3.org/2000/svg" xmlns:xlink="http://www.w3.org/1999/xlink" width="32" height="32" fill="none">
	<rect id="2d_dimSetting" width="32" height="32" x="0" y="0" />
	<path id="矢量 41" d="M23.0423 7.28406L19.6992 3.92148C18.4718 2.69284 16.4692 2.69284 15.2257 3.92148L3.59756 15.5774C3.20995 15.9815 3 16.4988 3 17.0323L3 22.3834C3 23.4503 3.5491 24 4.61501 24L10.0092 23.9677C10.5583 23.9677 11.0751 23.7413 11.4465 23.3695L23.0423 11.7298C24.2859 10.5173 24.2859 8.5127 23.0423 7.28406ZM9.79921 22.3672L4.61501 22.3995L4.61501 17.2425C4.61501 17.1455 4.64731 17.0485 4.66346 16.9515C4.69577 17.0647 4.76037 17.1617 4.84112 17.2587L9.71846 22.1409C9.81536 22.2379 9.91226 22.2864 10.0253 22.3187C9.94456 22.3349 9.87996 22.3672 9.79921 22.3672ZM11.0266 21.5751C11.0266 21.3811 10.9459 21.2032 10.8005 21.0577L5.92318 16.1755C5.79397 16.0462 5.61632 15.9815 5.43867 15.9654L13.3199 8.07621L18.9079 13.6697L11.0266 21.5751ZM21.928 10.6305L20.103 12.4734L14.5151 6.87991L16.3562 5.03695C16.9699 4.42263 17.9712 4.42263 18.5849 5.03695L21.928 8.39954C22.5417 9.01386 22.5417 10.0162 21.928 10.6305Z" fill="rgb(56,56,56)" fill-rule="nonzero" />
	<path id="矢量 42" d="M24.0933 19.4995C22.1245 19.4995 20.4995 21.1245 20.4995 23.0933C20.4995 25.062 22.1245 26.687 24.0933 26.687C26.062 26.687 27.687 25.062 27.687 23.0933C27.687 21.1245 26.062 19.4995 24.0933 19.4995ZM24.0933 25.7495C22.6245 25.7495 21.437 24.562 21.437 23.0933C21.437 21.6245 22.6245 20.437 24.0933 20.437C25.562 20.437 26.7495 21.6245 26.7495 23.0933C26.7495 24.562 25.562 25.7495 24.0933 25.7495ZM30.8433 24.2808C30.437 24.0308 30.187 23.5933 30.187 23.0933C30.187 22.5933 30.437 22.187 30.8433 21.9058C31.1245 21.7183 31.2495 21.3745 31.1558 21.0308C30.9995 20.4995 30.7808 19.9995 30.5308 19.5308C30.3745 19.2495 30.0308 19.062 29.687 19.1558C29.2183 19.2495 28.7495 19.1245 28.4058 18.7808C28.062 18.437 27.937 17.9683 28.0308 17.4995C28.0933 17.187 27.937 16.8433 27.6558 16.6558C27.187 16.3745 26.6558 16.187 26.1558 16.0308C25.8433 15.937 25.4683 16.062 25.2808 16.3433C25.0308 16.7495 24.5933 16.9995 24.0933 16.9995C23.5933 16.9995 23.187 16.7495 22.9058 16.3433C22.7183 16.062 22.3745 15.937 22.0308 16.0308C21.4995 16.187 20.9995 16.4058 20.5308 16.6558C20.2495 16.812 20.062 17.1558 20.1558 17.4995C20.2495 17.9683 20.1245 18.4683 19.7808 18.7808C19.437 19.1245 18.9683 19.2495 18.4995 19.1558C18.187 19.0933 17.8433 19.2495 17.6558 19.5308C17.3745 19.9995 17.187 20.5308 17.0308 21.0308C16.937 21.3433 17.062 21.7183 17.3433 21.9058C17.7495 22.1558 17.9995 22.5933 17.9995 23.0933C17.9995 23.5933 17.7495 23.9995 17.3433 24.2808C17.062 24.4683 16.937 24.812 17.0308 25.1558C17.187 25.687 17.4058 26.187 17.6558 26.6558C17.812 26.937 18.1558 27.0933 18.4995 27.0308C18.9683 26.937 19.4683 27.062 19.7808 27.4058C20.1245 27.7495 20.2495 28.2183 20.1558 28.687C20.0933 28.9995 20.2495 29.3433 20.5308 29.5308C20.9995 29.812 21.5308 29.9995 22.0308 30.1558C22.3433 30.2495 22.7183 30.1245 22.9058 29.8433C23.1558 29.437 23.5933 29.187 24.0933 29.187C24.5933 29.187 24.9995 29.437 25.2808 29.8433C25.437 30.062 25.687 30.187 25.937 30.187C25.9995 30.187 26.0933 30.187 26.1558 30.1558C26.687 29.9995 27.187 29.7808 27.6558 29.5308C27.937 29.3745 28.1245 29.0308 28.0308 28.687C27.937 28.2183 28.062 27.7183 28.4058 27.4058C28.7495 27.062 29.2183 26.937 29.687 27.0308C29.9995 27.0933 30.3433 26.937 30.5308 26.6558C30.812 26.187 30.9995 25.6558 31.1558 25.1558C31.2495 24.812 31.1245 24.4683 30.8433 24.2808ZM29.7495 26.0933C28.9995 25.9683 28.2495 26.2183 27.7183 26.7495C27.187 27.2808 26.937 28.0308 27.062 28.7808C26.7183 28.9683 26.3433 29.1245 25.9683 29.2495C25.5308 28.6558 24.8433 28.2808 24.062 28.2808C23.312 28.2808 22.6245 28.6245 22.1558 29.2495C21.7808 29.1245 21.4058 28.9683 21.062 28.7808C21.187 28.0308 20.937 27.2808 20.4058 26.7495C19.8745 26.2183 19.1245 25.9683 18.3745 26.0933C18.187 25.7495 18.0308 25.3745 17.9058 24.9995C18.4995 24.562 18.8745 23.8745 18.8745 23.0933C18.8745 22.3433 18.5308 21.6558 17.9058 21.187C18.0308 20.812 18.187 20.437 18.3745 20.0933C19.1245 20.2183 19.8745 19.9683 20.4058 19.437C20.937 18.9058 21.187 18.1558 21.062 17.4058C21.4058 17.2183 21.7808 17.062 22.1558 16.937C22.5933 17.5308 23.2808 17.9058 24.062 17.9058C24.812 17.9058 25.4995 17.562 25.9683 16.937C26.3433 17.062 26.7183 17.2183 27.062 17.4058C26.937 18.1558 27.187 18.9058 27.7183 19.437C28.2495 19.9683 28.9995 20.2183 29.7495 20.0933C29.937 20.437 30.0933 20.812 30.2183 21.187C29.6245 21.6245 29.2495 22.312 29.2495 23.0933C29.2495 23.8433 29.5933 24.5308 30.2183 24.9995C30.0933 25.3745 29.937 25.7495 29.7495 26.0933Z" fill="rgb(56,56,56)" fill-rule="nonzero" />
</svg>
