<svg viewBox="0 0 32 32" xmlns="http://www.w3.org/2000/svg" xmlns:xlink="http://www.w3.org/1999/xlink" width="32" height="32" fill="none">
	<rect id="2d_DimEllipse" width="32" height="32" x="0" y="0" />
	<path id="矢量 97" d="M16.0001 6.23755C17.672 6.23755 19.2907 6.50942 20.8095 7.0438C22.2595 7.5563 23.5595 8.28442 24.6688 9.20942C26.872 11.0438 28.0845 13.4563 28.0845 16C28.0845 18.5438 26.872 20.9532 24.6688 22.7907C23.5595 23.7157 22.2595 24.4438 20.8095 24.9563C19.2907 25.4907 17.672 25.7625 16.0001 25.7625C14.3282 25.7625 12.7095 25.4907 11.1907 24.9563C9.74072 24.4438 8.44072 23.7157 7.33135 22.7907C5.12822 20.9532 3.9126 18.5438 3.9126 16C3.9126 13.4563 5.1251 11.0469 7.32822 9.20942C8.4376 8.28442 9.7376 7.5563 11.1876 7.0438C12.7095 6.50942 14.3282 6.23755 16.0001 6.23755ZM16.0001 4.37817C8.29697 4.37817 2.05322 9.5813 2.05322 16C2.05322 22.4188 8.29697 27.6219 16.0001 27.6219C23.7032 27.6219 29.947 22.4188 29.947 16C29.947 9.5813 23.7032 4.37817 16.0001 4.37817Z" fill="rgb(56,56,56)" fill-rule="nonzero" />
</svg>
