<svg viewBox="0 0 32 32" xmlns="http://www.w3.org/2000/svg" xmlns:xlink="http://www.w3.org/1999/xlink" width="32" height="32" fill="none">
	<rect id="2d_dimFreeDraw" width="32" height="32" x="0" y="0" />
	<path id="矢量 102" d="M28.8369 5.98506C28.8853 6.09373 28.9246 6.22058 28.9549 6.36561C28.9851 6.51063 29 6.66145 29 6.81846C29 6.97547 28.9698 7.13248 28.9093 7.2899C28.8489 7.44732 28.752 7.59814 28.6186 7.74275C28.4733 7.88778 28.3433 8.01463 28.2282 8.12329C28.113 8.23196 28.0132 8.32865 27.9284 8.41335C27.8315 8.51004 27.7408 8.59474 27.6559 8.66746L24.2592 5.2781C24.4045 5.14505 24.5772 4.98515 24.7772 4.79798C24.9772 4.6108 25.1437 4.46288 25.2766 4.3538C25.4464 4.22076 25.6219 4.12696 25.8033 4.07325C25.9847 4.01912 26.1631 3.99475 26.3391 4.00094C26.5151 4.00673 26.6845 4.034 26.8476 4.08275C27.0108 4.13151 27.1528 4.18564 27.2741 4.24555C27.5284 4.37859 27.8099 4.61122 28.1188 4.94342C28.4277 5.27562 28.6667 5.62311 28.836 5.98547L28.8369 5.98506M14.6873 14.8293C14.7602 14.7566 14.9295 14.5843 15.1958 14.3124C15.4621 14.0405 15.795 13.7054 16.195 13.3067L22.8973 6.6193L26.294 10.0264L22.3888 13.9232L20.9358 15.3912C20.4513 15.8627 20.0157 16.2945 19.6281 16.687C19.2405 17.0795 18.9196 17.4026 18.6654 17.6567C18.4111 17.9108 18.26 18.0559 18.2115 18.0918C18.0902 18.2005 17.9511 18.3153 17.7937 18.4364C17.6364 18.5575 17.4728 18.6542 17.3031 18.7265C17.1333 18.8112 16.8852 18.9136 16.5585 19.0343C16.2318 19.1549 15.8898 19.2727 15.532 19.3876C15.1743 19.5024 14.8355 19.602 14.5151 19.6867C14.1946 19.7714 13.9556 19.8255 13.7979 19.8495C13.4707 19.8859 13.2529 19.8375 13.144 19.7045C13.0351 19.5714 13.0049 19.3479 13.0533 19.0339C13.0778 18.8645 13.1353 18.6199 13.226 18.2996C13.3204 17.9666 13.4173 17.6344 13.5167 17.3026C13.6198 16.958 13.7196 16.6411 13.8165 16.3511C13.9134 16.061 13.9921 15.8618 14.0525 15.7532C14.1254 15.5838 14.207 15.4297 14.2977 15.2908C14.3883 15.152 14.5188 14.9979 14.6881 14.8285L14.6873 14.8293ZM4.32992 26.1489C4.32992 26.2705 4.3418 26.3908 4.36556 26.5101C4.38933 26.6293 4.42451 26.745 4.47113 26.8573C4.51774 26.9696 4.57488 27.0763 4.64255 27.1773C4.71023 27.2784 4.78713 27.3719 4.87326 27.4578C4.95939 27.5438 5.05309 27.6205 5.15437 27.688C5.25565 27.7556 5.36255 27.8126 5.47509 27.8591C5.58762 27.9056 5.70362 27.9407 5.82309 27.9644C5.94256 27.9881 6.06319 28 6.185 28C6.3068 28 6.42744 27.9881 6.54691 27.9644C6.66637 27.9407 6.78237 27.9056 6.89491 27.8591C7.00744 27.8126 7.11435 27.7556 7.21562 27.688C7.3169 27.6205 7.41061 27.5438 7.49674 27.4578C7.58287 27.3719 7.65977 27.2784 7.72744 27.1773C7.79511 27.0763 7.85225 26.9696 7.89887 26.8573C7.94548 26.745 7.98067 26.6293 8.00443 26.5101C8.0282 26.3908 8.04008 26.2705 8.04008 26.1489C8.04008 26.0274 8.0282 25.907 8.00443 25.7878C7.98067 25.6686 7.94548 25.5528 7.89887 25.4406C7.85225 25.3283 7.79511 25.2216 7.72744 25.1205C7.65977 25.0195 7.58287 24.926 7.49674 24.84C7.41061 24.7541 7.3169 24.6773 7.21562 24.6098C7.11435 24.5423 7.00744 24.4853 6.89491 24.4388C6.78237 24.3923 6.66637 24.3571 6.54691 24.3334C6.42744 24.3097 6.3068 24.2979 6.185 24.2979C6.06319 24.2979 5.94255 24.3097 5.82309 24.3334C5.70362 24.3571 5.58762 24.3922 5.47509 24.4388C5.36255 24.4853 5.25565 24.5423 5.15437 24.6098C5.05309 24.6773 4.95939 24.7541 4.87326 24.84C4.78713 24.926 4.71023 25.0195 4.64255 25.1205C4.57488 25.2216 4.51774 25.3283 4.47113 25.4406C4.42451 25.5528 4.38932 25.6686 4.36556 25.7878C4.3418 25.907 4.32992 26.0274 4.32992 26.1489L4.32992 26.1489ZM6.65788 26.6121L5.71212 25.6866L9.54071 21.7923L3.72412 18.8645C3.3912 18.6959 3.14399 18.3938 3.04627 18.0348C2.94813 17.6753 3.00776 17.2898 3.20942 16.9766L6.92413 11.2032L8.03884 11.9172L4.32412 17.6906L10.1403 20.6201C10.5146 20.8085 10.7788 21.168 10.8471 21.5812C10.9155 21.9944 10.7805 22.4191 10.4865 22.7178L6.65788 26.6121L6.65788 26.6121ZM5.10798 11.5602C5.10798 11.7157 5.12317 11.8696 5.15357 12.0221C5.18397 12.1746 5.22899 12.3227 5.28862 12.4664C5.34825 12.61 5.42135 12.7465 5.50791 12.8757C5.59448 13.005 5.69286 13.1246 5.80304 13.2346C5.91322 13.3445 6.03309 13.4427 6.16265 13.5291C6.29221 13.6154 6.42897 13.6884 6.57293 13.7479C6.71688 13.8074 6.86528 13.8523 7.0181 13.8826C7.17093 13.913 7.32525 13.9281 7.48107 13.9281C7.63689 13.9281 7.79121 13.913 7.94404 13.8826C8.09686 13.8523 8.24525 13.8074 8.38921 13.7479C8.53317 13.6884 8.66993 13.6154 8.79949 13.5291C8.92905 13.4427 9.04892 13.3445 9.1591 13.2346C9.26928 13.1246 9.36766 13.005 9.45422 12.8757C9.54079 12.7465 9.61389 12.61 9.67352 12.4664C9.73315 12.3227 9.77817 12.1746 9.80857 12.0221C9.83896 11.8696 9.85416 11.7157 9.85416 11.5602C9.85416 11.4047 9.83896 11.2507 9.80857 11.0982C9.77817 10.9457 9.73315 10.7976 9.67352 10.654C9.61389 10.5103 9.54079 10.3739 9.45423 10.2446C9.36766 10.1153 9.26928 9.99571 9.1591 9.88577C9.04892 9.77583 8.92905 9.67766 8.79949 9.59128C8.66993 9.5049 8.53317 9.43196 8.38921 9.37246C8.24525 9.31296 8.09686 9.26804 7.94404 9.23771C7.79121 9.20738 7.63689 9.19221 7.48107 9.19221C7.32525 9.19221 7.17093 9.20738 7.0181 9.23771C6.86528 9.26804 6.71688 9.31296 6.57293 9.37246C6.42897 9.43196 6.29221 9.5049 6.16265 9.59128C6.03309 9.67766 5.91322 9.77583 5.80304 9.88577C5.69286 9.99571 5.59448 10.1153 5.50791 10.2446C5.42135 10.3739 5.34825 10.5103 5.28862 10.654C5.22899 10.7976 5.18397 10.9457 5.15357 11.0982C5.12317 11.2507 5.10798 11.4047 5.10798 11.5602Z" fill="rgb(56,56,56)" fill-rule="nonzero" />
</svg>
