<svg viewBox="0 0 32 32" xmlns="http://www.w3.org/2000/svg" xmlns:xlink="http://www.w3.org/1999/xlink" width="32" height="32" fill="none">
	<rect id="2d_drawingCompareSetColor" width="32" height="32" x="0" y="0" />
	<path id="矢量 68" d="M17.0558 30.0794L14.995 30.0794C14.0781 30.0794 13.288 29.2893 13.288 28.3727L13.288 27.1395C13.288 26.8388 13.0434 26.486 12.7664 26.3995L12.7175 26.3804L10.9761 25.6584L10.9486 25.6429C10.6938 25.5051 10.2605 25.5687 10.0563 25.7738L9.17586 26.6526C8.86554 26.9644 8.44963 27.1369 8.00609 27.1369C7.56249 27.1369 7.14648 26.9644 6.8346 26.6512L5.37578 25.194C4.73189 24.5501 4.73103 23.4992 5.3736 22.851L6.25329 21.9727C6.46071 21.7672 6.52444 21.329 6.38623 21.0693L6.36023 21.014L5.63634 19.26L5.62793 19.2387C5.54031 18.9564 5.1817 18.6951 4.89006 18.6951L3.65157 18.6951C2.73309 18.6951 1.99963 17.9431 1.99963 17.0328L1.99963 14.9721C1.99963 14.073 2.71835 13.3547 3.65336 13.3547L4.89009 13.3547C5.1739 13.3547 5.54021 13.0788 5.62965 12.7905L5.6474 12.7443L6.37126 10.9603L6.38706 10.9317C6.52469 10.6749 6.45955 10.2372 6.25301 10.0308L5.3767 9.15305C5.0653 8.84299 4.89274 8.42753 4.89226 7.9844C4.89178 7.54061 5.06389 7.12387 5.37686 6.81089L6.83485 5.35419C7.14552 5.04214 7.56137 4.86971 8.00462 4.86971C8.00465 4.86971 8.00462 4.86971 8.00465 4.86971C8.4479 4.86971 8.86372 5.04217 9.17557 5.35537L10.0518 6.23196C10.2567 6.43588 10.6925 6.50061 10.9473 6.36419L10.9752 6.34922L12.7682 5.61017C13.0443 5.52482 13.288 5.17149 13.288 4.86895L13.288 3.63043C13.288 2.72518 14.0623 2.00244 14.995 2.00244L17.0558 2.00244C17.967 2.00244 18.6923 2.70983 18.6923 3.63043L18.6923 4.86895C18.6923 5.15419 18.9645 5.52066 19.2476 5.60876L19.295 5.6268L21.065 6.34909L21.0938 6.36502C21.3502 6.50329 21.7871 6.43857 21.9935 6.23205L22.8736 5.35978C23.1828 5.04911 23.5979 4.88043 24.0409 4.88043C24.0415 4.88043 24.0421 4.88043 24.0427 4.88043C24.4861 4.88043 24.9024 5.04841 25.2151 5.36119L26.6748 6.81601C26.9875 7.12729 27.16 7.54272 27.16 7.98712C27.16 8.4305 26.9881 8.8467 26.6762 9.16002L25.7959 10.0398C25.5903 10.2464 25.5259 10.6889 25.6646 10.9494L25.6795 10.9774L26.4187 12.7886C26.5094 13.0778 26.8761 13.3547 27.1589 13.3547L28.3818 13.3547L28.3818 13.3367C29.2452 13.3367 30.0127 14.055 30.0127 14.972L30.0127 17.0344C30.0127 17.9591 29.2944 18.695 28.3956 18.695L27.1572 18.695C26.8654 18.695 26.5056 18.9566 26.417 19.2395L26.3988 19.2869L25.6774 21.0444L25.6627 21.0713C25.5246 21.3308 25.5879 21.7688 25.793 21.973L26.6723 22.8487C26.9858 23.1621 27.1579 23.5784 27.1578 24.0218C27.1577 24.4651 26.9855 24.8814 26.6729 25.1939L25.212 26.6527C24.902 26.9641 24.4864 27.1372 24.0431 27.1372C24.0424 27.1372 24.0418 27.1372 24.0412 27.1372C23.5977 27.1372 23.1813 26.9649 22.8687 26.6523L21.9925 25.7743C21.7896 25.5715 21.3422 25.5063 21.0897 25.6429L21.06 25.6589L19.2494 26.399C18.9654 26.4883 18.6924 26.855 18.6924 27.1393L18.6924 28.3725C18.6923 29.3052 17.9519 30.0794 17.0558 30.0794ZM13.1833 25.2154C13.9706 25.477 14.5672 26.2983 14.5672 27.1395L14.5672 28.3727C14.5672 28.595 14.7725 28.8003 14.995 28.8003L17.0558 28.8003C17.2588 28.8003 17.4452 28.6114 17.4452 28.3727L17.4452 27.1395C17.4452 26.3185 18.0551 25.4792 18.8484 25.2151L20.5315 24.5257C21.2699 24.147 22.2922 24.3038 22.8789 24.8905L23.7543 25.7703C23.8303 25.8462 23.9317 25.8902 24.0411 25.8902C24.0413 25.8902 24.0415 25.8902 24.0416 25.8902C24.1504 25.8902 24.2518 25.8465 24.3271 25.7708L25.7889 24.3103C25.8651 24.2341 25.9072 24.1314 25.9072 24.022C25.9072 23.9128 25.8652 23.8103 25.7889 23.734L24.9106 22.859C24.3264 22.2775 24.168 21.2544 24.5427 20.5141L25.2328 18.839C25.4945 18.0525 26.3335 17.4479 27.1571 17.4479L28.3956 17.4479C28.6376 17.4479 28.7335 17.2265 28.7335 17.0345L28.7335 14.9721C28.7335 14.7576 28.5736 14.5948 28.3817 14.5876L28.3817 14.6339L27.1589 14.6339C26.339 14.6339 25.4995 14.0042 25.2343 13.2046L24.5442 11.509C24.1704 10.7697 24.3281 9.74325 24.9107 9.15807L25.791 8.27707C25.8669 8.20077 25.9093 8.09694 25.9093 7.98658C25.9093 7.87725 25.8676 7.77527 25.7919 7.69989L24.3312 6.24434C24.2542 6.1674 24.1519 6.12765 24.0426 6.12765C24.0425 6.12765 24.0423 6.12765 24.0422 6.12765C23.9339 6.12765 23.8328 6.16689 23.7576 6.24239L22.8765 7.11856C22.292 7.70325 21.2697 7.86027 20.5327 7.48388L18.8494 6.79411C18.0555 6.53198 17.4452 5.69236 17.4452 4.86895L17.4452 3.63043C17.4452 3.40377 17.2728 3.2496 17.0558 3.2496L14.995 3.2496C14.7601 3.2496 14.5671 3.42206 14.5671 3.63043L14.5671 4.86895C14.5671 5.71356 13.97 6.53572 13.182 6.79532L11.51 7.48273C10.7652 7.86298 9.76451 7.70882 9.1701 7.11722L8.29101 6.23861C8.21471 6.16199 8.11318 6.12026 8.005 6.12026C7.89679 6.12023 7.79548 6.16196 7.72007 6.23772L6.261 7.69542C6.18479 7.77162 6.14274 7.87386 6.14284 7.98316C6.14297 8.09173 6.1847 8.19306 6.26042 8.26844L7.13756 9.14723C7.7219 9.73132 7.88076 10.7532 7.50659 11.4902L6.81518 13.2031C6.55226 14.0036 5.71263 14.6338 4.89009 14.6338L3.65336 14.6338C3.44617 14.6338 3.24679 14.7404 3.24679 14.972L3.24679 17.0328C3.24679 17.2497 3.42657 17.4479 3.65157 17.4479L4.89006 17.4479C5.71446 17.4479 6.55242 18.0526 6.81269 18.8397L7.50588 20.5156C7.88176 21.2572 7.72209 22.2797 7.13516 22.8611L6.25946 23.7346C6.10255 23.8929 6.10168 24.1517 6.25978 24.3099L7.71959 25.7678C7.79625 25.8448 7.89759 25.8864 8.00612 25.8864C8.11462 25.8864 8.21587 25.8446 8.29127 25.7689L9.17195 24.89C9.7545 24.3047 10.7795 24.1478 11.5161 24.5262L13.1833 25.2154Z" fill="rgb(56,56,56)" fill-rule="nonzero" />
	<path id="矢量 69" d="M16.0543 22.8713C12.2843 22.8713 9.21716 19.8042 9.21716 16.0342C9.21716 12.2642 12.2843 9.19714 16.0543 9.19714C19.8242 9.19714 22.8913 12.2642 22.8913 16.0342C22.8913 19.8042 19.8243 22.8713 16.0543 22.8713ZM16.0543 10.4477C12.9738 10.4477 10.4677 12.9538 10.4677 16.0342C10.4677 19.1147 12.9738 21.6208 16.0543 21.6208C19.1347 21.6208 21.6408 19.1147 21.6408 16.0342C21.6408 12.9538 19.1347 10.4477 16.0543 10.4477Z" fill="rgb(56,56,56)" fill-rule="nonzero" />
</svg>
