<svg viewBox="0 0 32 32" xmlns="http://www.w3.org/2000/svg" xmlns:xlink="http://www.w3.org/1999/xlink" width="32" height="32" fill="none">
	<rect id="2d_DimRectangle" width="32" height="32" x="0" y="0" />
	<path id="矢量 96" d="M26.4047 28.4503L5.79012 28.4503C3.75395 28.4503 2.09741 27.0302 2.09741 25.2845L2.09741 7.61666C2.09741 5.87093 3.75427 4.45032 5.79012 4.45032L26.4047 4.45032C28.4409 4.45032 30.0974 5.87093 30.0974 7.61666L30.0974 25.2845C30.0974 27.0302 28.4409 28.4503 26.4047 28.4503L26.4047 28.4503ZM5.79012 6.52974C5.09189 6.52974 4.52229 7.01741 4.52229 7.61639L4.52229 25.2842C4.52229 25.8835 5.09189 26.3704 5.79012 26.3704L26.4047 26.3704C27.1029 26.3704 27.6725 25.8835 27.6725 25.2842L27.6725 7.61666C27.6725 7.01741 27.1029 6.53001 26.4047 6.53001L5.79012 6.53001L5.79012 6.52974Z" fill="rgb(56,56,56)" fill-rule="nonzero" />
</svg>
