<?xml version="1.0" encoding="UTF-8"?>
<svg id="_图标" data-name="图标" xmlns="http://www.w3.org/2000/svg" viewBox="0 0 32 32">
  <defs>
    <style>
      .cls-1 {
        fill: #57b8ff;
      }
    </style>
  </defs>
  <path class="cls-1" d="M26.57,14.58H5.43c-1.2,0-2.18-.91-2.18-2.02v-5.46c0-1.11.98-2.02,2.18-2.02h5.32v-1.9c0-.85.74-1.55,1.65-1.55h7.2c.91,0,1.65.69,1.65,1.55v1.9h5.32c1.2,0,2.18.91,2.18,2.02v5.46c0,1.11-.98,2.02-2.18,2.02ZM5.43,6.58c-.37,0-.68.24-.68.52v5.46c0,.28.31.52.68.52h21.14c.37,0,.68-.24.68-.52v-5.46c0-.28-.31-.52-.68-.52h-6.82v-3.4s-.06-.05-.15-.05h-7.2c-.09,0-.14.04-.15.06v3.39s-6.82,0-6.82,0Z"/>
  <g>
    <path class="cls-1" d="M24.83,30.37H7.68c-1.05,0-1.91-.92-1.91-2.06v-11.96c0-.41.34-.75.75-.75s.75.34.75.75v11.96c0,.3.19.56.41.56h17.15c.22,0,.41-.26.41-.56v-11.96c0-.41.34-.75.75-.75s.75.34.75.75v11.96c0,1.14-.86,2.06-1.91,2.06Z"/>
    <path class="cls-1" d="M12.83,29.32c-.41,0-.75-.34-.75-.75v-7.29c0-.41.34-.75.75-.75s.75.34.75.75v7.29c0,.41-.34.75-.75.75Z"/>
    <path class="cls-1" d="M19.87,29.96c-.41,0-.75-.34-.75-.75v-8.58c0-.41.34-.75.75-.75s.75.34.75.75v8.58c0,.41-.34.75-.75.75Z"/>
  </g>
</svg>