<svg viewBox="0 0 32 32" xmlns="http://www.w3.org/2000/svg" xmlns:xlink="http://www.w3.org/1999/xlink" width="32" height="32" fill="none">
	<rect id="2d_drawingCompareRestoreBasePoint" width="32" height="32" x="0" y="0" />
	<path id="矢量 74" d="M16.0007 3.39887C13.2546 3.39887 10.5131 4.24676 8.18834 5.7138L8.1661 5.69204C8.00972 5.79834 7.86054 5.91334 7.70809 6.02523C7.55629 6.12966 7.40908 6.24031 7.26055 6.35034C6.75151 6.75253 5.9814 6.40007 5.98925 5.76912L6.01869 3.21052C6.0272 2.55533 5.44946 2.00768 4.7258 2.00022C4.00215 1.98778 3.41001 2.50995 3.40085 3.16576L3.30859 10.6283C3.30009 11.2593 3.83596 11.7846 4.5197 11.8343C4.54718 11.8362 4.57401 11.838 4.60149 11.838C4.60999 11.838 4.6185 11.8362 4.62766 11.8362C4.64074 11.8368 4.65383 11.8424 4.66888 11.8424L4.68066 11.8424L11.8733 11.82C12.5237 11.8181 13.125 11.3948 13.2291 10.7856C13.237 10.7413 13.2423 10.6967 13.2452 10.6519C13.248 10.607 13.2483 10.5621 13.246 10.5172C13.2437 10.4723 13.2389 10.4277 13.2315 10.3833C13.2241 10.3389 13.2142 10.295 13.2019 10.2516C13.1895 10.2083 13.1746 10.1657 13.1574 10.1238C13.1402 10.082 13.1206 10.0411 13.0987 10.0013C13.0768 9.96145 13.0526 9.92286 13.0263 9.88551C13 9.84816 12.9717 9.81227 12.9413 9.77784C12.9108 9.74341 12.8786 9.71064 12.8444 9.67954C12.8103 9.64843 12.7745 9.61917 12.737 9.59175C12.6995 9.56433 12.6606 9.53892 12.6202 9.51551C12.5798 9.4921 12.5382 9.47084 12.4954 9.45171C12.4526 9.43259 12.4088 9.41572 12.3641 9.4011C12.3193 9.38648 12.2739 9.37421 12.2278 9.36427C12.1816 9.35433 12.1351 9.34679 12.0881 9.34165C12.0411 9.33651 11.9939 9.33379 11.9466 9.33351L11.9335 9.33351L9.70043 9.34159C8.98724 9.34345 8.65748 8.49618 9.19269 8.06415C11.1798 6.68726 13.5896 5.88536 16.0007 5.88536C22.2767 5.88536 27.3828 10.7371 27.3828 16.6997C27.3828 22.663 22.2773 27.5141 16.0007 27.5141C9.72398 27.5141 4.61719 22.663 4.61719 16.6991C4.61719 16.6175 4.60881 16.5366 4.59204 16.4566C4.57528 16.3765 4.55046 16.2988 4.51758 16.2234C4.4847 16.1479 4.44439 16.0763 4.39665 16.0084C4.34891 15.9405 4.29467 15.8777 4.23391 15.82C4.17315 15.7623 4.10705 15.7108 4.03561 15.6654C3.96417 15.62 3.88875 15.5818 3.80937 15.5505C3.72999 15.5193 3.64816 15.4957 3.56389 15.4798C3.47962 15.4638 3.39452 15.4559 3.30859 15.4559C3.22267 15.4559 3.13757 15.4638 3.0533 15.4798C2.96903 15.4957 2.8872 15.5193 2.80782 15.5505C2.72843 15.5818 2.65302 15.62 2.58158 15.6654C2.51014 15.7108 2.44404 15.7623 2.38328 15.82C2.32252 15.8777 2.26827 15.9405 2.22054 16.0084C2.1728 16.0763 2.13249 16.1479 2.09961 16.2234C2.06673 16.2988 2.04191 16.3765 2.02514 16.4566C2.00838 16.5366 2 16.6175 2 16.6991C2 24.033 8.27995 30 16.0007 30C23.7201 30 30 24.033 30 16.6991C30 9.36521 23.7201 3.39825 16.0007 3.39825" fill="rgb(56,56,56)" fill-rule="nonzero" />
</svg>
