<svg viewBox="0 0 32 32" xmlns="http://www.w3.org/2000/svg" xmlns:xlink="http://www.w3.org/1999/xlink" width="32.000000" height="32.000000" fill="none">
	<rect id="2d_deleteClassify" width="32.000000" height="32.000000" x="0.000000" y="0.000000" />
	<rect id="矩形 14" width="17.000000" height="17.000000" x="8.000000" y="7.000000" fill="rgb(255,255,255)" />
	<path id="矢量 173" d="M25.1899 6.81C20.1199 1.73 11.8799 1.73 6.80991 6.81C1.73991 11.89 1.72991 20.12 6.80991 25.19C11.8899 30.26 20.1199 30.27 25.1899 25.19C30.2599 20.11 30.2699 11.88 25.1899 6.81L25.1899 6.81ZM22.1499 23.36L15.9999 17.21L9.84991 23.36C9.55991 23.65 9.07991 23.65 8.78991 23.36L8.63991 23.21C8.34991 22.92 8.34991 22.44 8.63991 22.15L14.7899 16L8.63991 9.85C8.34991 9.56 8.34991 9.08 8.63991 8.79L8.78991 8.64C9.07991 8.35 9.55991 8.35 9.84991 8.64L15.9999 14.79L22.1499 8.64C22.4399 8.35 22.9199 8.35 23.2099 8.64L23.3599 8.79C23.6499 9.08 23.6499 9.56 23.3599 9.85L17.2099 16L23.3599 22.15C23.6499 22.44 23.6499 22.92 23.3599 23.21L23.2099 23.36C22.9199 23.65 22.4399 23.65 22.1499 23.36Z" fill="rgb(255,0,0)" fill-rule="nonzero" />
</svg>
