<svg viewBox="0 0 32 32" xmlns="http://www.w3.org/2000/svg" xmlns:xlink="http://www.w3.org/1999/xlink" width="32" height="32" fill="none">
	<rect id="2d_DimLeader" width="32" height="32" x="0" y="0" />
	<path id="矢量 99" d="M20.5 12L10 12L10 11.5L10.4743 11.6581L5.97434 25.1581L5.02566 24.8419L9.63962 11L20.5 11L20.5 12ZM6.75356 21.2393L9.47251 22.1456L5.18377 25.9487L4.03461 20.333L6.75356 21.2393L6.43733 22.188L4.53997 21.5555L4.69808 21.0812L5.18793 20.981L5.98985 24.8998L5.5 25L5.16826 24.6259L8.16108 21.972L8.49281 22.3461L8.3347 22.8205L6.43733 22.188L6.75356 21.2393ZM6.59545 21.7137L8.49281 22.3461L5.5 25L4.69808 21.0812L6.59545 21.7137Z" fill="rgb(56,56,56)" fill-rule="nonzero" />
	<rect id="矩形 10" width="7" height="7" x="19" y="8" fill="rgb(56,56,56)" />
</svg>
