<?xml version="1.0" encoding="UTF-8"?>
<svg id="_图层_6" data-name="图层 6" xmlns="http://www.w3.org/2000/svg" viewBox="0 0 32 32">
  <defs>
    <style>
      .cls-1 {
        fill: #57b8ff;
      }
    </style>
  </defs>
  <path class="cls-1" d="M14,14.75H4c-.41,0-.75-.34-.75-.75V4.02c0-.41.34-.75.75-.75h10c.41,0,.75.34.75.75v9.98c0,.41-.34.75-.75.75ZM4.75,13.25h8.5V4.77H4.75v8.48Z"/>
  <path class="cls-1" d="M14,28.77H4c-.41,0-.75-.34-.75-.75v-9.98c0-.41.34-.75.75-.75h10c.41,0,.75.34.75.75v9.98c0,.41-.34.75-.75.75ZM4.75,27.27h8.5v-8.48H4.75v8.48Z"/>
  <path class="cls-1" d="M28,28.77h-10c-.41,0-.75-.34-.75-.75v-9.98c0-.41.34-.75.75-.75h10c.41,0,.75.34.75.75v9.98c0,.41-.34.75-.75.75ZM18.75,27.27h8.5v-8.48h-8.5v8.48Z"/>
  <rect class="cls-1" x="17.5" y="3.51" width="11" height="11" rx=".73" ry=".73"/>
</svg>