<?xml version="1.0" encoding="UTF-8"?>
<svg id="_图标" data-name="图标" xmlns="http://www.w3.org/2000/svg" viewBox="0 0 32 32">
  <defs>
    <style>
      .cls-1 {
        fill: #ba9600;
      }
    </style>
  </defs>
  <path class="cls-1" d="M10.21,7.36c-.22,0-.44-.1-.59-.28-.59-.74-1.44-1.16-2.33-1.16s-1.73.42-2.32,1.15c-.26.32-.73.38-1.05.12-.32-.26-.38-.73-.12-1.05.87-1.09,2.15-1.71,3.49-1.71s2.63.63,3.5,1.73c.26.32.2.8-.12,1.05-.14.11-.3.16-.47.16Z"/>
  <path class="cls-1" d="M16.01,7.36c-.22,0-.44-.1-.59-.28-.59-.74-1.44-1.16-2.33-1.16s-1.73.42-2.32,1.15c-.26.32-.73.38-1.05.12-.32-.26-.38-.73-.12-1.05.87-1.09,2.15-1.71,3.49-1.71s2.63.63,3.5,1.73c.26.32.2.8-.12,1.05-.14.11-.3.16-.47.16Z"/>
  <path class="cls-1" d="M21.83,7.36c-.22,0-.44-.1-.59-.28-.59-.74-1.44-1.16-2.33-1.16s-1.73.42-2.32,1.15c-.26.32-.73.38-1.05.12-.32-.26-.38-.73-.12-1.05.87-1.09,2.15-1.71,3.49-1.71s2.63.63,3.5,1.73c.26.32.21.8-.12,1.05-.14.11-.3.16-.47.16Z"/>
  <path class="cls-1" d="M27.64,7.36c-.22,0-.44-.1-.59-.28-.59-.74-1.44-1.16-2.33-1.16s-1.73.42-2.32,1.15c-.26.32-.73.38-1.05.12-.32-.26-.38-.73-.12-1.05.87-1.09,2.15-1.71,3.49-1.71s2.63.63,3.5,1.73c.26.32.2.8-.12,1.05-.14.11-.3.16-.47.16Z"/>
  <path class="cls-1" d="M27.64,13.63c-.2,0-.4-.08-.55-.24-.28-.3-.26-.78.04-1.06.7-.65,1.1-1.59,1.1-2.59s-.4-1.93-1.09-2.58c-.3-.28-.32-.76-.04-1.06.28-.3.76-.32,1.06-.04,1,.93,1.57,2.27,1.57,3.68s-.58,2.76-1.58,3.69c-.14.13-.33.2-.51.2Z"/>
  <path class="cls-1" d="M27.66,13.63c-.2,0-.4-.08-.55-.24-.28-.3-.26-.78.04-1.06.7-.65,1.1-1.59,1.1-2.59s-.4-1.93-1.09-2.58c-.3-.28-.32-.76-.04-1.06.28-.3.76-.32,1.06-.04,1,.93,1.57,2.27,1.57,3.68s-.58,2.76-1.58,3.69c-.14.13-.33.2-.51.2Z"/>
  <path class="cls-1" d="M27.66,19.9c-.2,0-.4-.08-.55-.24-.28-.3-.26-.78.04-1.06.7-.65,1.1-1.59,1.1-2.59s-.4-1.93-1.09-2.58c-.3-.28-.32-.76-.04-1.06.28-.3.76-.32,1.06-.04,1,.93,1.57,2.27,1.57,3.68s-.58,2.76-1.58,3.69c-.14.13-.33.2-.51.2Z"/>
  <path class="cls-1" d="M27.66,26.16c-.2,0-.4-.08-.55-.24-.28-.3-.26-.78.04-1.06.7-.65,1.1-1.59,1.1-2.59s-.4-1.94-1.09-2.58c-.3-.28-.32-.76-.04-1.06.28-.3.76-.32,1.06-.04,1,.93,1.57,2.27,1.57,3.68s-.58,2.76-1.58,3.69c-.14.13-.33.2-.51.2Z"/>
  <path class="cls-1" d="M4.34,13.63c-.18,0-.37-.07-.51-.2-1-.93-1.58-2.27-1.58-3.69s.57-2.75,1.57-3.68c.3-.28.78-.27,1.06.04.28.3.27.78-.04,1.06-.69.65-1.09,1.59-1.09,2.58s.4,1.94,1.1,2.59c.3.28.32.76.04,1.06-.15.16-.35.24-.55.24Z"/>
  <path class="cls-1" d="M4.36,13.6c-.18,0-.37-.07-.51-.2-1-.93-1.58-2.27-1.58-3.69s.57-2.75,1.57-3.68c.3-.28.78-.27,1.06.04.28.3.27.78-.04,1.06-.69.65-1.09,1.59-1.09,2.58s.4,1.94,1.1,2.59c.3.28.32.76.04,1.06-.15.16-.35.24-.55.24Z"/>
  <path class="cls-1" d="M4.36,19.87c-.18,0-.36-.07-.51-.2-1-.93-1.58-2.27-1.58-3.69s.57-2.75,1.57-3.68c.3-.28.78-.27,1.06.04.28.3.27.78-.04,1.06-.69.65-1.09,1.59-1.09,2.58s.4,1.94,1.1,2.59c.3.28.32.76.04,1.06-.15.16-.35.24-.55.24Z"/>
  <path class="cls-1" d="M4.36,26.14c-.18,0-.36-.07-.51-.2-1-.93-1.58-2.27-1.58-3.69s.57-2.75,1.57-3.68c.3-.28.78-.27,1.06.04.28.3.27.78-.04,1.06-.69.65-1.09,1.59-1.09,2.58s.4,1.94,1.1,2.59c.3.28.32.76.04,1.06-.15.16-.35.24-.55.24Z"/>
  <path class="cls-1" d="M7.26,27.58c-1.34,0-2.62-.62-3.49-1.71-.26-.32-.21-.8.12-1.05.32-.26.8-.21,1.05.12.59.73,1.43,1.15,2.32,1.15s1.74-.42,2.33-1.16c.26-.33.73-.38,1.05-.12.32.26.38.73.12,1.05-.87,1.1-2.15,1.73-3.5,1.73Z"/>
  <path class="cls-1" d="M13.08,27.58c-1.34,0-2.62-.62-3.49-1.71-.26-.32-.21-.8.12-1.05.32-.26.8-.21,1.05.12.59.73,1.43,1.15,2.32,1.15s1.74-.42,2.33-1.16c.26-.32.73-.38,1.05-.12.32.26.38.73.12,1.05-.87,1.1-2.15,1.73-3.5,1.73Z"/>
  <path class="cls-1" d="M18.9,27.58c-1.34,0-2.62-.62-3.49-1.71-.26-.32-.21-.8.12-1.05.32-.26.8-.21,1.05.12.59.73,1.43,1.15,2.32,1.15s1.74-.42,2.33-1.16c.26-.33.73-.38,1.05-.12.32.26.38.73.12,1.05-.87,1.1-2.15,1.73-3.5,1.73Z"/>
  <path class="cls-1" d="M24.71,27.58c-1.34,0-2.62-.62-3.49-1.71-.26-.32-.21-.8.12-1.05.32-.26.8-.21,1.05.12.59.73,1.43,1.15,2.32,1.15s1.74-.42,2.33-1.16c.26-.33.73-.38,1.05-.12.32.26.38.73.12,1.05-.87,1.1-2.15,1.73-3.5,1.73Z"/>
</svg>