<svg viewBox="0 0 24 24" xmlns="http://www.w3.org/2000/svg" xmlns:xlink="http://www.w3.org/1999/xlink" width="24.000000" height="24.000000" fill="none">
	<rect id="2d_dropdown" width="24.000000" height="24.000000" x="0.000000" y="0.000000" />
	<path id="矢量 155" d="M17.7033 10.1693L12.6041 15.7453C12.5288 15.831 12.4361 15.8997 12.3322 15.9467C12.2282 15.9937 12.1155 16.0181 12.0014 16.0181C11.8873 16.0181 11.7745 15.9937 11.6705 15.9467C11.5666 15.8997 11.4739 15.831 11.3986 15.7453L6.29943 10.1693C6.0505 9.90638 5.97358 9.52318 6.10222 9.18472C6.23087 8.84626 6.54137 8.60991 6.90222 8.57776L17.0963 8.57776C17.4586 8.60853 17.7704 8.84347 17.8991 9.18334C18.0292 9.52318 17.9522 9.90498 17.7033 10.1693Z" fill="rgb(92,92,92)" fill-rule="nonzero" />
</svg>
