<svg viewBox="0 0 32 32" xmlns="http://www.w3.org/2000/svg" xmlns:xlink="http://www.w3.org/1999/xlink" width="32" height="32" fill="none">
	<rect id="2d_drawingCompareSetBasePoint" width="32" height="32" x="0" y="0" />
	<path id="矢量 70" d="M16 28.7999C8.93035 28.7999 3.19995 23.0695 3.19995 16C3.19995 8.93035 8.93035 3.19995 16 3.19995C23.0695 3.19995 28.7999 8.93035 28.7999 16C28.7999 23.0695 23.0695 28.7999 16 28.7999L16 28.7999ZM16 27.1999C22.1856 27.1999 27.2 22.1855 27.2 16C27.2 9.81435 22.1856 4.79995 16 4.79995C9.81435 4.79995 4.79995 9.81435 4.79995 16C4.79995 22.1856 9.81435 27.2 16 27.2L16 27.1999Z" fill="rgb(56,56,56)" fill-rule="nonzero" />
	<path id="矢量 71" d="M15.2 1.60005C15.2 1.54752 15.2052 1.4955 15.2154 1.44398C15.2257 1.39246 15.2408 1.34243 15.2609 1.2939C15.281 1.24537 15.3057 1.19927 15.3349 1.15559C15.3641 1.11192 15.3972 1.07151 15.4344 1.03436C15.4715 0.99722 15.5119 0.964057 15.5556 0.934873C15.5993 0.90569 15.6454 0.881047 15.6939 0.860945C15.7424 0.840843 15.7925 0.825668 15.844 0.815421C15.8955 0.805173 15.9475 0.800049 16 0.800049C16.0526 0.800049 16.1046 0.805173 16.1561 0.815421C16.2076 0.825668 16.2577 0.840843 16.3062 0.860945C16.3547 0.881047 16.4008 0.90569 16.4445 0.934873C16.4882 0.964057 16.5286 0.99722 16.5657 1.03436C16.6029 1.07151 16.636 1.11192 16.6652 1.15559C16.6944 1.19927 16.719 1.24537 16.7392 1.2939C16.7593 1.34243 16.7744 1.39246 16.7847 1.44398C16.7949 1.4955 16.8 1.54752 16.8 1.60005L16.8 8.00005C16.8 8.05258 16.7949 8.1046 16.7847 8.15612C16.7744 8.20764 16.7593 8.25766 16.7391 8.30619C16.719 8.35472 16.6944 8.40083 16.6652 8.4445C16.636 8.48818 16.6029 8.52859 16.5657 8.56573C16.5286 8.60288 16.4882 8.63604 16.4445 8.66522C16.4008 8.69441 16.3547 8.71905 16.3062 8.73915C16.2577 8.75925 16.2076 8.77443 16.1561 8.78468C16.1046 8.79492 16.0526 8.80005 16 8.80005C15.9475 8.80005 15.8955 8.79492 15.844 8.78468C15.7925 8.77443 15.7424 8.75925 15.6939 8.73915C15.6454 8.71905 15.5993 8.69441 15.5556 8.66522C15.5119 8.63604 15.4715 8.60288 15.4344 8.56573C15.3972 8.52859 15.3641 8.48818 15.3349 8.4445C15.3057 8.40083 15.281 8.35472 15.2609 8.30619C15.2408 8.25766 15.2257 8.20764 15.2154 8.15612C15.2052 8.1046 15.2 8.05258 15.2 8.00005L15.2 1.60005L15.2 1.60005ZM15.2 23.2001C15.2 23.1475 15.2052 23.0955 15.2154 23.044C15.2257 22.9925 15.2408 22.9424 15.2609 22.8939C15.281 22.8454 15.3057 22.7993 15.3349 22.7556C15.3641 22.7119 15.3972 22.6715 15.4344 22.6344C15.4715 22.5972 15.5119 22.5641 15.5556 22.5349C15.5993 22.5057 15.6454 22.481 15.6939 22.4609C15.7424 22.4408 15.7925 22.4257 15.844 22.4154C15.8955 22.4052 15.9475 22.4 16 22.4C16.0526 22.4 16.1046 22.4052 16.1561 22.4154C16.2076 22.4257 16.2577 22.4408 16.3062 22.4609C16.3547 22.481 16.4008 22.5057 16.4445 22.5349C16.4882 22.5641 16.5286 22.5972 16.5657 22.6344C16.6029 22.6715 16.636 22.7119 16.6652 22.7556C16.6944 22.7993 16.719 22.8454 16.7392 22.8939C16.7593 22.9424 16.7744 22.9925 16.7847 23.044C16.7949 23.0955 16.8 23.1475 16.8 23.2001L16.8 30.7297C16.8 30.7822 16.7949 30.8342 16.7847 30.8857C16.7744 30.9372 16.7593 30.9873 16.7391 31.0358C16.719 31.0843 16.6944 31.1304 16.6652 31.1741C16.636 31.2178 16.6029 31.2582 16.5657 31.2953C16.5286 31.3325 16.4882 31.3656 16.4445 31.3948C16.4008 31.424 16.3547 31.4487 16.3062 31.4688C16.2577 31.4889 16.2076 31.504 16.1561 31.5143C16.1046 31.5245 16.0526 31.5297 16 31.5297C15.9475 31.5297 15.8955 31.5245 15.844 31.5143C15.7925 31.504 15.7424 31.4889 15.6939 31.4688C15.6454 31.4487 15.5993 31.424 15.5556 31.3948C15.5119 31.3656 15.4715 31.3325 15.4344 31.2953C15.3972 31.2582 15.3641 31.2178 15.3349 31.1741C15.3057 31.1304 15.281 31.0843 15.2609 31.0358C15.2408 30.9873 15.2257 30.9372 15.2154 30.8857C15.2052 30.8342 15.2 30.7822 15.2 30.7297L15.2 23.2001L15.2 23.2001ZM9.12965 15.2C9.18218 15.2 9.2342 15.2052 9.28572 15.2154C9.33724 15.2257 9.38726 15.2408 9.43579 15.2609C9.48433 15.281 9.53043 15.3057 9.5741 15.3349C9.61778 15.3641 9.65819 15.3972 9.69533 15.4344C9.73248 15.4715 9.76564 15.5119 9.79482 15.5556C9.82401 15.5993 9.84865 15.6454 9.86875 15.6939C9.88885 15.7424 9.90403 15.7925 9.91428 15.844C9.92452 15.8955 9.92965 15.9475 9.92965 16C9.92965 16.0526 9.92452 16.1046 9.91428 16.1561C9.90403 16.2076 9.88885 16.2577 9.86875 16.3062C9.84865 16.3547 9.82401 16.4008 9.79482 16.4445C9.76564 16.4882 9.73248 16.5286 9.69533 16.5657C9.65819 16.6029 9.61778 16.636 9.5741 16.6652C9.53043 16.6944 9.48433 16.719 9.43579 16.7392C9.38726 16.7593 9.33724 16.7744 9.28572 16.7847C9.2342 16.7949 9.18218 16.8 9.12965 16.8L1.60005 16.8C1.54752 16.8 1.4955 16.7949 1.44398 16.7847C1.39246 16.7744 1.34243 16.7593 1.2939 16.7391C1.24537 16.719 1.19927 16.6944 1.15559 16.6652C1.11192 16.636 1.07151 16.6029 1.03436 16.5657C0.99722 16.5286 0.964057 16.4882 0.934873 16.4445C0.90569 16.4008 0.881047 16.3547 0.860945 16.3062C0.840843 16.2577 0.825668 16.2076 0.815421 16.1561C0.805173 16.1046 0.800049 16.0526 0.800049 16C0.800049 15.9475 0.805173 15.8955 0.815421 15.844C0.825668 15.7925 0.840843 15.7424 0.860945 15.6939C0.881047 15.6454 0.90569 15.5993 0.934873 15.5556C0.964057 15.5119 0.99722 15.4715 1.03436 15.4344C1.07151 15.3972 1.11192 15.3641 1.15559 15.3349C1.19927 15.3057 1.24537 15.281 1.2939 15.2609C1.34243 15.2408 1.39246 15.2257 1.44398 15.2154C1.4955 15.2052 1.54752 15.2 1.60005 15.2L9.12965 15.2L9.12965 15.2ZM30.3704 15.2C30.423 15.2 30.475 15.2052 30.5265 15.2154C30.578 15.2257 30.6281 15.2408 30.6766 15.2609C30.7251 15.281 30.7712 15.3057 30.8149 15.3349C30.8586 15.3641 30.899 15.3972 30.9361 15.4344C30.9733 15.4715 31.0064 15.5119 31.0356 15.5556C31.0648 15.5993 31.0894 15.6454 31.1095 15.6939C31.1297 15.7424 31.1448 15.7925 31.1551 15.844C31.1653 15.8955 31.1704 15.9475 31.1704 16C31.1704 16.0526 31.1653 16.1046 31.1551 16.1561C31.1448 16.2076 31.1297 16.2577 31.1095 16.3062C31.0894 16.3547 31.0648 16.4008 31.0356 16.4445C31.0064 16.4882 30.9733 16.5286 30.9361 16.5657C30.899 16.6029 30.8586 16.636 30.8149 16.6652C30.7712 16.6944 30.7251 16.719 30.6766 16.7392C30.6281 16.7593 30.578 16.7744 30.5265 16.7847C30.475 16.7949 30.423 16.8 30.3704 16.8L22.8664 16.8C22.8139 16.8 22.7619 16.7949 22.7104 16.7847C22.6589 16.7744 22.6088 16.7593 22.5603 16.7391C22.5118 16.719 22.4657 16.6944 22.422 16.6652C22.3783 16.636 22.3379 16.6029 22.3008 16.5657C22.2636 16.5286 22.2305 16.4882 22.2013 16.4445C22.1721 16.4008 22.1474 16.3547 22.1273 16.3062C22.1072 16.2577 22.0921 16.2076 22.0818 16.1561C22.0716 16.1046 22.0664 16.0526 22.0664 16C22.0664 15.9475 22.0716 15.8955 22.0818 15.844C22.0921 15.7925 22.1072 15.7424 22.1273 15.6939C22.1474 15.6454 22.1721 15.5993 22.2013 15.5556C22.2305 15.5119 22.2636 15.4715 22.3008 15.4344C22.3379 15.3972 22.3783 15.3641 22.422 15.3349C22.4657 15.3057 22.5118 15.281 22.5603 15.2609C22.6088 15.2408 22.6589 15.2257 22.7104 15.2154C22.7619 15.2052 22.8139 15.2 22.8664 15.2L30.3704 15.2L30.3704 15.2Z" fill="rgb(56,56,56)" fill-rule="nonzero" />
	<path id="矢量 72" d="M14.4 16C14.4 16.1051 14.4103 16.2091 14.4308 16.3122C14.4513 16.4152 14.4816 16.5153 14.5218 16.6123C14.562 16.7094 14.6113 16.8016 14.6697 16.8889C14.728 16.9763 14.7944 17.0571 14.8687 17.1314C14.9429 17.2057 15.0238 17.272 15.1111 17.3304C15.1985 17.3887 15.2907 17.438 15.3877 17.4782C15.4848 17.5184 15.5848 17.5488 15.6879 17.5693C15.7909 17.5898 15.895 17.6 16 17.6C16.1051 17.6 16.2091 17.5898 16.3122 17.5693C16.4152 17.5488 16.5153 17.5184 16.6123 17.4782C16.7094 17.438 16.8016 17.3887 16.8889 17.3304C16.9763 17.272 17.0571 17.2057 17.1314 17.1314C17.2057 17.0571 17.272 16.9763 17.3304 16.8889C17.3887 16.8016 17.438 16.7094 17.4782 16.6123C17.5184 16.5153 17.5488 16.4152 17.5693 16.3122C17.5898 16.2091 17.6 16.1051 17.6 16C17.6 15.895 17.5898 15.7909 17.5693 15.6879C17.5488 15.5848 17.5184 15.4848 17.4782 15.3877C17.438 15.2907 17.3887 15.1985 17.3304 15.1111C17.272 15.0238 17.2057 14.9429 17.1314 14.8687C17.0571 14.7944 16.9763 14.728 16.8889 14.6697C16.8016 14.6113 16.7094 14.562 16.6123 14.5218C16.5153 14.4816 16.4152 14.4513 16.3122 14.4308C16.2091 14.4103 16.1051 14.4 16 14.4C15.895 14.4 15.7909 14.4103 15.6879 14.4308C15.5848 14.4513 15.4848 14.4816 15.3877 14.5218C15.2907 14.562 15.1985 14.6113 15.1111 14.6697C15.0238 14.728 14.9429 14.7944 14.8687 14.8687C14.7944 14.9429 14.728 15.0238 14.6697 15.1111C14.6113 15.1985 14.562 15.2907 14.5218 15.3877C14.4816 15.4848 14.4513 15.5848 14.4308 15.6879C14.4103 15.7909 14.4 15.895 14.4 16L14.4 16Z" fill="rgb(56,56,56)" fill-rule="nonzero" />
</svg>
