<?xml version="1.0" encoding="UTF-8"?>
<svg id="_图标" data-name="图标" xmlns="http://www.w3.org/2000/svg" viewBox="0 0 32 32">
  <defs>
    <style>
      .cls-1 {
        fill: #57b8ff;
      }
    </style>
  </defs>
  <path class="cls-1" d="M28.58,11.57L19.52,2.32c-.56-.57-1.46-.57-2.01,0L3.42,16.71c-.56.57-.56,1.49,0,2.06l5.48,5.59c2.54,2.59,6.65,2.59,9.18,0l10.51-10.73c.56-.57.56-1.49,0-2.06ZM18.65,20.95l-2.37,2.42c-1.54,1.57-4.04,1.57-5.58,0l-5.36-5.47c-.34-.34-.34-.9,0-1.25l4.55-4.65c.34-.34.89-.34,1.22,0l7.54,7.69c.34.34.34.9,0,1.25Z"/>
  <path class="cls-1" d="M29,29.84H3c-.41,0-.75-.34-.75-.75s.34-.75.75-.75h26c.41,0,.75.34.75.75s-.34.75-.75.75Z"/>
</svg>