<?xml version="1.0" encoding="UTF-8"?>
<svg id="_图标" data-name="图标" xmlns="http://www.w3.org/2000/svg" viewBox="0 0 32 32">
  <defs>
    <style>
      .cls-1 {
        fill: #ba9600;
      }
    </style>
  </defs>
  <rect class="cls-1" x="15.4" y="12.9" width="1.2" height="9.8"/>
  <rect class="cls-1" x="15.4" y="9.02" width="1.2" height="13.58"/>
  <rect class="cls-1" x="9.41" y="12.95" width="13.19" height="1.2"/>
  <rect class="cls-1" x="9.41" y="17.42" width="13.19" height="1.2"/>
  <path class="cls-1" d="M22.2,23.58h-12.41c-.76,0-1.38-.62-1.38-1.38v-12.41c0-.76.62-1.38,1.38-1.38h12.41c.76,0,1.38.62,1.38,1.38v12.41c0,.76-.62,1.38-1.38,1.38ZM9.8,9.62c-.1,0-.18.08-.18.18v12.41c0,.1.08.18.18.18h12.41c.1,0,.18-.08.18-.18v-12.41c0-.1-.08-.18-.18-.18h-12.41Z"/>
  <g>
    <path class="cls-1" d="M3,11.73c-.41,0-.75-.34-.75-.75v-3.74c0-2.75,1.99-4.99,4.44-4.99h5.57c.41,0,.75.34.75.75s-.34.75-.75.75h-5.57c-1.62,0-2.94,1.57-2.94,3.49v3.74c0,.41-.34.75-.75.75Z"/>
    <path class="cls-1" d="M12.26,29.75h-5.57c-2.45,0-4.44-2.24-4.44-4.99v-3.74c0-.41.34-.75.75-.75s.75.34.75.75v3.74c0,1.93,1.32,3.49,2.94,3.49h5.57c.41,0,.75.34.75.75s-.34.75-.75.75Z"/>
    <g>
      <path class="cls-1" d="M12.26,29.75h-5.57c-2.45,0-4.44-2.24-4.44-4.99v-3.74c0-.41.34-.75.75-.75s.75.34.75.75v3.74c0,1.93,1.32,3.49,2.94,3.49h5.57c.41,0,.75.34.75.75s-.34.75-.75.75Z"/>
      <path class="cls-1" d="M3,11.73c-.41,0-.75-.34-.75-.75v-3.74c0-2.75,1.99-4.99,4.44-4.99h5.57c.41,0,.75.34.75.75s-.34.75-.75.75h-5.57c-1.62,0-2.94,1.57-2.94,3.49v3.74c0,.41-.34.75-.75.75Z"/>
    </g>
    <g>
      <path class="cls-1" d="M25.31,29.75h-5.57c-.41,0-.75-.34-.75-.75s.34-.75.75-.75h5.57c1.62,0,2.94-1.57,2.94-3.49v-3.74c0-.41.34-.75.75-.75s.75.34.75.75v3.74c0,2.75-1.99,4.99-4.44,4.99Z"/>
      <path class="cls-1" d="M29,11.73c-.41,0-.75-.34-.75-.75v-3.74c0-1.93-1.32-3.49-2.94-3.49h-5.57c-.41,0-.75-.34-.75-.75s.34-.75.75-.75h5.57c2.45,0,4.44,2.24,4.44,4.99v3.74c0,.41-.34.75-.75.75Z"/>
    </g>
  </g>
</svg>