<svg viewBox="0 0 24 24" xmlns="http://www.w3.org/2000/svg" xmlns:xlink="http://www.w3.org/1999/xlink" width="24.000000" height="24.000000" fill="none">
	<rect id="2d_editPdfPageName" width="24.000000" height="24.000000" x="0.000000" y="0.000000" />
	<path id="矢量 115" d="M21.2996 11.541C21.0406 11.541 20.8307 11.7509 20.8307 12.0099L20.8307 19.9395C20.8307 20.8445 20.0943 21.5809 19.1893 21.5809L4.75091 21.5809C3.84589 21.5809 3.10956 20.8445 3.10956 19.9395L3.10956 4.08866C3.10956 3.18363 3.84589 2.44731 4.75091 2.44731L13.2442 2.44731C13.5031 2.44731 13.7131 2.23735 13.7131 1.97835C13.7131 1.71935 13.5031 1.5094 13.2442 1.5094L4.75091 1.5094C3.3287 1.5094 2.17163 2.66645 2.17163 4.08868L2.17163 19.9395C2.17163 21.3617 3.32868 22.5188 4.75091 22.5188L19.1893 22.5188C20.6115 22.5188 21.7686 21.3618 21.7686 19.9395L21.7686 12.01C21.7686 11.7509 21.5586 11.541 21.2996 11.541Z" fill="rgb(56,56,56)" fill-rule="nonzero" />
	<path id="矢量 116" d="M22.0916 2.76528L21.2626 1.93628C20.714 1.38773 19.8215 1.38782 19.2729 1.93628L9.37366 11.8355C9.3433 11.8659 9.31722 11.9003 9.29622 11.9378L6.31211 17.2598C6.20764 17.4461 6.24232 17.6795 6.39646 17.8275C6.48623 17.9136 6.60327 17.9581 6.7213 17.9581C6.80598 17.9581 6.89115 17.9352 6.96713 17.8884L12.1066 14.7219C12.1377 14.7027 12.1664 14.68 12.1923 14.6542L22.0916 4.75497C22.6401 4.20637 22.6401 3.31384 22.0916 2.76528ZM9.80987 12.9394L11.1088 14.235L8.01445 16.1415L9.80987 12.9394ZM21.4284 4.0917L11.8576 13.6624L10.3635 12.1721L19.9362 2.59951C20.1189 2.41668 20.4165 2.41658 20.5993 2.59951L21.4284 3.42853C21.6112 3.61136 21.6112 3.90885 21.4284 4.0917Z" fill="rgb(56,56,56)" fill-rule="nonzero" />
</svg>
