<svg viewBox="0 0 32 32" xmlns="http://www.w3.org/2000/svg" xmlns:xlink="http://www.w3.org/1999/xlink" width="32.000000" height="32.000000" fill="none">
	<rect id="2d_eyeClose" width="32.000000" height="32.000000" x="0.000000" y="0.000000" />
	<path id="矢量 165" d="M3.59002 28.75C3.39002 28.75 3.20002 28.67 3.05002 28.5201C2.76002 28.2201 2.77002 27.75 3.07002 27.4601L27.88 3.46005C28.18 3.17005 28.65 3.18005 28.94 3.48005C29.23 3.78005 29.22 4.25005 28.92 4.54005L4.12002 28.5401C3.97002 28.68 3.79002 28.75 3.60002 28.75L3.59002 28.75Z" fill="rgb(186,150,0)" fill-rule="nonzero" />
	<path id="矢量 166" d="M16.38 7.5C8.3 7.5 5.06 11.75 1 16C5.06 20.25 8.3 24.5 16.38 24.5C24.46 24.5 27.74 19.89 31 16C27.74 12.11 24.45 7.5 16.38 7.5L16.38 7.5ZM16.31 22.86C9.64 22.86 6.96 19.35 3.6 15.84C6.96 12.33 9.63 8.82 16.31 8.82C22.99 8.82 25.7 12.63 28.39 15.84C25.69 19.05 22.98 22.86 16.31 22.86Z" fill="rgb(186,150,0)" fill-rule="nonzero" />
	<path id="矢量 167" d="M16 19.75C13.93 19.75 12.25 18.07 12.25 16C12.25 13.93 13.93 12.25 16 12.25C18.07 12.25 19.75 13.93 19.75 16C19.75 18.07 18.07 19.75 16 19.75ZM16 13.75C14.76 13.75 13.75 14.76 13.75 16C13.75 17.24 14.76 18.25 16 18.25C17.24 18.25 18.25 17.24 18.25 16C18.25 14.76 17.24 13.75 16 13.75Z" fill="rgb(186,150,0)" fill-rule="nonzero" />
</svg>
