<svg viewBox="0 0 32 32" xmlns="http://www.w3.org/2000/svg" xmlns:xlink="http://www.w3.org/1999/xlink" width="32.000000" height="32.000000" fill="none">
	<rect id="2d_eyeOpen" width="32.000000" height="32.000000" x="0.000000" y="0.000000" />
	<path id="矢量 168" d="M16.38 9.5C8.3 9.5 5.06 13.75 1 18C5.06 22.25 8.3 26.5 16.38 26.5C24.46 26.5 27.74 21.89 31 18C27.74 14.11 24.45 9.5 16.38 9.5L16.38 9.5ZM16.31 24.86C9.64 24.86 6.96 21.35 3.6 17.84C6.96 14.33 9.63 10.82 16.31 10.82C22.99 10.82 25.7 14.63 28.39 17.84C25.69 21.05 22.98 24.86 16.31 24.86Z" fill="rgb(186,150,0)" fill-rule="nonzero" />
	<path id="矢量 169" d="M16 21.59C13.93 21.59 12.25 19.91 12.25 17.84C12.25 15.77 13.93 14.09 16 14.09C18.07 14.09 19.75 15.77 19.75 17.84C19.75 19.91 18.07 21.59 16 21.59ZM16 15.59C14.76 15.59 13.75 16.6 13.75 17.84C13.75 19.08 14.76 20.09 16 20.09C17.24 20.09 18.25 19.08 18.25 17.84C18.25 16.6 17.24 15.59 16 15.59Z" fill="rgb(186,150,0)" fill-rule="nonzero" />
	<path id="矢量 170" d="M16.3799 10.25C15.9699 10.25 15.6299 9.91 15.6299 9.5L15.6299 5.5C15.6299 5.09 15.9699 4.75 16.3799 4.75C16.7899 4.75 17.1299 5.09 17.1299 5.5L17.1299 9.5C17.1299 9.91 16.7899 10.25 16.3799 10.25Z" fill="rgb(186,150,0)" fill-rule="nonzero" />
	<path id="矢量 171" d="M7.26012 13.67C7.07012 13.67 6.88012 13.6 6.73012 13.45L3.90012 10.62C3.61012 10.33 3.61012 9.85003 3.90012 9.56003C4.19012 9.27003 4.67012 9.27003 4.96012 9.56003L7.79012 12.39C8.08012 12.68 8.08012 13.16 7.79012 13.45C7.64012 13.6 7.45012 13.67 7.26012 13.67L7.26012 13.67Z" fill="rgb(186,150,0)" fill-rule="nonzero" />
	<path id="矢量 172" d="M25.57 13.0799C25.38 13.0799 25.19 13.0099 25.04 12.8599C24.75 12.5699 24.75 12.0899 25.04 11.7999L27.87 8.96994C28.16 8.67994 28.64 8.67994 28.93 8.96994C29.22 9.25994 29.22 9.73994 28.93 10.0299L26.1 12.8599C25.95 13.0099 25.76 13.0799 25.57 13.0799L25.57 13.0799Z" fill="rgb(186,150,0)" fill-rule="nonzero" />
</svg>
