<?xml version="1.0" encoding="UTF-8"?>
<svg id="_图标" data-name="图标" xmlns="http://www.w3.org/2000/svg" viewBox="0 0 32 32">
  <defs>
    <style>
      .cls-1 {
        fill: #ba9600;
      }
    </style>
  </defs>
  <g>
    <path class="cls-1" d="M3,11.73c-.41,0-.75-.34-.75-.75v-3.74c0-2.75,1.99-4.99,4.44-4.99h5.57c.41,0,.75.34.75.75s-.34.75-.75.75h-5.57c-1.62,0-2.94,1.57-2.94,3.49v3.74c0,.41-.34.75-.75.75Z"/>
    <path class="cls-1" d="M12.26,29.75h-5.57c-2.45,0-4.44-2.24-4.44-4.99v-3.74c0-.41.34-.75.75-.75s.75.34.75.75v3.74c0,1.93,1.32,3.49,2.94,3.49h5.57c.41,0,.75.34.75.75s-.34.75-.75.75Z"/>
    <g>
      <path class="cls-1" d="M12.26,29.75h-5.57c-2.45,0-4.44-2.24-4.44-4.99v-3.74c0-.41.34-.75.75-.75s.75.34.75.75v3.74c0,1.93,1.32,3.49,2.94,3.49h5.57c.41,0,.75.34.75.75s-.34.75-.75.75Z"/>
      <path class="cls-1" d="M3,11.73c-.41,0-.75-.34-.75-.75v-3.74c0-2.75,1.99-4.99,4.44-4.99h5.57c.41,0,.75.34.75.75s-.34.75-.75.75h-5.57c-1.62,0-2.94,1.57-2.94,3.49v3.74c0,.41-.34.75-.75.75Z"/>
    </g>
    <g>
      <path class="cls-1" d="M25.31,29.75h-5.57c-.41,0-.75-.34-.75-.75s.34-.75.75-.75h5.57c1.62,0,2.94-1.57,2.94-3.49v-3.74c0-.41.34-.75.75-.75s.75.34.75.75v3.74c0,2.75-1.99,4.99-4.44,4.99Z"/>
      <path class="cls-1" d="M29,11.73c-.41,0-.75-.34-.75-.75v-3.74c0-1.93-1.32-3.49-2.94-3.49h-5.57c-.41,0-.75-.34-.75-.75s.34-.75.75-.75h5.57c2.45,0,4.44,2.24,4.44,4.99v3.74c0,.41-.34.75-.75.75Z"/>
    </g>
  </g>
  <path class="cls-1" d="M12.29,18.57l-2.08,4.78h-1.8l6.36-14.7h2.18l6.64,14.7h-1.93l-2.13-4.78h-7.23ZM19,17.24c-1.83-4.14-2.8-6.22-3.16-7.27h-.03c-.43,1.17-1.51,3.72-2.99,7.27h6.17Z"/>
</svg>