<?xml version="1.0" encoding="UTF-8"?>
<svg id="_图标" data-name="图标" xmlns="http://www.w3.org/2000/svg" viewBox="0 0 32 32">
  <defs>
    <style>
      .cls-1 {
        fill: #ba9600;
      }
    </style>
  </defs>
  <g>
    <path class="cls-1" d="M4.91,30.07c-.42,0-.77-.34-.77-.77V2.7c0-.42.34-.77.77-.77s.77.34.77.77v26.6c0,.42-.34.77-.77.77Z"/>
    <path class="cls-1" d="M29.3,5.37H2.7c-.42,0-.77-.34-.77-.77s.34-.77.77-.77h26.6c.42,0,.77.34.77.77s-.34.77-.77.77Z"/>
    <path class="cls-1" d="M29.3,28.06H2.7c-.42,0-.77-.34-.77-.77s.34-.77.77-.77h26.6c.42,0,.77.34.77.77s-.34.77-.77.77Z"/>
    <path class="cls-1" d="M27.29,30.07c-.42,0-.77-.34-.77-.77V2.7c0-.42.34-.77.77-.77s.77.34.77.77v26.6c0,.42-.34.77-.77.77Z"/>
  </g>
  <g>
    <path class="cls-1" d="M5.03,12.43c-.2,0-.39-.07-.54-.22-.3-.3-.3-.79,0-1.08l7.06-7.06c.3-.3.79-.3,1.08,0s.3.79,0,1.08l-7.06,7.06c-.15.15-.35.22-.54.22Z"/>
    <path class="cls-1" d="M5.54,19.27c-.2,0-.39-.07-.54-.22-.3-.3-.3-.79,0-1.08l13.39-13.39c.3-.3.79-.3,1.08,0s.3.79,0,1.08l-13.39,13.39c-.15.15-.35.22-.54.22Z"/>
    <path class="cls-1" d="M5.35,27.23c-.2,0-.39-.07-.54-.22-.3-.3-.3-.79,0-1.08L26.53,4.21c.3-.3.79-.3,1.08,0s.3.79,0,1.08L5.9,27.01c-.15.15-.35.22-.54.22Z"/>
    <path class="cls-1" d="M12.69,28.06c-.2,0-.39-.07-.54-.22-.3-.3-.3-.79,0-1.08l14.6-14.6c.3-.3.79-.3,1.08,0s.3.79,0,1.08l-14.6,14.6c-.15.15-.35.22-.54.22Z"/>
    <path class="cls-1" d="M19.65,28.06c-.2,0-.39-.07-.54-.22-.3-.3-.3-.79,0-1.08l7.36-7.36c.3-.3.79-.3,1.08,0,.3.3.3.79,0,1.08l-7.36,7.36c-.15.15-.35.22-.54.22Z"/>
  </g>
</svg>