<svg viewBox="0 0 32 32" xmlns="http://www.w3.org/2000/svg" xmlns:xlink="http://www.w3.org/1999/xlink" width="32" height="32" fill="none">
	<rect id="2d_graphicRecognition" width="32" height="32" x="0" y="0" />
	<path id="矢量 27" d="M15.7888 2.21863C8.33404 2.21863 2.29077 8.26272 2.29077 15.7186C2.29077 23.1745 8.33404 29.2186 15.7888 29.2186C23.2436 29.2186 29.2868 23.1745 29.2868 15.7186C29.2868 8.26272 23.2436 2.21863 15.7888 2.21863L15.7888 2.21863ZM15.7888 28.4225C8.77362 28.4225 3.08673 22.7348 3.08673 15.7186C3.08673 8.70242 8.77362 3.01471 15.7888 3.01471C22.804 3.01471 28.4909 8.70242 28.4909 15.7186C28.4909 22.7347 22.804 28.4225 15.7888 28.4225Z" fill="rgb(56,56,56)" fill-rule="nonzero" />
	<path id="矢量 28" d="M13.1925 17.7979C13.238 18.1811 13.2976 18.5621 13.3715 18.9408C12.5453 19.5559 11.7605 20.1664 11.017 20.7723C10.8334 20.9376 10.6315 21.1488 10.4112 21.4058L9.59882 20.552C9.89256 20.2582 10.0394 19.8543 10.0394 19.3402L10.0394 14.5755L8.29077 14.5755L8.29077 13.584L11.0996 13.584L11.0996 19.4366C11.8523 18.8766 12.5499 18.3304 13.1925 17.7979ZM10.3561 9.21863C11.2556 10.1367 11.9716 10.8941 12.504 11.4908L11.554 12.2758C10.8472 11.3669 10.1771 10.5774 9.54372 9.90718L10.3561 9.21863ZM15.3817 17.7703L16.3042 18.4314C15.2119 19.7625 13.9911 21.0891 12.6417 22.4112C12.4123 22.1908 12.1323 21.9429 11.8018 21.6676C13.0685 20.5199 14.2619 19.2209 15.3817 17.7703L15.3817 17.7703ZM13.4541 9.92094L21.0407 9.92094L21.0407 17.1644L19.9805 17.1644L19.9805 16.3382L14.5143 16.3382L14.5143 17.1644L13.454 17.1644L13.454 9.92094L13.4541 9.92094ZM19.9805 10.8849L14.5143 10.8849L14.5143 15.3743L19.9805 15.3743L19.9805 10.8849L19.9805 10.8849ZM17.9428 18.4864L18.8377 17.8254C19.9301 18.9914 21.0362 20.2537 22.156 21.6124L21.1647 22.356C20.1274 21.0157 19.0535 19.7258 17.9428 18.4864L17.9428 18.4864Z" fill="rgb(56,56,56)" fill-rule="nonzero" />
</svg>
