<svg viewBox="0 0 32 32" xmlns="http://www.w3.org/2000/svg" xmlns:xlink="http://www.w3.org/1999/xlink" width="32" height="32" fill="none">
	<rect id="2d_hideDim" width="32" height="32" x="0" y="0" />
	<path id="矢量 35" d="M7.12006 22.12C6.91206 22.12 6.71206 22.056 6.53606 21.92C4.40806 20.288 2.75206 18.48 1.73606 17.256C0.904061 16.256 0.904061 14.8 1.73606 13.8C3.84006 11.264 9.45606 5.37598 16.1521 5.37598C17.7441 5.37598 19.3841 5.71198 21.0321 6.36798C21.5281 6.56798 21.7601 7.12798 21.5681 7.61598C21.3681 8.11198 20.8081 8.34398 20.3201 8.15198C18.9041 7.58398 17.4961 7.29598 16.1521 7.29598C10.2641 7.29598 5.14406 12.704 3.21606 15.032C2.97606 15.32 2.97606 15.744 3.21606 16.04C4.16006 17.176 5.72006 18.872 7.70406 20.4C8.12806 20.72 8.20006 21.328 7.88006 21.744C7.68806 21.992 7.40806 22.12 7.12006 22.12L7.12006 22.12ZM16.1441 25.68C13.8241 25.68 11.4321 24.976 9.01606 23.592C8.56006 23.328 8.40006 22.744 8.66406 22.28C8.92806 21.824 9.51206 21.664 9.97606 21.928C12.0961 23.144 14.1681 23.768 16.1441 23.768C22.0321 23.768 27.1521 18.36 29.0801 16.032C29.3201 15.744 29.3201 15.32 29.0801 15.024C27.9841 13.704 25.7201 11.232 22.8321 9.43998C22.3841 9.15998 22.2401 8.56798 22.5201 8.11998C22.8001 7.67198 23.3921 7.52798 23.8401 7.80798C26.9601 9.74398 29.3841 12.392 30.5521 13.8C31.3841 14.8 31.3841 16.256 30.5521 17.256C28.4641 19.792 22.8481 25.68 16.1441 25.68Z" fill="rgb(56,56,56)" fill-rule="nonzero" />
	<path id="矢量 36" d="M12.2399 17.112C11.7759 17.112 11.3759 16.776 11.2959 16.312C11.2479 16.048 11.2319 15.776 11.2319 15.504C11.2319 12.816 13.4239 10.624 16.1119 10.624C16.3199 10.624 16.5359 10.64 16.7439 10.664C17.2719 10.736 17.6399 11.216 17.5759 11.736C17.5119 12.264 17.0239 12.632 16.5039 12.568C16.3759 12.552 16.2479 12.544 16.1199 12.544C14.4879 12.544 13.1599 13.872 13.1599 15.504C13.1599 15.672 13.1759 15.832 13.1999 15.992C13.2879 16.512 12.9359 17.008 12.4079 17.096C12.3439 17.112 12.2879 17.112 12.2399 17.112L12.2399 17.112ZM16.1039 20.384C15.0239 20.384 13.9999 20.04 13.1439 19.384C12.7199 19.064 12.6399 18.464 12.9599 18.04C13.2799 17.616 13.8799 17.536 14.3039 17.856C14.8239 18.248 15.4399 18.464 16.0959 18.464C17.7279 18.464 19.0559 17.136 19.0559 15.504C19.0559 14.736 18.7679 14.008 18.2319 13.456C17.8639 13.072 17.8799 12.464 18.2639 12.096C18.6479 11.728 19.2559 11.744 19.6239 12.128C20.4959 13.04 20.9759 14.24 20.9759 15.504C20.9839 18.2 18.7999 20.384 16.1039 20.384L16.1039 20.384Z" fill="rgb(56,56,56)" fill-rule="nonzero" />
	<path id="矢量 37" d="M6.56789 26.128C6.3279 26.128 6.0799 26.04 5.8959 25.856C5.5199 25.488 5.5119 24.88 5.8879 24.496L24.9279 5.152C25.2959 4.776 25.9039 4.768 26.2879 5.144C26.6639 5.512 26.6719 6.12 26.2959 6.504L7.2479 25.84C7.0639 26.032 6.8159 26.128 6.5679 26.128L6.56789 26.128Z" fill="rgb(56,56,56)" fill-rule="nonzero" />
</svg>
