<?xml version="1.0" encoding="UTF-8"?>
<svg id="_图标" data-name="图标" xmlns="http://www.w3.org/2000/svg" viewBox="0 0 32 32">
  <defs>
    <style>
      .cls-1 {
        fill: #57b8ff;
      }
    </style>
  </defs>
  <path class="cls-1" d="M16.38,7.66c-8.08,0-11.32,4.25-15.38,8.5,4.06,4.25,7.3,8.5,15.38,8.5s11.36-4.61,14.62-8.5c-3.26-3.89-6.55-8.5-14.62-8.5ZM16,22.25c-3.48,0-6.29-2.73-6.29-6.09s2.82-6.09,6.29-6.09,6.29,2.73,6.29,6.09-2.82,6.09-6.29,6.09Z"/>
  <path class="cls-1" d="M3.76,28.75c-.2,0-.39-.08-.54-.23-.29-.3-.28-.77.02-1.06L28.05,3.46c.3-.29.77-.28,1.06.02.29.3.28.77-.02,1.06L4.28,28.54c-.15.14-.33.21-.52.21Z"/>
</svg>