<svg viewBox="0 0 32 32" xmlns="http://www.w3.org/2000/svg" xmlns:xlink="http://www.w3.org/1999/xlink" width="32" height="32" fill="none">
	<rect id="2d_inputOutput" width="32" height="32" x="0" y="0" />
	<path id="矢量 38" d="M11.5721 4.86853L11.5721 7.14681C11.4005 6.93375 11.2915 6.69264 11.2453 6.42347L11.2413 6.39653L6.07165 6.39653C5.42144 6.39653 4.88904 6.87593 4.84743 7.48204L4.84492 7.55887L4.84492 26.6222C4.84492 27.2642 5.39437 27.7845 6.07165 27.7845L23.7351 27.7845C23.7813 27.7845 23.8264 27.7825 23.8715 27.7775L23.8715 29.309C23.8264 29.3115 23.7813 29.3125 23.7351 29.3125L6.07165 29.3125C4.58123 29.3125 3.37305 28.1552 3.37305 26.7269L3.37305 7.45411C3.37305 6.02588 4.58123 4.86853 6.07165 4.86853L11.5721 4.86853ZM23.7351 4.86853C25.2256 4.86853 26.4337 6.02588 26.4337 7.45411L26.4337 10.356L24.9614 10.356L24.9614 7.55887C24.9614 6.94328 24.4575 6.43993 23.8194 6.39902L23.7351 6.39653L19.2589 6.39603L19.2589 4.86853L23.7351 4.86853Z" fill="rgb(56,56,56)" fill-rule="nonzero" />
	<path id="矢量 39" d="M25.4245 11.8684C25.5476 11.8686 25.6558 11.9086 25.7494 11.9881L29.1664 14.898C29.1939 14.9214 29.2185 14.9476 29.2404 14.9764C29.2622 15.0052 29.2806 15.0359 29.2957 15.0687C29.3109 15.1015 29.3223 15.1355 29.33 15.1707C29.3377 15.206 29.3415 15.2416 29.3414 15.2777C29.3413 15.3138 29.3374 15.3494 29.3295 15.3846C29.3217 15.4198 29.3102 15.4538 29.2949 15.4865C29.2797 15.5192 29.2611 15.5499 29.2392 15.5786C29.2172 15.6073 29.1925 15.6334 29.1648 15.6567L25.7278 18.5661C25.6913 18.597 25.6512 18.6222 25.6074 18.6416C25.5636 18.6611 25.518 18.674 25.4705 18.6804C25.423 18.6869 25.3756 18.6865 25.3282 18.6794C25.2808 18.6723 25.2353 18.6587 25.1919 18.6386C25.1484 18.6185 25.1086 18.5928 25.0726 18.5613C25.0365 18.5299 25.0056 18.4941 24.9799 18.4538C24.9542 18.4136 24.9347 18.3705 24.9214 18.3247C24.908 18.2789 24.9015 18.2321 24.9016 18.1844L24.9081 16.3142L16.3757 16.3147C16.3099 16.3147 16.2446 16.3083 16.1801 16.2956C16.1155 16.2828 16.0528 16.2638 15.992 16.2388C15.9312 16.2137 15.8734 16.183 15.8186 16.1466C15.7639 16.1102 15.7133 16.0688 15.6667 16.0225C15.6202 15.9762 15.5786 15.9258 15.542 15.8713C15.5054 15.8168 15.4746 15.7593 15.4494 15.6988C15.4242 15.6383 15.4052 15.5759 15.3923 15.5117C15.3795 15.4474 15.373 15.3825 15.373 15.317L15.373 15.2781C15.373 15.2126 15.3795 15.1477 15.3923 15.0835C15.4052 15.0192 15.4242 14.9568 15.4494 14.8963C15.4746 14.8358 15.5054 14.7783 15.542 14.7238C15.5786 14.6693 15.6202 14.6189 15.6667 14.5726C15.7133 14.5263 15.7639 14.4849 15.8186 14.4485C15.8734 14.4121 15.9312 14.3814 15.992 14.3563C16.0528 14.3313 16.1155 14.3123 16.1801 14.2996C16.2446 14.2868 16.3099 14.2804 16.3757 14.2804L24.9152 14.2799L24.9217 12.3658C24.9218 12.333 24.9251 12.3005 24.9316 12.2684C24.9381 12.2363 24.9478 12.2051 24.9605 12.1749C24.9732 12.1446 24.9887 12.1159 25.0071 12.0887C25.0255 12.0615 25.0464 12.0364 25.0698 12.0133C25.0931 11.9902 25.1185 11.9696 25.146 11.9515C25.1734 11.9334 25.2024 11.9181 25.2329 11.9057C25.2634 11.8932 25.2948 11.8839 25.3271 11.8776C25.3594 11.8714 25.3921 11.8683 25.425 11.8684L25.4245 11.8684ZM19.2899 19.3513C19.167 19.3516 19.0589 19.3915 18.9655 19.471L15.5485 22.3808C15.521 22.4043 15.4963 22.4304 15.4745 22.4592C15.4526 22.4879 15.4341 22.5187 15.419 22.5515C15.4039 22.5843 15.3924 22.6183 15.3847 22.6535C15.377 22.6887 15.3732 22.7244 15.3732 22.7604C15.3733 22.7965 15.3772 22.8321 15.385 22.8673C15.3928 22.9026 15.4043 22.9365 15.4196 22.9693C15.4348 23.002 15.4533 23.0327 15.4753 23.0614C15.4972 23.0902 15.5219 23.1162 15.5495 23.1396L18.9866 26.0489C19.0231 26.0798 19.0632 26.105 19.107 26.1245C19.1507 26.1439 19.1964 26.1568 19.2439 26.1633C19.2913 26.1697 19.3388 26.1694 19.3862 26.1622C19.4336 26.1551 19.479 26.1415 19.5225 26.1215C19.566 26.1014 19.6057 26.0756 19.6418 26.0442C19.6778 26.0128 19.7087 25.9769 19.7344 25.9367C19.7602 25.8964 19.7797 25.8534 19.793 25.8076C19.8063 25.7617 19.8129 25.715 19.8127 25.6673L19.8062 23.7971L28.3387 23.7976C28.4045 23.7976 28.4697 23.7912 28.5343 23.7784C28.5989 23.7656 28.6615 23.7467 28.7224 23.7216C28.7832 23.6966 28.841 23.6658 28.8957 23.6294C28.9505 23.593 29.0011 23.5517 29.0476 23.5054C29.0942 23.459 29.1358 23.4086 29.1723 23.3542C29.2089 23.2997 29.2398 23.2422 29.265 23.1817C29.2902 23.1211 29.3092 23.0588 29.3221 22.9945C29.3349 22.9303 29.3413 22.8654 29.3413 22.7999L29.3413 22.761C29.3413 22.6954 29.3349 22.6306 29.322 22.5663C29.3092 22.5021 29.2902 22.4397 29.265 22.3791C29.2398 22.3186 29.2089 22.2611 29.1723 22.2067C29.1358 22.1522 29.0942 22.1018 29.0476 22.0555C29.0011 22.0091 28.9505 21.9678 28.8957 21.9314C28.841 21.895 28.7832 21.8643 28.7224 21.8392C28.6615 21.8141 28.5989 21.7952 28.5343 21.7824C28.4697 21.7696 28.4045 21.7632 28.3387 21.7632L19.7992 21.7627L19.7927 19.8486C19.7926 19.8159 19.7893 19.7834 19.7828 19.7513C19.7762 19.7192 19.7666 19.6881 19.7539 19.6578C19.7413 19.6276 19.7257 19.5989 19.7074 19.5717C19.689 19.5445 19.6681 19.5194 19.6448 19.4963C19.6214 19.4732 19.5961 19.4526 19.5686 19.4345C19.5412 19.4164 19.5123 19.4011 19.4818 19.3887C19.4514 19.3762 19.42 19.3669 19.3877 19.3606C19.3554 19.3543 19.3228 19.3512 19.2899 19.3513Z" fill="rgb(56,56,56)" fill-rule="nonzero" />
	<path id="矢量 40" d="M17.5389 2.86847L12.2304 2.86847C11.2047 2.86847 10.373 3.65018 10.373 4.61447L10.373 6.11104C10.373 7.07533 11.2047 7.85704 12.2304 7.85704L17.5389 7.85704C18.5646 7.85704 19.3968 7.07533 19.3968 6.11104L19.3968 4.61447C19.3968 3.65018 18.5646 2.86847 17.5389 2.86847L17.5389 2.86847ZM12.2304 4.36504L17.5389 4.36504C17.6853 4.36504 17.8046 4.47678 17.8046 4.61447L17.8046 6.11104C17.8046 6.24872 17.6853 6.36047 17.5389 6.36047L12.2304 6.36047C12.0841 6.36047 11.9652 6.24872 11.9652 6.11104L11.9652 4.61447C11.9652 4.47678 12.0841 4.36504 12.2309 4.36504L12.2304 4.36504Z" fill="rgb(56,56,56)" fill-rule="nonzero" />
</svg>
