<?xml version="1.0" encoding="UTF-8"?>
<svg id="_图标" data-name="图标" xmlns="http://www.w3.org/2000/svg" viewBox="0 0 32 32">
  <defs>
    <style>
      .cls-1 {
        fill: #ba9600;
      }
    </style>
  </defs>
  <path class="cls-1" d="M14.21,17.79L2.34,11.09c-.47-.26-.46-.71.03-1L14.62,2.79c.48-.29,1.25-.31,1.72-.04l11.87,6.7c.47.26.46.71-.03,1l-12.25,7.3c-.48.29-1.25.31-1.72.04"/>
  <path class="cls-1" d="M26.23,25.77h-2.25c-.42,0-.72.39-.63.79l.8,3.43c.07.29.33.5.63.5h.68c.3,0,.56-.21.63-.5l.76-3.43c.09-.4-.22-.79-.63-.79Z"/>
  <path class="cls-1" d="M27.68,25.55c-.21,0-.42-.11-.54-.31-.18-.3-.08-.68.22-.86,1.24-.73,2.01-2.08,2.01-3.52,0-2.26-1.83-4.09-4.09-4.09s-4.09,1.84-4.09,4.09c0,1.44.74,2.75,1.97,3.5.3.18.39.56.21.86-.18.3-.56.39-.86.21-1.61-.98-2.57-2.69-2.57-4.57,0-2.95,2.4-5.34,5.34-5.34s5.34,2.4,5.34,5.34c0,1.88-1.01,3.64-2.62,4.6-.1.06-.21.09-.32.09Z"/>
  <path class="cls-1" d="M29.51,25.63c-.16,0-.32-.06-.44-.18l-8.45-8.45c-.24-.24-.24-.64,0-.88.24-.25.64-.25.88,0l8.45,8.45c.24.24.24.64,0,.88-.12.12-.28.18-.44.18Z"/>
  <path class="cls-1" d="M21.06,25.63c-.16,0-.32-.06-.44-.18-.24-.24-.24-.64,0-.88l8.45-8.45c.24-.25.64-.25.88,0,.24.24.24.64,0,.88l-8.45,8.45c-.12.12-.28.18-.44.18Z"/>
</svg>