<svg viewBox="0 0 32 32" xmlns="http://www.w3.org/2000/svg" xmlns:xlink="http://www.w3.org/1999/xlink" width="32" height="32" fill="none">
	<rect id="2d_layer" width="32" height="32" x="0" y="0" />
	<path id="矢量 23" d="M29.4667 9.73331L17.4667 3.73331C16.6667 3.19998 15.7334 3.19998 14.9334 3.73331L2.93337 9.73331C2.93337 9.86665 2.80003 9.99998 2.6667 9.99998C2.53337 10.5333 2.6667 11.0666 3.0667 11.2L7.33336 13.3333L3.73337 15.2C3.33336 15.4666 3.0667 15.8666 3.0667 16.2666C3.0667 16.6666 3.33336 17.2 3.73337 17.3333L6.80003 18.9333L3.73337 20.5333C3.33336 20.8 3.0667 21.2 3.0667 21.6C3.0667 22 3.33336 22.5333 3.73337 22.6666L14.9334 28.2666C15.3334 28.5333 15.7334 28.6666 16.1334 28.6666C16.5334 28.6666 17.0667 28.5333 17.4667 28.2666L28.6667 22.6666C29.0667 22.4 29.3334 22 29.3334 21.6C29.3334 21.2 29.0667 20.6666 28.6667 20.5333L25.6 18.9333L28.6667 17.3333C29.0667 17.0666 29.3334 16.6666 29.3334 16.2666C29.3334 15.8666 29.0667 15.3333 28.6667 15.2L25.2 13.3333L29.4667 11.2C29.6 11.0666 29.7334 11.0666 29.7334 10.9333C29.8667 10.4 29.7334 9.86665 29.4667 9.73331ZM26.9334 21.6L16.6667 26.8C16.4 26.9333 16.1334 26.9333 15.8667 26.8L5.60003 21.6L8.93336 19.8666L15.0667 22.9333C15.4667 23.2 15.8667 23.3333 16.2667 23.3333C16.6667 23.3333 17.2 23.2 17.6 22.9333L23.7334 19.8666L26.9334 21.6L26.9334 21.6ZM26.9334 16.2666L23.6 18L21.6 18.9333L16.5334 21.4666C16.2667 21.6 16 21.6 15.7334 21.4666L10.6667 18.9333L8.6667 18L5.33336 16.2666L9.33336 14.2666L15.0667 17.2C15.8667 17.7333 16.8 17.7333 17.6 17.2L23.3334 14.2666L26.9334 16.2666Z" fill="rgb(56,56,56)" fill-rule="nonzero" />
</svg>
