<?xml version="1.0" encoding="UTF-8"?>
<svg id="_图标" data-name="图标" xmlns="http://www.w3.org/2000/svg" viewBox="0 0 32 32">
  <defs>
    <style>
      .cls-1 {
        fill: #57b8ff;
      }
    </style>
  </defs>
  <path class="cls-1" d="M14.99,17.85L3.73,11.49c-.44-.25-.43-.68.03-.95L15.38,3.62c.46-.27,1.19-.29,1.63-.04l11.26,6.36c.44.25.43.68-.03.95l-11.62,6.93c-.46.27-1.19.29-1.63.04"/>
  <path class="cls-1" d="M15.77,23.87c-.41,0-.81-.09-1.13-.27l-11.26-6.36c-.36-.2-.49-.66-.29-1.02.2-.36.66-.49,1.02-.28l11.26,6.36c.19.11.64.12.88-.03l11.62-6.93c.36-.21.82-.1,1.03.26s.09.82-.26,1.03l-11.62,6.93c-.36.21-.81.32-1.25.32Z"/>
  <path class="cls-1" d="M15.77,29.35c-.41,0-.81-.09-1.13-.27l-11.26-6.36c-.36-.2-.49-.66-.29-1.02.2-.36.66-.49,1.02-.28l11.26,6.36c.19.11.64.12.88-.03l11.62-6.93c.36-.21.82-.09,1.03.26.21.36.09.82-.26,1.03l-11.62,6.93c-.36.21-.81.32-1.25.32Z"/>
</svg>