<?xml version="1.0" encoding="UTF-8"?>
<svg id="_图标" data-name="图标" xmlns="http://www.w3.org/2000/svg" viewBox="0 0 32 32">
  <defs>
    <style>
      .cls-1 {
        fill: #57b8ff;
      }
    </style>
  </defs>
  <path class="cls-1" d="M14.21,17.88L2.34,11.18c-.47-.26-.46-.71.03-1L14.62,2.89c.48-.29,1.25-.31,1.72-.04l11.87,6.7c.47.26.46.71-.03,1l-12.25,7.29c-.48.29-1.25.31-1.72.04"/>
  <path class="cls-1" d="M15.03,24.19c-.42,0-.84-.09-1.17-.28L1.99,17.21c-.36-.2-.49-.66-.29-1.03.2-.36.66-.49,1.03-.29l11.87,6.7c.23.13.72.11.97-.03.36-.21.82-.1,1.03.26.21.36.1.82-.26,1.03-.37.22-.84.33-1.3.33Z"/>
  <path class="cls-1" d="M15.03,29.96c-.42,0-.84-.09-1.17-.28L1.99,22.98c-.36-.2-.49-.66-.29-1.03.2-.36.66-.49,1.03-.29l11.87,6.7c.23.13.72.11.97-.03.36-.21.82-.09,1.03.26.21.36.1.82-.26,1.03-.37.22-.84.33-1.3.33Z"/>
  <g>
    <path class="cls-1" d="M26.23,25.87h-2.25c-.42,0-.72.39-.63.79l.8,3.43c.07.29.33.5.63.5h.68c.3,0,.56-.21.63-.5l.76-3.43c.09-.4-.22-.79-.63-.79Z"/>
    <path class="cls-1" d="M25.11,15.61c-2.7,0-4.89,2.19-4.89,4.89,0,1.77.94,3.33,2.35,4.18h.95c-.85-.53-1.43-1.47-1.43-2.56,0-1.67,1.35-3.02,3.02-3.02s3.02,1.35,3.02,3.02c0,1.09-.59,2.05-1.46,2.58h.93c1.44-.85,2.4-2.41,2.4-4.21,0-2.7-2.19-4.89-4.89-4.89Z"/>
  </g>
</svg>