<?xml version="1.0" encoding="UTF-8"?>
<svg id="_图标" data-name="图标" xmlns="http://www.w3.org/2000/svg" viewBox="0 0 32 32">
  <defs>
    <style>
      .cls-1 {
        fill: #57b8ff;
      }
    </style>
  </defs>
  <path class="cls-1" d="M14.21,17.87L2.34,11.17c-.47-.26-.46-.71.03-1L14.62,2.87c.48-.29,1.25-.31,1.72-.04l11.87,6.7c.47.26.46.71-.03,1l-12.25,7.3c-.48.29-1.25.31-1.72.04"/>
  <path class="cls-1" d="M15.03,24.17c-.42,0-.84-.09-1.18-.28L1.99,17.19c-.36-.2-.49-.66-.29-1.03.2-.36.67-.49,1.03-.29l11.87,6.7c.24.13.71.12.97-.03.36-.21.82-.1,1.03.26.21.36.1.82-.26,1.03-.37.22-.84.33-1.3.33Z"/>
  <path class="cls-1" d="M15.03,29.94c-.42,0-.84-.09-1.17-.28L1.99,22.96c-.36-.2-.49-.66-.29-1.03.2-.36.67-.49,1.03-.29l11.87,6.7c.24.13.71.12.97-.03.36-.21.82-.1,1.03.26.21.36.1.82-.26,1.03-.37.22-.84.33-1.3.33Z"/>
  <path class="cls-1" d="M26.23,25.85h-2.25c-.42,0-.72.39-.63.79l.8,3.43c.07.29.33.5.63.5h.68c.3,0,.56-.21.63-.5l.76-3.43c.09-.4-.22-.79-.63-.79Z"/>
  <path class="cls-1" d="M27.68,25.58c-.2,0-.39-.1-.49-.28-.16-.27-.07-.62.2-.79,1.26-.74,2.04-2.11,2.04-3.57,0-2.28-1.86-4.14-4.14-4.14s-4.14,1.86-4.14,4.14c0,1.46.75,2.78,1.99,3.54.27.16.36.52.19.79-.16.27-.52.36-.79.19-1.59-.97-2.54-2.66-2.54-4.52,0-2.92,2.37-5.29,5.29-5.29s5.29,2.37,5.29,5.29c0,1.86-1,3.61-2.6,4.56-.09.05-.19.08-.29.08Z"/>
  <path class="cls-1" d="M29.51,25.66c-.15,0-.29-.06-.41-.17l-8.45-8.45c-.22-.22-.22-.59,0-.81.22-.22.59-.22.81,0l8.45,8.45c.22.22.22.59,0,.81-.11.11-.26.17-.41.17Z"/>
  <path class="cls-1" d="M21.06,25.66c-.15,0-.29-.06-.41-.17-.22-.22-.22-.59,0-.81l8.45-8.45c.22-.22.59-.22.81,0,.22.22.22.59,0,.81l-8.45,8.45c-.11.11-.26.17-.41.17Z"/>
</svg>