<svg viewBox="0 0 32 32" xmlns="http://www.w3.org/2000/svg" xmlns:xlink="http://www.w3.org/1999/xlink" width="32" height="32" fill="none">
	<rect id="2d_layerSwitchOn" width="32" height="32" x="0" y="0" />
	<path id="矢量 62" d="M5.1499 12.85C5.1499 13.0258 5.15421 13.2015 5.16284 13.377C5.17146 13.5526 5.18439 13.7278 5.20162 13.9028C5.21885 14.0777 5.24036 14.2521 5.26615 14.426C5.29195 14.5999 5.32199 14.773 5.35628 14.9454C5.39057 15.1178 5.42907 15.2892 5.47179 15.4598C5.5145 15.6303 5.56136 15.7996 5.61239 15.9678C5.66342 16.136 5.71854 16.3029 5.77776 16.4684C5.83697 16.6339 5.90022 16.7979 5.96748 16.9603C6.03475 17.1227 6.10596 17.2833 6.18112 17.4422C6.25627 17.6011 6.33528 17.7581 6.41814 17.9131C6.501 18.0681 6.58762 18.221 6.67799 18.3718C6.76835 18.5226 6.86237 18.671 6.96002 18.8172C7.05768 18.9633 7.15887 19.107 7.26358 19.2482C7.36829 19.3894 7.4764 19.5279 7.58791 19.6638C7.69942 19.7997 7.8142 19.9327 7.93225 20.063C8.05029 20.1932 8.17146 20.3205 8.29576 20.4448C8.42005 20.5691 8.54732 20.6902 8.67756 20.8083C8.80781 20.9263 8.94087 21.0411 9.07675 21.1526C9.21263 21.2641 9.35116 21.3722 9.49234 21.4769C9.63353 21.5817 9.7772 21.6828 9.92336 21.7805C10.0695 21.8782 10.218 21.9722 10.3687 22.0625C10.5195 22.1529 10.6724 22.2395 10.8274 22.3224C10.9825 22.4052 11.1394 22.4843 11.2983 22.5594C11.4572 22.6346 11.6179 22.7058 11.7803 22.773C11.9427 22.8403 12.1066 22.9036 12.2721 22.9628C12.4376 23.022 12.6045 23.0771 12.7727 23.1281C12.9409 23.1792 13.1103 23.226 13.2808 23.2687C13.4513 23.3115 13.6227 23.35 13.7951 23.3842C13.9675 23.4185 14.1407 23.4486 14.3146 23.4744C14.4884 23.5002 14.6628 23.5217 14.8378 23.5389C15.0127 23.5561 15.1879 23.5691 15.3635 23.5777C15.5391 23.5863 15.7147 23.5906 15.8905 23.5906C16.0663 23.5906 16.242 23.5863 16.4175 23.5777C16.5931 23.5691 16.7684 23.5561 16.9433 23.5389C17.1182 23.5217 17.2926 23.5002 17.4665 23.4744C17.6404 23.4486 17.8135 23.4185 17.9859 23.3842C18.1583 23.35 18.3298 23.3115 18.5003 23.2687C18.6708 23.226 18.8402 23.1792 19.0084 23.1281C19.1766 23.0771 19.3434 23.022 19.5089 22.9628C19.6744 22.9036 19.8384 22.8403 20.0008 22.773C20.1632 22.7058 20.3238 22.6346 20.4827 22.5594C20.6416 22.4843 20.7986 22.4052 20.9536 22.3224C21.1086 22.2395 21.2615 22.1529 21.4123 22.0625C21.5631 21.9722 21.7115 21.8782 21.8577 21.7805C22.0039 21.6828 22.1475 21.5817 22.2887 21.4769C22.4299 21.3722 22.5684 21.2641 22.7043 21.1526C22.8402 21.0411 22.9732 20.9263 23.1035 20.8083C23.2337 20.6902 23.361 20.5691 23.4853 20.4448C23.6096 20.3205 23.7308 20.1932 23.8488 20.063C23.9669 19.9327 24.0816 19.7997 24.1931 19.6638C24.3047 19.5279 24.4128 19.3894 24.5175 19.2482C24.6222 19.107 24.7234 18.9633 24.821 18.8172C24.9187 18.671 25.0127 18.5226 25.1031 18.3718C25.1934 18.221 25.2801 18.0681 25.3629 17.9131C25.4458 17.7581 25.5248 17.6011 25.5999 17.4422C25.6751 17.2833 25.7463 17.1227 25.8136 16.9603C25.8808 16.7979 25.9441 16.6339 26.0033 16.4684C26.0625 16.3029 26.1176 16.136 26.1687 15.9678C26.2197 15.7996 26.2666 15.6303 26.3093 15.4598C26.352 15.2892 26.3905 15.1178 26.4248 14.9454C26.4591 14.773 26.4891 14.5999 26.5149 14.426C26.5407 14.2521 26.5622 14.0777 26.5794 13.9028C26.5967 13.7278 26.6096 13.5526 26.6182 13.377C26.6268 13.2015 26.6312 13.0258 26.6312 12.85C26.6312 12.6742 26.6268 12.4985 26.6182 12.323C26.6096 12.1474 26.5967 11.9722 26.5794 11.7972C26.5622 11.6223 26.5407 11.4479 26.5149 11.274C26.4891 11.1001 26.4591 10.927 26.4248 10.7546C26.3905 10.5822 26.352 10.4108 26.3093 10.2402C26.2666 10.0697 26.2197 9.90037 26.1687 9.73216C26.1176 9.56395 26.0625 9.39709 26.0033 9.23159C25.9441 9.06609 25.8808 8.90214 25.8136 8.73974C25.7463 8.57734 25.6751 8.41669 25.5999 8.25779C25.5248 8.09889 25.4458 7.94193 25.3629 7.7869C25.2801 7.63188 25.1934 7.47898 25.1031 7.32821C25.0127 7.17744 24.9187 7.02898 24.821 6.88283C24.7234 6.73667 24.6222 6.593 24.5175 6.45182C24.4128 6.31063 24.3047 6.1721 24.1931 6.03622C24.0816 5.90034 23.9669 5.76728 23.8488 5.63704C23.7308 5.50679 23.6096 5.37953 23.4853 5.25523C23.361 5.13094 23.2337 5.00977 23.1035 4.89172C22.9732 4.77368 22.8402 4.6589 22.7043 4.54738C22.5684 4.43587 22.4299 4.32776 22.2887 4.22305C22.1475 4.11834 22.0039 4.01715 21.8577 3.9195C21.7115 3.82184 21.5631 3.72783 21.4123 3.63746C21.2615 3.54709 21.1086 3.46048 20.9536 3.37761C20.7986 3.29475 20.6416 3.21574 20.4827 3.14059C20.3238 3.06543 20.1632 2.99422 20.0008 2.92696C19.8384 2.85969 19.6744 2.79645 19.5089 2.73723C19.3434 2.67801 19.1766 2.62289 19.0084 2.57186C18.8402 2.52084 18.6708 2.47397 18.5003 2.43126C18.3298 2.38855 18.1583 2.35005 17.9859 2.31575C17.8135 2.28146 17.6404 2.25142 17.4665 2.22563C17.2926 2.19983 17.1182 2.17832 16.9433 2.16109C16.7684 2.14386 16.5931 2.13094 16.4175 2.12231C16.242 2.11369 16.0663 2.10938 15.8905 2.10938C15.7147 2.10938 15.5391 2.11369 15.3635 2.12231C15.1879 2.13094 15.0127 2.14386 14.8378 2.16109C14.6628 2.17832 14.4884 2.19983 14.3146 2.22563C14.1407 2.25142 13.9675 2.28146 13.7951 2.31575C13.6227 2.35005 13.4513 2.38855 13.2808 2.43126C13.1103 2.47397 12.9409 2.52084 12.7727 2.57186C12.6045 2.62289 12.4376 2.67801 12.2721 2.73723C12.1066 2.79645 11.9427 2.85969 11.7803 2.92696C11.6179 2.99422 11.4572 3.06543 11.2983 3.14059C11.1394 3.21574 10.9825 3.29475 10.8274 3.37761C10.6724 3.46048 10.5195 3.54709 10.3687 3.63746C10.218 3.72783 10.0695 3.82184 9.92336 3.9195C9.7772 4.01715 9.63353 4.11834 9.49234 4.22305C9.35116 4.32776 9.21263 4.43587 9.07675 4.54738C8.94087 4.6589 8.80781 4.77368 8.67756 4.89172C8.54732 5.00977 8.42005 5.13094 8.29576 5.25523C8.17146 5.37953 8.05029 5.50679 7.93225 5.63704C7.8142 5.76728 7.69942 5.90034 7.58791 6.03622C7.4764 6.1721 7.36829 6.31063 7.26358 6.45182C7.15886 6.593 7.05768 6.73667 6.96002 6.88283C6.86237 7.02898 6.76835 7.17744 6.67799 7.32821C6.58762 7.47898 6.501 7.63188 6.41814 7.7869C6.33528 7.94193 6.25627 8.09889 6.18112 8.25779C6.10596 8.41669 6.03475 8.57734 5.96748 8.73974C5.90022 8.90214 5.83697 9.06609 5.77776 9.23159C5.71854 9.39709 5.66342 9.56395 5.61239 9.73216C5.56136 9.90037 5.5145 10.0697 5.47179 10.2402C5.42907 10.4108 5.39057 10.5822 5.35628 10.7546C5.32199 10.927 5.29195 11.1001 5.26615 11.274C5.24036 11.4479 5.21885 11.6223 5.20162 11.7972C5.18439 11.9722 5.17146 12.1474 5.16284 12.323C5.15421 12.4985 5.1499 12.6742 5.1499 12.85Z" fill="rgb(255,241,0)" fill-rule="nonzero" />
	<path id="矢量 62" d="M6.16164 13.328Q6.17337 13.5668 6.19681 13.8047Q6.22024 14.0427 6.25533 14.2792Q6.29042 14.5158 6.33707 14.7503Q6.38371 14.9848 6.44182 15.2168Q6.49992 15.4487 6.56933 15.6776Q6.63874 15.9064 6.7193 16.1315Q6.79985 16.3567 6.89136 16.5776Q6.98287 16.7985 7.08511 17.0147Q7.18735 17.2308 7.30006 17.4417Q7.41278 17.6526 7.53571 17.8577Q7.65864 18.0628 7.79149 18.2616Q7.92434 18.4604 8.06679 18.6525Q8.20922 18.8445 8.36092 19.0294Q8.51262 19.2142 8.6732 19.3914Q8.83377 19.5686 9.00287 19.7377Q9.17194 19.9067 9.34912 20.0673Q9.52629 20.2279 9.71114 20.3796Q9.89597 20.5313 10.088 20.6737Q10.2801 20.8162 10.4789 20.949Q10.6777 21.0819 10.8828 21.2048Q11.088 21.3278 11.2988 21.4405Q11.5097 21.5532 11.7259 21.6554Q11.942 21.7577 12.1629 21.8492Q12.3839 21.9407 12.609 22.0212Q12.8341 22.1018 13.063 22.1712Q13.2918 22.2406 13.5238 22.2987Q13.7557 22.3568 13.9902 22.4035Q14.2247 22.4501 14.4613 22.4852Q14.6978 22.5203 14.9358 22.5437Q15.1737 22.5672 15.4126 22.5789Q15.6514 22.5906 15.8905 22.5906Q16.1297 22.5906 16.3685 22.5789Q16.6073 22.5672 16.8453 22.5437Q17.0832 22.5203 17.3198 22.4852Q17.5563 22.4501 17.7908 22.4035Q18.0253 22.3568 18.2573 22.2987Q18.4893 22.2406 18.7181 22.1712Q18.9469 22.1018 19.172 22.0212Q19.3972 21.9407 19.6181 21.8492Q19.839 21.7577 20.0552 21.6554Q20.2714 21.5532 20.4822 21.4405Q20.6931 21.3278 20.8982 21.2048Q21.1033 21.0819 21.3021 20.949Q21.501 20.8162 21.693 20.6737Q21.8851 20.5313 22.0699 20.3796Q22.2547 20.2279 22.4319 20.0673Q22.6091 19.9067 22.7782 19.7377Q22.9473 19.5686 23.1079 19.3914Q23.2685 19.2142 23.4201 19.0294Q23.5718 18.8446 23.7143 18.6525Q23.8567 18.4604 23.9896 18.2616Q24.1224 18.0628 24.2453 17.8577Q24.3683 17.6526 24.481 17.4417Q24.5937 17.2308 24.6959 17.0147Q24.7982 16.7984 24.8897 16.5776Q24.9812 16.3566 25.0618 16.1315Q25.1423 15.9064 25.2117 15.6775Q25.2811 15.4487 25.3392 15.2168Q25.3973 14.9848 25.444 14.7503Q25.4906 14.5158 25.5257 14.2793Q25.5608 14.0427 25.5843 13.8047Q25.6077 13.5668 25.6194 13.3279Q25.6312 13.0891 25.6312 12.85Q25.6312 12.6109 25.6194 12.372Q25.6077 12.1332 25.5843 11.8952Q25.5608 11.6573 25.5257 11.4207Q25.4906 11.1842 25.444 10.9497Q25.3973 10.7152 25.3392 10.4832Q25.2811 10.2513 25.2117 10.0224Q25.1423 9.79364 25.0618 9.56848Q24.9812 9.34336 24.8897 9.12242Q24.7982 8.90152 24.6959 8.68535Q24.5937 8.46918 24.481 8.2583Q24.3683 8.04746 24.2453 7.84232Q24.1224 7.63723 23.9896 7.43839Q23.8567 7.23957 23.7143 7.04752Q23.5718 6.85545 23.4201 6.67061Q23.2684 6.48576 23.1079 6.3086Q22.9473 6.13142 22.7782 5.96234Q22.6091 5.79325 22.4319 5.63267Q22.2548 5.4721 22.0699 5.32039Q21.8851 5.1687 21.693 5.02626Q21.501 4.88382 21.3021 4.75097Q21.1033 4.61812 20.8982 4.49519Q20.6931 4.37225 20.4822 4.25954Q20.2713 4.14681 20.0552 4.04458Q19.839 3.94234 19.6181 3.85084Q19.3972 3.75933 19.172 3.67877Q18.9469 3.59821 18.7181 3.5288Q18.4893 3.45939 18.2573 3.40129Q18.0254 3.34319 17.7908 3.29654Q17.5563 3.24989 17.3198 3.2148Q17.0832 3.17972 16.8453 3.15628Q16.6073 3.13284 16.3685 3.12111Q16.1296 3.10938 15.8905 3.10938Q15.6514 3.10938 15.4126 3.12111Q15.1737 3.13284 14.9358 3.15628Q14.6978 3.17972 14.4613 3.2148Q14.2247 3.24989 13.9902 3.29654Q13.7557 3.34319 13.5237 3.40129Q13.2918 3.45939 13.063 3.5288Q12.8341 3.59822 12.609 3.67877Q12.3839 3.75933 12.163 3.85084Q11.942 3.94234 11.7259 4.04458Q11.5097 4.14681 11.2988 4.25954Q11.0879 4.37226 10.8828 4.49519Q10.6777 4.61812 10.4789 4.75097Q10.2801 4.88382 10.088 5.02626Q9.89598 5.1687 9.71114 5.32039Q9.5263 5.47209 9.34912 5.63267Q9.17195 5.79326 9.00287 5.96234Q8.83378 6.13142 8.6732 6.3086Q8.51261 6.48578 8.36092 6.67061Q8.20923 6.85545 8.06678 7.04752Q7.92434 7.23958 7.79149 7.4384Q7.65865 7.63722 7.53571 7.84232Q7.41278 8.04742 7.30006 8.2583Q7.18734 8.46919 7.08511 8.68534Q6.98287 8.90151 6.89136 9.12242Q6.79986 9.34334 6.7193 9.56848Q6.63874 9.79362 6.56933 10.0224Q6.49992 10.2513 6.44182 10.4832Q6.38372 10.7152 6.33707 10.9497Q6.29042 11.1842 6.25533 11.4208Q6.22024 11.6573 6.19681 11.8953Q6.17337 12.1332 6.16164 12.372Q6.1499 12.6109 6.1499 12.85Q6.1499 13.0891 6.16164 13.328ZM4.16404 13.4261Q4.1499 13.1382 4.1499 12.85Q4.1499 12.5618 4.16404 12.2739Q4.17819 11.986 4.20644 11.6992Q4.23469 11.4124 4.27698 11.1273Q4.31927 10.8422 4.3755 10.5595Q4.43172 10.2768 4.50175 9.99726Q4.57178 9.71768 4.65545 9.44188Q4.73911 9.16607 4.83621 8.8947Q4.93331 8.62333 5.0436 8.35706Q5.1539 8.09078 5.27713 7.83024Q5.40036 7.56969 5.53622 7.31551Q5.67208 7.06133 5.82026 6.81411Q5.96843 6.5669 6.12855 6.32726Q6.28868 6.08762 6.46037 5.85612Q6.63206 5.62461 6.8149 5.40183Q6.99774 5.17903 7.1913 4.96548Q7.38485 4.75192 7.58865 4.54812Q7.79245 4.34433 8.00601 4.15077Q8.21956 3.95721 8.44235 3.77437Q8.66514 3.59153 8.89664 3.41984Q9.12814 3.24815 9.36778 3.08803Q9.60742 2.9279 9.85464 2.77973Q10.1019 2.63156 10.356 2.49569Q10.6102 2.35983 10.8708 2.2366Q11.1313 2.11337 11.3976 2.00308Q11.6639 1.89278 11.9352 1.79568Q12.2066 1.69859 12.4824 1.61492Q12.7582 1.53126 13.0378 1.46123Q13.3174 1.3912 13.6 1.33497Q13.8827 1.27874 14.1678 1.23645Q14.4529 1.19416 14.7397 1.16591Q15.0266 1.13766 15.3144 1.12352Q15.6023 1.10938 15.8905 1.10938Q16.1787 1.10938 16.4666 1.12352Q16.7545 1.13766 17.0413 1.16591Q17.3281 1.19416 17.6132 1.23645Q17.8983 1.27874 18.181 1.33497Q18.4637 1.3912 18.7433 1.46123Q19.0228 1.53125 19.2987 1.61492Q19.5745 1.69859 19.8458 1.79568Q20.1172 1.89278 20.3835 2.00308Q20.6497 2.11337 20.9103 2.2366Q21.1708 2.35982 21.425 2.49569Q21.6792 2.63155 21.9264 2.77973Q22.1736 2.9279 22.4133 3.08803Q22.6529 3.24815 22.8844 3.41984Q23.1159 3.59154 23.3387 3.77438Q23.5615 3.95721 23.775 4.15077Q23.9886 4.34431 24.1924 4.54812Q24.3962 4.75192 24.5898 4.96548Q24.7833 5.17901 24.9662 5.40183Q25.149 5.62459 25.3207 5.85612Q25.4923 6.08756 25.6525 6.32726Q25.8126 6.56692 25.9608 6.81411Q26.109 7.06134 26.2448 7.31551Q26.3807 7.56973 26.5039 7.83023Q26.6272 8.09083 26.7375 8.35706Q26.8478 8.62338 26.9448 8.8947Q27.0419 9.16605 27.1256 9.44188Q27.2093 9.71765 27.2793 9.99726Q27.3493 10.2769 27.4056 10.5595Q27.4618 10.8422 27.5041 11.1273Q27.5464 11.4124 27.5746 11.6992Q27.6029 11.986 27.617 12.2739Q27.6312 12.5618 27.6312 12.85Q27.6312 13.1382 27.617 13.4261Q27.6029 13.714 27.5746 14.0008Q27.5464 14.2876 27.5041 14.5727Q27.4618 14.8578 27.4056 15.1405Q27.3493 15.4232 27.2793 15.7027Q27.2093 15.9823 27.1256 16.2581Q27.0419 16.534 26.9448 16.8053Q26.8478 17.0766 26.7375 17.3429Q26.6272 17.6092 26.5039 17.8698Q26.3807 18.1303 26.2448 18.3845Q26.109 18.6386 25.9608 18.8859Q25.8126 19.1331 25.6525 19.3727Q25.4924 19.6124 25.3207 19.8439Q25.149 20.0754 24.9662 20.2982Q24.7833 20.521 24.5898 20.7345Q24.3962 20.9481 24.1924 21.1519Q23.9886 21.3557 23.7751 21.5492Q23.5615 21.7428 23.3387 21.9256Q23.1159 22.1085 22.8844 22.2802Q22.6529 22.4518 22.4133 22.612Q22.1736 22.7721 21.9264 22.9203Q21.6792 23.0685 21.425 23.2043Q21.1708 23.3402 20.9103 23.4634Q20.6497 23.5866 20.3835 23.6969Q20.1171 23.8072 19.8458 23.9043Q19.5745 24.0014 19.2986 24.0851Q19.0229 24.1687 18.7433 24.2388Q18.4637 24.3088 18.181 24.365Q17.8983 24.4213 17.6132 24.4636Q17.3281 24.5058 17.0413 24.5341Q16.7545 24.5623 16.4666 24.5765Q16.1787 24.5906 15.8905 24.5906Q15.6023 24.5906 15.3144 24.5765Q15.0265 24.5623 14.7397 24.5341Q14.4529 24.5058 14.1678 24.4636Q13.8827 24.4213 13.6 24.365Q13.3174 24.3088 13.0378 24.2388Q12.7582 24.1687 12.4824 24.0851Q12.2065 24.0014 11.9352 23.9043Q11.6639 23.8072 11.3976 23.6969Q11.1314 23.5866 10.8708 23.4634Q10.6103 23.3402 10.356 23.2043Q10.1019 23.0685 9.85464 22.9203Q9.60746 22.7721 9.36778 22.612Q9.12811 22.4518 8.89664 22.2802Q8.66513 22.1084 8.44235 21.9256Q8.21954 21.7428 8.00601 21.5492Q7.79246 21.3557 7.58865 21.1519Q7.38484 20.9481 7.1913 20.7345Q6.99774 20.521 6.8149 20.2982Q6.63206 20.0754 6.46037 19.8439Q6.28868 19.6124 6.12855 19.3727Q5.96843 19.1331 5.82026 18.8859Q5.67208 18.6387 5.53622 18.3845Q5.40036 18.1303 5.27713 17.8698Q5.1539 17.6092 5.0436 17.3429Q4.93331 17.0767 4.83621 16.8053Q4.73912 16.5339 4.65545 16.2581Q4.57179 15.9823 4.50175 15.7027Q4.43172 15.4232 4.3755 15.1405Q4.31927 14.8578 4.27698 14.5727Q4.23469 14.2876 4.20644 14.0008Q4.17819 13.714 4.16404 13.4261Z" fill="rgb(153,153,153)" fill-rule="nonzero" />
	<path id="矢量 63" d="M19.6969 23.9625C19.4 23.9625 19.1625 23.7219 19.1625 23.4281C19.1625 23.1875 19.1313 22.9062 19.1 22.6343C19.0188 21.9219 18.9469 21.3062 19.4094 21.0125C21.3031 19.8 22.4313 17.7375 22.4313 15.4937C22.4313 11.8843 19.4969 8.94998 15.8906 8.94998C12.2844 8.94998 9.35 11.8843 9.35 15.4937C9.35 17.6968 10.4469 19.7375 12.2844 20.9562C12.7625 21.2719 12.7438 22.0062 12.6688 23.0062C12.6563 23.175 12.6438 23.325 12.6438 23.4281C12.6438 23.725 12.4031 23.9625 12.1094 23.9625C11.8156 23.9625 11.575 23.7218 11.575 23.4281C11.575 23.3062 11.5875 23.1281 11.6031 22.925C11.625 22.6469 11.6719 22.025 11.6156 21.7969C9.525 20.3719 8.28125 18.025 8.28125 15.4937C8.28125 11.2969 11.6938 7.88123 15.8906 7.88123C20.0875 7.88123 23.5 11.2969 23.5 15.4937C23.5 18.0562 22.2344 20.4156 20.1094 21.8312C20.1031 21.9906 20.1375 22.2969 20.1625 22.5125C20.1969 22.8156 20.2344 23.1281 20.2344 23.4281C20.2313 23.7219 19.9937 23.9625 19.6969 23.9625Z" fill="rgb(248,165,35)" fill-rule="nonzero" />
	<path id="矢量 64" d="M17.5187 27.7437L14.2875 27.7437C12.7906 27.7437 11.575 26.5281 11.575 25.0312L11.575 23.4281C11.575 23.1312 11.8156 22.8937 12.1093 22.8937L19.6968 22.8937C19.9937 22.8937 20.2312 23.1344 20.2312 23.4281L20.2312 25.0312C20.2312 26.525 19.0156 27.7437 17.5187 27.7437L17.5187 27.7437ZM12.6437 23.9625L12.6437 25.0312C12.6437 25.9375 13.3812 26.675 14.2875 26.675L17.5187 26.675C18.4249 26.675 19.1624 25.9375 19.1624 25.0312L19.1624 23.9625L12.6437 23.9625L12.6437 23.9625ZM19.6968 29.3031L12.1093 29.3031C11.8156 29.3031 11.575 29.0625 11.575 28.7687C11.575 28.4719 11.8156 28.2344 12.1093 28.2344L19.6968 28.2344C19.9937 28.2344 20.2312 28.475 20.2312 28.7687C20.2312 29.0656 19.9937 29.3031 19.6968 29.3031ZM15.8875 18.35C15.75 18.35 15.6125 18.2969 15.5093 18.1937L12.8406 15.525C12.6312 15.3156 12.6312 14.9781 12.8406 14.7687C13.05 14.5594 13.3875 14.5594 13.5968 14.7687L15.8968 17.0687L18 15.0531C18.2125 14.85 18.5499 14.8562 18.7562 15.0687C18.9593 15.2812 18.9531 15.6187 18.7406 15.825L16.2593 18.2C16.1531 18.3 16.0218 18.35 15.8875 18.35Z" fill="rgb(248,165,35)" fill-rule="nonzero" />
	<path id="矢量 65" d="M15.903 23.9625C15.6093 23.9625 15.3687 23.7219 15.3687 23.4281L15.3687 17.8156C15.3687 17.5187 15.6093 17.2812 15.903 17.2812C16.1968 17.2812 16.4374 17.5219 16.4374 17.8156L16.4374 23.4281C16.4374 23.7219 16.1999 23.9625 15.903 23.9625L15.903 23.9625Z" fill="rgb(248,165,35)" fill-rule="nonzero" />
</svg>
