<?xml version="1.0" encoding="UTF-8"?>
<svg id="_图标" data-name="图标" xmlns="http://www.w3.org/2000/svg" viewBox="0 0 32 32">
  <defs>
    <style>
      .cls-1 {
        fill: #57b8ff;
      }
    </style>
  </defs>
  <path class="cls-1" d="M14.11,17.88L2.34,11.24c-.47-.26-.45-.71.03-.99L14.52,3.01c.48-.29,1.24-.3,1.71-.04l11.77,6.64c.46.26.45.71-.03.99l-12.15,7.24c-.48.29-1.24.3-1.71.04"/>
  <path class="cls-1" d="M14.92,24.14c-.42,0-.83-.09-1.17-.28L1.99,17.22c-.36-.2-.49-.66-.28-1.02.2-.36.66-.49,1.02-.28l11.77,6.64c.23.13.71.11.96-.03.35-.21.81-.09,1.02.26s.09.81-.26,1.02c-.37.22-.83.33-1.29.33Z"/>
  <path class="cls-1" d="M14.92,29.86c-.42,0-.83-.09-1.16-.28L1.99,22.94c-.36-.2-.49-.66-.28-1.02.2-.36.66-.49,1.02-.28l11.77,6.64c.23.13.71.11.96-.03.35-.21.81-.09,1.02.26s.09.81-.26,1.02c-.37.22-.83.33-1.29.33Z"/>
  <g>
    <path class="cls-1" d="M24.22,30.59c-1.63,0-3.28-.5-4.61-1.19-.33-.17-.47-.58-.29-.92.17-.33.58-.47.92-.29,2.27,1.17,5.6,1.75,7.56-.46,2.03-2.3,2.02-5.78-.03-7.59-.99-.88-2.35-1.3-3.8-1.2-.37.03-.7-.26-.73-.63-.03-.38.26-.7.63-.73,1.82-.13,3.53.41,4.8,1.54,2.61,2.3,2.67,6.66.15,9.52-1.26,1.42-2.91,1.96-4.6,1.96Z"/>
    <polygon class="cls-1" points="23.68 15.02 19.5 20.4 26.24 21.33 23.68 15.02"/>
  </g>
</svg>