<svg viewBox="0 0 32 32" xmlns="http://www.w3.org/2000/svg" xmlns:xlink="http://www.w3.org/1999/xlink" width="32" height="32" fill="none">
	<rect id="2d_layerSelectedOff" width="32" height="32" x="0" y="0" />
	<path id="矢量 23" d="M29.4667 9.73337L17.4667 3.73337C16.6667 3.20004 15.7334 3.20004 14.9334 3.73337L2.93337 9.73337C2.93337 9.86671 2.80003 10 2.6667 10C2.53337 10.5334 2.6667 11.0667 3.0667 11.2L7.33336 13.3334L3.73337 15.2C3.33336 15.4667 3.0667 15.8667 3.0667 16.2667C3.0667 16.6667 3.33336 17.2 3.73337 17.3334L6.80003 18.9334L3.73337 20.5334C3.33336 20.8 3.0667 21.2 3.0667 21.6C3.0667 22 3.33336 22.5334 3.73337 22.6667L14.9334 28.2667C15.3334 28.5334 15.7334 28.6667 16.1334 28.6667C16.5334 28.6667 17.0667 28.5334 17.4667 28.2667L28.6667 22.6667C29.0667 22.4 29.3334 22 29.3334 21.6C29.3334 21.2 29.0667 20.6667 28.6667 20.5334L25.6 18.9334L28.6667 17.3334C29.0667 17.0667 29.3334 16.6667 29.3334 16.2667C29.3334 15.8667 29.0667 15.3334 28.6667 15.2L25.2 13.3334L29.4667 11.2C29.6 11.0667 29.7334 11.0667 29.7334 10.9334C29.8667 10.4 29.7334 9.86671 29.4667 9.73337ZM26.9334 21.6L16.6667 26.8C16.4 26.9334 16.1334 26.9334 15.8667 26.8L5.60003 21.6L8.93336 19.8667L15.0667 22.9334C15.4667 23.2 15.8667 23.3334 16.2667 23.3334C16.6667 23.3334 17.2 23.2 17.6 22.9334L23.7334 19.8667L26.9334 21.6L26.9334 21.6ZM26.9334 16.2667L23.6 18L21.6 18.9334L16.5334 21.4667C16.2667 21.6 16 21.6 15.7334 21.4667L10.6667 18.9334L8.6667 18L5.33336 16.2667L9.33336 14.2667L15.0667 17.2C15.8667 17.7334 16.8 17.7334 17.6 17.2L23.3334 14.2667L26.9334 16.2667Z" fill="rgb(56,56,56)" fill-rule="nonzero" />
</svg>
