<svg viewBox="0 0 32 32" xmlns="http://www.w3.org/2000/svg" xmlns:xlink="http://www.w3.org/1999/xlink" width="32" height="32" fill="none">
	<rect id="2d_line" width="32" height="32" x="0" y="0" />
	<path id="矢量 31" d="M10.1356 20.805L20.8556 10.085L21.9156 11.146L11.1966 21.866L10.1356 20.805ZM8.27505 21.505C7.05005 21.505 6.05505 22.5 6.05505 23.725C6.05505 24.95 7.05005 25.945 8.27505 25.945C9.50005 25.945 10.4951 24.95 10.4951 23.725C10.4951 22.5 9.50005 21.505 8.27505 21.505ZM23.7251 6.04999C22.5001 6.04999 21.5051 7.04499 21.5051 8.26999C21.5051 9.49499 22.5001 10.49 23.7251 10.49C24.9501 10.49 25.9501 9.49999 25.9501 8.27499C25.9501 7.04999 24.9501 6.04999 23.7251 6.04999L23.7251 6.04999Z" fill="rgb(56,56,56)" fill-rule="nonzero" />
</svg>
