<?xml version="1.0" encoding="UTF-8"?>
<svg id="_图标" data-name="图标" xmlns="http://www.w3.org/2000/svg" viewBox="0 0 32 32">
  <defs>
    <style>
      .cls-1 {
        fill: #57b8ff;
      }
    </style>
  </defs>
  <g>
    <path class="cls-1" d="M3.44,27.3c-.15.18-.36.29-.6.29-.47,0-.84-.45-.84-1.01V6.13c0-.56.38-1.01.84-1.01s.84.45.84,1.01v20.45c0,.28-.09.53-.25.71Z"/>
    <path class="cls-1" d="M29.75,26.64c-.15.18-.36.29-.6.29-.47,0-.84-.45-.84-1V5.46c0-.55.38-1,.84-1s.84.45.84,1v20.47c0,.28-.09.53-.25.71Z"/>
  </g>
  <g>
    <path class="cls-1" d="M22.43,16.91h-12.87c-.51,0-.92-.41-.92-.92s.41-.92.92-.92h12.87c.51,0,.92.41.92.92s-.41.92-.92.92Z"/>
    <polygon class="cls-1" points="10.09 12.07 10.09 19.91 6.17 15.99 10.09 12.07"/>
    <polygon class="cls-1" points="21.91 12.07 21.91 19.91 25.83 15.99 21.91 12.07"/>
  </g>
</svg>