<?xml version="1.0" encoding="UTF-8"?>
<svg id="_图标" data-name="图标" xmlns="http://www.w3.org/2000/svg" viewBox="0 0 32 32">
  <defs>
    <style>
      .cls-1 {
        fill: #ba9600;
      }
    </style>
  </defs>
  <path class="cls-1" d="M8.33,18.78c-.12-.36-.18-.72-.12-.77,1.7-.46,2.02-1.91,2.02-1.93.01-3.15.04-10.5,0-10.75,0-.04-.04-.07-.08-.07-.38-.05-.74-.08-1.08-.08-3.26,0-3.85,2.33-3.94,2.79h-1.79v-3.86h16v3.86h-1.79c-.09-.45-.68-2.79-3.94-2.79-.34,0-.7.03-1.08.08-.04,0-.08.04-.08.07-.03.22-.02,5.93,0,10.69v.19c.11.33.56,1.38,1.95,1.8.13.06.07.42-.05.78h-6Z"/>
  <g>
    <g>
      <path class="cls-1" d="M22,27.31c-.41,0-.75-.34-.75-.75v-11.27c0-.41.34-.75.75-.75s.75.34.75.75v11.27c0,.41-.34.75-.75.75Z"/>
      <polygon class="cls-1" points="24.73 15.66 19.27 15.66 22 12.93 24.73 15.66"/>
      <polygon class="cls-1" points="24.73 26.19 19.27 26.19 22 28.93 24.73 26.19"/>
    </g>
    <g>
      <path class="cls-1" d="M27.63,21.68h-11.27c-.41,0-.75-.34-.75-.75s.34-.75.75-.75h11.27c.41,0,.75.34.75.75s-.34.75-.75.75Z"/>
      <polygon class="cls-1" points="16.73 18.19 16.73 23.66 14 20.93 16.73 18.19"/>
      <polygon class="cls-1" points="27.27 18.19 27.27 23.66 30 20.93 27.27 18.19"/>
    </g>
  </g>
</svg>