<svg viewBox="0 0 32 32" xmlns="http://www.w3.org/2000/svg" xmlns:xlink="http://www.w3.org/1999/xlink" width="32.000000" height="32.000000" fill="none">
	<rect id="2d_modifyProperty" width="32.000000" height="32.000000" x="0.000000" y="0.000000" />
	<path id="矢量 161" d="M5.7062 23.8657C5.45932 23.8657 5.22182 23.7688 5.0437 23.5907C4.82182 23.3688 4.72495 23.05 4.78745 22.7438L5.54057 18.9844C5.57807 18.8032 5.66557 18.6375 5.79682 18.5063L6.99682 17.3094C7.36245 16.9438 7.9562 16.9438 8.32182 17.3094L11.3281 20.3157C11.6937 20.6813 11.6937 21.275 11.3281 21.6407L10.1249 22.8407C9.9937 22.9719 9.82807 23.0594 9.64682 23.0969L5.89057 23.85C5.82807 23.8594 5.76557 23.8657 5.7062 23.8657L5.7062 23.8657ZM7.32182 19.6344L6.90307 21.7344L8.99995 21.3125L9.33432 20.9781L7.6562 19.2969L7.32182 19.6344L7.32182 19.6344ZM12.6718 19.9063C12.4312 19.9063 12.1906 19.8156 12.0093 19.6313L9.00307 16.625C8.82807 16.45 8.72807 16.2094 8.72807 15.9625C8.72807 15.7125 8.82807 15.475 9.00307 15.3L19.0312 5.2719C19.3968 4.90627 19.9906 4.90627 20.3562 5.2719L23.3624 8.27815C23.5374 8.45315 23.6374 8.69377 23.6374 8.94065C23.6374 9.19065 23.5374 9.42815 23.3624 9.60315L13.3343 19.6313C13.1531 19.8125 12.9124 19.9063 12.6718 19.9063ZM10.9937 15.9625L12.6749 17.6406L21.3749 8.93752L19.6968 7.2594L10.9937 15.9625Z" fill="rgb(56,56,56)" fill-rule="nonzero" />
	<path id="矢量 162" d="M22.7063 9.87185C22.4657 9.87185 22.2251 9.78123 22.0438 9.59685L19.0376 6.5906C18.672 6.22498 18.672 5.63123 19.0376 5.2656L20.1626 4.1406C20.3376 3.9656 20.5782 3.8656 20.8251 3.8656C21.0751 3.8656 21.3126 3.9656 21.4876 4.1406L24.4938 7.14685C24.6688 7.32185 24.7688 7.56248 24.7688 7.80935C24.7688 8.05935 24.6688 8.29685 24.4938 8.47185L23.3688 9.59685C23.1876 9.7781 22.947 9.87185 22.7063 9.87185ZM27.8063 28.1343L4.19385 28.1343C3.6751 28.1343 3.25635 27.7156 3.25635 27.1968C3.25635 26.6781 3.6751 26.2593 4.19385 26.2593L27.8063 26.2593C28.3251 26.2593 28.7438 26.6781 28.7438 27.1968C28.7438 27.7156 28.3251 28.1343 27.8063 28.1343ZM27.8063 23.6968L17.772 23.6968C17.2532 23.6968 16.8345 23.2781 16.8345 22.7593C16.8345 22.2406 17.2532 21.8218 17.772 21.8218L27.8063 21.8218C28.3251 21.8218 28.7438 22.2406 28.7438 22.7593C28.7438 23.2781 28.3251 23.6968 27.8063 23.6968L27.8063 23.6968Z" fill="rgb(56,56,56)" fill-rule="nonzero" />
</svg>
