<?xml version="1.0" encoding="UTF-8"?>
<svg id="_图标" data-name="图标" xmlns="http://www.w3.org/2000/svg" viewBox="0 0 32 32">
  <defs>
    <style>
      .cls-1 {
        fill: #ba9600;
      }
    </style>
  </defs>
  <path class="cls-1" d="M7.29,27.75c-.41,0-.75-.34-.75-.75v-4.12H2.01c-.41,0-.75-.34-.75-.75s.34-.75.75-.75h6.03v5.62c0,.41-.34.75-.75.75Z"/>
  <path class="cls-1" d="M21.46,22.13c-.62-3.92-3.13-10.58-12.98-11.18l.11-1.87c11.15.68,14.01,8.29,14.72,12.76l-1.85.29Z"/>
  <g>
    <polygon class="cls-1" points="18.91 21.8 25.72 21.26 22.58 24.93 18.91 21.8"/>
    <polygon class="cls-1" points="8.95 13.45 9.02 6.62 5.57 10 8.95 13.45"/>
  </g>
  <path class="cls-1" d="M2.01,27.89c-.44,0-.8-.42-.8-.94V5c0-.52.36-.94.8-.94s.8.42.8.94v21.94c0,.52-.36.94-.8.94Z"/>
  <path class="cls-1" d="M30.19,27.81H2.06c-.52,0-.94-.36-.94-.8s.42-.8.94-.8h28.12c.52,0,.94.36.94.8s-.42.8-.94.8Z"/>
</svg>