<?xml version="1.0" encoding="UTF-8"?>
<svg id="_图标" data-name="图标" xmlns="http://www.w3.org/2000/svg" viewBox="0 0 32 32">
  <defs>
    <style>
      .cls-1 {
        fill: #ba9600;
      }
    </style>
  </defs>
  <g>
    <path class="cls-1" d="M28.03,28.03h-1.75c-.41,0-.75-.34-.75-.75s.34-.75.75-.75h.25v-.25c0-.41.34-.75.75-.75s.75.34.75.75v1.75Z"/>
    <path class="cls-1" d="M23.6,28.03h-1.79c-.41,0-.75-.34-.75-.75s.34-.75.75-.75h1.79c.41,0,.75.34.75.75s-.34.75-.75.75ZM19.13,28.03h-1.79c-.41,0-.75-.34-.75-.75s.34-.75.75-.75h1.79c.41,0,.75.34.75.75s-.34.75-.75.75ZM14.66,28.03h-1.79c-.41,0-.75-.34-.75-.75s.34-.75.75-.75h1.79c.41,0,.75.34.75.75s-.34.75-.75.75ZM10.19,28.03h-1.79c-.41,0-.75-.34-.75-.75s.34-.75.75-.75h1.79c.41,0,.75.34.75.75s-.34.75-.75.75Z"/>
    <path class="cls-1" d="M5.72,28.03h-1.75v-1.75c0-.41.34-.75.75-.75s.75.34.75.75v.25h.25c.41,0,.75.34.75.75s-.34.75-.75.75Z"/>
    <path class="cls-1" d="M4.72,24.35c-.41,0-.75-.34-.75-.75v-1.79c0-.41.34-.75.75-.75s.75.34.75.75v1.79c0,.41-.34.75-.75.75ZM4.72,19.88c-.41,0-.75-.34-.75-.75v-1.79c0-.41.34-.75.75-.75s.75.34.75.75v1.79c0,.41-.34.75-.75.75ZM4.72,15.41c-.41,0-.75-.34-.75-.75v-1.79c0-.41.34-.75.75-.75s.75.34.75.75v1.79c0,.41-.34.75-.75.75ZM4.72,10.94c-.41,0-.75-.34-.75-.75v-1.79c0-.41.34-.75.75-.75s.75.34.75.75v1.79c0,.41-.34.75-.75.75Z"/>
    <path class="cls-1" d="M4.72,6.47c-.41,0-.75-.34-.75-.75v-1.75h1.75c.41,0,.75.34.75.75s-.34.75-.75.75h-.25v.25c0,.41-.34.75-.75.75Z"/>
    <path class="cls-1" d="M23.6,5.47h-1.79c-.41,0-.75-.34-.75-.75s.34-.75.75-.75h1.79c.41,0,.75.34.75.75s-.34.75-.75.75ZM19.13,5.47h-1.79c-.41,0-.75-.34-.75-.75s.34-.75.75-.75h1.79c.41,0,.75.34.75.75s-.34.75-.75.75ZM14.66,5.47h-1.79c-.41,0-.75-.34-.75-.75s.34-.75.75-.75h1.79c.41,0,.75.34.75.75s-.34.75-.75.75ZM10.19,5.47h-1.79c-.41,0-.75-.34-.75-.75s.34-.75.75-.75h1.79c.41,0,.75.34.75.75s-.34.75-.75.75Z"/>
    <path class="cls-1" d="M27.28,6.47c-.41,0-.75-.34-.75-.75v-.25h-.25c-.41,0-.75-.34-.75-.75s.34-.75.75-.75h1.75v1.75c0,.41-.34.75-.75.75Z"/>
    <path class="cls-1" d="M27.28,24.35c-.41,0-.75-.34-.75-.75v-1.79c0-.41.34-.75.75-.75s.75.34.75.75v1.79c0,.41-.34.75-.75.75ZM27.28,19.88c-.41,0-.75-.34-.75-.75v-1.79c0-.41.34-.75.75-.75s.75.34.75.75v1.79c0,.41-.34.75-.75.75ZM27.28,15.41c-.41,0-.75-.34-.75-.75v-1.79c0-.41.34-.75.75-.75s.75.34.75.75v1.79c0,.41-.34.75-.75.75ZM27.28,10.94c-.41,0-.75-.34-.75-.75v-1.79c0-.41.34-.75.75-.75s.75.34.75.75v1.79c0,.41-.34.75-.75.75Z"/>
  </g>
  <path class="cls-1" d="M12.92,23.52c-.13-.37-.19-.74-.13-.79,1.75-.47,2.07-1.96,2.07-1.98.01-3.23.04-10.77,0-11.03,0-.04-.04-.07-.09-.07-.38-.05-.76-.08-1.11-.08-3.34,0-3.95,2.39-4.04,2.86h-1.84v-3.96h16.41v3.96h-1.84c-.09-.46-.7-2.86-4.04-2.86-.35,0-.72.03-1.11.08-.05,0-.08.04-.09.07-.03.23-.02,6.08,0,10.96v.19c.11.34.58,1.41,2,1.84.13.07.07.43-.05.8h-6.15Z"/>
  <rect class="cls-1" x="2.73" y="25.12" width="4.1" height="4.1" rx=".63" ry=".63"/>
  <rect class="cls-1" x="2.73" y="2.67" width="4.1" height="4.1" rx=".63" ry=".63"/>
  <rect class="cls-1" x="25.23" y="2.67" width="4.1" height="4.1" rx=".63" ry=".63"/>
  <rect class="cls-1" x="25.23" y="25.12" width="4.1" height="4.1" rx=".63" ry=".63"/>
</svg>