<svg viewBox="0 0 32 32" xmlns="http://www.w3.org/2000/svg" xmlns:xlink="http://www.w3.org/1999/xlink" width="32" height="32" fill="none">
	<rect id="2d_measure" width="32" height="32" x="0" y="0" />
	<path id="合并" d="M26 2C26 0.89543 25.1046 0 24 0L2 0C0.89543 0 0 0.89543 0 2L0 8C0 9.10457 0.89543 10 2 10L5 10L7 10L10 10L12 10L15 10L17 10L24 10C25.1046 10 26 9.10457 26 8L26 2ZM22 5L22 8L24 8L24 2L2 2L2 8L5 8L5 6L7 6L7 8L10 8L10 5L12 5L12 8L15 8L15 6L17 6L17 8L20 8L20 5L22 5ZM1 12L25 12C25.56 12 26 12.44 26 13C26 13.56 25.56 14 25 14L1 14C0.440001 14 0 13.56 0 13C0 12.44 0.440001 12 1 12Z" fill="rgb(56,56,56)" fill-rule="evenodd" transform="matrix(0.707107,-0.707107,0.707107,0.707107,2.03455,20.1694)" />
</svg>
