<?xml version="1.0" encoding="UTF-8"?>
<svg id="_图标" data-name="图标" xmlns="http://www.w3.org/2000/svg" viewBox="0 0 32 32">
  <defs>
    <style>
      .cls-1 {
        fill: #ba9600;
      }
    </style>
  </defs>
  <path class="cls-1" d="M28,29.47H4c-.41,0-.75-.34-.75-.75s.34-.75.75-.75h24c.41,0,.75.34.75.75s-.34.75-.75.75Z"/>
  <path class="cls-1" d="M28,25.68H4c-.41,0-.75-.34-.75-.75s.34-.75.75-.75h24c.41,0,.75.34.75.75s-.34.75-.75.75Z"/>
  <path class="cls-1" d="M23.29,21.56l-2.52-6h-9.56l-2.54,6h-1.67L15.32,2.28h1.45l8.22,19.28h-1.71ZM16.52,5.43c-.11-.27-.2-.53-.27-.8l-.23-.67h-.07c-.17.6-.34,1.08-.5,1.44l-3.72,8.94h8.52l-3.73-8.91Z"/>
</svg>