<svg viewBox="0 0 32 32" xmlns="http://www.w3.org/2000/svg" xmlns:xlink="http://www.w3.org/1999/xlink" width="32.000000" height="32.000000" fill="none">
	<rect id="2d_moveDim" width="32.000000" height="32.000000" x="0.000000" y="0.000000" />
	<g id="组合 3">
		<path id="矢量 141" d="M16 26.8099C15.59 26.8099 15.25 26.4699 15.25 26.0599L15.25 5.93994C15.25 5.52994 15.59 5.18994 16 5.18994C16.41 5.18994 16.75 5.52994 16.75 5.93994L16.75 26.0499C16.75 26.4599 16.41 26.7999 16 26.7999L16 26.8099Z" fill="rgb(87,184,255)" fill-rule="nonzero" />
		<path id="矢量 142" d="M20.5599 6.55L11.4399 6.55L15.9999 2L20.5599 6.55Z" fill="rgb(87,184,255)" fill-rule="nonzero" />
		<path id="矢量 143" d="M20.5599 25.45L11.4399 25.45L15.9999 30L20.5599 25.45Z" fill="rgb(87,184,255)" fill-rule="nonzero" />
	</g>
	<g id="组合 4">
		<path id="矢量 144" d="M26.0599 16.75L5.93994 16.75C5.52994 16.75 5.18994 16.41 5.18994 16C5.18994 15.59 5.52994 15.25 5.93994 15.25L26.0499 15.25C26.4599 15.25 26.7999 15.59 26.7999 16C26.7999 16.41 26.4599 16.75 26.0499 16.75L26.0599 16.75Z" fill="rgb(87,184,255)" fill-rule="nonzero" />
		<path id="矢量 145" d="M6.55 11.4399L6.55 20.5599L2 15.9999L6.55 11.4399Z" fill="rgb(87,184,255)" fill-rule="nonzero" />
		<path id="矢量 146" d="M25.45 11.4399L25.45 20.5599L30 15.9999L25.45 11.4399Z" fill="rgb(87,184,255)" fill-rule="nonzero" />
	</g>
</svg>
