<?xml version="1.0" encoding="UTF-8"?>
<svg id="_图层_6" data-name="图层 6" xmlns="http://www.w3.org/2000/svg" viewBox="0 0 32 32">
  <defs>
    <style>
      .cls-1 {
        fill: #bf5100;
      }

      .cls-2 {
        fill: #d6ad64;
      }

      .cls-3 {
        fill: #d6ae03;
      }

      .cls-4 {
        fill: #ba9600;
      }
    </style>
  </defs>
  <path class="cls-4" d="M14.31,6.25l-10.92.52-.52,10.92,12.48,12.48,11.44-11.44L14.31,6.25ZM5.64,11.83c0-1.62,1.32-2.94,2.94-2.94,1.62,0,2.94,1.32,2.94,2.94,0,1.62-1.32,2.94-2.94,2.94-1.62,0-2.94-1.32-2.94-2.94ZM17.54,20.8c.19.19.19.5,0,.7l-3.98,3.98c-.19.19-.5.19-.7,0l-.34-.34c-.19-.19-.19-.5,0-.7l3.98-3.98c.19-.19.5-.19.7,0l.34.34ZM19.8,13.7c.27.27.27.71,0,.99l-8.37,8.37c-.27.27-.71.27-.99,0l-.05-.05c-.27-.27-.27-.71,0-.99l8.37-8.37c.27-.27.71-.27.99,0l.05.05ZM17.53,11.42c.27.27.27.71,0,.99l-8.37,8.37c-.27.27-.71.27-.99,0l-.05-.05c-.27-.27-.27-.71,0-.99l8.37-8.37c.27-.27.71-.27.99,0l.05.05Z"/>
  <path class="cls-3" d="M29.04,8.35l-7.42,7.54-2.53-2.57,7.42-7.54c.2-.2.53-.2.73,0l1.81,1.83c.2.2.2.53,0,.74Z"/>
  <path class="cls-1" d="M29.1,7.45l-1.77-1.8c-.2-.2-.2-.53,0-.74l.56-.57c.48-.49,1.22-.52,1.66-.08l.92.93c.44.44.4,1.2-.08,1.68l-.56.57c-.2.2-.53.2-.73,0Z"/>
  <path class="cls-2" d="M19.09,13.32l-.56,2.37c-.09.37.22.7.59.64l2.51-.44-2.53-2.57Z"/>
</svg>