<svg viewBox="0 0 32 32" xmlns="http://www.w3.org/2000/svg" xmlns:xlink="http://www.w3.org/1999/xlink" width="32" height="32" fill="none">
	<rect id="2d_modifyDim" width="32" height="32" x="0" y="0" />
	<path id="矢量 54" d="M10.7398 17.507L9.28627 23.0811C9.27656 23.1143 9.26883 23.148 9.26307 23.1821C9.25732 23.2162 9.25358 23.2505 9.25186 23.2851C9.25014 23.3197 9.25045 23.3542 9.25279 23.3887C9.25513 23.4232 9.25948 23.4575 9.26584 23.4915C9.27221 23.5255 9.28054 23.559 9.29085 23.5921C9.30115 23.6251 9.31336 23.6574 9.32746 23.689C9.34156 23.7206 9.35747 23.7513 9.37517 23.781C9.39288 23.8108 9.41227 23.8394 9.43334 23.8669C9.45441 23.8943 9.47701 23.9205 9.50115 23.9453C9.5253 23.9701 9.55081 23.9935 9.57769 24.0153C9.60457 24.0371 9.63264 24.0573 9.6619 24.0759C9.69115 24.0944 9.7214 24.1112 9.75262 24.1262C9.78385 24.1412 9.81585 24.1544 9.84862 24.1656C9.88139 24.1769 9.91471 24.1862 9.94858 24.1935C9.98244 24.2009 10.0166 24.2063 10.0511 24.2096C10.0856 24.213 10.1202 24.2143 10.1548 24.2136L10.5093 24.2136L15.508 22.8511L15.6675 22.8511L29.3872 8.69474C29.4971 8.57684 29.5935 8.44876 29.6762 8.3105C29.759 8.17224 29.8264 8.02686 29.8783 7.87437C29.9302 7.72188 29.9656 7.56565 29.9844 7.40568C30.0032 7.24571 30.005 7.08555 29.9899 6.9252C29.9892 6.74576 29.9717 6.56798 29.9374 6.39184C29.9031 6.2157 29.8526 6.04433 29.7858 5.87773C29.719 5.71113 29.6373 5.55224 29.5404 5.40106C29.4436 5.24989 29.3334 5.1091 29.21 4.9787L27.8983 3.4569C27.6656 3.2122 27.3962 3.0181 27.0904 2.87457C26.7845 2.73105 26.4629 2.64793 26.1257 2.62522C25.8301 2.62757 25.5458 2.68539 25.2728 2.79868C24.9998 2.91197 24.7583 3.07239 24.5481 3.27995L10.8461 17.4363L10.7398 17.507ZM28.0046 6.97828L26.6575 8.37622L24.4417 6.04043L25.7889 4.64249C25.8182 4.61537 25.8497 4.5912 25.8835 4.56999C25.9173 4.54877 25.9527 4.53088 25.9899 4.51631C26.0271 4.50174 26.0652 4.49075 26.1045 4.48333C26.1437 4.47592 26.1833 4.47221 26.2232 4.47221C26.2631 4.47221 26.3027 4.47592 26.3419 4.48333C26.3811 4.49075 26.4193 4.50174 26.4565 4.51631C26.4936 4.53088 26.5291 4.54877 26.5629 4.56998C26.5967 4.5912 26.6282 4.61537 26.6575 4.64249L27.9692 5.96965C28.1038 6.11437 28.1747 6.28542 28.1819 6.48281C28.1807 6.62932 28.1335 6.75909 28.0401 6.87211L28.0046 6.97828ZM13.1859 17.7725L22.9705 7.50915L25.1862 9.84494L15.4016 20.0375L13.1859 17.7725ZM11.4134 21.9132L12.1401 19.2058L14.0368 21.2054L11.4134 21.9132ZM28.6605 12.7293C28.549 12.7163 28.4403 12.7285 28.3345 12.7658C28.2287 12.8031 28.1364 12.8617 28.0578 12.9416C27.945 13.0344 27.8604 13.1481 27.804 13.2827C27.7476 13.4173 27.7258 13.5572 27.7387 13.7025L27.7387 26.921C27.7377 27.0017 27.729 27.0816 27.7127 27.1607C27.6965 27.2398 27.6729 27.3166 27.642 27.3912C27.6111 27.4658 27.5734 27.5369 27.529 27.6043C27.4846 27.6718 27.4342 27.7344 27.3778 27.7923C27.3215 27.8502 27.2602 27.9023 27.1939 27.9486C27.1276 27.9948 27.0576 28.0344 26.9837 28.0674C26.9099 28.1004 26.8336 28.1261 26.7549 28.1446C26.6762 28.1631 26.5965 28.174 26.5157 28.1774L5.24481 28.1774C5.08253 28.1723 4.92759 28.1361 4.78 28.0685C4.6324 28.001 4.50373 27.9075 4.39398 27.7881C4.28033 27.6723 4.19283 27.5394 4.13147 27.3893C4.07011 27.2392 4.03944 27.0831 4.03946 26.921L4.03946 5.22644C4.03709 5.06128 4.06663 4.90202 4.12808 4.74866C4.18953 4.5953 4.27816 4.45963 4.39398 4.34167C4.50464 4.22466 4.63382 4.1339 4.7815 4.0694C4.92918 4.0049 5.08362 3.97179 5.24481 3.97007L19.2481 3.97007C19.3094 3.96557 19.3698 3.95526 19.4291 3.93915C19.4885 3.92305 19.5457 3.90143 19.6009 3.8743C19.6561 3.84718 19.7081 3.81505 19.7571 3.7779C19.8061 3.74076 19.851 3.69929 19.892 3.6535C19.9329 3.6077 19.9691 3.55843 20.0006 3.50567C20.032 3.45291 20.0581 3.39763 20.0789 3.33985C20.0997 3.28207 20.1147 3.22284 20.1241 3.16216C20.1334 3.10148 20.1368 3.04047 20.1344 2.97912C20.1346 2.85161 20.1117 2.72835 20.0659 2.60933C20.02 2.49032 19.9542 2.38354 19.8685 2.289C19.7573 2.18295 19.6289 2.10518 19.4832 2.0557C19.3376 2.00621 19.1884 1.98961 19.0354 2.00588L5.04983 2.00588C4.84931 2.005 4.65064 2.02369 4.45381 2.06194C4.25699 2.10019 4.06581 2.15728 3.88026 2.23319C3.69472 2.3091 3.5184 2.40238 3.35129 2.51302C3.18419 2.62366 3.02952 2.74954 2.88729 2.89065C2.74682 3.0351 2.62147 3.19161 2.51123 3.36019C2.401 3.52877 2.30791 3.70631 2.23197 3.89281C2.15602 4.07931 2.09863 4.27133 2.05978 4.46888C2.02092 4.66643 2.00133 4.86586 2.00101 5.06718L2.00101 26.921C1.99582 27.1202 2.01054 27.3179 2.04518 27.5142C2.07983 27.7104 2.13369 27.9013 2.20677 28.0867C2.27985 28.2721 2.37069 28.4484 2.47929 28.6156C2.58789 28.7828 2.71207 28.9376 2.85184 29.0798C2.98802 29.2253 3.13761 29.3553 3.30059 29.47C3.46358 29.5847 3.63656 29.6816 3.81953 29.7607C4.0025 29.8399 4.19162 29.8996 4.3869 29.9399C4.58218 29.9802 4.77952 30.0002 4.97892 30L26.5157 30C26.6141 29.9988 26.7123 29.9929 26.8102 29.9821C26.9081 29.9712 27.0053 29.9556 27.1016 29.9353C27.198 29.9149 27.2931 29.8898 27.387 29.8601C27.4809 29.8303 27.573 29.796 27.6635 29.7572C27.754 29.7184 27.8424 29.6752 27.9286 29.6277C28.0148 29.5801 28.0985 29.5285 28.1796 29.4727C28.2608 29.417 28.3389 29.3574 28.4142 29.2939C28.4894 29.2304 28.5613 29.1634 28.6299 29.0929C28.6985 29.0223 28.7635 28.9486 28.8248 28.8716C28.8862 28.7947 28.9435 28.7149 28.997 28.6323C29.0504 28.5498 29.0997 28.4647 29.1447 28.3773C29.1898 28.2898 29.2304 28.2004 29.2666 28.109C29.3028 28.0175 29.3344 27.9245 29.3614 27.83C29.3885 27.7354 29.4107 27.6398 29.4283 27.543C29.4459 27.4462 29.4586 27.3489 29.4666 27.2509C29.4745 27.1529 29.4776 27.0547 29.4759 26.9564L29.4759 13.6671C29.4807 13.5388 29.4601 13.4147 29.4139 13.2948C29.3677 13.1749 29.2997 13.069 29.21 12.977C29.1182 12.8859 29.0124 12.8158 28.8926 12.7667C28.7728 12.7177 28.6481 12.6934 28.5187 12.6939L28.6605 12.7293Z" fill="rgb(56,56,56)" fill-rule="nonzero" />
</svg>
