<?xml version="1.0" encoding="UTF-8"?>
<svg id="_图标" data-name="图标" xmlns="http://www.w3.org/2000/svg" viewBox="0 0 32 32">
  <defs>
    <style>
      .cls-1 {
        fill: #ba9600;
      }
    </style>
  </defs>
  <path class="cls-1" d="M16,30.75c-8.13,0-14.75-6.62-14.75-14.75S7.87,1.25,16,1.25s14.75,6.62,14.75,14.75-6.62,14.75-14.75,14.75ZM16,2.75c-7.31,0-13.25,5.94-13.25,13.25s5.94,13.25,13.25,13.25,13.25-5.94,13.25-13.25S23.31,2.75,16,2.75Z"/>
  <path class="cls-1" d="M2.21,19.18c-.19,0-.38-.07-.53-.22-.29-.29-.29-.77,0-1.06L17.58,2c.29-.29.77-.29,1.06,0s.29.77,0,1.06L2.74,18.96c-.15.15-.34.22-.53.22Z"/>
  <path class="cls-1" d="M5.41,23.6c-.19,0-.38-.07-.53-.22-.29-.29-.29-.77,0-1.06L23.21,3.99c.29-.29.77-.29,1.06,0s.29.77,0,1.06L5.94,23.39c-.15.15-.34.22-.53.22Z"/>
  <path class="cls-1" d="M8.6,28.03c-.19,0-.38-.07-.53-.22-.29-.29-.29-.77,0-1.06L26.63,8.2c.29-.29.77-.29,1.06,0s.29.77,0,1.06L9.13,27.81c-.15.15-.34.22-.53.22Z"/>
  <path class="cls-1" d="M13.96,30.29c-.19,0-.38-.07-.53-.22-.29-.29-.29-.77,0-1.06l15.48-15.48c.29-.29.77-.29,1.06,0s.29.77,0,1.06l-15.48,15.48c-.15.15-.34.22-.53.22Z"/>
</svg>