<svg viewBox="0 0 32 32" xmlns="http://www.w3.org/2000/svg" xmlns:xlink="http://www.w3.org/1999/xlink" width="32" height="32" fill="none">
	<rect id="2d_measureStatistics" width="32" height="32" x="0" y="0" />
	<path id="矢量 25" d="M25.712 3.64014C25.8377 3.64027 25.963 3.64646 26.0881 3.65869C26.2131 3.67093 26.3373 3.68916 26.4605 3.71338C26.5837 3.7376 26.7055 3.7677 26.8257 3.80368C26.9459 3.83965 27.0641 3.88133 27.1802 3.92871C27.2962 3.97609 27.4097 4.02895 27.5205 4.08729C27.6313 4.14562 27.7389 4.20915 27.8434 4.27788C27.9479 4.34661 28.0487 4.4202 28.1458 4.49866C28.2429 4.57712 28.3359 4.66006 28.4248 4.7475C28.5136 4.83494 28.5979 4.92645 28.6777 5.02202C28.7574 5.1176 28.8322 5.21678 28.9021 5.31958C28.9719 5.42238 29.0365 5.52829 29.0957 5.63732C29.155 5.74635 29.2087 5.85798 29.2569 5.97219C29.3051 6.08641 29.3474 6.20267 29.384 6.32098C29.4205 6.43928 29.4511 6.55907 29.4757 6.68033C29.5003 6.80159 29.5189 6.92374 29.5313 7.04679C29.5437 7.16983 29.55 7.29319 29.5502 7.41684L29.5502 25.2009C29.5498 25.3244 29.5433 25.4476 29.5306 25.5704C29.518 25.6933 29.4993 25.8153 29.4745 25.9364C29.4497 26.0574 29.419 26.177 29.3823 26.2951C29.3456 26.4133 29.3031 26.5293 29.2548 26.6433C29.2066 26.7573 29.1528 26.8688 29.0934 26.9776C29.034 27.0864 28.9694 27.1921 28.8995 27.2947C28.8296 27.3973 28.7548 27.4963 28.6751 27.5916C28.5954 27.687 28.5111 27.7783 28.4222 27.8656C28.3334 27.9528 28.2404 28.0356 28.1433 28.1139C28.0463 28.1922 27.9455 28.2656 27.8411 28.3342C27.7367 28.4027 27.6292 28.4661 27.5185 28.5243C27.4078 28.5825 27.2945 28.6353 27.1785 28.6825C27.0625 28.7298 26.9445 28.7714 26.8244 28.8073C26.7043 28.8432 26.5827 28.8732 26.4596 28.8974C26.3365 28.9215 26.2125 28.9397 26.0876 28.9519C25.9627 28.9641 25.8375 28.9703 25.712 28.9704L6.38832 28.9704C6.26264 28.9703 6.13726 28.9641 6.01218 28.9519C5.88711 28.9396 5.76295 28.9214 5.6397 28.8972C5.51645 28.8729 5.39469 28.8428 5.27444 28.8068C5.15419 28.7708 5.03602 28.7291 4.91993 28.6817C4.80384 28.6343 4.69038 28.5815 4.57957 28.5231C4.46875 28.4648 4.3611 28.4012 4.25662 28.3325C4.15214 28.2637 4.05133 28.1901 3.95419 28.1116C3.85705 28.0331 3.76405 27.9502 3.67519 27.8627C3.58632 27.7752 3.50203 27.6837 3.42229 27.5881C3.34256 27.4925 3.26777 27.3933 3.19793 27.2904C3.12809 27.1876 3.06353 27.0817 3.00426 26.9726C2.94499 26.8636 2.89128 26.7519 2.84314 26.6377C2.79501 26.5234 2.75267 26.4071 2.71613 26.2888C2.67959 26.1705 2.64902 26.0506 2.62443 25.9294C2.59984 25.8081 2.58134 25.6859 2.56893 25.5628C2.55653 25.4397 2.55027 25.3164 2.55017 25.1927L2.55017 7.41684C2.55031 7.29319 2.55659 7.16983 2.56903 7.04679C2.58146 6.92374 2.59999 6.80159 2.62461 6.68033C2.64922 6.55907 2.67981 6.43928 2.71637 6.32098C2.75293 6.20267 2.79529 6.08641 2.84344 5.97219C2.8916 5.85798 2.94531 5.74635 3.0046 5.63732C3.06388 5.52829 3.12845 5.42238 3.19829 5.31958C3.26814 5.21678 3.34293 5.1176 3.42266 5.02202C3.5024 4.92645 3.58669 4.83494 3.67555 4.7475C3.76441 4.66007 3.85741 4.57712 3.95454 4.49866C4.05167 4.4202 4.15247 4.34661 4.25694 4.27788C4.36141 4.20915 4.46905 4.14562 4.57985 4.08729C4.69066 4.02895 4.8041 3.97609 4.92017 3.92871C5.03625 3.88133 5.1544 3.83965 5.27463 3.80368C5.39486 3.7677 5.51659 3.7376 5.63983 3.71338C5.76306 3.68916 5.8872 3.67093 6.01225 3.65869C6.1373 3.64646 6.26266 3.64027 6.38832 3.64014L25.712 3.64014ZM25.712 5.15961L6.38832 5.15961L6.38832 5.16778C5.1214 5.16778 4.09436 6.17838 4.09436 7.42502L4.09436 25.1998C4.09436 26.4465 5.12244 27.4571 6.38936 27.4571L25.712 27.4571C26.9789 27.4571 28.006 26.4455 28.006 25.1998L28.006 7.41684C28.006 6.1702 26.9779 5.15961 25.711 5.15961L25.712 5.15961ZM8.48186 13.8238C8.90659 13.8238 9.25344 14.165 9.25344 14.583L9.25344 24.8575C9.25141 24.9062 9.24467 24.9543 9.23324 25.0018C9.2218 25.0492 9.20588 25.0951 9.18546 25.1396C9.16505 25.184 9.14051 25.2261 9.11187 25.2659C9.08322 25.3057 9.05098 25.3424 9.01515 25.3761C8.97932 25.4097 8.94056 25.4397 8.89886 25.4661C8.85717 25.4924 8.8133 25.5146 8.76727 25.5326C8.72123 25.5507 8.67387 25.5642 8.62519 25.5733C8.5765 25.5824 8.52739 25.5868 8.47784 25.5866C8.42829 25.5863 8.37922 25.5815 8.33062 25.5719C8.28203 25.5624 8.2348 25.5484 8.18894 25.53C8.14308 25.5115 8.09943 25.4889 8.05798 25.4622C8.01654 25.4355 7.97807 25.4051 7.94256 25.3711C7.90706 25.3371 7.87517 25.3001 7.84691 25.26C7.81864 25.22 7.79451 25.1776 7.77452 25.133C7.75453 25.0884 7.73905 25.0423 7.72807 24.9948C7.71709 24.9472 7.71081 24.8991 7.70925 24.8504L7.70925 14.583C7.70925 14.165 8.05713 13.8238 8.48186 13.8238L8.48186 13.8238ZM13.7801 19.4541C14.2048 19.4541 14.5517 19.7964 14.5517 20.2143L14.5517 24.8504C14.5515 24.9002 14.5465 24.9496 14.5365 24.9984C14.5265 25.0473 14.5118 25.0947 14.4924 25.1408C14.473 25.1868 14.4492 25.2305 14.421 25.272C14.3929 25.3134 14.3609 25.3517 14.3251 25.387C14.2894 25.4223 14.2504 25.4538 14.2084 25.4815C14.1663 25.5093 14.1219 25.5327 14.0751 25.5519C14.0284 25.5711 13.9802 25.5856 13.9305 25.5955C13.8809 25.6054 13.8307 25.6104 13.7801 25.6106C13.7294 25.6105 13.6792 25.6055 13.6295 25.5957C13.5798 25.5859 13.5316 25.5714 13.4847 25.5522C13.4379 25.5331 13.3935 25.5096 13.3513 25.4819C13.3092 25.4541 13.2702 25.4226 13.2344 25.3874C13.1985 25.3521 13.1665 25.3137 13.1383 25.2723C13.1101 25.2308 13.0863 25.1871 13.0668 25.141C13.0474 25.0949 13.0327 25.0475 13.0227 24.9986C13.0127 24.9497 13.0076 24.9003 13.0075 24.8504L13.0075 20.2143C13.0075 19.7964 13.3543 19.4551 13.7801 19.4551L13.7801 19.4541ZM19.07 18.5508C19.4947 18.5508 19.8426 18.8921 19.8426 19.31L19.8426 24.8504C19.8425 24.9003 19.8374 24.9497 19.8274 24.9986C19.8175 25.0475 19.8027 25.0949 19.7833 25.141C19.7638 25.1871 19.74 25.2308 19.7118 25.2723C19.6836 25.3137 19.6516 25.3521 19.6157 25.3874C19.5799 25.4226 19.5409 25.4541 19.4988 25.4819C19.4566 25.5096 19.4122 25.5331 19.3654 25.5522C19.3186 25.5714 19.2703 25.5859 19.2206 25.5957C19.1709 25.6055 19.1207 25.6105 19.07 25.6106C19.0193 25.6105 18.9691 25.6055 18.9194 25.5957C18.8697 25.5859 18.8215 25.5714 18.7747 25.5522C18.7279 25.5331 18.6834 25.5096 18.6413 25.4819C18.5991 25.4541 18.5601 25.4226 18.5243 25.3874C18.4885 25.3521 18.4564 25.3137 18.4282 25.2723C18.4001 25.2308 18.3762 25.1871 18.3568 25.141C18.3373 25.0949 18.3226 25.0475 18.3126 24.9986C18.3026 24.9497 18.2975 24.9003 18.2974 24.8504L18.2974 19.31C18.2974 18.8921 18.6453 18.5508 19.07 18.5508ZM24.3599 20.0549C24.7857 20.0549 25.1326 20.3972 25.1326 20.8152L25.1326 24.8504C25.1328 24.9004 25.128 24.9499 25.1182 24.9989C25.1085 25.048 25.0939 25.0956 25.0746 25.1418C25.0552 25.188 25.0315 25.2319 25.0033 25.2735C24.9751 25.3151 24.9431 25.3535 24.9072 25.3889C24.8713 25.4242 24.8322 25.4557 24.7899 25.4834C24.7477 25.5112 24.7031 25.5345 24.6561 25.5536C24.6091 25.5726 24.5607 25.5869 24.5109 25.5965C24.461 25.6061 24.4107 25.6108 24.3599 25.6106C24.3093 25.6104 24.2591 25.6054 24.2095 25.5955C24.1599 25.5856 24.1117 25.5711 24.0649 25.5519C24.0182 25.5327 23.9738 25.5093 23.9317 25.4815C23.8896 25.4538 23.8507 25.4223 23.8149 25.387C23.7791 25.3517 23.7471 25.3134 23.719 25.272C23.6908 25.2305 23.6671 25.1868 23.6476 25.1408C23.6282 25.0947 23.6135 25.0473 23.6035 24.9984C23.5936 24.9496 23.5885 24.9002 23.5884 24.8504L23.5884 20.8141C23.5884 20.3972 23.9352 20.0549 24.3599 20.0549L24.3599 20.0549ZM23.0785 12.6159C23.1553 12.6159 23.232 12.6196 23.3085 12.6271C23.385 12.6345 23.461 12.6456 23.5363 12.6603C23.6117 12.6751 23.6862 12.6934 23.7598 12.7154C23.8333 12.7373 23.9056 12.7628 23.9766 12.7917C24.0476 12.8207 24.117 12.853 24.1848 12.8886C24.2526 12.9243 24.3184 12.9631 24.3824 13.0051C24.4463 13.0472 24.5079 13.0922 24.5673 13.1401C24.6268 13.1881 24.6837 13.2389 24.738 13.2923C24.7924 13.3458 24.8439 13.4018 24.8927 13.4603C24.9414 13.5187 24.9872 13.5794 25.0299 13.6423C25.0726 13.7052 25.112 13.77 25.1483 13.8367C25.1845 13.9034 25.2173 13.9717 25.2467 14.0415C25.2762 14.1114 25.302 14.1825 25.3243 14.2549C25.3467 14.3273 25.3653 14.4006 25.3803 14.4748C25.3953 14.5489 25.4066 14.6237 25.4141 14.6989C25.4216 14.7742 25.4254 14.8497 25.4254 14.9253C25.4254 15.0009 25.4216 15.0764 25.4141 15.1516C25.4066 15.2269 25.3953 15.3016 25.3803 15.3758C25.3653 15.45 25.3467 15.5233 25.3243 15.5957C25.302 15.668 25.2762 15.7392 25.2467 15.809C25.2173 15.8789 25.1845 15.9472 25.1483 16.0139C25.112 16.0806 25.0726 16.1454 25.0299 16.2083C24.9872 16.2712 24.9414 16.3319 24.8927 16.3903C24.8439 16.4488 24.7924 16.5048 24.738 16.5582C24.6837 16.6117 24.6268 16.6625 24.5673 16.7104C24.5079 16.7584 24.4463 16.8034 24.3824 16.8454C24.3184 16.8875 24.2526 16.9263 24.1848 16.962C24.117 16.9976 24.0476 17.0299 23.9766 17.0588C23.9056 17.0878 23.8333 17.1132 23.7598 17.1352C23.6862 17.1572 23.6117 17.1755 23.5363 17.1903C23.461 17.205 23.385 17.2161 23.3085 17.2235C23.232 17.2309 23.1553 17.2346 23.0785 17.2346C23.0016 17.2346 22.9249 17.2309 22.8484 17.2235C22.7719 17.2161 22.696 17.205 22.6206 17.1903C22.5452 17.1755 22.4708 17.1572 22.3972 17.1352C22.3236 17.1132 22.2514 17.0878 22.1803 17.0588C22.1093 17.0299 22.0399 16.9976 21.9721 16.962C21.9044 16.9263 21.8385 16.8875 21.7746 16.8454C21.7107 16.8034 21.649 16.7584 21.5896 16.7104C21.5302 16.6625 21.4733 16.6117 21.419 16.5582C21.3646 16.5048 21.313 16.4488 21.2643 16.3903C21.2155 16.3319 21.1698 16.2712 21.1271 16.2083C21.0844 16.1454 21.0449 16.0806 21.0087 16.0139C20.9724 15.9472 20.9396 15.8789 20.9102 15.809C20.8808 15.7392 20.8549 15.668 20.8326 15.5957C20.8103 15.5233 20.7916 15.45 20.7767 15.3758C20.7617 15.3016 20.7504 15.2269 20.7429 15.1516C20.7353 15.0764 20.7316 15.0009 20.7316 14.9253C20.7316 14.8497 20.7353 14.7742 20.7429 14.6989C20.7504 14.6237 20.7617 14.5489 20.7767 14.4748C20.7916 14.4006 20.8103 14.3273 20.8326 14.2549C20.8549 14.1825 20.8808 14.1114 20.9102 14.0415C20.9396 13.9717 20.9724 13.9034 21.0087 13.8367C21.0449 13.77 21.0844 13.7052 21.1271 13.6423C21.1698 13.5794 21.2155 13.5187 21.2643 13.4603C21.313 13.4018 21.3646 13.3458 21.419 13.2923C21.4733 13.2389 21.5302 13.1881 21.5896 13.1401C21.649 13.0922 21.7107 13.0472 21.7746 13.0051C21.8385 12.9631 21.9044 12.9243 21.9721 12.8886C22.0399 12.853 22.1093 12.8207 22.1803 12.7917C22.2514 12.7628 22.3236 12.7373 22.3972 12.7154C22.4708 12.6934 22.5452 12.6751 22.6206 12.6603C22.696 12.6456 22.7719 12.6345 22.8484 12.6271C22.9249 12.6196 23.0016 12.6159 23.0785 12.6159ZM24.2675 7.6069C24.306 7.63929 24.341 7.67503 24.3724 7.71413C24.4038 7.75323 24.4311 7.79495 24.4543 7.83928C24.4774 7.88362 24.496 7.92974 24.51 7.97765C24.524 8.02555 24.5332 8.07434 24.5375 8.12401C24.5419 8.17367 24.5413 8.22328 24.5358 8.27283C24.5302 8.32239 24.5199 8.37095 24.5048 8.41852C24.4897 8.46609 24.47 8.51177 24.4458 8.55557C24.4216 8.59936 24.3933 8.64044 24.361 8.67881L17.5175 16.6348C17.446 16.722 17.3588 16.7896 17.2559 16.8376C17.153 16.8856 17.0446 16.9093 16.9308 16.9087C16.8571 16.9083 16.785 16.8979 16.7143 16.8774C16.6436 16.8568 16.5773 16.827 16.5152 16.7879C16.4532 16.7489 16.3979 16.702 16.3494 16.6475C16.3008 16.593 16.261 16.5329 16.2298 16.4672C16.1986 16.4015 16.1774 16.3328 16.166 16.2612C16.1547 16.1896 16.1537 16.1178 16.1631 16.0459C16.1725 15.974 16.1918 15.9048 16.2212 15.8383C16.2505 15.7718 16.2887 15.7107 16.3357 15.6549L23.1792 7.69785C23.2122 7.66006 23.2485 7.62576 23.2882 7.59494C23.328 7.56413 23.3703 7.53737 23.4154 7.51468C23.4604 7.49199 23.5072 7.47379 23.5559 7.46008C23.6045 7.44637 23.654 7.43741 23.7044 7.4332C23.7549 7.42899 23.8052 7.4296 23.8555 7.43504C23.9058 7.44049 23.9551 7.45065 24.0033 7.46555C24.0516 7.48044 24.098 7.49978 24.1424 7.52356C24.1869 7.54734 24.2286 7.57512 24.2675 7.6069ZM23.0785 14.1272C23.0258 14.1275 22.9736 14.1328 22.922 14.1431C22.8703 14.1534 22.8202 14.1686 22.7715 14.1885C22.7229 14.2085 22.6767 14.2329 22.6329 14.2618C22.5891 14.2906 22.5486 14.3234 22.5113 14.3601C22.4741 14.3967 22.4408 14.4366 22.4114 14.4797C22.3821 14.5228 22.3573 14.5682 22.337 14.6161C22.3167 14.664 22.3013 14.7133 22.2908 14.7641C22.2804 14.8149 22.275 14.8663 22.2747 14.9181C22.2747 15.3514 22.6382 15.708 23.0785 15.708C23.1313 15.7081 23.1835 15.703 23.2353 15.693C23.2871 15.6829 23.3373 15.6679 23.3861 15.6481C23.4349 15.6282 23.4812 15.6039 23.5251 15.5751C23.569 15.5463 23.6096 15.5135 23.647 15.4768C23.6843 15.4401 23.7176 15.4002 23.747 15.357C23.7763 15.3138 23.8011 15.2682 23.8213 15.2203C23.8415 15.1723 23.8568 15.1228 23.8671 15.0719C23.8774 15.021 23.8825 14.9696 23.8825 14.9176C23.8825 14.8657 23.8774 14.8143 23.8671 14.7633C23.8568 14.7124 23.8415 14.663 23.8213 14.615C23.8011 14.567 23.7763 14.5214 23.747 14.4783C23.7176 14.4351 23.6843 14.3952 23.647 14.3585C23.6096 14.3218 23.569 14.289 23.5251 14.2602C23.4812 14.2313 23.4349 14.207 23.3861 14.1872C23.3373 14.1673 23.2871 14.1524 23.2353 14.1423C23.1835 14.1322 23.1313 14.1272 23.0785 14.1272ZM17.6411 7.09701C17.7185 7.09701 17.7957 7.10074 17.8728 7.10821C17.9498 7.11567 18.0263 7.12683 18.1022 7.14169C18.1781 7.15655 18.2531 7.17504 18.3272 7.19715C18.4013 7.21926 18.4741 7.24489 18.5456 7.27404C18.6171 7.30319 18.687 7.33572 18.7553 7.37162C18.8235 7.40753 18.8898 7.44664 18.9542 7.48896C19.0186 7.53127 19.0807 7.57659 19.1405 7.62492C19.2003 7.67324 19.2576 7.72433 19.3124 7.77819C19.3671 7.83205 19.419 7.88842 19.4681 7.9473C19.5172 8.00618 19.5633 8.06728 19.6063 8.13062C19.6493 8.19395 19.6891 8.2592 19.7255 8.32638C19.762 8.39355 19.7951 8.46233 19.8247 8.5327C19.8543 8.60307 19.8804 8.6747 19.9029 8.74759C19.9253 8.82048 19.9441 8.89428 19.9592 8.96898C19.9743 9.04369 19.9857 9.11895 19.9932 9.19475C20.0008 9.27055 20.0046 9.34654 20.0046 9.42271C20.0046 9.49887 20.0008 9.57486 19.9932 9.65066C19.9857 9.72647 19.9743 9.80172 19.9592 9.87643C19.9441 9.95113 19.9253 10.0249 19.9029 10.0978C19.8804 10.1707 19.8543 10.2423 19.8247 10.3127C19.7951 10.3831 19.762 10.4519 19.7255 10.519C19.6891 10.5862 19.6493 10.6515 19.6063 10.7148C19.5633 10.7781 19.5172 10.8392 19.4681 10.8981C19.419 10.957 19.3671 11.0134 19.3124 11.0672C19.2576 11.1211 19.2003 11.1722 19.1405 11.2205C19.0807 11.2688 19.0186 11.3141 18.9542 11.3565C18.8898 11.3988 18.8235 11.4379 18.7553 11.4738C18.687 11.5097 18.6171 11.5422 18.5456 11.5714C18.4741 11.6005 18.4013 11.6261 18.3272 11.6483C18.2531 11.6704 18.1781 11.6889 18.1022 11.7037C18.0263 11.7186 17.9498 11.7297 17.8728 11.7372C17.7957 11.7447 17.7185 11.7484 17.6411 11.7484C17.5647 11.7468 17.4886 11.7416 17.4128 11.7328C17.3369 11.724 17.2617 11.7115 17.1871 11.6955C17.1125 11.6795 17.0388 11.66 16.9661 11.6369C16.8934 11.6139 16.822 11.5875 16.7519 11.5576C16.6818 11.5278 16.6134 11.4947 16.5465 11.4583C16.4797 11.4219 16.4148 11.3824 16.3519 11.3399C16.2889 11.2973 16.2282 11.2518 16.1698 11.2035C16.1113 11.1551 16.0554 11.1041 16.0019 11.0504C15.9485 10.9967 15.8978 10.9406 15.8499 10.8821C15.802 10.8235 15.7571 10.7629 15.7152 10.7001C15.6732 10.6373 15.6345 10.5726 15.5989 10.5061C15.5634 10.4396 15.5312 10.3715 15.5023 10.302C15.4734 10.2324 15.4481 10.1616 15.4262 10.0896C15.4043 10.0176 15.386 9.9447 15.3713 9.87096C15.3566 9.79721 15.3456 9.72294 15.3382 9.64814C15.3308 9.57334 15.3271 9.49837 15.3271 9.42322C15.3271 9.34806 15.3308 9.27309 15.3382 9.19829C15.3456 9.12349 15.3566 9.04922 15.3713 8.97547C15.386 8.90173 15.4043 8.82885 15.4262 8.75685C15.4481 8.68485 15.4734 8.61406 15.5023 8.54448C15.5312 8.4749 15.5634 8.40686 15.5989 8.34035C15.6345 8.27384 15.6732 8.20918 15.7152 8.14637C15.7571 8.08356 15.802 8.02289 15.8499 7.96436C15.8978 7.90583 15.9485 7.84972 16.0019 7.79603C16.0554 7.74233 16.1113 7.69131 16.1698 7.64295C16.2282 7.59459 16.2889 7.54913 16.3519 7.50656C16.4148 7.46399 16.4797 7.42452 16.5465 7.38815C16.6134 7.35177 16.6818 7.31866 16.7519 7.28881C16.822 7.25896 16.8934 7.23252 16.9661 7.20948C17.0388 7.18645 17.1125 7.16692 17.1871 7.15091C17.2617 7.1349 17.3369 7.12248 17.4128 7.11364C17.4886 7.10481 17.5647 7.0996 17.6411 7.09803L17.6411 7.09701ZM17.6411 8.6175C17.5873 8.6175 17.5341 8.62266 17.4813 8.63298C17.4286 8.6433 17.3774 8.65858 17.3277 8.67883C17.2781 8.69908 17.2309 8.72389 17.1862 8.75329C17.1415 8.78268 17.1001 8.81608 17.0621 8.85349C17.0241 8.8909 16.9901 8.93159 16.9603 8.97558C16.9304 9.01957 16.9052 9.066 16.8846 9.11488C16.864 9.16376 16.8485 9.21414 16.838 9.26603C16.8275 9.31792 16.8223 9.37031 16.8223 9.42322C16.8223 9.47612 16.8275 9.52852 16.838 9.5804C16.8485 9.63229 16.864 9.68267 16.8846 9.73155C16.9052 9.78043 16.9304 9.82686 16.9603 9.87085C16.9901 9.91484 17.0241 9.95554 17.0621 9.99294C17.1001 10.0304 17.1415 10.0638 17.1862 10.0931C17.2309 10.1225 17.2781 10.1474 17.3277 10.1676C17.3774 10.1878 17.4286 10.2031 17.4813 10.2135C17.5341 10.2238 17.5873 10.2289 17.6411 10.2289C17.6949 10.2289 17.7481 10.2238 17.8008 10.2135C17.8536 10.2031 17.9048 10.1878 17.9544 10.1676C18.0041 10.1474 18.0513 10.1225 18.096 10.0931C18.1407 10.0638 18.1821 10.0304 18.2201 9.99294C18.2581 9.95554 18.2921 9.91484 18.3219 9.87085C18.3518 9.82686 18.377 9.78043 18.3976 9.73155C18.4182 9.68267 18.4337 9.63229 18.4442 9.5804C18.4547 9.52852 18.4599 9.47612 18.4599 9.42322C18.4599 9.37031 18.4547 9.31792 18.4442 9.26603C18.4337 9.21414 18.4182 9.16376 18.3976 9.11488C18.377 9.066 18.3518 9.01957 18.3219 8.97558C18.2921 8.93159 18.2581 8.8909 18.2201 8.85349C18.1821 8.81608 18.1407 8.78268 18.096 8.75329C18.0513 8.72389 18.0041 8.69908 17.9544 8.67883C17.9048 8.65858 17.8536 8.6433 17.8008 8.63298C17.7481 8.62266 17.6949 8.6175 17.6411 8.6175Z" fill="rgb(56,56,56)" fill-rule="nonzero" />
</svg>
