<?xml version="1.0" encoding="UTF-8"?>
<svg id="_图标" data-name="图标" xmlns="http://www.w3.org/2000/svg" viewBox="0 0 32 32">
  <defs>
    <style>
      .cls-1 {
        fill: #57b8ff;
      }
    </style>
  </defs>
  <g>
    <path class="cls-1" d="M29,25.75H3.05c-.41,0-.75-.34-.75-.75s.34-.75.75-.75h25.95c.41,0,.75.34.75.75s-.34.75-.75.75Z"/>
    <path class="cls-1" d="M7.17,25.42c-.41,0-.75-.34-.75-.75v-4.55c0-.41.34-.75.75-.75s.75.34.75.75v4.55c0,.41-.34.75-.75.75Z"/>
    <path class="cls-1" d="M12.49,25.12c-.41,0-.75-.34-.75-.75v-2.13c0-.41.34-.75.75-.75s.75.34.75.75v2.13c0,.41-.34.75-.75.75Z"/>
    <path class="cls-1" d="M3,25.12c-.41,0-.75-.34-.75-.75v-2.13c0-.41.34-.75.75-.75s.75.34.75.75v2.13c0,.41-.34.75-.75.75Z"/>
    <path class="cls-1" d="M29,25.6c-.41,0-.75-.34-.75-.75v-2.13c0-.41.34-.75.75-.75s.75.34.75.75v2.13c0,.41-.34.75-.75.75Z"/>
    <path class="cls-1" d="M17.8,24.83c-.41,0-.75-.34-.75-.75v-3.51c0-.41.34-.75.75-.75s.75.34.75.75v3.51c0,.41-.34.75-.75.75Z"/>
    <path class="cls-1" d="M23.4,25.11c-.41,0-.75-.34-.75-.75v-4.08c0-.41.34-.75.75-.75s.75.34.75.75v4.08c0,.41-.34.75-.75.75Z"/>
  </g>
  <path class="cls-1" d="M28,15.16H4c-.41,0-.75-.34-.75-.75v-7.41c0-.41.34-.75.75-.75h24c.41,0,.75.34.75.75v7.41c0,.41-.34.75-.75.75ZM4.75,13.66h22.5v-5.91H4.75v5.91Z"/>
</svg>