<svg viewBox="0 0 32 32" xmlns="http://www.w3.org/2000/svg" xmlns:xlink="http://www.w3.org/1999/xlink" width="32" height="32" fill="none">
	<rect id="2d_moveDim" width="32" height="32" x="0" y="0" />
	<path id="矢量 55" d="M16.0001 30C15.9117 30.0001 15.8266 29.9833 15.7449 29.9494C15.6632 29.9156 15.5911 29.8674 15.5286 29.8048L11.5286 25.8048C11.4977 25.7739 11.4701 25.7402 11.4457 25.7038C11.4214 25.6674 11.4009 25.6289 11.3841 25.5885C11.3674 25.5481 11.3547 25.5064 11.3462 25.4634C11.3376 25.4205 11.3334 25.3771 11.3334 25.3334C11.3334 25.2896 11.3376 25.2462 11.3462 25.2033C11.3547 25.1603 11.3674 25.1186 11.3841 25.0782C11.4009 25.0378 11.4214 24.9993 11.4457 24.9629C11.4701 24.9265 11.4977 24.8929 11.5286 24.8619C11.5596 24.8309 11.5933 24.8033 11.6297 24.779C11.6661 24.7547 11.7045 24.7341 11.745 24.7174C11.7854 24.7006 11.8271 24.688 11.87 24.6794C11.913 24.6709 11.9563 24.6666 12.0001 24.6666C12.0439 24.6666 12.0872 24.6709 12.1302 24.6794C12.1731 24.688 12.2148 24.7006 12.2553 24.7174C12.2957 24.7341 12.3341 24.7547 12.3705 24.779C12.4069 24.8033 12.4406 24.8309 12.4716 24.8619L15.3334 27.724L15.3334 16.6667L4.27615 16.6667L7.13823 19.5286C7.16919 19.5595 7.19683 19.5932 7.22115 19.6296C7.24547 19.666 7.26601 19.7044 7.28276 19.7449C7.29952 19.7853 7.31216 19.827 7.32071 19.87C7.32925 19.9129 7.33352 19.9563 7.33352 20C7.33352 20.0438 7.32925 20.0872 7.32071 20.1301C7.31216 20.1731 7.29952 20.2147 7.28276 20.2552C7.26601 20.2956 7.24547 20.3341 7.22115 20.3705C7.19683 20.4069 7.16919 20.4405 7.13823 20.4715C7.10728 20.5025 7.0736 20.5301 7.0372 20.5544C7.00079 20.5787 6.96237 20.5993 6.92192 20.616C6.88148 20.6328 6.83979 20.6454 6.79685 20.654C6.75391 20.6625 6.71055 20.6668 6.66677 20.6668C6.62299 20.6668 6.57964 20.6625 6.5367 20.654C6.49376 20.6454 6.45207 20.6328 6.41162 20.616C6.37118 20.5993 6.33275 20.5787 6.29635 20.5544C6.25995 20.5301 6.22627 20.5025 6.19532 20.4715L2.19532 16.4715C2.16436 16.4406 2.13671 16.4069 2.11239 16.3705C2.08806 16.3341 2.06752 16.2957 2.05076 16.2552C2.03401 16.2148 2.02136 16.1731 2.01281 16.1301C2.00427 16.0872 2 16.0438 2 16.0001C2 15.9563 2.00427 15.9129 2.01281 15.87C2.02136 15.827 2.03401 15.7853 2.05076 15.7449C2.06752 15.7045 2.08806 15.666 2.11239 15.6296C2.13671 15.5932 2.16436 15.5596 2.19532 15.5286L6.19532 11.5286C6.22627 11.4977 6.25995 11.47 6.29635 11.4457C6.33275 11.4214 6.37118 11.4008 6.41162 11.3841C6.45207 11.3673 6.49376 11.3547 6.5367 11.3461C6.57964 11.3376 6.62299 11.3333 6.66677 11.3333C6.71055 11.3333 6.75391 11.3376 6.79685 11.3461C6.83979 11.3547 6.88148 11.3673 6.92192 11.3841C6.96237 11.4008 7.00079 11.4214 7.0372 11.4457C7.0736 11.47 7.10728 11.4977 7.13823 11.5286C7.16919 11.5596 7.19683 11.5932 7.22115 11.6296C7.24547 11.666 7.26601 11.7045 7.28276 11.7449C7.29952 11.7854 7.31216 11.8271 7.3207 11.87C7.32925 11.9129 7.33352 11.9563 7.33352 12.0001C7.33352 12.0438 7.32925 12.0872 7.32071 12.1301C7.31216 12.1731 7.29952 12.2148 7.28276 12.2552C7.26601 12.2957 7.24547 12.3341 7.22115 12.3705C7.19683 12.4069 7.16919 12.4406 7.13823 12.4715L4.27615 15.3334L15.3334 15.3334L15.3334 4.27614L12.4716 7.13821C12.4406 7.16917 12.4069 7.19681 12.3705 7.22113C12.3341 7.24545 12.2957 7.26599 12.2553 7.28274C12.2148 7.2995 12.1731 7.31214 12.1302 7.32069C12.0872 7.32923 12.0439 7.3335 12.0001 7.3335C11.9563 7.3335 11.913 7.32923 11.87 7.32069C11.8271 7.31214 11.7854 7.2995 11.745 7.28274C11.7045 7.26599 11.6661 7.24545 11.6297 7.22113C11.5933 7.19681 11.5596 7.16917 11.5287 7.13821C11.4977 7.10726 11.4701 7.07358 11.4457 7.03718C11.4214 7.00078 11.4009 6.96235 11.3841 6.92191C11.3674 6.88146 11.3547 6.83977 11.3462 6.79683C11.3376 6.75389 11.3334 6.71053 11.3334 6.66676C11.3334 6.62298 11.3376 6.57962 11.3462 6.53668C11.3547 6.49374 11.3674 6.45205 11.3841 6.4116C11.4009 6.37116 11.4214 6.33274 11.4457 6.29633C11.4701 6.25993 11.4977 6.22626 11.5286 6.1953L15.5287 2.19532C15.5596 2.16435 15.5933 2.13671 15.6297 2.11238C15.6661 2.08806 15.7045 2.06752 15.745 2.05076C15.7854 2.034 15.8271 2.02136 15.87 2.01281C15.913 2.00427 15.9563 2 16.0001 2C16.0439 2 16.0872 2.00427 16.1302 2.01281C16.1731 2.02136 16.2148 2.034 16.2553 2.05076C16.2957 2.06752 16.3341 2.08806 16.3705 2.11238C16.4069 2.13671 16.4406 2.16435 16.4716 2.19532L20.4716 6.1953C20.5025 6.22626 20.5302 6.25993 20.5545 6.29634C20.5788 6.33274 20.5993 6.37116 20.6161 6.41161C20.6328 6.45205 20.6455 6.49374 20.654 6.53668C20.6626 6.57962 20.6668 6.62298 20.6668 6.66676C20.6668 6.71053 20.6626 6.75389 20.654 6.79683C20.6455 6.83977 20.6328 6.88146 20.6161 6.92191C20.5993 6.96235 20.5788 7.00078 20.5545 7.03718C20.5302 7.07358 20.5025 7.10726 20.4716 7.13821C20.4406 7.16917 20.4069 7.19681 20.3705 7.22113C20.3341 7.24545 20.2957 7.26599 20.2553 7.28274C20.2148 7.2995 20.1731 7.31214 20.1302 7.32068C20.0872 7.32923 20.0439 7.3335 20.0001 7.3335C19.9563 7.3335 19.913 7.32923 19.87 7.32069C19.8271 7.31214 19.7854 7.2995 19.745 7.28274C19.7045 7.26599 19.6661 7.24545 19.6297 7.22113C19.5933 7.19681 19.5596 7.16917 19.5286 7.13821L16.6668 4.27614L16.6668 15.3334L27.7241 15.3334L24.862 12.4715C24.831 12.4406 24.8034 12.4069 24.7791 12.3705C24.7547 12.3341 24.7342 12.2957 24.7174 12.2552C24.7007 12.2148 24.688 12.1731 24.6795 12.1301C24.671 12.0872 24.6667 12.0438 24.6667 12.0001C24.6667 11.9563 24.671 11.9129 24.6795 11.87C24.688 11.8271 24.7007 11.7854 24.7174 11.7449C24.7342 11.7045 24.7547 11.666 24.7791 11.6296C24.8034 11.5932 24.831 11.5596 24.862 11.5286C24.8929 11.4977 24.9266 11.47 24.963 11.4457C24.9994 11.4214 25.0378 11.4008 25.0783 11.3841C25.1187 11.3673 25.1604 11.3547 25.2034 11.3461C25.2463 11.3376 25.2897 11.3333 25.3334 11.3333C25.3772 11.3333 25.4206 11.3376 25.4635 11.3461C25.5065 11.3547 25.5481 11.3673 25.5886 11.3841C25.629 11.4008 25.6675 11.4214 25.7039 11.4457C25.7403 11.47 25.7739 11.4977 25.8049 11.5286L29.8049 15.5286C29.8359 15.5596 29.8635 15.5932 29.8878 15.6296C29.9122 15.666 29.9327 15.7044 29.9495 15.7449C29.9662 15.7853 29.9789 15.827 29.9874 15.87C29.9959 15.9129 30.0002 15.9563 30.0002 16.0001C30.0002 16.0438 29.9959 16.0872 29.9874 16.1301C29.9789 16.1731 29.9662 16.2148 29.9495 16.2552C29.9327 16.2957 29.9122 16.3341 29.8878 16.3705C29.8635 16.4069 29.8359 16.4406 29.8049 16.4715L25.8049 20.4715C25.7739 20.5024 25.7403 20.5301 25.7039 20.5544C25.6675 20.5787 25.629 20.5993 25.5886 20.616C25.5481 20.6328 25.5065 20.6454 25.4635 20.654C25.4206 20.6625 25.3772 20.6668 25.3334 20.6668C25.2897 20.6668 25.2463 20.6625 25.2034 20.654C25.1604 20.6454 25.1187 20.6328 25.0783 20.616C25.0378 20.5993 24.9994 20.5787 24.963 20.5544C24.9266 20.5301 24.8929 20.5024 24.862 20.4715C24.831 20.4405 24.8034 20.4069 24.7791 20.3705C24.7547 20.3341 24.7342 20.2956 24.7174 20.2552C24.7007 20.2147 24.688 20.173 24.6795 20.1301C24.671 20.0872 24.6667 20.0438 24.6667 20C24.6667 19.9563 24.671 19.9129 24.6795 19.87C24.688 19.827 24.7007 19.7853 24.7174 19.7449C24.7342 19.7044 24.7547 19.666 24.7791 19.6296C24.8034 19.5932 24.831 19.5595 24.862 19.5286L27.7241 16.6667L16.6668 16.6667L16.6668 27.724L19.5286 24.8619C19.5596 24.8309 19.5933 24.8033 19.6297 24.779C19.6661 24.7547 19.7045 24.7341 19.745 24.7174C19.7854 24.7006 19.8271 24.688 19.87 24.6794C19.913 24.6709 19.9563 24.6666 20.0001 24.6666C20.0439 24.6666 20.0872 24.6709 20.1302 24.6794C20.1731 24.688 20.2148 24.7006 20.2553 24.7174C20.2957 24.7341 20.3341 24.7547 20.3705 24.779C20.4069 24.8033 20.4406 24.8309 20.4716 24.8619C20.5025 24.8929 20.5302 24.9265 20.5545 24.9629C20.5788 24.9993 20.5993 25.0378 20.6161 25.0782C20.6328 25.1186 20.6455 25.1603 20.654 25.2033C20.6626 25.2462 20.6668 25.2896 20.6668 25.3334C20.6668 25.3771 20.6626 25.4205 20.654 25.4634C20.6455 25.5064 20.6328 25.5481 20.6161 25.5885C20.5993 25.6289 20.5788 25.6674 20.5545 25.7038C20.5302 25.7402 20.5025 25.7739 20.4716 25.8048L16.4716 29.8048C16.4091 29.8674 16.337 29.9156 16.2553 29.9494C16.1736 29.9833 16.0885 30.0001 16.0001 30Z" fill="rgb(56,56,56)" fill-rule="nonzero" />
</svg>
