<svg viewBox="0 0 32 32" xmlns="http://www.w3.org/2000/svg" xmlns:xlink="http://www.w3.org/1999/xlink" width="32" height="32" fill="none">
	<rect id="2d_newDimCategory" width="32" height="32" x="0" y="0" />
	<path id="矢量 66" d="M28.2563 10.7593C27.5844 9.17497 26.625 7.74998 25.4032 6.5281C24.1813 5.30623 22.7594 4.34685 21.1719 3.67498C19.5313 2.98435 17.7906 2.63123 15.9938 2.63123C14.1969 2.63123 12.4531 2.98435 10.8125 3.6781C9.22815 4.34998 7.80315 5.30935 6.58127 6.53123C5.3594 7.7531 4.40002 9.17498 3.72815 10.7625C3.0344 12.4031 2.68127 14.1469 2.68127 15.9437C2.68127 17.7406 3.0344 19.4844 3.72815 21.125C4.40002 22.7094 5.3594 24.1343 6.58127 25.3562C7.80315 26.5781 9.22503 27.5375 10.8125 28.2094C12.4531 28.9031 14.1969 29.2562 15.9938 29.2562C17.7906 29.2562 19.5344 28.9031 21.175 28.2094C22.7594 27.5375 24.1844 26.5781 25.4063 25.3562C26.6281 24.1344 27.5875 22.7125 28.2594 21.125C28.9531 19.4844 29.3063 17.7406 29.3063 15.9437C29.3063 14.1469 28.95 12.4 28.2563 10.7594L28.2563 10.7593ZM15.9938 27.375C9.68752 27.375 4.5594 22.2437 4.5594 15.9406C4.5594 9.63748 9.68752 4.50623 15.9938 4.50623C22.2969 4.50623 27.4281 9.63435 27.4281 15.9406C27.4281 22.2437 22.2969 27.375 15.9938 27.375L15.9938 27.375Z" fill="rgb(56,56,56)" fill-rule="nonzero" />
	<path id="矢量 67" d="M23.0312 15.0312L16.9375 15.0312L16.9375 8.9375C16.9375 8.42188 16.5156 8 16 8C15.4844 8 15.0625 8.42188 15.0625 8.9375L15.0625 15.0312L8.96875 15.0312C8.45312 15.0312 8.03125 15.4531 8.03125 15.9688C8.03125 16.4844 8.45312 16.9062 8.96875 16.9062L15.0625 16.9062L15.0625 23C15.0625 23.5156 15.4844 23.9375 16 23.9375C16.5156 23.9375 16.9375 23.5156 16.9375 23L16.9375 16.9062L23.0312 16.9062C23.5469 16.9062 23.9688 16.4844 23.9688 15.9688C23.9688 15.4531 23.5469 15.0312 23.0312 15.0312Z" fill="rgb(56,56,56)" fill-rule="nonzero" />
</svg>
