<?xml version="1.0" encoding="UTF-8"?>
<svg id="_图标" data-name="图标" xmlns="http://www.w3.org/2000/svg" viewBox="0 0 32 32">
  <defs>
    <style>
      .cls-1 {
        fill: #ba9600;
      }
    </style>
  </defs>
  <g>
    <path class="cls-1" d="M16.02,28.8c-.19,0-.38-.07-.53-.22-.29-.29-.29-.77,0-1.06l7.33-7.33c.29-.29.77-.29,1.06,0s.29.77,0,1.06l-7.33,7.33c-.15.15-.34.22-.53.22Z"/>
    <path class="cls-1" d="M15.98,28.8c-.19,0-.38-.07-.53-.22l-7.33-7.33c-.29-.29-.29-.77,0-1.06s.77-.29,1.06,0l7.33,7.33c.29.29.29.77,0,1.06-.15.15-.34.22-.53.22Z"/>
  </g>
  <g>
    <g>
      <path class="cls-1" d="M10.63,12.53c1.27-.12,1.35-.27,1.35-1.18v-5.21c0-.59-.05-.68-.69-.75l-.59-.07v-.2c.84-.15,1.52-.39,1.95-.67v6.9c0,.91.09,1.06,1.36,1.18v.19h-3.37v-.19Z"/>
      <path class="cls-1" d="M14.26,12.97h-3.88v-.68l.23-.02c1.12-.11,1.12-.14,1.12-.93v-5.21q0-.45-.47-.5l-.81-.1v-.64l.21-.04c.77-.14,1.44-.37,1.85-.63l.39-.25v7.37c0,.78,0,.82,1.13.93l.23.02v.68ZM11.9,12.46h.83c-.27-.2-.34-.54-.34-1.12v-6.47c-.24.11-.51.21-.81.3.52.1.65.33.65.96v5.21c0,.58-.07.92-.33,1.12Z"/>
    </g>
    <g>
      <path class="cls-1" d="M9.01,12.71l-1.09-2.82H3.81l-1.09,2.82h-.72L5.58,3.66h.63l3.54,9.05h-.74ZM6.1,5.13c-.05-.12-.09-.25-.12-.37l-.1-.32h-.03c-.07.28-.15.51-.21.68l-1.6,4.19h3.67l-1.61-4.18Z"/>
      <path class="cls-1" d="M10.11,12.95h-1.27l-1.09-2.82h-3.78l-1.09,2.82h-1.25L5.41,3.41h.96l3.74,9.55ZM9.18,12.46h.2L6.04,3.9h-.29l-3.39,8.55h.18l1.09-2.82h4.46l1.09,2.82ZM8.07,9.57H3.68l1.73-4.53c.07-.16.14-.38.21-.65l.05-.19h.37l.18.49c.03.13.07.24.11.36h0s1.74,4.52,1.74,4.52ZM4.4,9.07h2.95l-1.48-3.85s0,0,0,0l-1.47,3.85Z"/>
    </g>
    <g>
      <path class="cls-1" d="M25.28,12.63v-.05c0-1.06.72-2.27,2.16-3.51,1.19-1.03,1.5-1.35,1.5-2.29,0-.84-.41-1.52-1.36-1.52s-1.38.51-1.55,1.59h-.72c.13-1.34.89-2.3,2.28-2.3,1.51,0,2.13,1.12,2.13,2.21,0,1.22-.46,1.66-1.78,2.83-1.02.9-1.6,1.61-1.8,2.31h3.87l-.12.75h-4.6Z"/>
      <path class="cls-1" d="M30.1,12.88h-5.08v-.3c0-1.16.78-2.44,2.25-3.7,1.2-1.04,1.41-1.29,1.41-2.1,0-.47-.14-1.26-1.1-1.26-.77,0-1.15.4-1.3,1.37l-.03.21h-1.22l.03-.28c.16-1.59,1.11-2.53,2.53-2.53,1.65,0,2.38,1.24,2.38,2.46,0,1.36-.58,1.88-1.86,3.02-.86.76-1.36,1.34-1.6,1.86h3.8l-.19,1.26ZM25.54,12.37h4.12l.04-.24h-3.91l.09-.33c.21-.71.77-1.44,1.88-2.43,1.34-1.2,1.69-1.56,1.69-2.64,0-.94-.49-1.95-1.87-1.95-1.07,0-1.78.65-1.98,1.79h.22c.23-1.08.79-1.59,1.77-1.59s1.61.68,1.61,1.77-.38,1.44-1.59,2.49c-1.26,1.08-1.97,2.16-2.06,3.11Z"/>
    </g>
    <g>
      <path class="cls-1" d="M23.76,12.71l-1.09-2.82h-4.12l-1.09,2.82h-.72l3.58-9.05h.63l3.54,9.05h-.74ZM20.85,5.13c-.05-.12-.09-.25-.12-.37l-.1-.32h-.03c-.07.28-.15.51-.21.68l-1.6,4.19h3.67l-1.61-4.18Z"/>
      <path class="cls-1" d="M24.87,12.95h-1.27l-1.09-2.82h-3.78l-1.09,2.82h-1.25l3.78-9.55h.96l3.74,9.55ZM23.94,12.46h.2l-3.35-8.55h-.29l-3.39,8.55h.18l1.09-2.82h4.46l1.09,2.82ZM22.82,9.57h-4.39l1.73-4.53c.07-.17.14-.39.21-.65l.05-.19h.38l.18.49c.03.13.07.24.11.36h0s1.74,4.52,1.74,4.52ZM19.15,9.07h2.95l-1.48-3.85s0,0,0,0l-1.47,3.85Z"/>
    </g>
  </g>
</svg>