<?xml version="1.0" encoding="UTF-8"?>
<svg id="_图层_5" data-name="图层 5" xmlns="http://www.w3.org/2000/svg" viewBox="0 0 32 32">
  <defs>
    <style>
      .cls-1 {
        fill: #57b8ff;
      }
    </style>
  </defs>
  <path class="cls-1" d="M16,29.75c-7.58,0-13.75-6.17-13.75-13.75S8.42,2.25,16,2.25s13.75,6.17,13.75,13.75-6.17,13.75-13.75,13.75ZM16,3.75c-6.75,0-12.25,5.5-12.25,12.25s5.5,12.25,12.25,12.25,12.25-5.5,12.25-12.25S22.75,3.75,16,3.75Z"/>
  <path class="cls-1" d="M25,16.75H7c-.41,0-.75-.34-.75-.75s.34-.75.75-.75h18c.41,0,.75.34.75.75s-.34.75-.75.75Z"/>
  <path class="cls-1" d="M16,25.75c-.41,0-.75-.34-.75-.75V7c0-.41.34-.75.75-.75s.75.34.75.75v18c0,.41-.34.75-.75.75Z"/>
</svg>