<svg viewBox="0 0 32 32" xmlns="http://www.w3.org/2000/svg" xmlns:xlink="http://www.w3.org/1999/xlink" width="32" height="32" fill="none">
	<rect id="2d_print" width="32" height="32" x="0" y="0" />
	<path id="矢量 50" d="M24.6666 9.33331L23.9999 9.33331L23.9999 7.49998C23.9997 7.42908 23.996 7.35836 23.9889 7.28782C23.9817 7.21728 23.9712 7.14725 23.9572 7.07774C23.9432 7.00824 23.9258 6.93958 23.9051 6.87177C23.8844 6.80396 23.8604 6.73733 23.8332 6.67186C23.806 6.6064 23.7756 6.54242 23.7421 6.47993C23.7086 6.41744 23.6722 6.35674 23.6327 6.29781C23.5933 6.23889 23.5511 6.18204 23.5061 6.12725C23.4611 6.07246 23.4135 6.01999 23.3634 5.96986C23.3132 5.91972 23.2608 5.87216 23.206 5.82716C23.1512 5.78216 23.0943 5.73994 23.0354 5.7005C22.9765 5.66107 22.9158 5.6246 22.8533 5.59111C22.7908 5.55761 22.7268 5.52725 22.6614 5.50001C22.5959 5.47278 22.5293 5.44881 22.4615 5.4281C22.3937 5.40739 22.325 5.39003 22.2555 5.37604C22.186 5.36205 22.116 5.35149 22.0454 5.34435C21.9749 5.33721 21.9042 5.33353 21.8333 5.33331L10.1666 5.33331C10.0957 5.33353 10.025 5.33721 9.95442 5.34435C9.88388 5.35149 9.81386 5.36205 9.74435 5.37604C9.67484 5.39003 9.60618 5.40739 9.53838 5.4281C9.47057 5.44881 9.40393 5.47278 9.33847 5.50001C9.27301 5.52725 9.20903 5.55761 9.14654 5.5911C9.08405 5.6246 9.02334 5.66106 8.96442 5.7005C8.9055 5.73994 8.84864 5.78215 8.79385 5.82715C8.73906 5.87215 8.6866 5.91972 8.63646 5.96986C8.58633 6.01999 8.53876 6.07245 8.49376 6.12724C8.44876 6.18203 8.40654 6.23889 8.36711 6.29781C8.32767 6.35674 8.29121 6.41744 8.25771 6.47993C8.22422 6.54242 8.19385 6.6064 8.16662 6.67186C8.13939 6.73733 8.11541 6.80396 8.0947 6.87177C8.07399 6.93958 8.05664 7.00824 8.04265 7.07774C8.02866 7.14725 8.01809 7.21728 8.01095 7.28782C8.00381 7.35836 8.00014 7.42908 7.99992 7.49998L7.99992 9.33331L7.33325 9.33331C7.20225 9.33331 7.07156 9.33973 6.94118 9.35257C6.81081 9.36541 6.68138 9.38461 6.55289 9.41017C6.4244 9.43573 6.29748 9.46752 6.17211 9.50555C6.04675 9.54358 5.92355 9.58766 5.80252 9.63779C5.68149 9.68793 5.5632 9.74387 5.44767 9.80563C5.33213 9.86738 5.2199 9.93465 5.11097 10.0074C5.00204 10.0802 4.89695 10.1582 4.79568 10.2413C4.69441 10.3244 4.59746 10.4123 4.50482 10.5049C4.41219 10.5975 4.32432 10.6945 4.24121 10.7957C4.1581 10.897 4.08016 11.0021 4.00737 11.111C3.93459 11.22 3.86732 11.3322 3.80557 11.4477C3.74381 11.5633 3.68787 11.6815 3.63773 11.8026C3.5876 11.9236 3.54352 12.0468 3.50549 12.1722C3.46746 12.2975 3.43567 12.4245 3.41011 12.553C3.38455 12.6814 3.36535 12.8109 3.35251 12.9412C3.33967 13.0716 3.33325 13.2023 3.33325 13.3333L3.33325 19.3333C3.33325 19.4643 3.33967 19.595 3.35251 19.7254C3.36535 19.8558 3.38455 19.9852 3.41011 20.1137C3.43567 20.2422 3.46746 20.3691 3.50549 20.4944C3.54352 20.6198 3.5876 20.743 3.63773 20.864C3.68787 20.9851 3.74381 21.1034 3.80557 21.2189C3.86732 21.3344 3.93459 21.4467 4.00737 21.5556C4.08016 21.6645 4.1581 21.7696 4.24121 21.8709C4.32432 21.9722 4.41219 22.0691 4.50482 22.1617C4.59746 22.2544 4.69441 22.3422 4.79568 22.4254C4.89695 22.5085 5.00204 22.5864 5.11097 22.6592C5.2199 22.732 5.33213 22.7992 5.44766 22.861C5.5632 22.9228 5.68149 22.9787 5.80252 23.0288C5.92355 23.079 6.04675 23.123 6.17211 23.1611C6.29748 23.1991 6.4244 23.2309 6.55289 23.2565C6.68138 23.282 6.81081 23.3012 6.94118 23.314C7.07156 23.3269 7.20225 23.3333 7.33325 23.3333L7.99992 23.3333L7.99992 25.6933C7.99992 25.7907 8.00469 25.8878 8.01424 25.9847C8.02378 26.0817 8.03805 26.1779 8.05705 26.2734C8.07605 26.3689 8.09968 26.4632 8.12795 26.5564C8.15622 26.6496 8.18898 26.7412 8.22625 26.8312C8.26352 26.9211 8.3051 27.009 8.35101 27.0949C8.39691 27.1808 8.44691 27.2642 8.50102 27.3452C8.55512 27.4262 8.61306 27.5043 8.67483 27.5796C8.73661 27.6548 8.80193 27.7269 8.87079 27.7958C8.93965 27.8646 9.01171 27.9299 9.08699 27.9917C9.16227 28.0535 9.24039 28.1114 9.32136 28.1655C9.40232 28.2196 9.48575 28.2696 9.57163 28.3156C9.65751 28.3615 9.74544 28.403 9.83541 28.4403C9.92537 28.4776 10.017 28.5103 10.1101 28.5386C10.2033 28.5669 10.2977 28.5905 10.3932 28.6095C10.4887 28.6285 10.5849 28.6428 10.6818 28.6523C10.7787 28.6619 10.8759 28.6666 10.9733 28.6666L21.0266 28.6666C21.124 28.6666 21.2211 28.6619 21.318 28.6523C21.4149 28.6428 21.5111 28.6285 21.6067 28.6095C21.7022 28.5905 21.7965 28.5669 21.8897 28.5386C21.9829 28.5103 22.0745 28.4776 22.1644 28.4403C22.2544 28.403 22.3423 28.3615 22.4282 28.3156C22.5141 28.2697 22.5975 28.2196 22.6785 28.1655C22.7594 28.1114 22.8376 28.0535 22.9128 27.9917C22.9881 27.93 23.0602 27.8646 23.129 27.7958C23.1979 27.7269 23.2632 27.6549 23.325 27.5796C23.3868 27.5043 23.4447 27.4262 23.4988 27.3452C23.5529 27.2642 23.6029 27.1808 23.6488 27.0949C23.6947 27.009 23.7363 26.9211 23.7736 26.8312C23.8109 26.7412 23.8436 26.6496 23.8719 26.5564C23.9002 26.4632 23.9238 26.3689 23.9428 26.2734C23.9618 26.1779 23.9761 26.0817 23.9856 25.9847C23.9951 25.8878 23.9999 25.7907 23.9999 25.6933L23.9999 23.3333L24.6666 23.3333C24.7976 23.3333 24.9283 23.3269 25.0587 23.3141C25.189 23.3012 25.3185 23.282 25.4469 23.2565C25.5754 23.2309 25.7024 23.1991 25.8277 23.1611C25.9531 23.123 26.0763 23.079 26.1973 23.0288C26.3183 22.9787 26.4366 22.9228 26.5522 22.861C26.6677 22.7992 26.7799 22.732 26.8889 22.6592C26.9978 22.5864 27.1029 22.5085 27.2042 22.4254C27.3054 22.3422 27.4024 22.2544 27.495 22.1617C27.5876 22.0691 27.6755 21.9722 27.7586 21.8709C27.8417 21.7696 27.9197 21.6645 27.9925 21.5556C28.0652 21.4467 28.1325 21.3344 28.1943 21.2189C28.256 21.1034 28.312 20.9851 28.3621 20.864C28.4122 20.743 28.4563 20.6198 28.4943 20.4945C28.5324 20.3691 28.5642 20.2422 28.5897 20.1137C28.6153 19.9852 28.6345 19.8558 28.6473 19.7254C28.6602 19.595 28.6666 19.4643 28.6666 19.3333L28.6666 13.3333C28.6666 13.2023 28.6602 13.0716 28.6473 12.9412C28.6345 12.8109 28.6153 12.6814 28.5897 12.553C28.5642 12.4245 28.5324 12.2975 28.4943 12.1722C28.4563 12.0468 28.4122 11.9236 28.3621 11.8026C28.312 11.6815 28.256 11.5633 28.1943 11.4477C28.1325 11.3322 28.0652 11.22 27.9925 11.111C27.9197 11.0021 27.8417 10.897 27.7586 10.7957C27.6755 10.6945 27.5876 10.5975 27.495 10.5049C27.4024 10.4123 27.3054 10.3244 27.2042 10.2413C27.1029 10.1582 26.9978 10.0802 26.8889 10.0074C26.7799 9.93465 26.6677 9.86738 26.5522 9.80563C26.4366 9.74387 26.3183 9.68793 26.1973 9.63779C26.0763 9.58766 25.9531 9.54358 25.8277 9.50555C25.7024 9.46752 25.5754 9.43573 25.4469 9.41017C25.3185 9.38461 25.189 9.36542 25.0587 9.35258C24.9283 9.33973 24.7976 9.33331 24.6666 9.33331L24.6666 9.33331ZM9.33325 7.49998C9.33325 7.44526 9.33859 7.39107 9.34926 7.3374C9.35994 7.28374 9.37575 7.23163 9.39668 7.18108C9.41762 7.13052 9.44329 7.0825 9.47369 7.037C9.50409 6.99151 9.53864 6.94941 9.57733 6.91072C9.61602 6.87203 9.65811 6.83749 9.70361 6.80709C9.74911 6.77669 9.79713 6.75102 9.84768 6.73008C9.89823 6.70914 9.95034 6.69333 10.004 6.68266C10.0577 6.67198 10.1119 6.66665 10.1666 6.66665L21.8333 6.66665C21.888 6.66665 21.9422 6.67198 21.9958 6.68266C22.0495 6.69333 22.1016 6.70914 22.1522 6.73008C22.2027 6.75102 22.2507 6.77669 22.2962 6.80709C22.3417 6.83749 22.3838 6.87203 22.4225 6.91072C22.4612 6.94942 22.4957 6.99151 22.5261 7.037C22.5565 7.0825 22.5822 7.13052 22.6032 7.18108C22.6241 7.23163 22.6399 7.28374 22.6506 7.3374C22.6612 7.39107 22.6666 7.44526 22.6666 7.49998L22.6666 9.33331L9.33325 9.33331L9.33325 7.49998ZM22.6666 25.6933C22.6661 25.8009 22.6553 25.9074 22.634 26.0128C22.6127 26.1182 22.5813 26.2206 22.54 26.3199C22.4986 26.4192 22.448 26.5135 22.3882 26.6029C22.3283 26.6923 22.2604 26.775 22.1843 26.851C22.1082 26.9271 22.0255 26.995 21.9362 27.0549C21.8468 27.1147 21.7524 27.1653 21.6532 27.2067C21.5539 27.2481 21.4515 27.2794 21.3461 27.3007C21.2406 27.322 21.1341 27.3329 21.0266 27.3333L10.9733 27.3333C10.8657 27.3329 10.7592 27.322 10.6538 27.3007C10.5483 27.2794 10.446 27.2481 10.3467 27.2067C10.2474 27.1653 10.1531 27.1147 10.0637 27.0549C9.97431 26.995 9.89159 26.9271 9.81554 26.851C9.73948 26.775 9.67153 26.6923 9.61168 26.6029C9.55183 26.5135 9.50122 26.4192 9.45986 26.3199C9.4185 26.2206 9.38716 26.1182 9.36586 26.0128C9.34455 25.9074 9.33369 25.8009 9.33325 25.6933L9.33325 19.64C9.33369 19.5324 9.34455 19.4259 9.36586 19.3205C9.38716 19.2151 9.4185 19.1127 9.45986 19.0134C9.50122 18.9141 9.55183 18.8198 9.61168 18.7304C9.67153 18.641 9.73948 18.5583 9.81554 18.4823C9.89159 18.4062 9.97431 18.3383 10.0637 18.2784C10.1531 18.2186 10.2474 18.1679 10.3467 18.1266C10.446 18.0852 10.5483 18.0539 10.6538 18.0326C10.7592 18.0113 10.8657 18.0004 10.9733 18L21.0266 18C21.1341 18.0004 21.2406 18.0113 21.3461 18.0326C21.4515 18.0539 21.5539 18.0852 21.6532 18.1266C21.7524 18.1679 21.8468 18.2186 21.9362 18.2784C22.0255 18.3383 22.1082 18.4062 22.1843 18.4823C22.2604 18.5583 22.3283 18.641 22.3882 18.7304C22.448 18.8198 22.4986 18.9141 22.54 19.0134C22.5813 19.1127 22.6127 19.2151 22.634 19.3205C22.6553 19.4259 22.6661 19.5324 22.6666 19.64L22.6666 25.6933ZM27.3333 19.3333C27.3333 19.4207 27.329 19.5078 27.3204 19.5947C27.3119 19.6816 27.2991 19.7679 27.282 19.8536C27.265 19.9392 27.2438 20.0238 27.2184 20.1074C27.1931 20.191 27.1637 20.2731 27.1303 20.3538C27.0968 20.4345 27.0595 20.5133 27.0184 20.5904C26.9772 20.6674 26.9324 20.7422 26.8838 20.8148C26.8353 20.8875 26.7834 20.9575 26.7279 21.025C26.6725 21.0925 26.614 21.1572 26.5522 21.2189C26.4904 21.2807 26.4258 21.3393 26.3583 21.3947C26.2908 21.4501 26.2207 21.502 26.1481 21.5506C26.0755 21.5991 26.0007 21.6439 25.9236 21.6851C25.8466 21.7263 25.7678 21.7636 25.6871 21.797C25.6064 21.8304 25.5243 21.8598 25.4407 21.8852C25.3571 21.9105 25.2725 21.9317 25.1868 21.9487C25.1012 21.9658 25.0149 21.9786 24.928 21.9871C24.8411 21.9957 24.7539 22 24.6666 22L23.9999 22L23.9999 19.64C23.9999 19.5426 23.9951 19.4455 23.9856 19.3485C23.9761 19.2516 23.9618 19.1554 23.9428 19.0599C23.9238 18.9644 23.9002 18.8701 23.8719 18.7769C23.8436 18.6837 23.8109 18.5921 23.7736 18.5021C23.7363 18.4122 23.6947 18.3242 23.6488 18.2384C23.6029 18.1525 23.5529 18.069 23.4988 17.9881C23.4447 17.9071 23.3868 17.829 23.325 17.7537C23.2632 17.6784 23.1979 17.6064 23.1291 17.5375C23.0602 17.4687 22.9881 17.4033 22.9128 17.3416C22.8376 17.2798 22.7595 17.2218 22.6785 17.1677C22.5975 17.1136 22.5141 17.0636 22.4282 17.0177C22.3423 16.9718 22.2544 16.9302 22.1644 16.893C22.0745 16.8557 21.9829 16.8229 21.8897 16.7947C21.7965 16.7664 21.7022 16.7428 21.6067 16.7238C21.5111 16.7048 21.4149 16.6905 21.318 16.681C21.2211 16.6714 21.124 16.6666 21.0266 16.6666L10.9733 16.6666C10.8759 16.6666 10.7787 16.6714 10.6818 16.681C10.5849 16.6905 10.4887 16.7048 10.3932 16.7238C10.2977 16.7428 10.2033 16.7664 10.1101 16.7947C10.017 16.8229 9.92537 16.8557 9.83541 16.893C9.74544 16.9302 9.65751 16.9718 9.57163 17.0177C9.48575 17.0636 9.40233 17.1136 9.32136 17.1677C9.24039 17.2218 9.16227 17.2798 9.08699 17.3416C9.01171 17.4033 8.93965 17.4687 8.87079 17.5375C8.80193 17.6064 8.73661 17.6784 8.67483 17.7537C8.61306 17.829 8.55512 17.9071 8.50102 17.9881C8.44691 18.069 8.39691 18.1525 8.35101 18.2384C8.3051 18.3242 8.26352 18.4122 8.22625 18.5021C8.18898 18.5921 8.15622 18.6837 8.12795 18.7769C8.09968 18.8701 8.07605 18.9644 8.05705 19.0599C8.03805 19.1554 8.02378 19.2516 8.01424 19.3485C8.00469 19.4455 7.99992 19.5426 7.99992 19.64L7.99992 22L7.33325 22C7.24592 22 7.15879 21.9957 7.07187 21.9871C6.98496 21.9786 6.89867 21.9658 6.81301 21.9487C6.72735 21.9317 6.64274 21.9105 6.55916 21.8852C6.47558 21.8598 6.39345 21.8304 6.31276 21.797C6.23207 21.7636 6.15322 21.7263 6.07619 21.6851C5.99917 21.6439 5.92435 21.5991 5.85173 21.5506C5.77911 21.502 5.70905 21.4501 5.64154 21.3947C5.57402 21.3393 5.50939 21.2807 5.44763 21.2189C5.38588 21.1572 5.3273 21.0925 5.27189 21.025C5.21649 20.9575 5.16452 20.8875 5.116 20.8148C5.06748 20.7422 5.02263 20.6674 4.98146 20.5904C4.94029 20.5133 4.903 20.4345 4.86957 20.3538C4.83615 20.2731 4.80676 20.191 4.78141 20.1074C4.75606 20.0238 4.73486 19.9392 4.71782 19.8536C4.70079 19.7679 4.68799 19.6816 4.67943 19.5947C4.67087 19.5078 4.66659 19.4207 4.66659 19.3333L4.66659 13.3333C4.66659 13.246 4.67087 13.1589 4.67943 13.0719C4.68799 12.985 4.70079 12.8987 4.71782 12.8131C4.73486 12.7274 4.75606 12.6428 4.78141 12.5592C4.80676 12.4756 4.83615 12.3935 4.86957 12.3128C4.903 12.2321 4.94029 12.1533 4.98146 12.0763C5.02263 11.9992 5.06748 11.9244 5.116 11.8518C5.16452 11.7792 5.21649 11.7091 5.27189 11.6416C5.3273 11.5741 5.38588 11.5095 5.44763 11.4477C5.50939 11.3859 5.57403 11.3274 5.64154 11.272C5.70905 11.2165 5.77911 11.1646 5.85173 11.1161C5.92435 11.0675 5.99917 11.0227 6.07619 10.9815C6.15322 10.9404 6.23207 10.9031 6.31276 10.8696C6.39345 10.8362 6.47558 10.8068 6.55916 10.7815C6.64274 10.7561 6.72735 10.7349 6.81301 10.7179C6.89867 10.7008 6.98496 10.688 7.07187 10.6795C7.15879 10.6709 7.24592 10.6666 7.33325 10.6666L24.6666 10.6666C24.7539 10.6666 24.841 10.6709 24.928 10.6795C25.0149 10.688 25.1012 10.7008 25.1868 10.7179C25.2725 10.7349 25.3571 10.7561 25.4407 10.7815C25.5243 10.8068 25.6064 10.8362 25.6871 10.8696C25.7678 10.9031 25.8466 10.9404 25.9236 10.9815C26.0007 11.0227 26.0755 11.0675 26.1481 11.1161C26.2207 11.1646 26.2908 11.2165 26.3583 11.272C26.4258 11.3274 26.4904 11.3859 26.5522 11.4477C26.614 11.5095 26.6725 11.5741 26.7279 11.6416C26.7834 11.7091 26.8353 11.7792 26.8838 11.8518C26.9324 11.9244 26.9772 11.9992 27.0184 12.0763C27.0595 12.1533 27.0968 12.2321 27.1303 12.3128C27.1637 12.3935 27.1931 12.4756 27.2184 12.5592C27.2438 12.6428 27.265 12.7274 27.282 12.8131C27.2991 12.8987 27.3119 12.985 27.3204 13.0719C27.329 13.1589 27.3333 13.246 27.3333 13.3333L27.3333 19.3333Z" fill="rgb(56,56,56)" fill-rule="nonzero" />
	<path id="矢量 51" d="M24.5 12.3533L21.26 12.3533C21.2162 12.3534 21.1729 12.3577 21.1301 12.3663C21.0872 12.3749 21.0455 12.3876 21.0051 12.4043C20.9648 12.4211 20.9264 12.4417 20.89 12.466C20.8537 12.4903 20.8201 12.518 20.7892 12.5489C20.7583 12.5799 20.7307 12.6135 20.7064 12.6499C20.6821 12.6863 20.6616 12.7247 20.6449 12.7651C20.6282 12.8055 20.6156 12.8472 20.607 12.8901C20.5985 12.9329 20.5942 12.9763 20.5942 13.02C20.5942 13.0637 20.5985 13.1071 20.607 13.1499C20.6156 13.1928 20.6282 13.2345 20.6449 13.2749C20.6616 13.3153 20.6821 13.3537 20.7064 13.3901C20.7307 13.4265 20.7583 13.4601 20.7892 13.4911C20.8201 13.522 20.8537 13.5497 20.89 13.574C20.9264 13.5983 20.9648 13.6189 21.0051 13.6357C21.0455 13.6524 21.0872 13.6651 21.1301 13.6737C21.1729 13.6823 21.2162 13.6866 21.26 13.6867L24.5 13.6867C24.5437 13.6866 24.587 13.6823 24.6299 13.6737C24.6728 13.6651 24.7144 13.6524 24.7548 13.6357C24.7952 13.6189 24.8336 13.5983 24.8699 13.574C24.9063 13.5497 24.9399 13.522 24.9708 13.4911C25.0017 13.4601 25.0293 13.4265 25.0536 13.3901C25.0778 13.3537 25.0983 13.3153 25.1151 13.2749C25.1318 13.2345 25.1444 13.1928 25.1529 13.1499C25.1615 13.1071 25.1657 13.0637 25.1657 13.02C25.1657 12.9763 25.1615 12.9329 25.1529 12.8901C25.1444 12.8472 25.1318 12.8055 25.1151 12.7651C25.0983 12.7247 25.0778 12.6863 25.0536 12.6499C25.0293 12.6135 25.0017 12.5799 24.9708 12.5489C24.9399 12.518 24.9063 12.4903 24.8699 12.466C24.8336 12.4417 24.7952 12.4211 24.7548 12.4043C24.7144 12.3876 24.6728 12.3749 24.6299 12.3663C24.587 12.3577 24.5437 12.3534 24.5 12.3533Z" fill="rgb(56,56,56)" fill-rule="nonzero" />
</svg>
