<svg viewBox="0 0 32 32" xmlns="http://www.w3.org/2000/svg" xmlns:xlink="http://www.w3.org/1999/xlink" width="32" height="32" fill="none">
	<rect id="2d_pasteDim" width="32" height="32" x="0" y="0" />
	<path id="矢量 58" d="M14.3406 3.80595L17.9535 3.80595C18.0129 3.80595 18.0716 3.80017 18.1298 3.7886C18.1879 3.77703 18.2444 3.7599 18.2992 3.73722C18.354 3.71453 18.406 3.68671 18.4554 3.65377C18.5047 3.62083 18.5503 3.5834 18.5922 3.54148C18.6342 3.49955 18.6716 3.45394 18.7046 3.40464C18.7375 3.35534 18.7653 3.30331 18.788 3.24853C18.8107 3.19375 18.8278 3.13729 18.8394 3.07914C18.851 3.02099 18.8568 2.96227 18.8568 2.90298C18.8568 2.84369 18.851 2.78496 18.8394 2.72681C18.8278 2.66866 18.8107 2.6122 18.788 2.55742C18.7653 2.50264 18.7375 2.45061 18.7046 2.40131C18.6716 2.35201 18.6342 2.3064 18.5922 2.26448C18.5503 2.22255 18.5047 2.18512 18.4554 2.15218C18.406 2.11924 18.354 2.09142 18.2992 2.06873C18.2444 2.04605 18.1879 2.02892 18.1298 2.01735C18.0716 2.00578 18.0129 2 17.9535 2L14.3406 2C14.2813 2 14.2226 2.00578 14.1644 2.01735C14.1063 2.02892 14.0498 2.04605 13.995 2.06873C13.9402 2.09142 13.8882 2.11924 13.8388 2.15218C13.7895 2.18512 13.7439 2.22255 13.702 2.26448C13.66 2.3064 13.6226 2.35201 13.5896 2.40131C13.5567 2.45061 13.5289 2.50264 13.5062 2.55742C13.4835 2.6122 13.4663 2.66866 13.4548 2.72681C13.4432 2.78496 13.4374 2.84369 13.4374 2.90298C13.4374 2.96227 13.4432 3.02099 13.4548 3.07914C13.4663 3.13729 13.4835 3.19375 13.5062 3.24853C13.5289 3.30331 13.5567 3.35534 13.5896 3.40464C13.6226 3.45394 13.66 3.49955 13.702 3.54148C13.7439 3.5834 13.7895 3.62083 13.8388 3.65377C13.8882 3.68671 13.9402 3.71453 13.995 3.73722C14.0498 3.7599 14.1063 3.77703 14.1644 3.7886C14.2226 3.80017 14.2813 3.80595 14.3406 3.80595ZM8.90323 6.44264C8.96253 6.44264 9.02127 6.43686 9.07944 6.42529C9.1376 6.41372 9.19408 6.39659 9.24887 6.3739C9.30367 6.35121 9.35572 6.3234 9.40503 6.29046C9.45434 6.25752 9.49997 6.22009 9.5419 6.17816C9.58384 6.13624 9.62128 6.09063 9.65423 6.04133C9.68718 5.99203 9.715 5.93999 9.7377 5.88522C9.76039 5.83044 9.77753 5.77398 9.7891 5.71582C9.80067 5.65767 9.80645 5.59895 9.80645 5.53966L9.80645 4.70893C9.80644 4.65039 9.81207 4.5924 9.82334 4.53495C9.83461 4.47751 9.85131 4.42169 9.87344 4.36749C9.89557 4.3133 9.92271 4.26174 9.95487 4.21282C9.98703 4.1639 10.0236 4.11854 10.0646 4.07673C10.1056 4.03492 10.1502 3.99745 10.1985 3.96432C10.2467 3.93119 10.2978 3.90301 10.3515 3.8798C10.4053 3.85659 10.4607 3.83877 10.518 3.82634C10.5752 3.81392 10.6331 3.80712 10.6916 3.80595C10.7509 3.80595 10.8097 3.80017 10.8678 3.7886C10.926 3.77703 10.9825 3.7599 11.0373 3.73722C11.0921 3.71453 11.1441 3.68671 11.1934 3.65377C11.2427 3.62083 11.2884 3.5834 11.3303 3.54148C11.3722 3.49955 11.4097 3.45394 11.4426 3.40464C11.4756 3.35534 11.5034 3.30331 11.5261 3.24853C11.5488 3.19375 11.5659 3.13729 11.5775 3.07914C11.5891 3.02099 11.5948 2.96227 11.5948 2.90298C11.5926 2.8436 11.5847 2.78497 11.5713 2.72708C11.5579 2.6692 11.5392 2.61309 11.5151 2.55875C11.491 2.50442 11.4621 2.45284 11.4282 2.404C11.3944 2.35517 11.3562 2.30995 11.3138 2.26835C11.2713 2.22675 11.2254 2.18952 11.1759 2.15665C11.1264 2.12377 11.0742 2.09585 11.0194 2.07288C10.9646 2.0499 10.9081 2.03229 10.8499 2.02003C10.7918 2.00778 10.733 2.0011 10.6735 2C10.5857 2.00174 10.4982 2.00771 10.4109 2.01791C10.3237 2.02811 10.2371 2.04248 10.1513 2.06104C10.0654 2.0796 9.98067 2.10225 9.897 2.12899C9.81334 2.15573 9.73115 2.18644 9.65045 2.22112C9.56975 2.2558 9.49091 2.29429 9.41393 2.33658C9.33695 2.37888 9.26218 2.42478 9.18964 2.4743C9.11709 2.52381 9.0471 2.57671 8.97967 2.63298C8.91224 2.68926 8.84767 2.74865 8.78598 2.81116C8.72429 2.87367 8.66575 2.93901 8.61037 3.00717C8.55499 3.07534 8.50302 3.14601 8.45447 3.2192C8.40592 3.29238 8.36101 3.36773 8.31974 3.44525C8.27847 3.52277 8.24104 3.6021 8.20743 3.68324C8.17383 3.76437 8.14421 3.84694 8.11859 3.93093C8.09297 4.01493 8.07145 4.09997 8.05404 4.18604C8.03663 4.27211 8.02342 4.35883 8.01439 4.44618C8.00536 4.53353 8.00056 4.62111 8 4.70893L8 5.53966C8 5.59895 8.00578 5.65767 8.01735 5.71582C8.02892 5.77398 8.04606 5.83044 8.06875 5.88522C8.09145 5.93999 8.11927 5.99203 8.15222 6.04133C8.18517 6.09063 8.22261 6.13624 8.26455 6.17816C8.30649 6.22009 8.35211 6.25752 8.40142 6.29046C8.45073 6.3234 8.50278 6.35121 8.55758 6.3739C8.61237 6.39659 8.66885 6.41372 8.72702 6.42529C8.78518 6.43686 8.84392 6.44264 8.90323 6.44264ZM21.6387 3.80595L25.2516 3.80595C25.3109 3.80595 25.3697 3.80017 25.4278 3.7886C25.486 3.77703 25.5425 3.7599 25.5973 3.73722C25.6521 3.71453 25.7041 3.68671 25.7534 3.65377C25.8027 3.62083 25.8483 3.5834 25.8903 3.54148C25.9322 3.49955 25.9697 3.45394 26.0026 3.40464C26.0356 3.35534 26.0634 3.30331 26.0861 3.24853C26.1088 3.19375 26.1259 3.13729 26.1375 3.07914C26.149 3.02099 26.1548 2.96227 26.1548 2.90298C26.1548 2.84369 26.149 2.78496 26.1375 2.72681C26.1259 2.66866 26.1088 2.6122 26.0861 2.55742C26.0634 2.50264 26.0356 2.45061 26.0026 2.40131C25.9697 2.35201 25.9322 2.3064 25.8903 2.26448C25.8484 2.22255 25.8027 2.18512 25.7534 2.15218C25.7041 2.11924 25.6521 2.09142 25.5973 2.06873C25.5425 2.04605 25.486 2.02892 25.4278 2.01735C25.3697 2.00578 25.3109 2 25.2516 2L21.6387 2C21.5794 2 21.5207 2.00578 21.4625 2.01735C21.4043 2.02892 21.3479 2.04605 21.2931 2.06873C21.2383 2.09142 21.1862 2.11924 21.1369 2.15218C21.0876 2.18512 21.042 2.22255 21 2.26448C20.9581 2.3064 20.9207 2.35201 20.8877 2.40131C20.8548 2.45061 20.8269 2.50264 20.8042 2.55742C20.7815 2.6122 20.7644 2.66866 20.7528 2.72681C20.7413 2.78496 20.7355 2.84369 20.7355 2.90298C20.7355 2.96227 20.7413 3.02099 20.7528 3.07914C20.7644 3.13729 20.7815 3.19375 20.8042 3.24853C20.8269 3.30331 20.8548 3.35534 20.8877 3.40464C20.9207 3.45394 20.9581 3.49955 21 3.54148C21.042 3.5834 21.0876 3.62083 21.1369 3.65377C21.1862 3.68671 21.2383 3.71453 21.2931 3.73722C21.3479 3.7599 21.4043 3.77703 21.4625 3.7886C21.5207 3.80017 21.5794 3.80595 21.6387 3.80595ZM28.6477 17.6576C28.5884 17.6576 28.5297 17.6634 28.4715 17.6749C28.4134 17.6865 28.3569 17.7036 28.3021 17.7263C28.2473 17.749 28.1952 17.7768 28.1459 17.8098C28.0966 17.8427 28.051 17.8801 28.0091 17.9221C27.9671 17.964 27.9297 18.0096 27.8967 18.0589C27.8638 18.1082 27.836 18.1602 27.8133 18.215C27.7906 18.2698 27.7734 18.3263 27.7619 18.3844C27.7503 18.4426 27.7445 18.5013 27.7445 18.5606L27.7445 22.1725C27.7457 22.2314 27.7524 22.2897 27.7648 22.3474C27.7771 22.4051 27.7948 22.461 27.8179 22.5153C27.841 22.5696 27.8691 22.6211 27.9021 22.67C27.9351 22.7189 27.9725 22.7642 28.0142 22.8059C28.0559 22.8475 28.1012 22.8849 28.1501 22.9179C28.199 22.9509 28.2505 22.9789 28.3048 23.002C28.3591 23.0251 28.4151 23.0429 28.4728 23.0552C28.5304 23.0676 28.5888 23.0743 28.6477 23.0754C28.707 23.0754 28.7658 23.0697 28.8239 23.0581C28.8821 23.0465 28.9386 23.0294 28.9934 23.0067C29.0482 22.984 29.1002 22.9562 29.1495 22.9233C29.1989 22.8903 29.2445 22.8529 29.2864 22.811C29.3284 22.769 29.3658 22.7234 29.3987 22.6741C29.4317 22.6248 29.4595 22.5728 29.4822 22.518C29.5049 22.4632 29.522 22.4068 29.5336 22.3486C29.5452 22.2905 29.551 22.2318 29.551 22.1725L29.551 18.5606C29.551 18.5013 29.5452 18.4426 29.5336 18.3844C29.522 18.3263 29.5049 18.2698 29.4822 18.215C29.4595 18.1602 29.4317 18.1082 29.3987 18.0589C29.3658 18.0096 29.3284 17.964 29.2864 17.9221C29.2445 17.8801 29.1989 17.8427 29.1495 17.8098C29.1002 17.7768 29.0482 17.749 28.9934 17.7263C28.9386 17.7036 28.8821 17.6865 28.8239 17.6749C28.7658 17.6634 28.707 17.6576 28.6477 17.6576ZM26.8413 23.9604L23.2284 23.9604C23.1694 23.9615 23.1111 23.9682 23.0534 23.9806C22.9957 23.9929 22.9397 24.0107 22.8855 24.0338C22.8312 24.0569 22.7796 24.0849 22.7307 24.1179C22.6818 24.1509 22.6365 24.1882 22.5948 24.2299C22.5531 24.2716 22.5158 24.3169 22.4827 24.3658C22.4497 24.4147 22.4217 24.4662 22.3986 24.5205C22.3755 24.5748 22.3577 24.6307 22.3454 24.6884C22.3331 24.7461 22.3263 24.8044 22.3252 24.8633C22.3252 24.9226 22.3309 24.9813 22.3425 25.0395C22.3541 25.0976 22.3712 25.1541 22.3939 25.2089C22.4166 25.2637 22.4444 25.3157 22.4774 25.365C22.5103 25.4143 22.5478 25.4599 22.5897 25.5018C22.6316 25.5438 22.6773 25.5812 22.7266 25.6141C22.7759 25.6471 22.8279 25.6749 22.8827 25.6976C22.9375 25.7203 22.994 25.7374 23.0522 25.749C23.1103 25.7605 23.1691 25.7663 23.2284 25.7663L26.8413 25.7663C26.9002 25.7663 26.9585 25.7605 27.0162 25.7489C27.0739 25.7373 27.13 25.7201 27.1843 25.6973C27.2385 25.6745 27.2901 25.6465 27.3388 25.6135C27.3875 25.5804 27.4324 25.5428 27.4737 25.5008C27.5149 25.4587 27.5515 25.413 27.5836 25.3637C27.6157 25.3143 27.6426 25.2623 27.6643 25.2075C27.686 25.1528 27.7021 25.0965 27.7126 25.0385C27.723 24.9806 27.7277 24.9222 27.7265 24.8633C27.7243 24.8054 27.7169 24.7482 27.7041 24.6917C27.6914 24.6351 27.6736 24.5802 27.6507 24.527C27.6278 24.4737 27.6002 24.423 27.5679 24.3749C27.5356 24.3268 27.4992 24.282 27.4586 24.2406C27.4181 24.1992 27.374 24.1619 27.3265 24.1287C27.2791 24.0954 27.2289 24.0668 27.1761 24.0429C27.1234 24.0189 27.0688 24 27.0125 23.9861C26.9562 23.9722 26.8992 23.9637 26.8413 23.9604ZM29.3342 3.62536C29.3106 3.5739 29.2825 3.5251 29.2497 3.47894C29.217 3.43278 29.1802 3.39008 29.1394 3.35084C29.0986 3.31159 29.0545 3.27649 29.0071 3.24552C28.9598 3.21456 28.9099 3.18829 28.8576 3.1667C28.8053 3.14511 28.7514 3.12859 28.6959 3.11713C28.6405 3.10566 28.5845 3.09947 28.5279 3.09854C28.4713 3.0976 28.4151 3.10195 28.3593 3.11158C28.3035 3.12121 28.2491 3.13595 28.1961 3.15581C28.1422 3.1803 28.0911 3.20972 28.0429 3.24406C27.9946 3.2784 27.9501 3.31704 27.9093 3.35996C27.8685 3.40289 27.8322 3.44931 27.8004 3.49924C27.7685 3.54917 27.7418 3.60168 27.7201 3.65677C27.6983 3.71185 27.6821 3.76851 27.6713 3.82673C27.6605 3.88495 27.6554 3.94367 27.656 4.00287C27.6565 4.06208 27.6627 4.12069 27.6746 4.1787C27.6864 4.23671 27.7037 4.29306 27.7265 4.34774C27.7539 4.46813 27.7539 4.58853 27.7265 4.70893L27.7265 7.61651C27.7276 7.67547 27.7343 7.73378 27.7467 7.79144C27.759 7.84911 27.7768 7.90507 27.7999 7.95933C27.823 8.01359 27.851 8.06516 27.884 8.11403C27.917 8.1629 27.9544 8.20819 27.9961 8.24989C28.0378 8.29159 28.0831 8.32894 28.132 8.36194C28.1809 8.39494 28.2325 8.42299 28.2868 8.44608C28.341 8.46918 28.397 8.4869 28.4547 8.49924C28.5124 8.51159 28.5707 8.51834 28.6297 8.51948C28.689 8.51948 28.7477 8.5137 28.8059 8.50213C28.8641 8.49056 28.9205 8.47344 28.9753 8.45075C29.0301 8.42806 29.0822 8.40024 29.1315 8.3673C29.1808 8.33436 29.2264 8.29693 29.2684 8.255C29.3103 8.21308 29.3477 8.16747 29.3807 8.11817C29.4136 8.06887 29.4415 8.01684 29.4641 7.96206C29.4868 7.90728 29.504 7.85082 29.5155 7.79267C29.5271 7.73452 29.5329 7.6758 29.5329 7.61651L29.5329 4.70893C29.5402 4.33426 29.4739 3.97307 29.3342 3.62536ZM28.6477 10.3616C28.5884 10.3616 28.5297 10.3673 28.4715 10.3789C28.4134 10.3905 28.3569 10.4076 28.3021 10.4303C28.2473 10.453 28.1952 10.4808 28.1459 10.5137C28.0966 10.5467 28.051 10.5841 28.0091 10.626C27.9671 10.668 27.9297 10.7136 27.8967 10.7629C27.8638 10.8122 27.836 10.8642 27.8133 10.919C27.7906 10.9737 27.7734 11.0302 27.7619 11.0884C27.7503 11.1465 27.7445 11.2052 27.7445 11.2645L27.7445 14.8764C27.7457 14.9354 27.7524 14.9937 27.7648 15.0514C27.7771 15.109 27.7948 15.165 27.8179 15.2193C27.841 15.2735 27.8691 15.3251 27.9021 15.374C27.9351 15.4228 27.9725 15.4681 28.0142 15.5098C28.0559 15.5515 28.1012 15.5889 28.1501 15.6219C28.199 15.6549 28.2505 15.6829 28.3048 15.706C28.3591 15.7291 28.4151 15.7468 28.4728 15.7592C28.5304 15.7715 28.5888 15.7783 28.6477 15.7794C28.707 15.7794 28.7658 15.7736 28.8239 15.7621C28.8821 15.7505 28.9386 15.7334 28.9934 15.7107C29.0482 15.688 29.1002 15.6602 29.1495 15.6272C29.1989 15.5943 29.2445 15.5568 29.2864 15.5149C29.3284 15.473 29.3658 15.4274 29.3987 15.3781C29.4317 15.3288 29.4595 15.2768 29.4822 15.222C29.5049 15.1672 29.522 15.1107 29.5336 15.0526C29.5452 14.9944 29.551 14.9357 29.551 14.8764L29.551 11.2645C29.551 11.2052 29.5452 11.1465 29.5336 11.0884C29.522 11.0302 29.5049 10.9737 29.4822 10.919C29.4595 10.8642 29.4317 10.8122 29.3987 10.7629C29.3658 10.7136 29.3284 10.668 29.2864 10.626C29.2445 10.5841 29.1989 10.5467 29.1495 10.5137C29.1002 10.4808 29.0482 10.453 28.9934 10.4303C28.9386 10.4076 28.8821 10.3905 28.8239 10.3789C28.7658 10.3673 28.707 10.3616 28.6477 10.3616Z" fill="rgb(56,56,56)" fill-rule="nonzero" />
	<path id="矢量 59" d="M20.8413 29.7663L4.70968 29.7663C4.62093 29.7663 4.5324 29.762 4.44408 29.7533C4.35576 29.7446 4.26809 29.7316 4.18105 29.7143C4.09401 29.697 4.00802 29.6754 3.9231 29.6497C3.83818 29.6239 3.75472 29.5941 3.67273 29.5601C3.59074 29.5262 3.51061 29.4883 3.43234 29.4464C3.35408 29.4046 3.27805 29.3591 3.20426 29.3098C3.13047 29.2605 3.05928 29.2077 2.99068 29.1514C2.92208 29.0951 2.8564 29.0356 2.79365 28.9729C2.73089 28.9102 2.67137 28.8445 2.61507 28.7759C2.55877 28.7073 2.50597 28.6361 2.45666 28.5624C2.40736 28.4886 2.36179 28.4126 2.31996 28.3344C2.27812 28.2561 2.24022 28.176 2.20626 28.094C2.1723 28.0121 2.14244 27.9286 2.11668 27.8437C2.09092 27.7588 2.06938 27.6729 2.05207 27.5859C2.03475 27.4989 2.02175 27.4112 2.01305 27.3229C2.00435 27.2346 2 27.1461 2 27.0574L2 8.70893C2 8.6202 2.00435 8.5317 2.01305 8.44341C2.02175 8.35511 2.03475 8.26746 2.05207 8.18044C2.06938 8.09342 2.09092 8.00747 2.11668 7.92257C2.14244 7.83767 2.1723 7.75423 2.20626 7.67227C2.24022 7.5903 2.27812 7.51019 2.31996 7.43195C2.36179 7.3537 2.40736 7.2777 2.45666 7.20393C2.50597 7.13016 2.55877 7.05898 2.61507 6.9904C2.67137 6.92182 2.73089 6.85616 2.79365 6.79343C2.8564 6.73069 2.92208 6.67118 2.99068 6.6149C3.05928 6.55861 3.13047 6.50583 3.20426 6.45654C3.27805 6.40725 3.35408 6.36169 3.43234 6.31987C3.51061 6.27804 3.59074 6.24016 3.67273 6.2062C3.75472 6.17225 3.83818 6.1424 3.9231 6.11665C4.00802 6.09089 4.09401 6.06936 4.18105 6.05205C4.26809 6.03474 4.35576 6.02174 4.44408 6.01304C4.5324 6.00435 4.62093 6 4.70968 6L20.8413 6C20.93 6 21.0186 6.00435 21.1069 6.01304C21.1952 6.02174 21.2829 6.03474 21.3699 6.05205C21.457 6.06936 21.5429 6.09089 21.6279 6.11665C21.7128 6.1424 21.7962 6.17225 21.8782 6.2062C21.9602 6.24016 22.0404 6.27804 22.1186 6.31987C22.1969 6.36169 22.2729 6.40725 22.3467 6.45654C22.4205 6.50583 22.4917 6.55861 22.5603 6.6149C22.6289 6.67118 22.6946 6.73069 22.7573 6.79343C22.8201 6.85616 22.8796 6.92182 22.9359 6.9904C22.9922 7.05898 23.045 7.13016 23.0943 7.20393C23.1436 7.2777 23.1892 7.3537 23.231 7.43195C23.2728 7.51019 23.3107 7.5903 23.3447 7.67226C23.3787 7.75423 23.4085 7.83767 23.4343 7.92257C23.4601 8.00747 23.4816 8.09342 23.4989 8.18044C23.5162 8.26746 23.5292 8.35511 23.5379 8.44341C23.5466 8.5317 23.551 8.6202 23.551 8.70893L23.551 27.0574C23.551 27.1461 23.5466 27.2346 23.5379 27.3229C23.5292 27.4112 23.5162 27.4989 23.4989 27.5859C23.4816 27.6729 23.4601 27.7588 23.4343 27.8437C23.4085 27.9286 23.3787 28.0121 23.3447 28.094C23.3107 28.176 23.2728 28.2561 23.231 28.3344C23.1892 28.4126 23.1436 28.4886 23.0943 28.5624C23.045 28.6362 22.9922 28.7073 22.9359 28.7759C22.8796 28.8445 22.8201 28.9102 22.7573 28.9729C22.6946 29.0356 22.6289 29.0951 22.5603 29.1514C22.4917 29.2077 22.4205 29.2605 22.3467 29.3098C22.2729 29.3591 22.1969 29.4046 22.1186 29.4464C22.0404 29.4883 21.9602 29.5262 21.8782 29.5601C21.7962 29.5941 21.7128 29.6239 21.6279 29.6497C21.5429 29.6754 21.457 29.697 21.3699 29.7143C21.2829 29.7316 21.1952 29.7446 21.1069 29.7533C21.0186 29.762 20.93 29.7663 20.8413 29.7663ZM4.70968 7.80595C4.65037 7.80595 4.59163 7.81173 4.53347 7.8233C4.4753 7.83487 4.41882 7.852 4.36403 7.87469C4.30924 7.89737 4.25718 7.92519 4.20787 7.95813C4.15856 7.99107 4.11294 8.0285 4.071 8.07043C4.02906 8.11235 3.99162 8.15796 3.95867 8.20726C3.92572 8.25656 3.8979 8.3086 3.87521 8.36337C3.85251 8.41815 3.83538 8.47461 3.82381 8.53276C3.81224 8.59091 3.80645 8.64964 3.80645 8.70893L3.80645 27.0574C3.80645 27.1167 3.81224 27.1754 3.82381 27.2335C3.83538 27.2917 3.85251 27.3482 3.87521 27.4029C3.8979 27.4577 3.92572 27.5097 3.95867 27.559C3.99162 27.6083 4.02906 27.654 4.071 27.6959C4.11294 27.7378 4.15856 27.7752 4.20787 27.8082C4.25718 27.8411 4.30923 27.8689 4.36403 27.8916C4.41882 27.9143 4.4753 27.9314 4.53347 27.943C4.59163 27.9546 4.65037 27.9604 4.70968 27.9604L20.8413 27.9604C20.9006 27.9604 20.9593 27.9546 21.0175 27.943C21.0757 27.9314 21.1321 27.9143 21.1869 27.8916C21.2417 27.8689 21.2938 27.8411 21.3431 27.8082C21.3924 27.7752 21.438 27.7378 21.48 27.6959C21.5219 27.654 21.5593 27.6083 21.5923 27.559C21.6252 27.5097 21.6531 27.4577 21.6758 27.4029C21.6985 27.3482 21.7156 27.2917 21.7272 27.2335C21.7387 27.1754 21.7445 27.1167 21.7445 27.0574L21.7445 8.70893C21.7445 8.64964 21.7387 8.59091 21.7272 8.53276C21.7156 8.47461 21.6985 8.41815 21.6758 8.36337C21.6531 8.30859 21.6252 8.25656 21.5923 8.20726C21.5593 8.15796 21.5219 8.11235 21.48 8.07043C21.438 8.0285 21.3924 7.99107 21.3431 7.95813C21.2938 7.92519 21.2417 7.89737 21.1869 7.87469C21.1321 7.852 21.0757 7.83487 21.0175 7.8233C20.9593 7.81173 20.9006 7.80595 20.8413 7.80595L4.70968 7.80595Z" fill="rgb(56,56,56)" fill-rule="nonzero" />
	<path id="矢量 60" d="M18.5368 12.806L6.90323 12.806C6.84392 12.806 6.78518 12.8002 6.72702 12.7886C6.66885 12.777 6.61237 12.7599 6.55758 12.7372C6.50278 12.7145 6.45073 12.6867 6.40142 12.6538C6.35211 12.6208 6.30648 12.5834 6.26455 12.5415C6.22261 12.4996 6.18517 12.4539 6.15222 12.4046C6.11927 12.3553 6.09145 12.3033 6.06875 12.2485C6.04606 12.1938 6.02893 12.1373 6.01736 12.0791C6.00578 12.021 6 11.9623 6 11.903C6 11.8437 6.00578 11.785 6.01736 11.7268C6.02893 11.6687 6.04606 11.6122 6.06875 11.5574C6.09145 11.5026 6.11927 11.4506 6.15222 11.4013C6.18517 11.352 6.22261 11.3064 6.26455 11.2645C6.30648 11.2226 6.35211 11.1851 6.40142 11.1522C6.45073 11.1192 6.50278 11.0914 6.55758 11.0687C6.61237 11.046 6.66885 11.0289 6.72702 11.0174C6.78518 11.0058 6.84392 11 6.90323 11L18.5368 11C18.5961 11 18.6548 11.0058 18.713 11.0174C18.7712 11.0289 18.8276 11.046 18.8824 11.0687C18.9372 11.0914 18.9893 11.1192 19.0386 11.1522C19.0879 11.1851 19.1335 11.2226 19.1755 11.2645C19.2174 11.3064 19.2548 11.352 19.2878 11.4013C19.3207 11.4506 19.3485 11.5026 19.3712 11.5574C19.3939 11.6122 19.4111 11.6687 19.4226 11.7268C19.4342 11.785 19.44 11.8437 19.44 11.903C19.4389 11.9619 19.4321 12.0202 19.4198 12.0779C19.4074 12.1356 19.3897 12.1915 19.3666 12.2458C19.3435 12.3001 19.3154 12.3516 19.2824 12.4005C19.2494 12.4494 19.212 12.4947 19.1703 12.5364C19.1286 12.5781 19.0833 12.6154 19.0344 12.6484C18.9855 12.6814 18.934 12.7095 18.8797 12.7326C18.8254 12.7556 18.7694 12.7734 18.7118 12.7857C18.6541 12.7981 18.5958 12.8048 18.5368 12.806L18.5368 12.806ZM18.5368 18.2599L6.90323 18.2599C6.84392 18.2599 6.78518 18.2541 6.72702 18.2426C6.66885 18.231 6.61237 18.2139 6.55758 18.1912C6.50278 18.1685 6.45073 18.1407 6.40142 18.1077C6.35211 18.0748 6.30648 18.0374 6.26455 17.9954C6.22261 17.9535 6.18517 17.9079 6.15222 17.8586C6.11927 17.8093 6.09145 17.7573 6.06875 17.7025C6.04606 17.6477 6.02893 17.5913 6.01736 17.5331C6.00578 17.475 6 17.4162 6 17.3569C6 17.2977 6.00578 17.2389 6.01736 17.1808C6.02893 17.1226 6.04606 17.0662 6.06875 17.0114C6.09145 16.9566 6.11927 16.9046 6.15222 16.8553C6.18517 16.806 6.22261 16.7604 6.26455 16.7184C6.30648 16.6765 6.35211 16.6391 6.40142 16.6061C6.45073 16.5732 6.50278 16.5454 6.55758 16.5227C6.61237 16.5 6.66885 16.4829 6.72702 16.4713C6.78518 16.4598 6.84392 16.454 6.90323 16.454L18.5368 16.454C18.5961 16.454 18.6548 16.4598 18.713 16.4713C18.7712 16.4829 18.8276 16.5 18.8824 16.5227C18.9372 16.5454 18.9893 16.5732 19.0386 16.6061C19.0879 16.6391 19.1335 16.6765 19.1755 16.7184C19.2174 16.7604 19.2548 16.806 19.2878 16.8553C19.3207 16.9046 19.3485 16.9566 19.3712 17.0114C19.3939 17.0662 19.4111 17.1226 19.4226 17.1808C19.4342 17.2389 19.44 17.2977 19.44 17.3569C19.44 17.4162 19.4342 17.475 19.4226 17.5331C19.4111 17.5913 19.3939 17.6477 19.3712 17.7025C19.3485 17.7573 19.3207 17.8093 19.2878 17.8586C19.2548 17.9079 19.2174 17.9535 19.1755 17.9954C19.1335 18.0374 19.0879 18.0748 19.0386 18.1077C18.9893 18.1407 18.9372 18.1685 18.8824 18.1912C18.8276 18.2139 18.7712 18.231 18.713 18.2426C18.6548 18.2541 18.5961 18.2599 18.5368 18.2599L18.5368 18.2599ZM18.5368 23.7139L6.90323 23.7139C6.84392 23.7139 6.78518 23.7081 6.72702 23.6965C6.66885 23.685 6.61237 23.6678 6.55758 23.6452C6.50278 23.6225 6.45073 23.5947 6.40142 23.5617C6.35211 23.5288 6.30648 23.4913 6.26455 23.4494C6.22261 23.4075 6.18517 23.3619 6.15222 23.3126C6.11927 23.2633 6.09145 23.2112 6.06875 23.1565C6.04606 23.1017 6.02893 23.0452 6.01736 22.9871C6.00578 22.9289 6 22.8702 6 22.8109C6 22.7516 6.00578 22.6929 6.01736 22.6348C6.02893 22.5766 6.04606 22.5201 6.06875 22.4654C6.09145 22.4106 6.11927 22.3585 6.15222 22.3092C6.18517 22.26 6.22261 22.2143 6.26455 22.1724C6.30648 22.1305 6.35211 22.0931 6.40142 22.0601C6.45073 22.0272 6.50278 21.9994 6.55758 21.9767C6.61237 21.954 6.66885 21.9369 6.72702 21.9253C6.78518 21.9137 6.84392 21.9079 6.90323 21.9079L18.5368 21.9079C18.5958 21.9091 18.6541 21.9158 18.7118 21.9282C18.7694 21.9405 18.8254 21.9582 18.8797 21.9813C18.934 22.0044 18.9855 22.0325 19.0344 22.0655C19.0833 22.0985 19.1286 22.1358 19.1703 22.1775C19.212 22.2192 19.2494 22.2645 19.2824 22.3134C19.3154 22.3623 19.3435 22.4138 19.3666 22.4681C19.3897 22.5224 19.4074 22.5783 19.4198 22.636C19.4321 22.6936 19.4389 22.752 19.44 22.8109C19.44 22.8702 19.4342 22.9289 19.4226 22.9871C19.4111 23.0452 19.3939 23.1017 19.3712 23.1565C19.3485 23.2112 19.3207 23.2633 19.2878 23.3126C19.2548 23.3619 19.2174 23.4075 19.1755 23.4494C19.1335 23.4913 19.0879 23.5288 19.0386 23.5617C18.9893 23.5947 18.9372 23.6225 18.8824 23.6452C18.8276 23.6678 18.7712 23.685 18.713 23.6965C18.6548 23.7081 18.5961 23.7139 18.5368 23.7139L18.5368 23.7139Z" fill="rgb(56,56,56)" fill-rule="nonzero" />
</svg>
