<svg viewBox="0 0 32 32" xmlns="http://www.w3.org/2000/svg" xmlns:xlink="http://www.w3.org/1999/xlink" width="32" height="32" fill="none">
	<rect id="2d_proportion" width="32" height="32" x="0" y="0" />
	<path id="矢量 43" d="M26.6931 25.3453C27.817 25.3453 28.7291 24.4637 28.7291 23.3774L28.7291 19.2763C28.7291 18.19 27.817 17.3083 26.6931 17.3083L5.82487 17.3083C4.70097 17.3083 3.78882 18.19 3.78882 19.2763L3.78882 23.3774C3.78882 24.4637 4.70097 25.3453 5.82487 25.3453L26.6931 25.3453ZM5.66742 18.0745L6.95692 18.0745L6.95692 19.8824C6.95692 20.0949 7.13338 20.2655 7.35327 20.2655C7.57317 20.2655 7.74962 20.0949 7.74962 19.8824L7.74962 18.0745L10.5214 18.0745L10.5214 19.9873C10.5214 20.1999 10.6978 20.3704 10.9177 20.3704C11.1376 20.3704 11.3141 20.1999 11.3141 19.9873L11.3141 18.0745L13.6895 18.0745L13.6895 19.8824C13.6895 20.0949 13.8659 20.2655 14.0858 20.2655C14.3057 20.2655 14.4822 20.0949 14.4822 19.8824L14.4822 18.0745L17.2539 18.0745L17.2539 19.9873C17.2539 20.1999 17.4304 20.3704 17.6503 20.3704C17.8702 20.3704 18.0466 20.1999 18.0466 19.9873L18.0466 18.0745L20.8184 18.0745L20.8184 19.9873C20.8184 20.1999 20.9948 20.3704 21.2147 20.3704C21.4346 20.3704 21.6111 20.1999 21.6111 19.9873L21.6111 18.0745L23.9865 18.0745L23.9865 19.8824C23.9865 20.0949 24.1629 20.2655 24.3828 20.2655C24.6027 20.2655 24.7792 20.0949 24.7792 19.8824L24.7792 18.0745L26.7012 18.0745C27.3881 18.0745 27.9446 18.6124 27.9446 19.2763L27.9446 23.3852C27.9446 24.0491 27.3881 24.5765 26.7012 24.5765L5.66742 24.5765C4.98059 24.5765 4.58152 24.0465 4.58152 23.3852L4.58152 19.2763C4.58152 18.615 4.9833 18.0745 5.66742 18.0745Z" fill="rgb(56,56,56)" fill-rule="nonzero" />
	<path id="矢量 45" d="M28.5228 14.2241L4.05486 14.2241C3.90827 14.2241 3.78882 14.1087 3.78882 13.967L3.78882 13.5655C3.78882 13.4239 3.90827 13.3084 4.05486 13.3084L28.5228 13.3084C28.6694 13.3084 28.7889 13.4239 28.7889 13.5655L28.7889 13.967C28.7889 14.1087 28.6694 14.2241 28.5228 14.2241Z" fill="rgb(56,56,56)" fill-rule="nonzero" />
	<path id="" d="M8.31616 8.92365L8.60522 8.02911C8.81226 7.36505 9.00562 6.73224 9.18921 6.04474L9.22046 6.04474C9.41187 6.72443 9.59741 7.36505 9.81226 8.02911L10.0935 8.92365L8.31616 8.92365ZM10.8376 11.3084L11.6208 11.3084L9.62866 5.44513L8.80444 5.44513L6.81226 11.3084L7.56421 11.3084L8.13257 9.51544L10.2771 9.51544L10.8376 11.3084ZM14.5481 8.18927C14.8372 8.18927 15.0774 7.95685 15.0774 7.63654C15.0774 7.3006 14.8372 7.06818 14.5481 7.06818C14.261 7.06818 14.0208 7.3006 14.0208 7.63654C14.0208 7.95685 14.261 8.18927 14.5481 8.18927ZM14.5481 11.4119C14.8372 11.4119 15.0774 11.1893 15.0774 10.8611C15.0774 10.533 14.8372 10.2928 14.5481 10.2928C14.261 10.2928 14.0208 10.533 14.0208 10.8611C14.0208 11.1893 14.261 11.4119 14.5481 11.4119ZM18.2536 11.3084L20.1247 11.3084C21.4372 11.3084 22.3493 10.7401 22.3493 9.58771C22.3493 8.78888 21.8532 8.32404 21.1481 8.18927L21.1481 8.14825C21.7009 7.97247 22.0134 7.46075 22.0134 6.87677C22.0134 5.84357 21.1891 5.44513 19.9977 5.44513L18.2536 5.44513L18.2536 11.3084ZM18.9977 7.94122L18.9977 6.02911L19.9001 6.02911C20.8122 6.02911 21.2849 6.28497 21.2849 6.97247C21.2849 7.56427 20.8766 7.94122 19.8688 7.94122L18.9977 7.94122ZM18.9977 10.7166L18.9977 8.50763L20.0212 8.50763C21.0446 8.50763 21.6208 8.83575 21.6208 9.56427C21.6208 10.3572 21.029 10.7166 20.0212 10.7166L18.9977 10.7166Z" fill="rgb(56,56,56)" fill-rule="nonzero" />
</svg>
