<?xml version="1.0" encoding="UTF-8"?>
<svg id="_图标" data-name="图标" xmlns="http://www.w3.org/2000/svg" viewBox="0 0 32 32">
  <defs>
    <style>
      .cls-1 {
        fill: #ba9600;
      }
    </style>
  </defs>
  <path class="cls-1" d="M24.42,6.31v-.03c-.23-1.31.65-2.56,1.97-2.79h0c1.32-.23,2.57.65,2.8,1.96v.03c.23,1.31-.65,2.56-1.97,2.79h0c-1.32.23-2.57-.65-2.8-1.96Z"/>
  <path class="cls-1" d="M20.41,29.55c-.19,0-.38-.07-.53-.22L2.7,12.15c-.29-.29-.29-.77,0-1.06s.77-.29,1.06,0l17.18,17.18c.29.29.29.77,0,1.06-.15.15-.34.22-.53.22Z"/>
  <g>
    <path class="cls-1" d="M15.73,17.89c-.19,0-.38-.07-.53-.22-.29-.29-.3-.77,0-1.06l8.08-8.21c.29-.3.76-.3,1.06,0,.29.29.3.77,0,1.06l-8.08,8.21c-.15.15-.34.22-.53.22Z"/>
    <polygon class="cls-1" points="17.79 18.24 13.47 19.44 14.59 15.09 17.79 18.24"/>
  </g>
</svg>