<?xml version="1.0" encoding="UTF-8"?>
<svg id="_图层_5" data-name="图层 5" xmlns="http://www.w3.org/2000/svg" viewBox="0 0 32 32">
  <defs>
    <style>
      .cls-1 {
        fill: #57b8ff;
      }
    </style>
  </defs>
  <g>
    <path class="cls-1" d="M28.95,19.6H3c-.41,0-.75-.34-.75-.75s.34-.75.75-.75h25.95c.41,0,.75.34.75.75s-.34.75-.75.75Z"/>
    <path class="cls-1" d="M28.95,27.38H3c-.41,0-.75-.34-.75-.75s.34-.75.75-.75h25.95c.41,0,.75.34.75.75s-.34.75-.75.75Z"/>
    <path class="cls-1" d="M24.83,24.48c-.41,0-.75-.34-.75-.75v-4.55c0-.41.34-.75.75-.75s.75.34.75.75v4.55c0,.41-.34.75-.75.75Z"/>
    <path class="cls-1" d="M19.51,22.35c-.41,0-.75-.34-.75-.75v-2.13c0-.41.34-.75.75-.75s.75.34.75.75v2.13c0,.41-.34.75-.75.75Z"/>
    <path class="cls-1" d="M29,27.38c-.41,0-.75-.34-.75-.75v-7.16c0-.41.34-.75.75-.75s.75.34.75.75v7.16c0,.41-.34.75-.75.75Z"/>
    <path class="cls-1" d="M3,27.38c-.41,0-.75-.34-.75-.75v-7.64c0-.41.34-.75.75-.75s.75.34.75.75v7.64c0,.41-.34.75-.75.75Z"/>
    <path class="cls-1" d="M14.19,24.03c-.41,0-.75-.34-.75-.75v-3.51c0-.41.34-.75.75-.75s.75.34.75.75v3.51c0,.41-.34.75-.75.75Z"/>
    <path class="cls-1" d="M8.6,24.31c-.41,0-.75-.34-.75-.75v-4.08c0-.41.34-.75.75-.75s.75.34.75.75v4.08c0,.41-.34.75-.75.75Z"/>
  </g>
  <path class="cls-1" d="M7.97,15.12c-.41,0-.75-.34-.75-.75V4.37c0-.41.34-.75.75-.75s.75.34.75.75v10c0,.41-.34.75-.75.75Z"/>
  <path class="cls-1" d="M23.97,15.12c-.41,0-.75-.34-.75-.75V4.37c0-.41.34-.75.75-.75s.75.34.75.75v10c0,.41-.34.75-.75.75Z"/>
  <circle class="cls-1" cx="15.97" cy="6.5" r="1.5"/>
  <circle class="cls-1" cx="16" cy="12.42" r="1.5"/>
</svg>