<svg viewBox="0 0 32 32" xmlns="http://www.w3.org/2000/svg" xmlns:xlink="http://www.w3.org/1999/xlink" width="32" height="32" fill="none">
	<rect id="2d_redo" width="32" height="32" x="0" y="0" transform="matrix(-1,0,0,1,32,0)" />
	<path id="矢量 24" d="M10.5121 0.322366L0.410101 10.4234C0.345092 10.4884 0.287049 10.5591 0.235972 10.6355C0.184895 10.712 0.141765 10.7926 0.106582 10.8776C0.0713996 10.9625 0.0448402 11.0501 0.0269042 11.1402C0.00896811 11.2304 8.9407e-08 11.3214 8.9407e-08 11.4134C8.9407e-08 11.5053 0.00896811 11.5963 0.0269042 11.6865C0.0448402 11.7767 0.0713996 11.8642 0.106582 11.9492C0.141765 12.0341 0.184895 12.1148 0.235972 12.1912C0.287049 12.2676 0.345092 12.3384 0.410101 12.4034L10.5121 22.5054C10.6153 22.6085 10.7343 22.688 10.8691 22.7438C11.0039 22.7995 11.1442 22.8274 11.2901 22.8274L11.4101 22.8214C11.4769 22.814 11.5425 22.8007 11.6068 22.7813C11.6712 22.762 11.7332 22.737 11.793 22.7062C11.8527 22.6755 11.9092 22.6396 11.9624 22.5986C12.0156 22.5575 12.0646 22.5119 12.1094 22.4619C12.1543 22.4118 12.1942 22.3581 12.2292 22.3008C12.2642 22.2434 12.2937 22.1833 12.3176 22.1206C12.3416 22.0578 12.3597 21.9934 12.3719 21.9273C12.3841 21.8612 12.3901 21.7946 12.3901 21.7274L12.3891 15.8204L12.7221 15.8334C17.2871 16.0584 21.4191 18.3414 23.9621 21.9594L25.4421 24.0674L25.7721 21.5114C25.8431 20.9534 25.8791 20.3884 25.8791 19.8194L25.8761 19.5134C25.7131 12.3894 19.8811 6.63537 12.6051 6.32137L12.3901 6.31437L12.3901 1.09937C12.39 0.990602 12.3742 0.884189 12.3426 0.780125C12.3109 0.676062 12.2649 0.578828 12.2044 0.488424C12.1439 0.398019 12.0717 0.318337 11.9876 0.249375C11.9034 0.180414 11.8111 0.125143 11.7106 0.0835614C11.6101 0.0419801 11.5058 0.0158788 11.3975 0.00525741C11.2893 -0.00536395 11.1818 -4.81065e-05 11.0752 0.0212049C10.9685 0.042458 10.8672 0.0787333 10.7713 0.130031C10.6754 0.181329 10.589 0.24544 10.5121 0.322366L10.5121 0.322366ZM10.3901 3.27137L10.3901 8.36637L11.4341 8.32137C11.6141 8.31336 11.7961 8.30937 11.9781 8.30937L12.2811 8.31237C18.2151 8.45637 23.0631 12.7984 23.7861 18.3724L23.8221 18.6944L23.7441 18.6144C20.6921 15.5904 16.4881 13.8164 11.9781 13.8164C11.7691 13.8164 11.5611 13.8194 11.3541 13.8264L10.3901 13.8624L10.3901 19.5554L2.2481 11.4134L10.3901 3.27137Z" fill="rgb(56,56,56)" fill-rule="nonzero" transform="matrix(-1,0,0,1,30.1201,3.92664)" />
</svg>
