<?xml version="1.0" encoding="UTF-8"?>
<svg id="_图标" data-name="图标" xmlns="http://www.w3.org/2000/svg" viewBox="0 0 32 32">
  <defs>
    <style>
      .cls-1 {
        fill: #57b8ff;
      }
    </style>
  </defs>
  <g>
    <path class="cls-1" d="M29.02,25.85H3.03c-.41,0-.75-.34-.75-.75s.34-.75.75-.75h26c.41,0,.75.34.75.75s-.34.75-.75.75Z"/>
    <path class="cls-1" d="M7.16,25.53c-.41,0-.75-.34-.75-.75v-4.36c0-.41.34-.75.75-.75s.75.34.75.75v4.36c0,.41-.34.75-.75.75Z"/>
    <path class="cls-1" d="M12.48,25.25c-.41,0-.75-.34-.75-.75v-2.04c0-.41.34-.75.75-.75s.75.34.75.75v2.04c0,.41-.34.75-.75.75Z"/>
    <path class="cls-1" d="M2.98,25.25c-.41,0-.75-.34-.75-.75v-2.04c0-.41.34-.75.75-.75s.75.34.75.75v2.04c0,.41-.34.75-.75.75Z"/>
    <path class="cls-1" d="M29.02,25.71c-.41,0-.75-.34-.75-.75v-2.04c0-.41.34-.75.75-.75s.75.34.75.75v2.04c0,.41-.34.75-.75.75Z"/>
    <path class="cls-1" d="M17.81,24.97c-.41,0-.75-.34-.75-.75v-3.37c0-.41.34-.75.75-.75s.75.34.75.75v3.37c0,.41-.34.75-.75.75Z"/>
    <path class="cls-1" d="M23.42,25.24c-.41,0-.75-.34-.75-.75v-3.91c0-.41.34-.75.75-.75s.75.34.75.75v3.91c0,.41-.34.75-.75.75Z"/>
  </g>
  <path class="cls-1" d="M26,17.18H6c-.41,0-.75-.34-.75-.75V5.91c0-.41.34-.75.75-.75h20c.41,0,.75.34.75.75v10.52c0,.41-.34.75-.75.75ZM6.75,15.68h18.5V6.66H6.75v9.02Z"/>
  <path class="cls-1" d="M6.38,16.83c-.22,0-.42-.12-.53-.32-.15-.29-.04-.66.25-.81L25.72,5.38c.29-.15.66-.04.81.25s.04.66-.25.81L6.66,16.76c-.09.05-.18.07-.28.07Z"/>
  <path class="cls-1" d="M6.19,11.4c-.22,0-.42-.12-.53-.32-.15-.29-.04-.66.25-.81l9.31-4.9c.29-.15.66-.04.81.25s.04.66-.25.81l-9.31,4.9c-.09.05-.18.07-.28.07Z"/>
  <path class="cls-1" d="M14.78,17.03c-.22,0-.42-.12-.53-.32-.15-.29-.04-.66.25-.81l11.22-5.9c.29-.15.66-.04.81.25s.04.66-.25.81l-11.22,5.9c-.09.05-.18.07-.28.07Z"/>
</svg>