<?xml version="1.0" encoding="UTF-8"?>
<svg id="_图标" data-name="图标" xmlns="http://www.w3.org/2000/svg" viewBox="0 0 32 32">
  <defs>
    <style>
      .cls-1 {
        fill: #57b8ff;
      }
    </style>
  </defs>
  <path class="cls-1" d="M16,30.75c-8.13,0-14.75-6.62-14.75-14.75S7.87,1.25,16,1.25s14.75,6.62,14.75,14.75-6.62,14.75-14.75,14.75ZM16,2.75c-7.31,0-13.25,5.94-13.25,13.25s5.94,13.25,13.25,13.25,13.25-5.94,13.25-13.25S23.31,2.75,16,2.75Z"/>
  <g>
    <path class="cls-1" d="M16.42,16.75c-.19,0-.37-.07-.52-.2-.3-.28-.31-.76-.03-1.06l5.36-5.67c.29-.3.76-.31,1.06-.03.3.28.31.76.03,1.06l-5.36,5.67c-.15.16-.35.23-.55.23Z"/>
    <polygon class="cls-1" points="18.05 7.64 24.67 13.9 24.49 7.46 18.05 7.64"/>
  </g>
</svg>