<?xml version="1.0" encoding="UTF-8"?>
<svg id="_图标" data-name="图标" xmlns="http://www.w3.org/2000/svg" viewBox="0 0 32 32">
  <defs>
    <style>
      .cls-1 {
        fill: #57b8ff;
      }
    </style>
  </defs>
  <path class="cls-1" d="M28,27.97H4c-.43,0-.78-.35-.78-.78s.35-.78.78-.78h24c.43,0,.78.35.78.78s-.35.78-.78.78Z"/>
  <g>
    <path class="cls-1" d="M23.29,23.02l-2.52-6h-9.56l-2.54,6h-1.67L15.32,3.74h1.45l8.22,19.28h-1.71ZM16.52,6.89c-.11-.27-.2-.53-.27-.8l-.23-.67h-.07c-.17.6-.34,1.08-.5,1.44l-3.72,8.94h8.52l-3.73-8.91Z"/>
    <path class="cls-1" d="M25.41,23.29h-2.3l-2.52-6h-9.2l-2.54,6h-2.26L15.15,3.47h1.81l8.45,19.82ZM23.47,22.75h1.12l-7.99-18.74h-1.1L7.41,22.75h1.08l2.54-6h9.92l2.52,6ZM20.66,16.07h-9.34l3.88-9.31c.16-.36.32-.83.49-1.41l.06-.2h.47l.29.86c.07.27.15.52.26.78h0s3.89,9.29,3.89,9.29ZM12.14,15.53h7.71l-3.58-8.53c-.11-.27-.21-.54-.27-.8-.1.3-.2.56-.3.78l-3.56,8.56Z"/>
  </g>
</svg>