<svg viewBox="0 0 32 32" xmlns="http://www.w3.org/2000/svg" xmlns:xlink="http://www.w3.org/1999/xlink" width="32.000000" height="32.000000" fill="none">
	<rect id="2d_shortcutSetting" width="32.000000" height="32.000000" x="0.000000" y="0.000000" />
	<path id="矢量 163" d="M27.5 3.5L4.5 3.5C3.94688 3.5 3.5 3.94688 3.5 4.5L3.5 27.5C3.5 28.0531 3.94688 28.5 4.5 28.5L27.5 28.5C28.0531 28.5 28.5 28.0531 28.5 27.5L28.5 4.5C28.5 3.94688 28.0531 3.5 27.5 3.5ZM26.25 26.25L5.75 26.25L5.75 5.75L26.25 5.75L26.25 26.25ZM11.5875 17.325C9.88125 17.325 8.5 18.7063 8.5 20.4125C8.5 22.1187 9.88125 23.5 11.5875 23.5C13.2937 23.5 14.675 22.1187 14.675 20.4125L14.675 19.0875L17.3219 19.0875L17.3219 20.4125C17.3219 22.1187 18.7031 23.5 20.4094 23.5C22.1156 23.5 23.4969 22.1187 23.4969 20.4125C23.4969 18.7063 22.1156 17.325 20.4094 17.325L19.0844 17.325L19.0844 14.6781L20.4094 14.6781C22.1156 14.6781 23.4969 13.2969 23.4969 11.5906C23.4969 9.88438 22.1156 8.50313 20.4094 8.50313C18.7031 8.50313 17.3219 9.88438 17.3219 11.5906L17.3219 12.9156L14.675 12.9156L14.675 11.5906C14.675 9.88438 13.2937 8.50313 11.5875 8.50313C9.88125 8.50313 8.5 9.88125 8.5 11.5875C8.5 13.2937 9.88125 14.675 11.5875 14.675L12.9125 14.675L12.9125 17.3219L11.5875 17.3219L11.5875 17.325ZM12.9125 20.4125C12.9125 21.1438 12.3187 21.7375 11.5875 21.7375C10.8562 21.7375 10.2625 21.1438 10.2625 20.4125C10.2625 19.6812 10.8562 19.0875 11.5875 19.0875L12.9125 19.0875L12.9125 20.4125ZM19.0875 11.5875C19.0875 10.8563 19.6812 10.2625 20.4125 10.2625C21.1438 10.2625 21.7375 10.8563 21.7375 11.5875C21.7375 12.3188 21.1438 12.9125 20.4125 12.9125L19.0875 12.9125L19.0875 11.5875ZM19.0875 19.0875L20.4125 19.0875C21.1438 19.0875 21.7375 19.6813 21.7375 20.4125C21.7375 21.1438 21.1438 21.7375 20.4125 21.7375C19.6812 21.7375 19.0875 21.1438 19.0875 20.4125L19.0875 19.0875ZM14.675 14.675L17.3219 14.675L17.3219 17.3219L14.675 17.3219L14.675 14.675L14.675 14.675ZM11.5875 12.9125C10.8562 12.9125 10.2625 12.3188 10.2625 11.5875C10.2625 10.8563 10.8562 10.2625 11.5875 10.2625C12.3187 10.2625 12.9125 10.8563 12.9125 11.5875L12.9125 12.9125L11.5875 12.9125Z" fill="rgb(56,56,56)" fill-rule="nonzero" />
</svg>
