<?xml version="1.0" encoding="UTF-8"?>
<svg id="_图层_6" data-name="图层 6" xmlns="http://www.w3.org/2000/svg" viewBox="0 0 32 32">
  <defs>
    <style>
      .cls-1 {
        fill: #ba9600;
      }
    </style>
  </defs>
  <path class="cls-1" d="M28.88,27.39H3.12c-.48,0-.87-.39-.87-.87V5.48c0-.48.39-.87.87-.87h25.77c.48,0,.87.39.87.87v21.04c0,.48-.39.87-.87.87ZM3.75,25.89h24.5V6.11H3.75v19.77Z"/>
  <rect class="cls-1" x="5.65" y="7.83" width="4" height="4" rx=".44" ry=".44"/>
  <rect class="cls-1" x="11.27" y="7.83" width="4" height="4" rx=".44" ry=".44"/>
  <rect class="cls-1" x="16.88" y="7.83" width="4" height="4" rx=".44" ry=".44"/>
  <rect class="cls-1" x="22.5" y="7.83" width="4" height="4" rx=".44" ry=".44"/>
  <rect class="cls-1" x="5.65" y="13.66" width="4" height="4" rx=".44" ry=".44"/>
  <rect class="cls-1" x="11.27" y="13.66" width="4" height="4" rx=".44" ry=".44"/>
  <rect class="cls-1" x="16.88" y="13.66" width="4" height="4" rx=".44" ry=".44"/>
  <rect class="cls-1" x="22.5" y="13.66" width="4" height="4" rx=".44" ry=".44"/>
  <rect class="cls-1" x="5.57" y="19.7" width="15.31" height="4" rx=".44" ry=".44"/>
  <rect class="cls-1" x="22.43" y="19.7" width="4" height="4" rx=".44" ry=".44"/>
</svg>