<?xml version="1.0" encoding="UTF-8"?>
<svg id="_图标" data-name="图标" xmlns="http://www.w3.org/2000/svg" viewBox="0 0 32 32">
  <defs>
    <style>
      .cls-1 {
        fill: #ba9600;
      }
    </style>
  </defs>
  <g>
    <path class="cls-1" d="M15.16,18.49c-.15,0-.29-.04-.42-.13-.34-.23-.43-.7-.2-1.04l7.3-10.78c.23-.34.7-.43,1.04-.2.34.23.43.7.2,1.04l-7.3,10.78c-.15.21-.38.33-.62.33Z"/>
    <path class="cls-1" d="M14.92,27.76c-.14,0-.28-.04-.4-.12-.35-.22-.45-.68-.23-1.03L27.92,5.06c.22-.35.68-.45,1.03-.23.35.22.45.68.23,1.03l-13.63,21.54c-.14.23-.39.35-.63.35Z"/>
    <path class="cls-1" d="M20.93,27.4c-.13,0-.26-.03-.38-.1-.36-.21-.48-.67-.27-1.03l8.04-13.71c.21-.36.67-.48,1.03-.27.36.21.48.67.27,1.03l-8.04,13.71c-.14.24-.39.37-.65.37Z"/>
  </g>
  <path class="cls-1" d="M28.98,24.81c-.41,0-.75-.34-.75-.75V4.83c0-.41.34-.75.75-.75s.75.34.75.75v19.23c0,.41-.34.75-.75.75Z"/>
  <g>
    <path class="cls-1" d="M3.81,8.32l10.17,1.22v18.29l-10.17-1.49V8.32M3.02,6.72c-.39,0-.71.4-.71.91v19.18c0,.46.27.86.63.91l11.75,1.72s.05,0,.08,0c.39,0,.71-.4.71-.91V9.04c0-.47-.28-.87-.64-.91l-11.75-1.41s-.04,0-.07,0h0Z"/>
    <path class="cls-1" d="M15,29.48c-.32,0-.61-.2-.71-.52-.13-.4.09-.82.49-.94l13.98-4.43c.4-.13.82.09.94.49.13.4-.09.82-.49.94l-13.98,4.43c-.08.02-.15.04-.23.04Z"/>
    <path class="cls-1" d="M15.04,9.64c-.32,0-.62-.21-.72-.54-.12-.4.11-.81.51-.93l13.64-3.99c.4-.12.81.11.93.51.12.4-.11.81-.51.93l-13.64,3.99c-.07.02-.14.03-.21.03Z"/>
    <path class="cls-1" d="M3.31,8.12c-.33,0-.63-.22-.72-.56-.11-.4.13-.81.53-.92l12.11-3.23c.4-.11.81.13.92.53.11.4-.13.81-.53.92l-12.11,3.23c-.06.02-.13.03-.19.03Z"/>
    <path class="cls-1" d="M28.98,5.58s-.03,0-.04,0l-13.55-.69c-.41-.02-.73-.37-.71-.79.02-.41.36-.72.79-.71l13.55.69c.41.02.73.37.71.79-.02.4-.35.71-.75.71Z"/>
  </g>
</svg>