<svg viewBox="0 0 32 32" xmlns="http://www.w3.org/2000/svg" xmlns:xlink="http://www.w3.org/1999/xlink" width="32" height="32" fill="none">
	<rect id="2d_screenRotate" width="32" height="32" x="0" y="0" />
	<path id="矢量 48" d="M12.6463 10.7561C12.6833 10.7937 12.7165 10.8343 12.7461 10.8781C12.7756 10.9219 12.801 10.968 12.8222 11.0165C12.8433 11.0651 12.86 11.1152 12.872 11.1668C12.8841 11.2185 12.8914 11.2708 12.8939 11.3238C12.8964 11.3769 12.8942 11.4297 12.8871 11.4823C12.8801 11.5349 12.8683 11.5864 12.8519 11.6368C12.8354 11.6872 12.8146 11.7356 12.7894 11.7821C12.7641 11.8286 12.7349 11.8723 12.7017 11.9133L12.6469 11.9748C12.61 12.0123 12.5699 12.0462 12.5268 12.0762C12.4838 12.1063 12.4383 12.1321 12.3905 12.1537C12.3427 12.1752 12.2934 12.1921 12.2426 12.2043C12.1917 12.2166 12.1402 12.224 12.0879 12.2266C12.0357 12.2292 11.9837 12.2269 11.9319 12.2197C11.8801 12.2125 11.8294 12.2006 11.7798 12.1838C11.7302 12.1671 11.6825 12.1459 11.6367 12.1202C11.591 12.0946 11.5479 12.0648 11.5076 12.0311L11.4471 11.9748L8.24853 8.72509C8.21156 8.68754 8.1783 8.64686 8.14873 8.60306C8.11916 8.55926 8.09379 8.51307 8.07263 8.4645C8.05146 8.41593 8.03486 8.3658 8.02282 8.31412C8.01077 8.26243 8.00349 8.21005 8.00098 8.157C7.99847 8.10394 8.00076 8.0511 8.00786 7.99848C8.01496 7.94585 8.02675 7.89433 8.04323 7.84392C8.0597 7.79351 8.08059 7.74507 8.10588 7.69858C8.13117 7.65209 8.16044 7.60836 8.19369 7.56737L8.24853 7.50589L11.4476 4.25623C11.4857 4.21704 11.5271 4.1819 11.5718 4.15078C11.6165 4.11966 11.6638 4.09314 11.7135 4.07122C11.7632 4.0493 11.8145 4.03238 11.8674 4.02045C11.9203 4.00853 11.9739 4.00181 12.028 4.00032C12.0822 3.99882 12.136 4.00257 12.1895 4.01155C12.2429 4.02054 12.2951 4.03461 12.3459 4.05375C12.3967 4.07289 12.4453 4.09677 12.4916 4.12537C12.5379 4.15397 12.5811 4.18678 12.6212 4.2238C12.6613 4.26082 12.6976 4.30138 12.7301 4.34547C12.7626 4.38956 12.7906 4.43638 12.8143 4.48594C12.8379 4.53549 12.8567 4.58687 12.8706 4.64009C12.8846 4.6933 12.8934 4.74738 12.8972 4.80232C12.9009 4.85725 12.8995 4.91205 12.8929 4.96671C12.8863 5.02137 12.8747 5.0749 12.858 5.12729C12.8413 5.17968 12.8198 5.22998 12.7936 5.2782C12.7675 5.32641 12.737 5.37166 12.7023 5.41395L12.6475 5.47543L10.8964 7.25366L23.0725 7.25366C23.2086 7.25367 23.3443 7.2603 23.4797 7.27358C23.6151 7.28685 23.7495 7.3067 23.8831 7.33312C24.0166 7.35954 24.1485 7.39241 24.2789 7.43173C24.4093 7.47106 24.5376 7.51665 24.6637 7.56852C24.7898 7.62039 24.9131 7.67828 25.0337 7.74221C25.1543 7.80614 25.2716 7.8758 25.3856 7.95119C25.4996 8.02659 25.6098 8.10738 25.7162 8.19355C25.8225 8.27972 25.9246 8.37088 26.0223 8.46703C26.12 8.56318 26.213 8.66388 26.3012 8.76912C26.3894 8.87436 26.4724 8.98366 26.5502 9.09702C26.628 9.21037 26.7003 9.32727 26.7671 9.44769C26.8339 9.56812 26.8948 9.69153 26.9499 9.81791C27.005 9.9443 27.0539 10.0731 27.0968 10.2043C27.1397 10.3354 27.1763 10.4684 27.2066 10.6031C27.2369 10.7379 27.2608 10.8738 27.2782 11.0109C27.2956 11.148 27.3065 11.2856 27.3109 11.4238L27.3132 11.5634L27.3132 24.4908C27.3131 24.5456 27.308 24.6 27.2978 24.6538C27.2875 24.7076 27.2724 24.76 27.2523 24.8109C27.2323 24.8618 27.2076 24.9103 27.1785 24.9564C27.1493 25.0025 27.1161 25.0454 27.0788 25.0851C27.0416 25.1248 27.001 25.1605 26.9571 25.1923C26.9131 25.2242 26.8666 25.2514 26.8175 25.2742C26.7685 25.297 26.7177 25.3149 26.6653 25.3278C26.6128 25.3408 26.5597 25.3486 26.5058 25.3512C26.4519 25.3538 26.3982 25.3513 26.3448 25.3435C26.2914 25.3357 26.2392 25.3229 26.1882 25.305C26.1372 25.2871 26.0883 25.2645 26.0416 25.2371C25.9948 25.2097 25.9511 25.1781 25.9102 25.1422C25.8694 25.1064 25.8323 25.0669 25.7989 25.0239C25.7655 24.9808 25.7364 24.9349 25.7117 24.8862C25.6869 24.8375 25.6669 24.7869 25.6516 24.7343C25.6363 24.6817 25.6261 24.6281 25.6209 24.5735L25.6169 24.4902L25.6169 11.5628C25.6169 11.4807 25.6131 11.3987 25.6054 11.317C25.5977 11.2352 25.5862 11.154 25.5709 11.0734C25.5556 10.9927 25.5366 10.913 25.5138 10.8342C25.491 10.7554 25.4646 10.6778 25.4345 10.6016C25.4045 10.5254 25.3709 10.4507 25.3339 10.3777C25.2968 10.3047 25.2565 10.2337 25.2128 10.1646C25.169 10.0955 25.1222 10.0287 25.0722 9.96415C25.0222 9.8996 24.9694 9.83761 24.9136 9.77818C24.8578 9.71875 24.7993 9.66215 24.7382 9.60838C24.6771 9.55461 24.6137 9.50392 24.5478 9.45629C24.482 9.40867 24.414 9.36434 24.344 9.32329C24.274 9.28225 24.2022 9.24468 24.1287 9.21059C24.0552 9.1765 23.9802 9.14603 23.9038 9.1192C23.8274 9.09237 23.7499 9.06928 23.6714 9.04995C23.5928 9.03062 23.5135 9.01513 23.4335 9.00348C23.3535 8.99183 23.2731 8.98406 23.1924 8.98019L23.0725 8.97732L10.8958 8.97675L12.6469 10.7561L12.6463 10.7561Z" fill="rgb(56,56,56)" fill-rule="nonzero" />
	<path id="矢量 49" d="M20.2662 14C20.3773 14 20.4881 14.0055 20.5987 14.0166C20.7093 14.0277 20.819 14.0442 20.928 14.0662C21.037 14.0883 21.1446 14.1157 21.2509 14.1484C21.3573 14.1812 21.4618 14.2192 21.5644 14.2624C21.6671 14.3056 21.7674 14.3538 21.8654 14.4071C21.9634 14.4603 22.0585 14.5183 22.1509 14.581C22.2433 14.6437 22.3324 14.7109 22.4183 14.7825C22.5042 14.8541 22.5864 14.9299 22.665 15.0097C22.7436 15.0895 22.8181 15.1731 22.8886 15.2604C22.9591 15.3476 23.0252 15.4382 23.0869 15.5321C23.1486 15.626 23.2057 15.7227 23.2581 15.8223C23.3104 15.9218 23.3579 16.0238 23.4004 16.1281C23.4429 16.2324 23.4803 16.3386 23.5126 16.4466C23.5448 16.5547 23.5718 16.664 23.5935 16.7748C23.6151 16.8855 23.6314 16.9971 23.6423 17.1094C23.6532 17.2218 23.6586 17.3344 23.6586 17.4473L23.6586 24.3419C23.6586 24.4548 23.6532 24.5675 23.6423 24.6798C23.6314 24.7922 23.6151 24.9037 23.5935 25.0145C23.5718 25.1252 23.5448 25.2346 23.5126 25.3426C23.4803 25.4507 23.4429 25.5569 23.4004 25.6612C23.3579 25.7655 23.3104 25.8674 23.2581 25.967C23.2057 26.0666 23.1486 26.1633 23.0869 26.2572C23.0252 26.351 22.9591 26.4416 22.8886 26.5289C22.8181 26.6162 22.7436 26.6997 22.665 26.7796C22.5864 26.8594 22.5042 26.9351 22.4183 27.0068C22.3324 27.0784 22.2433 27.1455 22.1509 27.2083C22.0585 27.271 21.9634 27.329 21.8654 27.3822C21.7674 27.4354 21.6671 27.4836 21.5644 27.5268C21.4618 27.57 21.3573 27.608 21.251 27.6408C21.1446 27.6736 21.037 27.701 20.928 27.723C20.819 27.745 20.7093 27.7616 20.5987 27.7727C20.4881 27.7837 20.3773 27.7893 20.2662 27.7893L8.39248 27.7893C8.28137 27.7893 8.17053 27.7837 8.05996 27.7727C7.94939 27.7616 7.83961 27.745 7.73064 27.723C7.62167 27.701 7.51402 27.6736 7.4077 27.6408C7.30137 27.608 7.19689 27.57 7.09423 27.5268C6.99158 27.4836 6.89126 27.4354 6.79328 27.3822C6.69529 27.329 6.6001 27.271 6.50772 27.2083C6.41534 27.1455 6.3262 27.0784 6.24031 27.0068C6.15443 26.9351 6.0722 26.8594 5.99363 26.7796C5.91507 26.6997 5.84054 26.6162 5.77006 26.5289C5.69957 26.4416 5.63346 26.351 5.57174 26.2572C5.51001 26.1633 5.45296 26.0666 5.40058 25.967C5.3482 25.8674 5.30076 25.7655 5.25824 25.6612C5.21572 25.5569 5.17833 25.4507 5.14608 25.3426C5.11383 25.2346 5.08686 25.1252 5.06519 25.0145C5.04351 24.9037 5.02723 24.7922 5.01634 24.6798C5.00545 24.5675 5 24.4548 5 24.3419L5 17.4473C5 17.3344 5.00545 17.2218 5.01634 17.1094C5.02723 16.9971 5.04351 16.8855 5.06519 16.7748C5.08686 16.664 5.11383 16.5547 5.14608 16.4466C5.17833 16.3386 5.21572 16.2324 5.25824 16.1281C5.30076 16.0238 5.3482 15.9218 5.40058 15.8223C5.45296 15.7227 5.51001 15.626 5.57174 15.5321C5.63346 15.4382 5.69957 15.3476 5.77006 15.2604C5.84054 15.1731 5.91507 15.0895 5.99363 15.0097C6.0722 14.9299 6.15443 14.8541 6.24031 14.7825C6.3262 14.7109 6.41534 14.6437 6.50772 14.581C6.6001 14.5183 6.69529 14.4603 6.79328 14.4071C6.89126 14.3538 6.99158 14.3056 7.09423 14.2624C7.19689 14.2192 7.30137 14.1812 7.4077 14.1484C7.51402 14.1157 7.62167 14.0883 7.73064 14.0662C7.83961 14.0442 7.94939 14.0277 8.05996 14.0166C8.17053 14.0055 8.28137 14 8.39248 14L20.2662 14ZM20.2662 15.7237L8.39248 15.7237C8.28529 15.7237 8.17905 15.7339 8.07376 15.7543C7.96848 15.7748 7.86602 15.8051 7.7664 15.8453C7.66677 15.8855 7.57175 15.9349 7.48133 15.9934C7.39091 16.0519 7.3067 16.1185 7.22871 16.1932C7.15072 16.268 7.08033 16.3495 7.01755 16.4377C6.95477 16.526 6.9007 16.6195 6.85536 16.7182C6.81002 16.8169 6.77421 16.9191 6.74793 17.0247C6.72164 17.1303 6.70536 17.2375 6.69907 17.3462L6.69624 17.4473L6.69624 24.3419C6.69623 24.4509 6.7063 24.5588 6.72643 24.6658C6.74657 24.7728 6.77642 24.8769 6.81598 24.9781C6.85554 25.0794 6.9041 25.1759 6.96168 25.2678C7.01925 25.3597 7.08481 25.4453 7.15834 25.5245C7.23188 25.6038 7.31209 25.6753 7.39897 25.7391C7.48586 25.8029 7.57786 25.8578 7.67499 25.9039C7.77213 25.95 7.87265 25.9864 7.97657 26.0131C8.08049 26.0398 8.18596 26.0563 8.29297 26.0627L8.39248 26.0656L20.2662 26.0656C20.3734 26.0656 20.4796 26.0554 20.5849 26.0349C20.6902 26.0145 20.7926 25.9841 20.8923 25.9439C20.9919 25.9037 21.0869 25.8544 21.1773 25.7959C21.2677 25.7374 21.3519 25.6708 21.4299 25.596C21.5079 25.5213 21.5783 25.4398 21.6411 25.3515C21.7039 25.2632 21.7579 25.1697 21.8033 25.071C21.8486 24.9723 21.8844 24.8702 21.9107 24.7646C21.937 24.659 21.9533 24.5518 21.9596 24.4431L21.9624 24.3419L21.9624 17.4473C21.9624 17.3384 21.9523 17.2304 21.9322 17.1234C21.9121 17.0165 21.8822 16.9123 21.8427 16.8111C21.8031 16.7099 21.7545 16.6133 21.697 16.5214C21.6394 16.4296 21.5738 16.344 21.5003 16.2647C21.4268 16.1855 21.3466 16.114 21.2597 16.0502C21.1728 15.9864 21.0808 15.9314 20.9837 15.8854C20.8865 15.8393 20.786 15.8029 20.6821 15.7762C20.5782 15.7495 20.4727 15.7329 20.3657 15.7265L20.2662 15.7237Z" fill="rgb(56,56,56)" fill-rule="nonzero" />
</svg>
