<?xml version="1.0" encoding="UTF-8"?>
<svg id="_图标" data-name="图标" xmlns="http://www.w3.org/2000/svg" viewBox="0 0 32 32">
  <defs>
    <style>
      .cls-1 {
        fill: #57b8ff;
      }
    </style>
  </defs>
  <polygon class="cls-1" points="12.67 2.48 .97 20.56 24.37 20.56 12.67 2.48"/>
  <path class="cls-1" d="M22.37,29.23c-4.37,0-8.29-2.91-9.16-7.09l1.47-.31c.83,3.95,4.95,6.54,9.21,5.76,2.15-.39,3.97-1.56,5.14-3.29,1.05-1.57,1.43-3.43,1.05-5.25-.83-3.95-4.96-6.54-9.21-5.76l-.27-1.48c5.05-.92,9.96,2.19,10.95,6.93.46,2.21.01,4.48-1.27,6.39-1.39,2.07-3.56,3.46-6.11,3.93-.6.11-1.2.16-1.78.16Z"/>
</svg>