<?xml version="1.0" encoding="UTF-8"?>
<svg id="_图标" data-name="图标" xmlns="http://www.w3.org/2000/svg" viewBox="0 0 32 32">
  <defs>
    <style>
      .cls-1 {
        fill: #ba9600;
      }
    </style>
  </defs>
  <g>
    <path class="cls-1" d="M22,29.34c-4.61,0-8.35-3.75-8.35-8.35s3.75-8.35,8.35-8.35,8.35,3.75,8.35,8.35-3.75,8.35-8.35,8.35ZM22,14.13c-3.78,0-6.85,3.07-6.85,6.85s3.07,6.85,6.85,6.85,6.85-3.07,6.85-6.85-3.07-6.85-6.85-6.85Z"/>
    <path class="cls-1" d="M29.48,29.69c-.19,0-.38-.07-.53-.22l-2.35-2.35c-.29-.29-.29-.77,0-1.06s.77-.29,1.06,0l2.35,2.35c.29.29.29.77,0,1.06-.15.15-.34.22-.53.22Z"/>
    <path class="cls-1" d="M26.61,20.97c-.31,0-.59-.19-.71-.49-1.5-4.16-5.01-3.26-5.16-3.22-.4.11-.81-.13-.92-.53-.11-.4.13-.81.53-.92.05-.01,4.99-1.28,6.96,4.16.14.39-.06.82-.45.96-.08.03-.17.04-.26.04Z"/>
  </g>
  <g>
    <path class="cls-1" d="M24.1,5.85h-15.65c-.41,0-.75-.34-.75-.75s.34-.75.75-.75h15.65c.41,0,.75.34.75.75s-.34.75-.75.75Z"/>
    <path class="cls-1" d="M9.44,23.94c-.15,0-.3-.04-.43-.14-6.99-4.94-5.35-11.57-4.33-14.19,1.13-2.88,3.45-5.85,5.25-5.61.41.05.69.42.64.83-.05.41-.42.7-.83.66-.54-.05-2.55,1.74-3.71,4.81-1.07,2.82-1.99,8.17,3.85,12.29.34.24.42.71.18,1.04-.15.21-.38.32-.61.32Z"/>
  </g>
  <g>
    <rect class="cls-1" x="7.36" y="22.32" width="4.07" height="4.19" rx=".66" ry=".66" transform="translate(33.8 15.02) rotate(90)"/>
    <rect class="cls-1" x="2.46" y="12.67" width="4.07" height="4.19" rx=".66" ry=".66" transform="translate(19.25 10.27) rotate(90)"/>
    <rect class="cls-1" x="7.81" y="3.01" width="4.07" height="4.19" rx=".66" ry=".66" transform="translate(14.94 -4.74) rotate(90)"/>
    <rect class="cls-1" x="22.26" y="3.01" width="4.07" height="4.19" rx=".66" ry=".66" transform="translate(29.4 -19.2) rotate(90)"/>
  </g>
</svg>