<svg viewBox="0 0 32 32" xmlns="http://www.w3.org/2000/svg" xmlns:xlink="http://www.w3.org/1999/xlink" width="32" height="32" fill="none">
	<rect id="2d_shapes" width="32" height="32" x="0" y="0" />
	<path id="矢量 32" d="M16.3356 3.27893L8.96721 15.6599L23.7041 15.6599L16.3356 3.27893ZM16.3356 8.09141L19.3665 13.1837L13.3048 13.1837L16.3356 8.09141L16.3356 8.09141ZM9.88827 26.8027C9.77766 26.8027 9.66732 26.7973 9.55724 26.7863C9.44717 26.7754 9.33789 26.7591 9.22941 26.7373C9.12093 26.7156 9.01376 26.6885 8.90792 26.6561C8.80207 26.6238 8.69806 26.5862 8.59587 26.5436C8.49368 26.5009 8.39381 26.4533 8.29627 26.4007C8.19872 26.3481 8.10396 26.2909 8.012 26.2289C7.92003 26.167 7.8313 26.1006 7.7458 26.0299C7.6603 25.9592 7.57844 25.8844 7.50023 25.8055C7.42202 25.7267 7.34783 25.6441 7.27766 25.5579C7.20749 25.4717 7.14168 25.3823 7.08023 25.2896C7.01878 25.1968 6.96199 25.1013 6.90985 25.003C6.85771 24.9046 6.81047 24.8039 6.76815 24.7009C6.72582 24.5979 6.6886 24.493 6.65649 24.3863C6.62439 24.2796 6.59754 24.1716 6.57596 24.0622C6.55439 23.9528 6.53818 23.8427 6.52733 23.7317C6.51649 23.6207 6.51107 23.5095 6.51107 23.398C6.51107 23.2865 6.51649 23.1752 6.52733 23.0643C6.53818 22.9533 6.55439 22.8431 6.57596 22.7337C6.59754 22.6244 6.62439 22.5163 6.65649 22.4096C6.6886 22.3029 6.72582 22.1981 6.76815 22.095C6.81047 21.992 6.85771 21.8913 6.90985 21.793C6.96199 21.6946 7.01878 21.5991 7.08023 21.5064C7.14168 21.4137 7.20749 21.3242 7.27766 21.238C7.34783 21.1518 7.42202 21.0693 7.50023 20.9904C7.57844 20.9116 7.6603 20.8368 7.7458 20.7661C7.8313 20.6953 7.92003 20.629 8.012 20.567C8.10396 20.5051 8.19872 20.4478 8.29627 20.3952C8.39381 20.3427 8.49368 20.2951 8.59587 20.2524C8.69806 20.2097 8.80207 20.1722 8.90792 20.1398C9.01376 20.1075 9.12093 20.0804 9.22941 20.0586C9.33789 20.0369 9.44717 20.0205 9.55724 20.0096C9.66732 19.9987 9.77766 19.9932 9.88827 19.9932C9.99887 19.9932 10.1092 19.9987 10.2193 20.0096C10.3294 20.0205 10.4386 20.0369 10.5471 20.0586C10.6556 20.0804 10.7628 20.1075 10.8686 20.1398C10.9745 20.1722 11.0785 20.2097 11.1807 20.2524C11.2828 20.2951 11.3827 20.3427 11.4803 20.3952C11.5778 20.4478 11.6726 20.5051 11.7645 20.567C11.8565 20.629 11.9452 20.6953 12.0307 20.7661C12.1162 20.8368 12.1981 20.9116 12.2763 20.9904C12.3545 21.0693 12.4287 21.1518 12.4989 21.238C12.569 21.3242 12.6348 21.4137 12.6963 21.5064C12.7577 21.5991 12.8145 21.6946 12.8667 21.793C12.9188 21.8913 12.9661 21.992 13.0084 22.095C13.0507 22.1981 13.0879 22.3029 13.12 22.4096C13.1521 22.5163 13.179 22.6244 13.2006 22.7337C13.2221 22.8431 13.2384 22.9533 13.2492 23.0643C13.26 23.1752 13.2655 23.2865 13.2655 23.398C13.2655 23.5095 13.26 23.6207 13.2492 23.7317C13.2384 23.8427 13.2221 23.9528 13.2006 24.0622C13.179 24.1716 13.1521 24.2796 13.12 24.3863C13.0879 24.493 13.0507 24.5979 13.0084 24.7009C12.9661 24.8039 12.9188 24.9046 12.8667 25.003C12.8145 25.1013 12.7577 25.1968 12.6963 25.2896C12.6348 25.3823 12.569 25.4717 12.4989 25.5579C12.4287 25.6441 12.3545 25.7267 12.2763 25.8055C12.1981 25.8844 12.1162 25.9592 12.0307 26.0299C11.9452 26.1006 11.8565 26.167 11.7645 26.2289C11.6726 26.2909 11.5778 26.3481 11.4803 26.4007C11.3827 26.4533 11.2828 26.5009 11.1807 26.5436C11.0785 26.5862 10.9745 26.6238 10.8686 26.6561C10.7628 26.6885 10.6556 26.7156 10.5471 26.7373C10.4386 26.7591 10.3294 26.7754 10.2193 26.7863C10.1092 26.7973 9.99887 26.8027 9.88827 26.8027ZM9.88827 29.2789C10.0793 29.2789 10.2699 29.2695 10.46 29.2506C10.6502 29.2317 10.8389 29.2035 11.0263 29.1659C11.2137 29.1284 11.3988 29.0816 11.5816 29.0257C11.7644 28.9698 11.9441 28.905 12.1206 28.8313C12.2971 28.7576 12.4696 28.6753 12.6381 28.5845C12.8066 28.4937 12.9702 28.3948 13.1291 28.2878C13.2879 28.1808 13.4412 28.0662 13.5889 27.944C13.7366 27.8218 13.878 27.6926 14.0131 27.5564C14.1481 27.4202 14.2763 27.2777 14.3975 27.1288C14.5187 26.9799 14.6324 26.8254 14.7385 26.6653C14.8446 26.5051 14.9427 26.3401 15.0328 26.1702C15.1229 26.0004 15.2045 25.8265 15.2776 25.6485C15.3507 25.4706 15.415 25.2894 15.4704 25.1051C15.5259 24.9208 15.5722 24.7342 15.6095 24.5453C15.6468 24.3564 15.6748 24.1661 15.6935 23.9744C15.7122 23.7827 15.7216 23.5906 15.7216 23.398C15.7216 23.2054 15.7122 23.0132 15.6935 22.8215C15.6748 22.6299 15.6468 22.4396 15.6095 22.2507C15.5722 22.0618 15.5259 21.8751 15.4704 21.6908C15.415 21.5065 15.3507 21.3254 15.2776 21.1474C15.2045 20.9695 15.1229 20.7956 15.0328 20.6257C14.9427 20.4558 14.8446 20.2908 14.7385 20.1307C14.6324 19.9705 14.5187 19.816 14.3975 19.6671C14.2763 19.5183 14.1481 19.3757 14.0131 19.2395C13.878 19.1033 13.7366 18.9741 13.5889 18.8519C13.4412 18.7298 13.2879 18.6152 13.1291 18.5081C12.9702 18.4011 12.8066 18.3022 12.6381 18.2114C12.4696 18.1206 12.2971 18.0384 12.1206 17.9647C11.9441 17.891 11.7644 17.8262 11.5816 17.7703C11.3988 17.7143 11.2137 17.6676 11.0263 17.63C10.8389 17.5924 10.6502 17.5642 10.46 17.5453C10.2699 17.5265 10.0793 17.517 9.88827 17.517C9.69722 17.517 9.50663 17.5265 9.3165 17.5453C9.12637 17.5642 8.93762 17.5924 8.75024 17.63C8.56286 17.6676 8.37776 17.7143 8.19494 17.7703C8.01212 17.8262 7.83245 17.891 7.65594 17.9647C7.47944 18.0384 7.30694 18.1206 7.13845 18.2114C6.96996 18.3022 6.80629 18.4011 6.64744 18.5081C6.48859 18.6152 6.33532 18.7298 6.18764 18.8519C6.03995 18.9741 5.89857 19.1033 5.76348 19.2395C5.62838 19.3757 5.50024 19.5183 5.37904 19.6671C5.25784 19.816 5.14417 19.9705 5.03803 20.1307C4.93188 20.2908 4.83378 20.4558 4.74372 20.6257C4.65366 20.7956 4.57208 20.9695 4.49897 21.1474C4.42586 21.3254 4.36157 21.5065 4.30611 21.6908C4.25065 21.8751 4.20429 22.0618 4.16702 22.2507C4.12975 22.4396 4.10175 22.6299 4.08302 22.8215C4.06429 23.0132 4.05493 23.2054 4.05493 23.398C4.05493 23.5906 4.06429 23.7827 4.08302 23.9744C4.10175 24.1661 4.12975 24.3564 4.16702 24.5453C4.20429 24.7342 4.25065 24.9208 4.30611 25.1051C4.36157 25.2894 4.42586 25.4706 4.49897 25.6485C4.57208 25.8265 4.65366 26.0004 4.74372 26.1702C4.83378 26.3401 4.93188 26.5051 5.03803 26.6653C5.14417 26.8254 5.25784 26.9799 5.37904 27.1288C5.50024 27.2777 5.62838 27.4202 5.76348 27.5564C5.89857 27.6926 6.03995 27.8218 6.18764 27.944C6.33532 28.0662 6.48859 28.1808 6.64744 28.2878C6.80629 28.3948 6.96996 28.4937 7.13845 28.5845C7.30694 28.6753 7.47944 28.7576 7.65594 28.8313C7.83245 28.905 8.01212 28.9698 8.19494 29.0257C8.37776 29.0816 8.56286 29.1284 8.75024 29.1659C8.93762 29.2035 9.12637 29.2317 9.3165 29.2506C9.50663 29.2695 9.69722 29.2789 9.88827 29.2789ZM20.0198 21.2313L20.0198 26.1837L24.9321 26.1837L24.9321 21.2313L20.0198 21.2313ZM17.5637 28.6599L17.5637 18.7551L27.3883 18.7551L27.3883 28.6599L17.5637 28.6599L17.5637 28.6599Z" fill="rgb(56,56,56)" fill-rule="nonzero" />
</svg>
