<svg viewBox="0 0 32 32" xmlns="http://www.w3.org/2000/svg" xmlns:xlink="http://www.w3.org/1999/xlink" width="32" height="32" fill="none">
	<rect id="2d_text" width="32" height="32" x="0" y="0" />
	<path id="矢量 29" d="M26.6594 28.6375L5.23752 28.6375C4.1469 28.6375 3.2594 27.75 3.2594 26.6594L3.2594 5.23752C3.2594 4.1469 4.1469 3.2594 5.23752 3.2594L26.6594 3.2594C27.75 3.2594 28.6375 4.1469 28.6375 5.23752L28.6375 26.6594C28.6375 27.75 27.75 28.6375 26.6594 28.6375L26.6594 28.6375ZM5.23752 4.51253C4.83752 4.51253 4.5094 4.83752 4.5094 5.24065L4.5094 26.6625C4.5094 27.0625 4.8344 27.3906 5.23752 27.3906L26.6594 27.3906C27.0594 27.3906 27.3875 27.0656 27.3875 26.6625L27.3875 5.23752C27.3875 4.83752 27.0625 4.5094 26.6594 4.5094L5.23752 4.5094L5.23752 4.51253Z" fill="rgb(56,56,56)" fill-rule="nonzero" />
	<path id="矢量 30" d="M21.7406 10.4125L10.4031 10.4125L10.4031 12.625L11.6062 12.625L11.6062 11.6343L15.4187 11.6343L15.4187 21.4062L14.9875 21.4062L14.9875 22.6094L17.075 22.6094L17.075 21.4062L16.725 21.4062L16.725 11.6343L20.5468 11.6343L20.5468 12.625L21.75 12.625L21.75 10.4125L21.7406 10.4125Z" fill="rgb(56,56,56)" fill-rule="nonzero" />
</svg>
