<?xml version="1.0" encoding="UTF-8"?>
<svg id="_图标" data-name="图标" xmlns="http://www.w3.org/2000/svg" viewBox="0 0 32 32">
  <defs>
    <style>
      .cls-1 {
        fill: #57b8ff;
      }
    </style>
  </defs>
  <g>
    <path class="cls-1" d="M21.39,22.26c-.24,0-.48-.09-.66-.27l-5.44-5.43c-.36-.36-.36-.96,0-1.32s.96-.36,1.32,0l5.44,5.43c.36.36.36.96,0,1.32-.18.18-.42.27-.66.27Z"/>
    <path class="cls-1" d="M7.34,7.52c5.67,2.6,13.41,5.11,19.36,5.52l-9.42,4.42-4.42,9.42c-.41-5.95-2.92-13.69-5.52-19.35Z"/>
  </g>
  <g>
    <path class="cls-1" d="M28.75,28.75h-1.95c-.41,0-.75-.34-.75-.75s.34-.75.75-.75h.45v-.45c0-.41.34-.75.75-.75s.75.34.75.75v1.95Z"/>
    <path class="cls-1" d="M23.2,28.75h-2.4c-.41,0-.75-.34-.75-.75s.34-.75.75-.75h2.4c.41,0,.75.34.75.75s-.34.75-.75.75ZM17.2,28.75h-2.4c-.41,0-.75-.34-.75-.75s.34-.75.75-.75h2.4c.41,0,.75.34.75.75s-.34.75-.75.75ZM11.2,28.75h-2.4c-.41,0-.75-.34-.75-.75s.34-.75.75-.75h2.4c.41,0,.75.34.75.75s-.34.75-.75.75Z"/>
    <path class="cls-1" d="M5.2,28.75h-1.95v-1.95c0-.41.34-.75.75-.75s.75.34.75.75v.45h.45c.41,0,.75.34.75.75s-.34.75-.75.75Z"/>
    <path class="cls-1" d="M4,23.95c-.41,0-.75-.34-.75-.75v-2.4c0-.41.34-.75.75-.75s.75.34.75.75v2.4c0,.41-.34.75-.75.75ZM4,17.95c-.41,0-.75-.34-.75-.75v-2.4c0-.41.34-.75.75-.75s.75.34.75.75v2.4c0,.41-.34.75-.75.75ZM4,11.95c-.41,0-.75-.34-.75-.75v-2.4c0-.41.34-.75.75-.75s.75.34.75.75v2.4c0,.41-.34.75-.75.75Z"/>
    <path class="cls-1" d="M4,5.95c-.41,0-.75-.34-.75-.75v-1.95h1.95c.41,0,.75.34.75.75s-.34.75-.75.75h-.45v.45c0,.41-.34.75-.75.75Z"/>
    <path class="cls-1" d="M23.2,4.75h-2.4c-.41,0-.75-.34-.75-.75s.34-.75.75-.75h2.4c.41,0,.75.34.75.75s-.34.75-.75.75ZM17.2,4.75h-2.4c-.41,0-.75-.34-.75-.75s.34-.75.75-.75h2.4c.41,0,.75.34.75.75s-.34.75-.75.75ZM11.2,4.75h-2.4c-.41,0-.75-.34-.75-.75s.34-.75.75-.75h2.4c.41,0,.75.34.75.75s-.34.75-.75.75Z"/>
    <path class="cls-1" d="M28,5.95c-.41,0-.75-.34-.75-.75v-.45h-.45c-.41,0-.75-.34-.75-.75s.34-.75.75-.75h1.95v1.95c0,.41-.34.75-.75.75Z"/>
    <path class="cls-1" d="M28,23.95c-.41,0-.75-.34-.75-.75v-2.4c0-.41.34-.75.75-.75s.75.34.75.75v2.4c0,.41-.34.75-.75.75ZM28,17.95c-.41,0-.75-.34-.75-.75v-2.4c0-.41.34-.75.75-.75s.75.34.75.75v2.4c0,.41-.34.75-.75.75ZM28,11.95c-.41,0-.75-.34-.75-.75v-2.4c0-.41.34-.75.75-.75s.75.34.75.75v2.4c0,.41-.34.75-.75.75Z"/>
  </g>
</svg>