<svg viewBox="0 0 24 24" xmlns="http://www.w3.org/2000/svg" xmlns:xlink="http://www.w3.org/1999/xlink" width="24" height="24" fill="none">
	<rect id="2d_textSearchRegion" width="24" height="24" x="0" y="0" />
	<path id="矢量 104" d="M10.0734 20.8758L8.26401 20.8758L8.26401 19.9805L10.0734 19.9805L10.0734 20.8758ZM6.45464 20.8758L4.64526 20.8758L4.64526 19.9805L6.45464 19.9805L6.45464 20.8758ZM2.83589 20.8758L1.49292 20.8758L1.49292 19.5352L2.38823 19.5352L2.38823 19.9828L2.83589 19.9828L2.83589 20.8758ZM2.38823 17.7258L1.49292 17.7258L1.49292 15.9164L2.38823 15.9164L2.38823 17.7258ZM2.38823 14.107L1.49292 14.107L1.49292 12.2977L2.38823 12.2977L2.38823 14.107ZM2.38823 10.4883L1.49292 10.4883L1.49292 8.67891L2.38823 8.67891L2.38823 10.4883L2.38823 10.4883ZM2.38823 6.86953L1.49292 6.86953L1.49292 5.06016L2.38823 5.06016L2.38823 6.86953ZM2.38823 3.25078L1.49292 3.25078L1.49292 1.91016L2.83589 1.91016L2.83589 2.80547L2.38823 2.80547L2.38823 3.25078ZM17.3085 2.80547L15.4992 2.80547L15.4992 1.91016L17.3085 1.91016L17.3085 2.80547ZM13.6898 2.80547L11.8828 2.80547L11.8828 1.91016L13.6921 1.91016L13.6921 2.80547L13.6898 2.80547ZM10.0734 2.80547L8.26401 2.80547L8.26401 1.91016L10.0734 1.91016L10.0734 2.80547ZM6.45464 2.80547L4.64526 2.80547L4.64526 1.91016L6.45464 1.91016L6.45464 2.80547ZM20.4609 3.25078L19.5656 3.25078L19.5656 2.80547L19.1179 2.80547L19.1179 1.91016L20.4609 1.91016L20.4609 3.25078ZM20.4609 10.4883L19.5656 10.4883L19.5656 8.67891L20.4609 8.67891L20.4609 10.4883ZM20.4609 6.86953L19.5656 6.86953L19.5656 5.06016L20.4609 5.06016L20.4609 6.86953ZM19.575 22.1977C19.5562 22.1977 19.5398 22.1977 19.521 22.1953C19.4109 22.1813 19.3078 22.1227 19.2398 22.0359L16.2281 18.1453L14.85 19.2117C14.7375 19.2984 14.5875 19.3242 14.4515 19.2773C14.3156 19.2305 14.2148 19.118 14.1796 18.9797L12.2601 11.1562C12.2203 10.9945 12.2789 10.8234 12.4125 10.7203C12.5437 10.6172 12.7242 10.6031 12.8718 10.6828L19.9687 14.4961C20.0953 14.5641 20.1773 14.6906 20.189 14.8336C20.2007 14.9766 20.1398 15.1148 20.0273 15.2016L18.6492 16.268L21.6609 20.1586C21.8039 20.3438 21.771 20.6086 21.5859 20.7516L19.8351 22.1086C19.7601 22.1672 19.6687 22.1977 19.575 22.1977L19.575 22.1977ZM16.3054 17.1281C16.432 17.1281 16.5562 17.1844 16.6406 17.2922L19.6523 21.1828L20.7351 20.3438L17.7234 16.4531C17.6554 16.3641 17.625 16.2516 17.639 16.1414C17.6531 16.0312 17.7117 15.9281 17.7984 15.8602L18.996 14.932L13.3101 11.8734L14.8476 18.143L16.0453 17.2148C16.1226 17.1563 16.214 17.1281 16.3054 17.1281L16.3054 17.1281Z" fill="rgb(56,56,56)" fill-rule="nonzero" />
</svg>
