<?xml version="1.0" encoding="UTF-8"?>
<svg id="_图标" data-name="图标" xmlns="http://www.w3.org/2000/svg" viewBox="0 0 32 32">
  <defs>
    <style>
      .cls-1 {
        fill: #57b8ff;
      }
    </style>
  </defs>
  <path class="cls-1" d="M12.34,17.63l-2.05,4.73h-1.78l6.29-14.56h2.15l6.56,14.56h-1.91l-2.11-4.73h-7.14ZM18.97,16.31c-1.81-4.1-2.76-6.16-3.12-7.2h-.03c-.42,1.16-1.49,3.69-2.95,7.2h6.1Z"/>
  <path class="cls-1" d="M16,29.15c-7.42,0-13.45-6.03-13.45-13.45S8.58,2.25,16,2.25s13.45,6.03,13.45,13.45-6.03,13.45-13.45,13.45ZM16,3.75c-6.59,0-11.95,5.36-11.95,11.95s5.36,11.95,11.95,11.95,11.95-5.36,11.95-11.95S22.59,3.75,16,3.75Z"/>
  <path class="cls-1" d="M27.16,29.4c-.26,0-.51-.1-.71-.29l-2.58-2.58c-.39-.39-.39-1.02,0-1.41s1.02-.39,1.41,0l2.58,2.58c.39.39.39,1.02,0,1.41-.2.2-.45.29-.71.29Z"/>
</svg>