<svg viewBox="0 0 32 32" xmlns="http://www.w3.org/2000/svg" xmlns:xlink="http://www.w3.org/1999/xlink" width="32" height="32" fill="none">
	<rect id="2d_textSearch" width="32" height="32" x="0" y="0" />
	<path id="矢量 47" d="M23.4233 21.302L27.5608 25.4394C28.1464 26.0251 28.1464 26.9751 27.5608 27.5607C26.9752 28.1464 26.0251 28.1464 25.4395 27.5607L21.302 23.4234M23.8001 14.8002C23.8001 9.82952 19.7706 5.80001 14.7999 5.80001C9.82951 5.80001 5.80005 9.82952 5.80005 14.8002C5.80005 19.7705 9.82951 23.8 14.7999 23.8C19.7706 23.8 23.8001 19.7705 23.8001 14.8002L23.8001 14.8002ZM21.302 23.4234C16.7727 26.8389 10.3727 26.1674 6.65024 21.8865C2.92774 17.606 3.15202 11.1746 7.16316 7.16345C11.1746 3.15202 17.6056 2.92769 21.8866 6.65016C26.1675 10.3727 26.8389 16.7726 23.4234 21.302" fill="rgb(56,56,56)" fill-rule="nonzero" />
	<path id="" d="M8.52734 14.6152L8.81641 13.7207C9.02344 13.0566 9.2168 12.4238 9.40039 11.7363L9.43164 11.7363C9.62305 12.416 9.80859 13.0566 10.0234 13.7207L10.3047 14.6152L8.52734 14.6152ZM11.0488 17L11.832 17L9.83984 11.1367L9.01562 11.1367L7.02344 17L7.77539 17L8.34375 15.207L10.4883 15.207L11.0488 17ZM12.6568 17L14.5279 17C15.8404 17 16.7525 16.4316 16.7525 15.2793C16.7525 14.4805 16.2564 14.0156 15.5513 13.8809L15.5513 13.8398C16.104 13.6641 16.4165 13.1523 16.4165 12.5684C16.4165 11.5352 15.5923 11.1367 14.4009 11.1367L12.6568 11.1367L12.6568 17ZM13.4009 13.6328L13.4009 11.7207L14.3033 11.7207C15.2154 11.7207 15.688 11.9766 15.688 12.6641C15.688 13.2559 15.2798 13.6328 14.272 13.6328L13.4009 13.6328ZM13.4009 16.4082L13.4009 14.1992L14.4244 14.1992C15.4478 14.1992 16.024 14.5273 16.024 15.2559C16.024 16.0488 15.4322 16.4082 14.4244 16.4082L13.4009 16.4082ZM20.1276 17.1035C20.8874 17.1035 21.4636 16.8008 21.9284 16.2637L21.5202 15.8008C21.1432 16.207 20.7194 16.4551 20.1608 16.4551C19.0397 16.4551 18.3366 15.5273 18.3366 14.0488C18.3366 12.584 19.0729 11.6719 20.1843 11.6719C20.6882 11.6719 21.0807 11.9043 21.3835 12.2324L21.7839 11.752C21.4479 11.377 20.8874 11.0234 20.1765 11.0234C18.6882 11.0234 17.5768 12.1758 17.5768 14.0723C17.5768 15.9766 18.6725 17.1035 20.1276 17.1035Z" fill="rgb(56,56,56)" fill-rule="nonzero" />
</svg>
