<svg viewBox="0 0 32 32" xmlns="http://www.w3.org/2000/svg" xmlns:xlink="http://www.w3.org/1999/xlink" width="32" height="32" fill="none">
	<rect id="2d_undo" width="32" height="32" x="0" y="0" />
	<path id="矢量 24" d="M12.392 4.249L2.28998 14.35C2.22498 14.415 2.16693 14.4857 2.11585 14.5622C2.06478 14.6386 2.02165 14.7193 1.98647 14.8042C1.95128 14.8891 1.92472 14.9767 1.90679 15.0669C1.88885 15.157 1.87988 15.2481 1.87988 15.34C1.87988 15.4319 1.88885 15.523 1.90679 15.6131C1.92472 15.7033 1.95128 15.7909 1.98647 15.8758C2.02165 15.9607 2.06478 16.0414 2.11585 16.1178C2.16693 16.1943 2.22498 16.265 2.28998 16.33L12.392 26.432C12.4952 26.5351 12.6142 26.6146 12.749 26.6704C12.8838 26.7262 13.0241 26.754 13.17 26.754L13.29 26.748C13.3568 26.7407 13.4223 26.7273 13.4867 26.708C13.551 26.6886 13.6131 26.6636 13.6729 26.6329C13.7326 26.6022 13.7891 26.5663 13.8423 26.5252C13.8955 26.4841 13.9445 26.4386 13.9893 26.3885C14.0342 26.3385 14.0741 26.2848 14.1091 26.2274C14.144 26.17 14.1735 26.11 14.1975 26.0472C14.2215 25.9844 14.2396 25.92 14.2518 25.8539C14.2639 25.7878 14.27 25.7212 14.27 25.654L14.269 19.747L14.602 19.76C19.167 19.985 23.299 22.268 25.842 25.886L27.322 27.994L27.652 25.438C27.723 24.88 27.759 24.315 27.759 23.746L27.756 23.44C27.593 16.316 21.761 10.562 14.485 10.248L14.27 10.241L14.27 5.026C14.2699 4.91724 14.2541 4.81082 14.2224 4.70676C14.1908 4.6027 14.1448 4.50546 14.0843 4.41506C14.0238 4.32466 13.9515 4.24497 13.8674 4.17601C13.7833 4.10705 13.691 4.05178 13.5905 4.0102C13.49 3.96862 13.3856 3.94251 13.2774 3.93189C13.1692 3.92127 13.0617 3.92659 12.955 3.94784C12.8484 3.96909 12.7471 4.00537 12.6512 4.05667C12.5553 4.10796 12.4689 4.17208 12.392 4.249L12.392 4.249ZM12.27 7.198L12.27 12.293L13.314 12.248C13.494 12.24 13.676 12.236 13.858 12.236L14.161 12.239C20.095 12.383 24.943 16.725 25.666 22.299L25.702 22.621L25.624 22.541C22.572 19.517 18.368 17.743 13.858 17.743C13.649 17.743 13.441 17.746 13.234 17.753L12.27 17.789L12.27 23.482L4.12798 15.34L12.27 7.198Z" fill="rgb(56,56,56)" fill-rule="nonzero" />
</svg>
