<svg viewBox="0 0 32 32" xmlns="http://www.w3.org/2000/svg" xmlns:xlink="http://www.w3.org/1999/xlink" width="32" height="32" fill="none">
	<rect id="2d_vip" width="32" height="32" x="0" y="0" />
	<path id="矢量 52" d="M25.4827 5L6.54175 5C5.84113 5 5.24235 5.23656 4.74542 5.70968C4.24848 6.1828 4 6.75842 4 7.43656L4 24.5634C4 25.2416 4.24848 25.8172 4.74542 26.2903C5.24235 26.7634 5.84113 27 6.54175 27L25.4827 27C26.1833 27 26.778 26.7634 27.2668 26.2903C27.7556 25.8172 28 25.2416 28 24.5634L28 7.43656C28 6.99497 27.89 6.58495 27.6701 6.20645C27.4501 5.82796 27.1446 5.53226 26.7536 5.31936C26.3625 5.10645 25.9389 5 25.4827 5ZM26.7536 24.5634C26.7536 24.7842 26.6965 24.9892 26.5825 25.1785C26.4684 25.3677 26.3136 25.5176 26.1181 25.628C25.9226 25.7384 25.7108 25.7935 25.4827 25.7935L6.54175 25.7935C6.18329 25.7935 5.88187 25.6713 5.63747 25.4269C5.39308 25.1824 5.27088 24.8946 5.27088 24.5634L5.27088 7.43656C5.27088 7.21578 5.32789 7.01075 5.44196 6.82151C5.55602 6.63226 5.71079 6.48637 5.90631 6.38387C6.10183 6.28137 6.31365 6.23011 6.54175 6.23011L25.4827 6.23011C25.7108 6.23011 25.9226 6.28137 26.1181 6.38387C26.3136 6.48637 26.4684 6.63226 26.5825 6.82151C26.6965 7.01075 26.7536 7.21578 26.7536 7.43656L26.7536 24.5634ZM9.8167 19.9269L6.93279 12.8065C6.90021 12.6803 6.88391 12.5305 6.88391 12.357C6.91649 11.7892 7.24237 11.4738 7.86151 11.4108C8.25255 11.4423 8.54582 11.6552 8.74134 12.0495L10.8187 17.3484L12.8228 12.0495C13.0672 11.6237 13.3768 11.4108 13.7515 11.4108C14.3707 11.4738 14.7128 11.7892 14.778 12.357C14.7454 12.5305 14.7128 12.6803 14.6802 12.8065L11.7963 19.9269C11.5519 20.3685 11.2261 20.5892 10.8187 20.5892C10.3299 20.5892 9.99592 20.3685 9.8167 19.9269ZM15.2912 19.6903L15.2912 12.4043C15.2912 11.7735 15.6171 11.4423 16.2688 11.4108C16.888 11.4423 17.2139 11.7735 17.2464 12.4043L17.2464 19.6903C17.2139 20.2896 16.888 20.5892 16.2688 20.5892C15.6171 20.5892 15.2912 20.2896 15.2912 19.6903ZM18.444 19.6903L18.444 12.5226C18.444 11.8917 18.7698 11.5606 19.4216 11.529L21.7923 11.529C23.8778 11.6552 24.9939 12.6645 25.1405 14.557C24.9939 16.4495 23.8941 17.4667 21.8411 17.6086L20.3992 17.6086L20.3992 19.6903C20.3503 20.2896 20.0244 20.5892 19.4216 20.5892C18.7698 20.5892 18.444 20.2896 18.444 19.6903ZM20.3992 13.2086L20.3992 15.9054L21.7189 15.9054C22.5499 15.8738 22.998 15.4244 23.0631 14.557C22.998 13.7212 22.5499 13.2717 21.7189 13.2086L20.3992 13.2086Z" fill="rgb(56,56,56)" fill-rule="nonzero" />
</svg>
