<svg viewBox="0 0 32 32" xmlns="http://www.w3.org/2000/svg" xmlns:xlink="http://www.w3.org/1999/xlink" width="32" height="32" fill="none">
	<rect id="2d_window" width="32" height="32" x="0" y="0" />
	<path id="path" d="M2.92188 1.95312C2.40625 1.95312 1.98438 2.375 1.98438 2.89062L1.98438 29.0156C1.98438 29.5312 2.40625 29.9531 2.92188 29.9531L29.0469 29.9531C29.5625 29.9531 29.9844 29.5312 29.9844 29.0156L29.9844 2.89062C29.9844 2.375 29.5625 1.95312 29.0469 1.95312L2.92188 1.95312ZM28.0156 26.8906C28.0156 27.4062 27.5938 27.8281 27.0781 27.8281L5.14062 27.8281C4.625 27.8281 4.20312 27.4062 4.20312 26.8906L4.20312 4.95312C4.20312 4.4375 4.625 4.01562 5.14062 4.01562L27.0781 4.01562C27.5938 4.01562 28.0156 4.4375 28.0156 4.95312L28.0156 26.8906ZM7.98438 8.89062C7.98438 8.375 8.40625 7.95312 8.92188 7.95312L10.8281 7.95312C11.3438 7.95312 11.7656 7.53125 11.7656 7.01562L11.7656 6.82812C11.7656 6.3125 11.3438 5.89062 10.8281 5.89062L6.85938 5.89062C6.34375 5.89062 5.92188 6.3125 5.92188 6.82812L5.92188 10.7969C5.92188 11.3125 6.34375 11.7344 6.85938 11.7344L7.04688 11.7344C7.5625 11.7344 7.98438 11.3125 7.98438 10.7969L7.98438 8.89062ZM8.10938 20.8594C8.10938 20.3438 7.6875 19.9219 7.17188 19.9219L6.98438 19.9219C6.46875 19.9219 6.04688 20.3438 6.04688 20.8594L6.04688 24.8281C6.04688 25.3438 6.46875 25.7656 6.98438 25.7656L10.9531 25.7656C11.4688 25.7656 11.8906 25.3438 11.8906 24.8281L11.8906 24.6406C11.8906 24.125 11.4688 23.7031 10.9531 23.7031L9.04688 23.7031C8.53125 23.7031 8.10938 23.2812 8.10938 22.7656L8.10938 20.8594ZM22.8719 8.23625C23.3875 8.225 23.8184 8.6375 23.8297 9.15312L23.8713 11.0591C23.8825 11.5747 24.3134 11.9872 24.8291 11.9759L25.0166 11.9719C25.5322 11.9606 25.9447 11.5297 25.9334 11.0141L25.8919 9.10812L25.8509 7.23344L25.8469 7.04594C25.8356 6.53031 25.4047 6.11781 24.8891 6.12906L24.7016 6.13312L22.8269 6.17406L20.9209 6.21562C20.4053 6.22687 19.9928 6.65781 20.0041 7.17344L20.0081 7.36094C20.0194 7.87656 20.4503 8.28906 20.9659 8.27781L22.8719 8.23625ZM23.8906 23.1719C23.8906 23.6875 23.4688 24.1094 22.9531 24.1094L21.0469 24.1094C20.5312 24.1094 20.1094 24.5312 20.1094 25.0469L20.1094 25.2344C20.1094 25.75 20.5312 26.1719 21.0469 26.1719L25.0156 26.1719C25.5312 26.1719 25.9531 25.75 25.9531 25.2344L25.9531 25.0469L25.9531 21.2656C25.9531 20.75 25.5312 20.3281 25.0156 20.3281L24.8281 20.3281C24.3125 20.3281 23.8906 20.75 23.8906 21.2656L23.8906 23.1719Z" fill="rgb(56,56,56)" fill-rule="nonzero" />
</svg>
