<?xml version="1.0" encoding="UTF-8"?>
<svg id="_图标" data-name="图标" xmlns="http://www.w3.org/2000/svg" viewBox="0 0 32 32">
  <defs>
    <style>
      .cls-1 {
        fill: #57b8ff;
      }
    </style>
  </defs>
  <g>
    <g>
      <path class="cls-1" d="M2.62,25.71h-.12c-.26,0-.48.21-.48.48v3.34c0,.26.21.48.48.48h.12c.26,0,.48-.21.48-.48v-3.34c0-.26-.21-.48-.48-.48h0Z"/>
      <path class="cls-1" d="M5.81,28.93h-3.29c-.27,0-.5.22-.5.5v.08c0,.27.22.5.5.5h3.29c.27,0,.5-.22.5-.5v-.08c0-.27-.22-.5-.5-.5h0Z"/>
    </g>
    <g>
      <path class="cls-1" d="M2.59,2.09h-.12c-.26,0-.48.21-.48.48v3.34c0,.26.21.48.48.48h.12c.26,0,.48-.21.48-.48v-3.34c0-.26-.21-.48-.48-.48h0Z"/>
      <path class="cls-1" d="M5.78,2.09h-3.29c-.27,0-.5.22-.5.5v.08c0,.27.22.5.5.5h3.29c.27,0,.5-.22.5-.5v-.08c0-.27-.22-.5-.5-.5h0Z"/>
    </g>
    <g>
      <path class="cls-1" d="M29.41,2h-.12c-.26,0-.48.21-.48.48v3.34c0,.26.21.48.48.48h.12c.26,0,.48-.21.48-.48v-3.34c0-.26-.21-.48-.48-.48h0Z"/>
      <path class="cls-1" d="M29.39,2h-3.29c-.27,0-.5.22-.5.5v.08c0,.27.22.5.5.5h3.29c.27,0,.5-.22.5-.5v-.08c0-.27-.22-.5-.5-.5h0Z"/>
    </g>
    <g>
      <path class="cls-1" d="M29.52,25.68h-.12c-.26,0-.48.21-.48.48v3.34c0,.26.21.48.48.48h.12c.26,0,.48-.21.48-.48v-3.34c0-.26-.21-.48-.48-.48h0Z"/>
      <path class="cls-1" d="M29.5,28.91h-3.29c-.27,0-.5.22-.5.5v.08c0,.27.22.5.5.5h3.29c.27,0,.5-.22.5-.5v-.08c0-.27-.22-.5-.5-.5h0Z"/>
    </g>
  </g>
  <path class="cls-1" d="M26.5,25.57H5.86c-.58,0-1.05-.47-1.05-1.05V7.47c0-.58.47-1.05,1.05-1.05h20.64c.58,0,1.05.47,1.05,1.05v17.05c0,.58-.47,1.05-1.05,1.05ZM6.01,24.37h20.34V7.63H6.01v16.75Z"/>
  <rect class="cls-1" x="5.5" y="12.73" width="21" height="1.2"/>
  <circle class="cls-1" cx="8.59" cy="10.41" r="1.17"/>
  <circle class="cls-1" cx="12.49" cy="10.41" r="1.17"/>
  <circle class="cls-1" cx="16.4" cy="10.41" r="1.17"/>
</svg>