<?xml version="1.0" encoding="UTF-8"?>
<svg id="_图标" data-name="图标" xmlns="http://www.w3.org/2000/svg" viewBox="0 0 32 32">
  <defs>
    <style>
      .cls-1 {
        fill: #57b8ff;
      }
    </style>
  </defs>
  <g>
    <path class="cls-1" d="M30.35,2.67h-.16c-.3,0-.54.24-.54.54v13.84c0,.3.24.54.54.54h.16c.3,0,.54-.24.54-.54V3.22c0-.3-.24-.54-.54-.54h0Z"/>
    <path class="cls-1" d="M30.35,2.67h-13.84c-.3,0-.54.24-.54.54v.16c0,.3.24.54.54.54h13.84c.3,0,.54-.24.54-.54v-.16c0-.3-.24-.54-.54-.54h0Z"/>
  </g>
  <g>
    <path class="cls-1" d="M25.65,27.14H5.18c-.6,0-1.09-.49-1.09-1.09V9.15c0-.6.49-1.09,1.09-1.09h20.47c.6,0,1.09.49,1.09,1.09v16.9c0,.6-.49,1.09-1.09,1.09ZM5.29,25.94h20.25V9.26H5.29v16.68Z"/>
    <rect class="cls-1" x="4.32" y="14.23" width="21.82" height="1.2"/>
    <circle class="cls-1" cx="7.53" cy="11.79" r="1.21"/>
    <circle class="cls-1" cx="11.58" cy="11.79" r="1.21"/>
    <circle class="cls-1" cx="15.64" cy="11.79" r="1.21"/>
  </g>
</svg>