<svg viewBox="0 0 32 32" xmlns="http://www.w3.org/2000/svg" xmlns:xlink="http://www.w3.org/1999/xlink" width="32" height="32" fill="none">
	<rect id="2d_zoomAll" width="32" height="32" x="0" y="0" />
	<path id="矢量 19" d="M6 22L6 26L10 26L10 30L4 30C3.9345 30 3.86915 29.9968 3.80397 29.9904C3.73878 29.9839 3.67406 29.9743 3.60982 29.9616C3.54558 29.9488 3.48211 29.9329 3.41943 29.9139C3.35675 29.8949 3.29515 29.8728 3.23463 29.8478C3.17412 29.8227 3.11497 29.7947 3.05721 29.7638C2.99944 29.733 2.94332 29.6993 2.88886 29.6629C2.8344 29.6265 2.78185 29.5876 2.73121 29.546C2.68058 29.5045 2.6321 29.4605 2.58579 29.4142C2.53947 29.3679 2.49553 29.3194 2.45398 29.2688C2.41242 29.2182 2.37345 29.1656 2.33706 29.1111C2.30067 29.0567 2.26704 29.0006 2.23616 28.9428C2.20528 28.885 2.17731 28.8259 2.15224 28.7654C2.12717 28.7048 2.10513 28.6433 2.08612 28.5806C2.06711 28.5179 2.05121 28.4544 2.03843 28.3902C2.02565 28.3259 2.01605 28.2612 2.00963 28.196C2.00321 28.1308 2 28.0655 2 28L2 22L6 22L6 22ZM30 22L30 28C30 28.0655 29.9968 28.1308 29.9904 28.196C29.9839 28.2612 29.9743 28.3259 29.9616 28.3902C29.9488 28.4544 29.9329 28.5179 29.9139 28.5806C29.8949 28.6433 29.8728 28.7048 29.8478 28.7654C29.8227 28.8259 29.7947 28.885 29.7638 28.9428C29.733 29.0006 29.6993 29.0567 29.6629 29.1111C29.6265 29.1656 29.5876 29.2182 29.546 29.2688C29.5045 29.3194 29.4605 29.3679 29.4142 29.4142C29.3679 29.4605 29.3194 29.5045 29.2688 29.546C29.2182 29.5876 29.1656 29.6265 29.1111 29.6629C29.0567 29.6993 29.0006 29.733 28.9428 29.7638C28.885 29.7947 28.8259 29.8227 28.7654 29.8478C28.7048 29.8728 28.6433 29.8949 28.5806 29.9139C28.5179 29.9329 28.4544 29.9488 28.3902 29.9616C28.3259 29.9743 28.2612 29.9839 28.196 29.9904C28.1308 29.9968 28.0655 30 28 30L22 30L22 26L26 26L26 22L30 22L30 22ZM10 2L10 6L6 6L6 10L2 10L2 4C2 3.9345 2.00321 3.86915 2.00963 3.80397C2.01605 3.73878 2.02565 3.67406 2.03843 3.60982C2.05121 3.54558 2.0671 3.48211 2.08612 3.41943C2.10513 3.35675 2.12717 3.29515 2.15224 3.23463C2.17731 3.17412 2.20528 3.11497 2.23616 3.05721C2.26704 2.99944 2.30067 2.94332 2.33706 2.88886C2.37345 2.8344 2.41242 2.78185 2.45398 2.73121C2.49553 2.68058 2.53947 2.6321 2.58579 2.58579C2.6321 2.53947 2.68058 2.49553 2.73121 2.45398C2.78185 2.41242 2.8344 2.37345 2.88886 2.33706C2.94332 2.30067 2.99944 2.26704 3.05721 2.23616C3.11497 2.20528 3.17412 2.17731 3.23463 2.15224C3.29515 2.12717 3.35675 2.10513 3.41943 2.08612C3.48211 2.06711 3.54558 2.05121 3.60982 2.03843C3.67406 2.02565 3.73878 2.01605 3.80397 2.00963C3.86915 2.00321 3.9345 2 4 2L10 2ZM28 2C28.0655 2 28.1308 2.00321 28.196 2.00963C28.2612 2.01605 28.3259 2.02565 28.3902 2.03843C28.4544 2.05121 28.5179 2.06711 28.5806 2.08612C28.6433 2.10513 28.7048 2.12717 28.7654 2.15224C28.8259 2.17731 28.885 2.20528 28.9428 2.23616C29.0006 2.26704 29.0567 2.30067 29.1111 2.33706C29.1656 2.37345 29.2182 2.41242 29.2688 2.45398C29.3194 2.49553 29.3679 2.53947 29.4142 2.58579C29.4605 2.6321 29.5045 2.68058 29.546 2.73121C29.5876 2.78185 29.6265 2.8344 29.6629 2.88886C29.6993 2.94332 29.733 2.99944 29.7638 3.05721C29.7947 3.11497 29.8227 3.17412 29.8478 3.23463C29.8728 3.29515 29.8949 3.35675 29.9139 3.41943C29.9329 3.48211 29.9488 3.54558 29.9616 3.60982C29.9743 3.67406 29.9839 3.73878 29.9904 3.80397C29.9968 3.86915 30 3.9345 30 4L30 9.998L26 9.998L26 6L22 6L22 2L28 2Z" fill="rgb(56,56,56)" fill-rule="nonzero" />
	<path id="矢量 20" d="M9.14282 9.14282L22.8571 9.14282L22.8571 22.8571L9.14282 22.8571L9.14282 9.14282Z" fill="rgb(56,56,56)" fill-rule="nonzero" />
</svg>
