<svg viewBox="0 0 32 32" xmlns="http://www.w3.org/2000/svg" xmlns:xlink="http://www.w3.org/1999/xlink" width="32" height="32" fill="none">
	<rect id="2d_zoomWin" width="32" height="32" x="0" y="0" />
	<path id="矢量 21" d="M29.6281 27.8812L22.7937 21.0468C24.4187 19.0375 25.3937 16.4812 25.3937 13.7031C25.3937 7.24683 20.1437 1.99683 13.6875 1.99683C7.2312 1.99683 1.9812 7.24683 1.9812 13.7031C1.9812 20.1593 7.2312 25.4093 13.6875 25.4093C16.4687 25.4093 19.0218 24.4343 21.0312 22.8093L27.8656 29.6437C28.3531 30.1312 29.1406 30.1312 29.6281 29.6437C30.1156 29.1562 30.1156 28.3687 29.6281 27.8812L29.6281 27.8812ZM13.6875 22.9187C8.6062 22.9187 4.47183 18.7843 4.47183 13.7031C4.47183 8.62183 8.6062 4.48745 13.6875 4.48745C18.7687 4.48745 22.9031 8.62183 22.9031 13.7031C22.9031 18.7843 18.7687 22.9187 13.6875 22.9187Z" fill="rgb(56,56,56)" fill-rule="nonzero" />
	<path id="矢量 22" d="M11.8906 7.63123L8.91562 7.63123C8.29062 7.63123 7.78125 8.1406 7.78125 8.7656L7.78125 11.7406C7.78125 12.225 8.17188 12.6156 8.65625 12.6156C9.14062 12.6156 9.53125 12.225 9.53125 11.7406L9.53125 9.38123L11.8906 9.38123C12.375 9.38123 12.7656 8.9906 12.7656 8.50623C12.7656 8.02185 12.375 7.63123 11.8906 7.63123L11.8906 7.63123ZM11.8906 17.8062L9.53125 17.8062L9.53125 15.4469C9.53125 14.9625 9.14062 14.5719 8.65625 14.5719C8.17188 14.5719 7.78125 14.9625 7.78125 15.4469L7.78125 18.4219C7.78125 19.0469 8.29062 19.5562 8.91562 19.5562L11.8906 19.5562C12.375 19.5562 12.7656 19.1656 12.7656 18.6812C12.7656 18.1968 12.375 17.8062 11.8906 17.8062ZM18.8312 14.5719C18.3469 14.5719 17.9562 14.9625 17.9562 15.4469L17.9562 17.8062L15.5969 17.8062C15.1125 17.8062 14.7219 18.1968 14.7219 18.6812C14.7219 19.1656 15.1125 19.5562 15.5969 19.5562L18.5719 19.5562C19.1969 19.5562 19.7062 19.0469 19.7062 18.4219L19.7062 15.4469C19.7062 14.9656 19.3156 14.5719 18.8312 14.5719ZM18.5719 7.63123L15.5969 7.63123C15.1125 7.63123 14.7219 8.02185 14.7219 8.50623C14.7219 8.9906 15.1125 9.38123 15.5969 9.38123L17.9562 9.38123L17.9562 11.7406C17.9562 12.225 18.3469 12.6156 18.8312 12.6156C19.3156 12.6156 19.7062 12.225 19.7062 11.7406L19.7062 8.7656C19.7062 8.1406 19.2 7.63123 18.5719 7.63123L18.5719 7.63123Z" fill="rgb(56,56,56)" fill-rule="nonzero" />
</svg>
